999
dxfrw 0.6.3
  0
SECTION
  2
HEADER
  9
$ACADVER
  1
AC1021
  9
$DWGCODEPAGE
  3
ANSI_1252
  9
$INSBASE
 10
0
 20
0
 30
0
  9
$EXTMIN
 10
-0.4250000000000003
 20
-0.5499999999999994
 30
0
  9
$EXTMAX
 10
17.41388888888889
 20
5.53888888888889
 30
0
  9
$LIMMIN
 10
0
 20
0
  9
$LIMMAX
 10
420
 20
297
  9
$ORTHOMODE
 70
    0
  9
$REGENMODE
 70
    1
  9
$FILLMODE
 70
    1
  9
$QTEXTMODE
 70
    0
  9
$MIRRTEXT
 70
    0
  9
$LTSCALE
 40
1
  9
$ATTMODE
 70
    0
  9
$TEXTSIZE
 40
2.5
  9
$TRACEWID
 40
15.68
  9
$TEXTSTYLE
  7
STANDARD
  9
$CLAYER
  8
0
  9
$CELTYPE
  6
BYLAYER
  9
$CECOLOR
 62
  256
  9
$CELTSCALE
 40
1
  9
$DISPSILH
 70
    0
  9
$DIMSCALE
 40
1
  9
$DIMASZ
 40
0.1
  9
$DIMEXO
 40
0.025
  9
$DIMDLI
 40
3.75
  9
$DIMRND
 40
0
  9
$DIMDLE
 40
0
  9
$DIMEXE
 40
0.05
  9
$DIMTP
 40
0
  9
$DIMTM
 40
0
  9
$DIMTXT
 40
0.1
  9
$DIMCEN
 40
2.5
  9
$DIMTSZ
 40
0
  9
$DIMTOL
 70
    0
  9
$DIMLIM
 70
    0
  9
$DIMTIH
 70
    0
  9
$DIMTOH
 70
    0
  9
$DIMSE1
 70
    0
  9
$DIMSE2
 70
    0
  9
$DIMTAD
 70
    1
  9
$DIMZIN
 70
    1
  9
$DIMBLK
  1

  9
$DIMASO
 70
    1
  9
$DIMSHO
 70
    1
  9
$DIMPOST
  1

  9
$DIMAPOST
  1

  9
$DIMALT
 70
    0
  9
$DIMALTD
 70
    3
  9
$DIMALTF
 40
0.03937
  9
$DIMLFAC
 40
1
  9
$DIMTOFL
 70
    1
  9
$DIMTVP
 40
0
  9
$DIMTIX
 70
    0
  9
$DIMSOXD
 70
    0
  9
$DIMSAH
 70
    0
  9
$DIMBLK1
  1

  9
$DIMBLK2
  1

  9
$DIMSTYLE
  2
STANDARD
  9
$DIMCLRD
 70
    0
  9
$DIMCLRE
 70
    0
  9
$DIMCLRT
 70
    0
  9
$DIMTFAC
 40
1
  9
$DIMGAP
 40
0.025
  9
$DIMJUST
 70
    0
  9
$DIMSD1
 70
    0
  9
$DIMSD2
 70
    0
  9
$DIMTOLJ
 70
    0
  9
$DIMTZIN
 70
    8
  9
$DIMALTZ
 70
    0
  9
$DIMALTTZ
 70
    0
  9
$DIMUPT
 70
    0
  9
$DIMDEC
 70
    4
  9
$DIMTDEC
 70
    2
  9
$DIMALTU
 70
    2
  9
$DIMALTTD
 70
    3
  9
$DIMTXSTY
  7
STANDARD
  9
$DIMAUNIT
 70
    0
  9
$DIMADEC
 70
    2
  9
$DIMALTRND
 40
0
  9
$DIMAZIN
 70
    0
  9
$DIMDSEP
 70
    0
  9
$DIMATFIT
 70
    3
  9
$DIMFRAC
 70
    0
  9
$DIMLDRBLK
  1
STANDARD
  9
$DIMLUNIT
 70
    2
  9
$DIMLWD
 70
   -2
  9
$DIMLWE
 70
   -2
  9
$DIMTMOVE
 70
    0
  9
$DIMFXL
 40
0.0394
  9
$DIMFXLON
 70
    0
  9
$DIMJOGANG
 40
0.7854
  9
$DIMTFILL
 70
    0
  9
$DIMTFILLCLR
 70
    0
  9
$DIMARCSYM
 70
    0
  9
$DIMLTYPE
  6

  9
$DIMLTEX1
  6

  9
$DIMLTEX2
  6

  9
$LUNITS
 70
    2
  9
$LUPREC
 70
    4
  9
$SKETCHINC
 40
1
  9
$FILLETRAD
 40
0
  9
$AUNITS
 70
    0
  9
$AUPREC
 70
    2
  9
$MENU
  1
.
  9
$ELEVATION
 40
0
  9
$PELEVATION
 40
0
  9
$THICKNESS
 40
0
  9
$LIMCHECK
 70
    0
  9
$CHAMFERA
 40
0
  9
$CHAMFERB
 40
0
  9
$CHAMFERC
 40
0
  9
$CHAMFERD
 40
0
  9
$SKPOLY
 70
    0
  9
$USRTIMER
 70
    1
  9
$ANGBASE
 50
0
  9
$ANGDIR
 70
    0
  9
$PDMODE
 70
   34
  9
$PDSIZE
 40
0
  9
$PLINEWID
 40
0
  9
$SPLFRAME
 70
    0
  9
$SPLINETYPE
 70
    2
  9
$SPLINESEGS
 70
    8
  9
$HANDSEED
  5
20000
  9
$SURFTAB1
 70
    6
  9
$SURFTAB2
 70
    6
  9
$SURFTYPE
 70
    6
  9
$SURFU
 70
    6
  9
$SURFV
 70
    6
  9
$UCSBASE
  2

  9
$UCSNAME
  2

  9
$UCSORG
 10
0
 20
0
 30
0
  9
$UCSXDIR
 10
1
 20
0
 30
0
  9
$UCSYDIR
 10
0
 20
1
 30
0
  9
$UCSORTHOREF
  2

  9
$UCSORTHOVIEW
 70
    0
  9
$UCSORGTOP
 10
0
 20
0
 30
0
  9
$UCSORGBOTTOM
 10
0
 20
0
 30
0
  9
$UCSORGLEFT
 10
0
 20
0
 30
0
  9
$UCSORGRIGHT
 10
0
 20
0
 30
0
  9
$UCSORGFRONT
 10
0
 20
0
 30
0
  9
$UCSORGBACK
 10
0
 20
0
 30
0
  9
$PUCSBASE
  2

  9
$PUCSNAME
  2

  9
$PUCSORG
 10
0
 20
0
 30
0
  9
$PUCSXDIR
 10
1
 20
0
 30
0
  9
$PUCSYDIR
 10
0
 20
1
 30
0
  9
$PUCSORTHOREF
  2

  9
$PUCSORTHOVIEW
 70
    0
  9
$PUCSORGTOP
 10
0
 20
0
 30
0
  9
$PUCSORGBOTTOM
 10
0
 20
0
 30
0
  9
$PUCSORGLEFT
 10
0
 20
0
 30
0
  9
$PUCSORGRIGHT
 10
0
 20
0
 30
0
  9
$PUCSORGFRONT
 10
0
 20
0
 30
0
  9
$PUCSORGBACK
 10
0
 20
0
 30
0
  9
$USERI1
 70
    0
  9
$USERI2
 70
    0
  9
$USERI3
 70
    0
  9
$USERI4
 70
    0
  9
$USERI5
 70
    0
  9
$USERR1
 40
0
  9
$USERR2
 40
0
  9
$USERR3
 40
0
  9
$USERR4
 40
0
  9
$USERR5
 40
0
  9
$WORLDVIEW
 70
    1
  9
$SHADEDGE
 70
    3
  9
$SHADEDIF
 70
   70
  9
$TILEMODE
 70
    1
  9
$MAXACTVP
 70
   64
  9
$PINSBASE
 10
0
 20
0
 30
0
  9
$PLIMCHECK
 70
    0
  9
$PEXTMIN
 10
0
 20
0
 30
0
  9
$PEXTMAX
 10
0
 20
0
 30
0
  9
$GRIDMODE
 70
    1
  9
$SNAPSTYLE
 70
    0
  9
$GRIDUNIT
 10
0
 20
0
  9
$PLIMMIN
 10
0
 20
0
  9
$PLIMMAX
 10
11
 20
8.5
  9
$UNITMODE
 70
    0
  9
$VISRETAIN
 70
    1
  9
$PLINEGEN
 70
    0
  9
$PSLTSCALE
 70
    1
  9
$TREEDEPTH
 70
 3020
  9
$CMLSTYLE
  2
Standard
  9
$CMLJUST
 70
    0
  9
$CMLSCALE
 40
20
  9
$PROXYGRAPHICS
 70
    1
  9
$MEASUREMENT
 70
    0
  9
$CELWEIGHT
370
   -1
  9
$ENDCAPS
280
    0
  9
$JOINSTYLE
280
    0
  9
$LWDISPLAY
290
    0
  9
$INSUNITS
 70
    1
  9
$HYPERLINKBASE
  1

  9
$STYLESHEET
  1

  9
$XEDIT
290
    1
  9
$CEPSNTYPE
380
    0
  9
$PSTYLEMODE
290
    1
  9
$EXTNAMES
290
    1
  9
$PSVPSCALE
 40
1
  9
$OLESTARTUP
290
    0
  9
$SORTENTS
280
  127
  9
$INDEXCTL
280
    0
  9
$HIDETEXT
280
    1
  9
$XCLIPFRAME
290
    0
  9
$HALOGAP
280
    0
  9
$OBSCOLOR
 70
  257
  9
$OBSLTYPE
280
    0
  9
$INTERSECTIONDISPLAY
280
    0
  9
$INTERSECTIONCOLOR
 70
  257
  9
$DIMASSOC
280
    1
  9
$PROJECTNAME
  1

  9
$CAMERADISPLAY
290
    0
  9
$LENSLENGTH
 40
50
  9
$CAMERAHEIGHT
 40
0
  9
$STEPSPERSEC
 40
2
  9
$STEPSIZE
 40
50
  9
$3DDWFPREC
 40
2
  9
$PSOLWIDTH
 40
5
  9
$PSOLHEIGHT
 40
80
  9
$LOFTANG1
 40
1.570796326794897
  9
$LOFTANG2
 40
1.570796326794897
  9
$LOFTMAG1
 40
0
  9
$LOFTMAG2
 40
0
  9
$LOFTPARAM
 70
    7
  9
$LOFTNORMALS
280
    1
  9
$LATITUDE
 40
1
  9
$LONGITUDE
 40
1
  9
$NORTHDIRECTION
 40
0
  9
$TIMEZONE
 70
-8000
  9
$LIGHTGLYPHDISPLAY
280
    1
  9
$TILEMODELIGHTSYNCH
280
    1
  9
$SOLIDHIST
280
    1
  9
$SHOWHIST
280
    1
  9
$DWFFRAME
280
    2
  9
$DGNFRAME
280
    0
  9
$REALWORLDSCALE
290
    1
  9
$INTERFERECOLOR
 62
    1
  9
$CSHADOW
280
    0
  9
$SHADOWPLANELOCATION
 40
0
  0
ENDSEC
  0
SECTION
  2
CLASSES
  0
ENDSEC
  0
SECTION
  2
TABLES
  0
TABLE
  2
VPORT
  5
8
330
0
100
AcDbSymbolTable
 70
    1
  0
VPORT
  5
31
330
2
100
AcDbSymbolTableRecord
100
AcDbViewportTableRecord
  2
*ACTIVE
 70
    0
 10
0
 20
0
 11
1
 21
1
 12
10.23164419651405
 22
3.073583579306905
 13
0
 23
0
 14
10
 24
10
 15
10
 25
10
 16
0
 26
0
 36
1
 17
0
 27
0
 37
0
 40
12.38782735386053
 41
1.825471698113208
 42
50
 43
0
 44
0
 50
0
 51
0
 71
    0
 72
  100
 73
    1
 74
    3
 75
    0
 76
    1
 77
    0
 78
    0
281
    0
 65
    1
110
0
120
0
130
0
111
1
121
0
131
0
112
0
122
1
132
0
 79
    0
146
0
348
10020
 60
    7
 61
    5
292
1
282
    1
141
0
142
0
 63
  250
421
3358443
  0
ENDTAB
  0
TABLE
  2
LTYPE
  5
5
330
0
100
AcDbSymbolTable
 70
    4
  0
LTYPE
  5
14
330
5
100
AcDbSymbolTableRecord
100
AcDbLinetypeTableRecord
  2
ByBlock
 70
    0
  3

 72
   65
 73
    0
 40
0
  0
LTYPE
  5
15
330
5
100
AcDbSymbolTableRecord
100
AcDbLinetypeTableRecord
  2
ByLayer
 70
    0
  3

 72
   65
 73
    0
 40
0
  0
LTYPE
  5
16
330
5
100
AcDbSymbolTableRecord
100
AcDbLinetypeTableRecord
  2
Continuous
 70
    0
  3
Solid line
 72
   65
 73
    0
 40
0
  0
LTYPE
  5
32
330
5
100
AcDbSymbolTableRecord
100
AcDbLinetypeTableRecord
  2
DOT
 70
    0
  3
Dot . . . . . . . . . . . . . . . . . . . . . .
 72
   65
 73
    2
 40
6.35
 49
0
 74
    0
 49
-6.35
 74
    0
  0
LTYPE
  5
33
330
5
100
AcDbSymbolTableRecord
100
AcDbLinetypeTableRecord
  2
DOTTINY
 70
    0
  3
Dot (.15x) .....................................
 72
   65
 73
    2
 40
0.9525
 49
0
 74
    0
 49
-0.9525
 74
    0
  0
LTYPE
  5
34
330
5
100
AcDbSymbolTableRecord
100
AcDbLinetypeTableRecord
  2
DOT2
 70
    0
  3
Dot (.5x) .....................................
 72
   65
 73
    2
 40
3.175
 49
0
 74
    0
 49
-3.175
 74
    0
  0
LTYPE
  5
35
330
5
100
AcDbSymbolTableRecord
100
AcDbLinetypeTableRecord
  2
DOTX2
 70
    0
  3
Dot (2x) .  .  .  .  .  .  .  .  .  .  .  .  .
 72
   65
 73
    2
 40
12.7
 49
0
 74
    0
 49
-12.7
 74
    0
  0
LTYPE
  5
36
330
5
100
AcDbSymbolTableRecord
100
AcDbLinetypeTableRecord
  2
DASHED
 70
    0
  3
Dashed _ _ _ _ _ _ _ _ _ _ _ _ _ _ _ _ _
 72
   65
 73
    2
 40
19.05
 49
12.7
 74
    0
 49
-6.35
 74
    0
  0
LTYPE
  5
37
330
5
100
AcDbSymbolTableRecord
100
AcDbLinetypeTableRecord
  2
DASHEDTINY
 70
    0
  3
Dashed (.15x) _ _ _ _ _ _ _ _ _ _ _ _ _ _ _ _ _
 72
   65
 73
    2
 40
2.8575
 49
1.905
 74
    0
 49
-0.9525
 74
    0
  0
LTYPE
  5
38
330
5
100
AcDbSymbolTableRecord
100
AcDbLinetypeTableRecord
  2
DASHED2
 70
    0
  3
Dashed (.5x) _ _ _ _ _ _ _ _ _ _ _ _ _ _ _ _ _
 72
   65
 73
    2
 40
9.524999999999999
 49
6.35
 74
    0
 49
-3.175
 74
    0
  0
LTYPE
  5
39
330
5
100
AcDbSymbolTableRecord
100
AcDbLinetypeTableRecord
  2
DASHEDX2
 70
    0
  3
Dashed (2x) ____  ____  ____  ____  ____  ___
 72
   65
 73
    2
 40
38.09999999999999
 49
25.4
 74
    0
 49
-12.7
 74
    0
  0
LTYPE
  5
3A
330
5
100
AcDbSymbolTableRecord
100
AcDbLinetypeTableRecord
  2
DASHDOT
 70
    0
  3
Dash dot __ . __ . __ . __ . __ . __ . __ . __
 72
   65
 73
    4
 40
25.4
 49
12.7
 74
    0
 49
-6.35
 74
    0
 49
0
 74
    0
 49
-6.35
 74
    0
  0
LTYPE
  5
3B
330
5
100
AcDbSymbolTableRecord
100
AcDbLinetypeTableRecord
  2
DASHDOTTINY
 70
    0
  3
Dash dot (.15x) _._._._._._._._._._._._._._._.
 72
   65
 73
    4
 40
3.81
 49
1.905
 74
    0
 49
-0.9525
 74
    0
 49
0
 74
    0
 49
-0.9525
 74
    0
  0
LTYPE
  5
3C
330
5
100
AcDbSymbolTableRecord
100
AcDbLinetypeTableRecord
  2
DASHDOT2
 70
    0
  3
Dash dot (.5x) _._._._._._._._._._._._._._._.
 72
   65
 73
    4
 40
12.7
 49
6.35
 74
    0
 49
-3.175
 74
    0
 49
0
 74
    0
 49
-3.175
 74
    0
  0
LTYPE
  5
3D
330
5
100
AcDbSymbolTableRecord
100
AcDbLinetypeTableRecord
  2
DASHDOTX2
 70
    0
  3
Dash dot (2x) ____  .  ____  .  ____  .  ___
 72
   65
 73
    4
 40
50.8
 49
25.4
 74
    0
 49
-12.7
 74
    0
 49
0
 74
    0
 49
-12.7
 74
    0
  0
LTYPE
  5
3E
330
5
100
AcDbSymbolTableRecord
100
AcDbLinetypeTableRecord
  2
DIVIDE
 70
    0
  3
Divide ____ . . ____ . . ____ . . ____ . . ____
 72
   65
 73
    6
 40
31.75
 49
12.7
 74
    0
 49
-6.35
 74
    0
 49
0
 74
    0
 49
-6.35
 74
    0
 49
0
 74
    0
 49
-6.35
 74
    0
  0
LTYPE
  5
3F
330
5
100
AcDbSymbolTableRecord
100
AcDbLinetypeTableRecord
  2
DIVIDETINY
 70
    0
  3
Divide (.15x) __..__..__..__..__..__..__..__.._
 72
   65
 73
    6
 40
4.7625
 49
1.905
 74
    0
 49
-0.9525
 74
    0
 49
0
 74
    0
 49
-0.9525
 74
    0
 49
0
 74
    0
 49
-0.9525
 74
    0
  0
LTYPE
  5
40
330
5
100
AcDbSymbolTableRecord
100
AcDbLinetypeTableRecord
  2
DIVIDE2
 70
    0
  3
Divide (.5x) __..__..__..__..__..__..__..__.._
 72
   65
 73
    6
 40
15.875
 49
6.35
 74
    0
 49
-3.175
 74
    0
 49
0
 74
    0
 49
-3.175
 74
    0
 49
0
 74
    0
 49
-3.175
 74
    0
  0
LTYPE
  5
41
330
5
100
AcDbSymbolTableRecord
100
AcDbLinetypeTableRecord
  2
DIVIDEX2
 70
    0
  3
Divide (2x) ________  .  .  ________  .  .  _
 72
   65
 73
    6
 40
63.5
 49
25.4
 74
    0
 49
-12.7
 74
    0
 49
0
 74
    0
 49
-12.7
 74
    0
 49
0
 74
    0
 49
-12.7
 74
    0
  0
LTYPE
  5
42
330
5
100
AcDbSymbolTableRecord
100
AcDbLinetypeTableRecord
  2
BORDER
 70
    0
  3
Border __ __ . __ __ . __ __ . __ __ . __ __ .
 72
   65
 73
    6
 40
44.45
 49
12.7
 74
    0
 49
-6.35
 74
    0
 49
12.7
 74
    0
 49
-6.35
 74
    0
 49
0
 74
    0
 49
-6.35
 74
    0
  0
LTYPE
  5
43
330
5
100
AcDbSymbolTableRecord
100
AcDbLinetypeTableRecord
  2
BORDERTINY
 70
    0
  3
Border (.15x) __.__.__.__.__.__.__.__.__.__.__.
 72
   65
 73
    6
 40
6.6675
 49
1.905
 74
    0
 49
-0.9525
 74
    0
 49
1.905
 74
    0
 49
-0.9525
 74
    0
 49
0
 74
    0
 49
-0.9525
 74
    0
  0
LTYPE
  5
44
330
5
100
AcDbSymbolTableRecord
100
AcDbLinetypeTableRecord
  2
BORDER2
 70
    0
  3
Border (.5x) __.__.__.__.__.__.__.__.__.__.__.
 72
   65
 73
    6
 40
22.225
 49
6.35
 74
    0
 49
-3.175
 74
    0
 49
6.35
 74
    0
 49
-3.175
 74
    0
 49
0
 74
    0
 49
-3.175
 74
    0
  0
LTYPE
  5
45
330
5
100
AcDbSymbolTableRecord
100
AcDbLinetypeTableRecord
  2
BORDERX2
 70
    0
  3
Border (2x) ____  ____  .  ____  ____  .  ___
 72
   65
 73
    6
 40
88.89999999999999
 49
25.4
 74
    0
 49
-12.7
 74
    0
 49
25.4
 74
    0
 49
-12.7
 74
    0
 49
0
 74
    0
 49
-12.7
 74
    0
  0
LTYPE
  5
46
330
5
100
AcDbSymbolTableRecord
100
AcDbLinetypeTableRecord
  2
CENTER
 70
    0
  3
Center ____ _ ____ _ ____ _ ____ _ ____ _ ____
 72
   65
 73
    4
 40
50.8
 49
31.75
 74
    0
 49
-6.35
 74
    0
 49
6.35
 74
    0
 49
-6.35
 74
    0
  0
LTYPE
  5
47
330
5
100
AcDbSymbolTableRecord
100
AcDbLinetypeTableRecord
  2
CENTERTINY
 70
    0
  3
Center (.15x) ___ _ ___ _ ___ _ ___ _ ___ _ ___
 72
   65
 73
    4
 40
7.619999999999999
 49
4.7625
 74
    0
 49
-0.9525
 74
    0
 49
0.9525
 74
    0
 49
-0.9525
 74
    0
  0
LTYPE
  5
48
330
5
100
AcDbSymbolTableRecord
100
AcDbLinetypeTableRecord
  2
CENTER2
 70
    0
  3
Center (.5x) ___ _ ___ _ ___ _ ___ _ ___ _ ___
 72
   65
 73
    4
 40
28.575
 49
19.05
 74
    0
 49
-3.175
 74
    0
 49
3.175
 74
    0
 49
-3.175
 74
    0
  0
LTYPE
  5
49
330
5
100
AcDbSymbolTableRecord
100
AcDbLinetypeTableRecord
  2
CENTERX2
 70
    0
  3
Center (2x) ________  __  ________  __  _____
 72
   65
 73
    4
 40
101.6
 49
63.5
 74
    0
 49
-12.7
 74
    0
 49
12.7
 74
    0
 49
-12.7
 74
    0
  0
ENDTAB
  0
TABLE
  2
LAYER
  5
2
330
0
100
AcDbSymbolTable
 70
    1
  0
LAYER
  5
10
330
2
100
AcDbSymbolTableRecord
100
AcDbLayerTableRecord
  2
0
 70
    0
 62
    7
  6
CONTINUOUS
370
    0
390
F
  0
ENDTAB
  0
TABLE
  2
STYLE
  5
3
330
0
100
AcDbSymbolTable
 70
    3
  0
STYLE
  5
4A
330
2
100
AcDbSymbolTableRecord
100
AcDbTextStyleTableRecord
  2
iso
 70
    0
 40
0
 41
1
 50
0
 71
    0
 42
1
  3
iso
  4

  0
STYLE
  5
4B
330
2
100
AcDbSymbolTableRecord
100
AcDbTextStyleTableRecord
  2
Standard
 70
    0
 40
0
 41
1
 50
0
 71
    0
 42
1
  3
txt
  4

  0
ENDTAB
  0
TABLE
  2
VIEW
  5
6
330
0
100
AcDbSymbolTable
 70
    0
  0
ENDTAB
  0
TABLE
  2
UCS
  5
7
330
0
100
AcDbSymbolTable
 70
    0
  0
ENDTAB
  0
TABLE
  2
APPID
  5
9
330
0
100
AcDbSymbolTable
 70
    1
  0
APPID
  5
12
330
9
100
AcDbSymbolTableRecord
100
AcDbRegAppTableRecord
  2
ACAD
 70
    0
  0
APPID
  5
4C
330
9
100
AcDbSymbolTableRecord
100
AcDbRegAppTableRecord
  2
LibreCad
 70
    0
  0
ENDTAB
  0
TABLE
  2
DIMSTYLE
  5
A
330
0
100
AcDbSymbolTable
 70
    1
100
AcDbDimStyleTable
 71
    1
  0
DIMSTYLE
105
4D
330
A
100
AcDbSymbolTableRecord
100
AcDbDimStyleTableRecord
  2
Standard
 70
    0
 40
1
 41
0.1
 42
0.025
 43
0.38
 44
0.05
 45
0
 46
0
 47
0
 48
0
 49
0.0394
140
0.1
141
0.09
142
0
143
25.4
144
1
145
0
146
1
147
0.025
148
0
 71
    0
 72
    0
 73
    0
 74
    1
 75
    0
 76
    0
 77
    0
 78
    1
 79
    0
170
    0
171
    2
172
    0
173
    0
174
    0
175
    0
176
    0
177
    0
178
    0
179
    2
271
    4
272
    4
273
    2
274
    2
275
    0
276
    0
277
    2
278
    0
279
    0
280
    0
281
    0
282
    0
283
    1
284
    0
285
    0
286
    0
288
    0
289
    3
340
STANDARD
341

371
   -2
372
   -2
  0
ENDTAB
  0
TABLE
  2
BLOCK_RECORD
  5
1
330
0
100
AcDbSymbolTable
 70
    2
  0
BLOCK_RECORD
  5
1F
330
1
100
AcDbSymbolTableRecord
100
AcDbBlockTableRecord
  2
*Model_Space
 70
    0
280
    1
281
    0
  0
BLOCK_RECORD
  5
1E
330
1
100
AcDbSymbolTableRecord
100
AcDbBlockTableRecord
  2
*Paper_Space
 70
    0
280
    1
281
    0
  0
BLOCK_RECORD
  5
4E
330
1
100
AcDbSymbolTableRecord
100
AcDbBlockTableRecord
  2
*D59
 70
    0
280
    1
281
    0
  0
BLOCK_RECORD
  5
51
330
1
100
AcDbSymbolTableRecord
100
AcDbBlockTableRecord
  2
*D51
 70
    0
280
    1
281
    0
  0
BLOCK_RECORD
  5
54
330
1
100
AcDbSymbolTableRecord
100
AcDbBlockTableRecord
  2
*D45
 70
    0
280
    1
281
    0
  0
BLOCK_RECORD
  5
57
330
1
100
AcDbSymbolTableRecord
100
AcDbBlockTableRecord
  2
*D3
 70
    0
280
    1
281
    0
  0
BLOCK_RECORD
  5
5A
330
1
100
AcDbSymbolTableRecord
100
AcDbBlockTableRecord
  2
*D5
 70
    0
280
    1
281
    0
  0
BLOCK_RECORD
  5
5D
330
1
100
AcDbSymbolTableRecord
100
AcDbBlockTableRecord
  2
*D48
 70
    0
280
    1
281
    0
  0
BLOCK_RECORD
  5
60
330
1
100
AcDbSymbolTableRecord
100
AcDbBlockTableRecord
  2
*D57
 70
    0
280
    1
281
    0
  0
BLOCK_RECORD
  5
63
330
1
100
AcDbSymbolTableRecord
100
AcDbBlockTableRecord
  2
*D54
 70
    0
280
    1
281
    0
  0
BLOCK_RECORD
  5
66
330
1
100
AcDbSymbolTableRecord
100
AcDbBlockTableRecord
  2
*D52
 70
    0
280
    1
281
    0
  0
BLOCK_RECORD
  5
69
330
1
100
AcDbSymbolTableRecord
100
AcDbBlockTableRecord
  2
*D36
 70
    0
280
    1
281
    0
  0
BLOCK_RECORD
  5
6C
330
1
100
AcDbSymbolTableRecord
100
AcDbBlockTableRecord
  2
*D14
 70
    0
280
    1
281
    0
  0
BLOCK_RECORD
  5
6F
330
1
100
AcDbSymbolTableRecord
100
AcDbBlockTableRecord
  2
*D33
 70
    0
280
    1
281
    0
  0
BLOCK_RECORD
  5
72
330
1
100
AcDbSymbolTableRecord
100
AcDbBlockTableRecord
  2
*D40
 70
    0
280
    1
281
    0
  0
BLOCK_RECORD
  5
75
330
1
100
AcDbSymbolTableRecord
100
AcDbBlockTableRecord
  2
*D37
 70
    0
280
    1
281
    0
  0
BLOCK_RECORD
  5
78
330
1
100
AcDbSymbolTableRecord
100
AcDbBlockTableRecord
  2
*D6
 70
    0
280
    1
281
    0
  0
BLOCK_RECORD
  5
7B
330
1
100
AcDbSymbolTableRecord
100
AcDbBlockTableRecord
  2
*D62
 70
    0
280
    1
281
    0
  0
BLOCK_RECORD
  5
7E
330
1
100
AcDbSymbolTableRecord
100
AcDbBlockTableRecord
  2
*D53
 70
    0
280
    1
281
    0
  0
BLOCK_RECORD
  5
81
330
1
100
AcDbSymbolTableRecord
100
AcDbBlockTableRecord
  2
*D7
 70
    0
280
    1
281
    0
  0
BLOCK_RECORD
  5
84
330
1
100
AcDbSymbolTableRecord
100
AcDbBlockTableRecord
  2
*D67
 70
    0
280
    1
281
    0
  0
BLOCK_RECORD
  5
87
330
1
100
AcDbSymbolTableRecord
100
AcDbBlockTableRecord
  2
*D25
 70
    0
280
    1
281
    0
  0
BLOCK_RECORD
  5
8A
330
1
100
AcDbSymbolTableRecord
100
AcDbBlockTableRecord
  2
*D19
 70
    0
280
    1
281
    0
  0
BLOCK_RECORD
  5
8D
330
1
100
AcDbSymbolTableRecord
100
AcDbBlockTableRecord
  2
*D42
 70
    0
280
    1
281
    0
  0
BLOCK_RECORD
  5
90
330
1
100
AcDbSymbolTableRecord
100
AcDbBlockTableRecord
  2
*D61
 70
    0
280
    1
281
    0
  0
BLOCK_RECORD
  5
93
330
1
100
AcDbSymbolTableRecord
100
AcDbBlockTableRecord
  2
*D31
 70
    0
280
    1
281
    0
  0
BLOCK_RECORD
  5
96
330
1
100
AcDbSymbolTableRecord
100
AcDbBlockTableRecord
  2
*D56
 70
    0
280
    1
281
    0
  0
BLOCK_RECORD
  5
99
330
1
100
AcDbSymbolTableRecord
100
AcDbBlockTableRecord
  2
*D39
 70
    0
280
    1
281
    0
  0
BLOCK_RECORD
  5
9C
330
1
100
AcDbSymbolTableRecord
100
AcDbBlockTableRecord
  2
*D8
 70
    0
280
    1
281
    0
  0
BLOCK_RECORD
  5
9F
330
1
100
AcDbSymbolTableRecord
100
AcDbBlockTableRecord
  2
*D9
 70
    0
280
    1
281
    0
  0
BLOCK_RECORD
  5
A2
330
1
100
AcDbSymbolTableRecord
100
AcDbBlockTableRecord
  2
*D38
 70
    0
280
    1
281
    0
  0
BLOCK_RECORD
  5
A5
330
1
100
AcDbSymbolTableRecord
100
AcDbBlockTableRecord
  2
*D34
 70
    0
280
    1
281
    0
  0
BLOCK_RECORD
  5
A8
330
1
100
AcDbSymbolTableRecord
100
AcDbBlockTableRecord
  2
*D26
 70
    0
280
    1
281
    0
  0
BLOCK_RECORD
  5
AB
330
1
100
AcDbSymbolTableRecord
100
AcDbBlockTableRecord
  2
*D44
 70
    0
280
    1
281
    0
  0
BLOCK_RECORD
  5
AE
330
1
100
AcDbSymbolTableRecord
100
AcDbBlockTableRecord
  2
*D58
 70
    0
280
    1
281
    0
  0
BLOCK_RECORD
  5
B1
330
1
100
AcDbSymbolTableRecord
100
AcDbBlockTableRecord
  2
*D28
 70
    0
280
    1
281
    0
  0
BLOCK_RECORD
  5
B4
330
1
100
AcDbSymbolTableRecord
100
AcDbBlockTableRecord
  2
*D49
 70
    0
280
    1
281
    0
  0
BLOCK_RECORD
  5
B7
330
1
100
AcDbSymbolTableRecord
100
AcDbBlockTableRecord
  2
*D12
 70
    0
280
    1
281
    0
  0
BLOCK_RECORD
  5
BA
330
1
100
AcDbSymbolTableRecord
100
AcDbBlockTableRecord
  2
*D60
 70
    0
280
    1
281
    0
  0
BLOCK_RECORD
  5
BD
330
1
100
AcDbSymbolTableRecord
100
AcDbBlockTableRecord
  2
*D2
 70
    0
280
    1
281
    0
  0
BLOCK_RECORD
  5
C0
330
1
100
AcDbSymbolTableRecord
100
AcDbBlockTableRecord
  2
*D41
 70
    0
280
    1
281
    0
  0
BLOCK_RECORD
  5
C3
330
1
100
AcDbSymbolTableRecord
100
AcDbBlockTableRecord
  2
*D21
 70
    0
280
    1
281
    0
  0
BLOCK_RECORD
  5
C6
330
1
100
AcDbSymbolTableRecord
100
AcDbBlockTableRecord
  2
*D43
 70
    0
280
    1
281
    0
  0
BLOCK_RECORD
  5
C9
330
1
100
AcDbSymbolTableRecord
100
AcDbBlockTableRecord
  2
*D1
 70
    0
280
    1
281
    0
  0
BLOCK_RECORD
  5
CC
330
1
100
AcDbSymbolTableRecord
100
AcDbBlockTableRecord
  2
*D20
 70
    0
280
    1
281
    0
  0
BLOCK_RECORD
  5
CF
330
1
100
AcDbSymbolTableRecord
100
AcDbBlockTableRecord
  2
*D35
 70
    0
280
    1
281
    0
  0
BLOCK_RECORD
  5
D2
330
1
100
AcDbSymbolTableRecord
100
AcDbBlockTableRecord
  2
*D47
 70
    0
280
    1
281
    0
  0
BLOCK_RECORD
  5
D5
330
1
100
AcDbSymbolTableRecord
100
AcDbBlockTableRecord
  2
*D64
 70
    0
280
    1
281
    0
  0
BLOCK_RECORD
  5
D8
330
1
100
AcDbSymbolTableRecord
100
AcDbBlockTableRecord
  2
*D22
 70
    0
280
    1
281
    0
  0
BLOCK_RECORD
  5
DB
330
1
100
AcDbSymbolTableRecord
100
AcDbBlockTableRecord
  2
*D24
 70
    0
280
    1
281
    0
  0
BLOCK_RECORD
  5
DE
330
1
100
AcDbSymbolTableRecord
100
AcDbBlockTableRecord
  2
*D4
 70
    0
280
    1
281
    0
  0
BLOCK_RECORD
  5
E1
330
1
100
AcDbSymbolTableRecord
100
AcDbBlockTableRecord
  2
*D10
 70
    0
280
    1
281
    0
  0
BLOCK_RECORD
  5
E4
330
1
100
AcDbSymbolTableRecord
100
AcDbBlockTableRecord
  2
*D23
 70
    0
280
    1
281
    0
  0
BLOCK_RECORD
  5
E7
330
1
100
AcDbSymbolTableRecord
100
AcDbBlockTableRecord
  2
*D63
 70
    0
280
    1
281
    0
  0
BLOCK_RECORD
  5
EA
330
1
100
AcDbSymbolTableRecord
100
AcDbBlockTableRecord
  2
*D16
 70
    0
280
    1
281
    0
  0
BLOCK_RECORD
  5
ED
330
1
100
AcDbSymbolTableRecord
100
AcDbBlockTableRecord
  2
*D70
 70
    0
280
    1
281
    0
  0
BLOCK_RECORD
  5
F0
330
1
100
AcDbSymbolTableRecord
100
AcDbBlockTableRecord
  2
*D15
 70
    0
280
    1
281
    0
  0
BLOCK_RECORD
  5
F3
330
1
100
AcDbSymbolTableRecord
100
AcDbBlockTableRecord
  2
*D17
 70
    0
280
    1
281
    0
  0
BLOCK_RECORD
  5
F6
330
1
100
AcDbSymbolTableRecord
100
AcDbBlockTableRecord
  2
*D18
 70
    0
280
    1
281
    0
  0
BLOCK_RECORD
  5
F9
330
1
100
AcDbSymbolTableRecord
100
AcDbBlockTableRecord
  2
*D66
 70
    0
280
    1
281
    0
  0
BLOCK_RECORD
  5
FC
330
1
100
AcDbSymbolTableRecord
100
AcDbBlockTableRecord
  2
*D32
 70
    0
280
    1
281
    0
  0
BLOCK_RECORD
  5
FF
330
1
100
AcDbSymbolTableRecord
100
AcDbBlockTableRecord
  2
*D65
 70
    0
280
    1
281
    0
  0
BLOCK_RECORD
  5
102
330
1
100
AcDbSymbolTableRecord
100
AcDbBlockTableRecord
  2
*D68
 70
    0
280
    1
281
    0
  0
BLOCK_RECORD
  5
105
330
1
100
AcDbSymbolTableRecord
100
AcDbBlockTableRecord
  2
*D27
 70
    0
280
    1
281
    0
  0
BLOCK_RECORD
  5
108
330
1
100
AcDbSymbolTableRecord
100
AcDbBlockTableRecord
  2
*D29
 70
    0
280
    1
281
    0
  0
BLOCK_RECORD
  5
10B
330
1
100
AcDbSymbolTableRecord
100
AcDbBlockTableRecord
  2
*D50
 70
    0
280
    1
281
    0
  0
BLOCK_RECORD
  5
10E
330
1
100
AcDbSymbolTableRecord
100
AcDbBlockTableRecord
  2
*D30
 70
    0
280
    1
281
    0
  0
BLOCK_RECORD
  5
111
330
1
100
AcDbSymbolTableRecord
100
AcDbBlockTableRecord
  2
*D55
 70
    0
280
    1
281
    0
  0
BLOCK_RECORD
  5
114
330
1
100
AcDbSymbolTableRecord
100
AcDbBlockTableRecord
  2
*D13
 70
    0
280
    1
281
    0
  0
BLOCK_RECORD
  5
117
330
1
100
AcDbSymbolTableRecord
100
AcDbBlockTableRecord
  2
*D46
 70
    0
280
    1
281
    0
  0
BLOCK_RECORD
  5
11A
330
1
100
AcDbSymbolTableRecord
100
AcDbBlockTableRecord
  2
*D69
 70
    0
280
    1
281
    0
  0
BLOCK_RECORD
  5
11D
330
1
100
AcDbSymbolTableRecord
100
AcDbBlockTableRecord
  2
*D11
 70
    0
280
    1
281
    0
  0
ENDTAB
  0
ENDSEC
  0
SECTION
  2
BLOCKS
  0
BLOCK
  5
20
330
1F
100
AcDbEntity
  8
0
100
AcDbBlockBegin
  2
*Model_Space
 70
    0
 10
0
 20
0
 30
0
  3
*Model_Space
  1

  0
ENDBLK
  5
21
330
1F
100
AcDbEntity
  8
0
100
AcDbBlockEnd
  0
BLOCK
  5
1C
330
1B
100
AcDbEntity
  8
0
100
AcDbBlockBegin
  2
*Paper_Space
 70
    0
 10
0
 20
0
 30
0
  3
*Paper_Space
  1

  0
ENDBLK
  5
1D
330
1F
100
AcDbEntity
  8
0
100
AcDbBlockEnd
  0
BLOCK
  5
4F
330
4E
100
AcDbEntity
  8
0
100
AcDbBlockBegin
  2
*D59
 70
    1
 10
0
 20
0
  3
*D59
  1

  0
LINE
  5
120
100
AcDbEntity
  8
0
  6
ByBlock
 62
    0
370
   -2
100
AcDbLine
 10
0.7000000000000001
 20
3.700000000000001
 11
0.7
 21
1.25
  0
MTEXT
  5
121
100
AcDbEntity
  8
0
  6
CONTINUOUS
 62
    0
370
   -2
100
AcDbMText
 10
0.625
 20
2.475000000000001
 30
0
 40
0.1
 41
0.4000000000000061
 71
    5
 72
    1
  1
2.4500
  7
STANDARD
210
0
220
0
230
1
 50
90
 73
    2
 44
1
  0
SOLID
  5
122
100
AcDbEntity
  8
0
  6
ByBlock
 62
    0
370
   -2
100
AcDbTrace
 10
0.7000000000000001
 20
3.700000000000001
 30
0
 11
0.7166513863109136
 21
3.600000000000001
 31
0
 12
0.6833486136890864
 22
3.600000000000001
 32
0
 13
0.6833486136890864
 23
3.600000000000001
 33
0
  0
SOLID
  5
123
100
AcDbEntity
  8
0
  6
ByBlock
 62
    0
370
   -2
100
AcDbTrace
 10
0.7
 20
1.25
 30
0
 11
0.6833486136890864
 21
1.35
 31
0
 12
0.7166513863109136
 22
1.35
 32
0
 13
0.7166513863109136
 23
1.35
 33
0
  0
LINE
  5
124
100
AcDbEntity
  8
0
  6
ByBlock
 62
    0
370
   -2
100
AcDbLine
 10
0.775
 20
3.700000000000001
 11
0.65
 21
3.700000000000001
  0
LINE
  5
125
100
AcDbEntity
  8
0
  6
ByBlock
 62
    0
370
   -2
100
AcDbLine
 10
0.775
 20
1.25
 11
0.6499999999999999
 21
1.25
  0
ENDBLK
  5
50
330
4E
100
AcDbEntity
  8
0
100
AcDbBlockEnd
  0
BLOCK
  5
52
330
51
100
AcDbEntity
  8
0
100
AcDbBlockBegin
  2
*D51
 70
    1
 10
0
 20
0
  3
*D51
  1

  0
LINE
  5
126
100
AcDbEntity
  8
0
  6
ByBlock
 62
    0
370
   -2
100
AcDbLine
 10
0.7000000000000006
 20
4
 11
3.8
 21
4
  0
MTEXT
  5
127
100
AcDbEntity
  8
0
  6
CONTINUOUS
 62
    0
370
   -2
100
AcDbMText
 10
2.25
 20
4.075
 30
0
 40
0.1
 41
0.3666666666666729
 71
    5
 72
    1
  1
3.1000
  7
STANDARD
210
0
220
0
230
1
 50
0
 73
    2
 44
1
  0
SOLID
  5
128
100
AcDbEntity
  8
0
  6
ByBlock
 62
    0
370
   -2
100
AcDbTrace
 10
0.7000000000000006
 20
4
 30
0
 11
0.8000000000000006
 21
4.016651386310913
 31
0
 12
0.8000000000000006
 22
3.983348613689087
 32
0
 13
0.8000000000000006
 23
3.983348613689087
 33
0
  0
SOLID
  5
129
100
AcDbEntity
  8
0
  6
ByBlock
 62
    0
370
   -2
100
AcDbTrace
 10
3.8
 20
4
 30
0
 11
3.7
 21
3.983348613689087
 31
0
 12
3.7
 22
4.016651386310913
 32
0
 13
3.7
 23
4.016651386310913
 33
0
  0
LINE
  5
12A
100
AcDbEntity
  8
0
  6
ByBlock
 62
    0
370
   -2
100
AcDbLine
 10
0.7000000000000001
 20
3.825
 11
0.7000000000000008
 21
4.05
  0
LINE
  5
12B
100
AcDbEntity
  8
0
  6
ByBlock
 62
    0
370
   -2
100
AcDbLine
 10
3.8
 20
3.825
 11
3.8
 21
4.05
  0
ENDBLK
  5
53
330
51
100
AcDbEntity
  8
0
100
AcDbBlockEnd
  0
BLOCK
  5
55
330
54
100
AcDbEntity
  8
0
100
AcDbBlockBegin
  2
*D45
 70
    1
 10
0
 20
0
  3
*D45
  1

  0
LINE
  5
12C
100
AcDbEntity
  8
0
  6
ByBlock
 62
    0
370
   -2
100
AcDbLine
 10
6.4
 20
0.4000000000000001
 11
7.4
 21
0.4000000000000001
  0
MTEXT
  5
12D
100
AcDbEntity
  8
0
  6
CONTINUOUS
 62
    0
370
   -2
100
AcDbMText
 10
6.9
 20
0.4750000000000001
 30
0
 40
0.1
 41
0.3666666666666667
 71
    5
 72
    1
  1
1.0000
  7
STANDARD
210
0
220
0
230
1
 50
0
 73
    2
 44
1
  0
SOLID
  5
12E
100
AcDbEntity
  8
0
  6
ByBlock
 62
    0
370
   -2
100
AcDbTrace
 10
6.4
 20
0.4000000000000001
 30
0
 11
6.5
 21
0.4166513863109137
 31
0
 12
6.5
 22
0.3833486136890865
 32
0
 13
6.5
 23
0.3833486136890865
 33
0
  0
SOLID
  5
12F
100
AcDbEntity
  8
0
  6
ByBlock
 62
    0
370
   -2
100
AcDbTrace
 10
7.4
 20
0.4000000000000001
 30
0
 11
7.300000000000001
 21
0.3833486136890865
 31
0
 12
7.300000000000001
 22
0.4166513863109137
 32
0
 13
7.300000000000001
 23
0.4166513863109137
 33
0
  0
LINE
  5
130
100
AcDbEntity
  8
0
  6
ByBlock
 62
    0
370
   -2
100
AcDbLine
 10
6.4
 20
0.5750000000000001
 11
6.4
 21
0.3500000000000001
  0
LINE
  5
131
100
AcDbEntity
  8
0
  6
ByBlock
 62
    0
370
   -2
100
AcDbLine
 10
7.4
 20
0.5750000000000001
 11
7.4
 21
0.3500000000000001
  0
ENDBLK
  5
56
330
54
100
AcDbEntity
  8
0
100
AcDbBlockEnd
  0
BLOCK
  5
58
330
57
100
AcDbEntity
  8
0
100
AcDbBlockBegin
  2
*D3
 70
    1
 10
0
 20
0
  3
*D3
  1

  0
LINE
  5
132
100
AcDbEntity
  8
0
  6
ByBlock
 62
    0
370
   -2
100
AcDbLine
 10
-0.2999999999999999
 20
4.702999999999999
 11
-0.3000000000000002
 21
-3.719247132494274e-17
  0
MTEXT
  5
133
100
AcDbEntity
  8
0
  6
CONTINUOUS
 62
    0
370
   -2
100
AcDbMText
 10
-0.3750000000000001
 20
2.3515
 30
0
 40
0.1
 41
0.4000000000000061
 71
    5
 72
    1
  1
4.7030
  7
STANDARD
210
0
220
0
230
1
 50
90
 73
    2
 44
1
  0
SOLID
  5
134
100
AcDbEntity
  8
0
  6
ByBlock
 62
    0
370
   -2
100
AcDbTrace
 10
-0.2999999999999999
 20
4.702999999999999
 30
0
 11
-0.2833486136890863
 21
4.603
 31
0
 12
-0.3166513863109136
 22
4.603
 32
0
 13
-0.3166513863109136
 23
4.603
 33
0
  0
SOLID
  5
135
100
AcDbEntity
  8
0
  6
ByBlock
 62
    0
370
   -2
100
AcDbTrace
 10
-0.3000000000000002
 20
-3.719247132494274e-17
 30
0
 11
-0.3166513863109138
 21
0.09999999999999996
 31
0
 12
-0.2833486136890866
 22
0.09999999999999996
 32
0
 13
-0.2833486136890866
 23
0.09999999999999996
 33
0
  0
LINE
  5
136
100
AcDbEntity
  8
0
  6
ByBlock
 62
    0
370
   -2
100
AcDbLine
 10
-0.025
 20
4.702999999999999
 11
-0.3499999999999999
 21
4.702999999999999
  0
LINE
  5
137
100
AcDbEntity
  8
0
  6
ByBlock
 62
    0
370
   -2
100
AcDbLine
 10
-0.02500000000000017
 20
-5.244953423338944e-17
 11
-0.3500000000000002
 21
-3.106923732920598e-17
  0
ENDBLK
  5
59
330
57
100
AcDbEntity
  8
0
100
AcDbBlockEnd
  0
BLOCK
  5
5B
330
5A
100
AcDbEntity
  8
0
100
AcDbBlockBegin
  2
*D5
 70
    1
 10
0
 20
0
  3
*D5
  1

  0
LINE
  5
138
100
AcDbEntity
  8
0
  6
ByBlock
 62
    0
370
   -2
100
AcDbLine
 10
10
 20
-0.4999999999999994
 11
17
 21
-0.4999999999999994
  0
MTEXT
  5
139
100
AcDbEntity
  8
0
  6
CONTINUOUS
 62
    0
370
   -2
100
AcDbMText
 10
13.5
 20
-0.4249999999999994
 30
0
 40
0.1
 41
0.3888888888888888
 71
    5
 72
    1
  1
7.0000
  7
STANDARD
210
0
220
0
230
1
 50
0
 73
    2
 44
1
  0
SOLID
  5
13A
100
AcDbEntity
  8
0
  6
ByBlock
 62
    0
370
   -2
100
AcDbTrace
 10
10
 20
-0.4999999999999994
 30
0
 11
10.1
 21
-0.4833486136890858
 31
0
 12
10.1
 22
-0.516651386310913
 32
0
 13
10.1
 23
-0.516651386310913
 33
0
  0
SOLID
  5
13B
100
AcDbEntity
  8
0
  6
ByBlock
 62
    0
370
   -2
100
AcDbTrace
 10
17
 20
-0.4999999999999994
 30
0
 11
16.9
 21
-0.516651386310913
 31
0
 12
16.9
 22
-0.4833486136890858
 32
0
 13
16.9
 23
-0.4833486136890858
 33
0
  0
LINE
  5
13C
100
AcDbEntity
  8
0
  6
ByBlock
 62
    0
370
   -2
100
AcDbLine
 10
10
 20
-0.025
 11
10
 21
-0.5499999999999994
  0
LINE
  5
13D
100
AcDbEntity
  8
0
  6
ByBlock
 62
    0
370
   -2
100
AcDbLine
 10
17
 20
-0.02500000000000001
 11
17
 21
-0.5499999999999994
  0
ENDBLK
  5
5C
330
5A
100
AcDbEntity
  8
0
100
AcDbBlockEnd
  0
BLOCK
  5
5E
330
5D
100
AcDbEntity
  8
0
100
AcDbBlockBegin
  2
*D48
 70
    1
 10
0
 20
0
  3
*D48
  1

  0
LINE
  5
13E
100
AcDbEntity
  8
0
  6
ByBlock
 62
    0
370
   -2
100
AcDbLine
 10
4.575336792181862
 20
0.4876683960909304
 11
5.024663207818138
 21
0.7123316039090696
  0
MTEXT
  5
13F
100
AcDbEntity
  8
0
  6
CONTINUOUS
 62
    0
370
   -2
100
AcDbMText
 10
5.00354478803064
 20
0.7856249431715627
 30
0
 40
0.1
 41
0.3777777777777778
 71
    5
 72
    1
  1
0.1024
  7
STANDARD
210
0
220
0
230
1
 50
26.5650511770781
 73
    2
 44
1
  0
SOLID
  5
140
100
AcDbEntity
  8
0
  6
ByBlock
 62
    0
370
   -2
100
AcDbTrace
 10
4.754222230381845
 20
0.5771111151909223
 30
0
 11
4.672226237624016
 21
0.5174963029566014
 31
0
 12
4.65733278493969
 22
0.5472832083252512
 32
0
 13
4.65733278493969
 23
0.5472832083252512
 33
0
  0
SOLID
  5
141
100
AcDbEntity
  8
0
  6
ByBlock
 62
    0
370
   -2
100
AcDbTrace
 10
4.845777769618155
 20
0.6228888848090777
 30
0
 11
4.927773762375984
 21
0.6825036970433985
 31
0
 12
4.942667215060309
 22
0.6527167916747487
 32
0
 13
4.942667215060309
 23
0.6527167916747487
 33
0
  0
ENDBLK
  5
5F
330
5D
100
AcDbEntity
  8
0
100
AcDbBlockEnd
  0
BLOCK
  5
61
330
60
100
AcDbEntity
  8
0
100
AcDbBlockBegin
  2
*D57
 70
    1
 10
0
 20
0
  3
*D57
  1

  0
LINE
  5
142
100
AcDbEntity
  8
0
  6
ByBlock
 62
    0
370
   -2
100
AcDbLine
 10
3.55
 20
3.34
 11
4.050000000000001
 21
3.34
  0
MTEXT
  5
143
100
AcDbEntity
  8
0
  6
CONTINUOUS
 62
    0
370
   -2
100
AcDbMText
 10
3.800000000000001
 20
3.415
 30
0
 40
0.1
 41
0.3888888888888952
 71
    5
 72
    1
  1
0.5000
  7
STANDARD
210
0
220
0
230
1
 50
0
 73
    2
 44
1
  0
SOLID
  5
144
100
AcDbEntity
  8
0
  6
ByBlock
 62
    0
370
   -2
100
AcDbTrace
 10
3.55
 20
3.34
 30
0
 11
3.65
 21
3.356651386310914
 31
0
 12
3.65
 22
3.323348613689087
 32
0
 13
3.65
 23
3.323348613689087
 33
0
  0
SOLID
  5
145
100
AcDbEntity
  8
0
  6
ByBlock
 62
    0
370
   -2
100
AcDbTrace
 10
4.050000000000001
 20
3.34
 30
0
 11
3.950000000000001
 21
3.323348613689087
 31
0
 12
3.950000000000001
 22
3.356651386310914
 32
0
 13
3.950000000000001
 23
3.356651386310914
 33
0
  0
LINE
  5
146
100
AcDbEntity
  8
0
  6
ByBlock
 62
    0
370
   -2
100
AcDbLine
 10
3.55
 20
3.475
 11
3.55
 21
3.29
  0
LINE
  5
147
100
AcDbEntity
  8
0
  6
ByBlock
 62
    0
370
   -2
100
AcDbLine
 10
4.050000000000001
 20
3.475
 11
4.050000000000001
 21
3.29
  0
ENDBLK
  5
62
330
60
100
AcDbEntity
  8
0
100
AcDbBlockEnd
  0
BLOCK
  5
64
330
63
100
AcDbEntity
  8
0
100
AcDbBlockBegin
  2
*D54
 70
    1
 10
0
 20
0
  3
*D54
  1

  0
LINE
  5
148
100
AcDbEntity
  8
0
  6
ByBlock
 62
    0
370
   -2
100
AcDbLine
 10
0.5000000000000002
 20
3.9
 11
1
 21
3.9
  0
MTEXT
  5
149
100
AcDbEntity
  8
0
  6
CONTINUOUS
 62
    0
370
   -2
100
AcDbMText
 10
1.008333333333334
 20
3.975000000000001
 30
0
 40
0.1
 41
0.3666666666666667
 71
    5
 72
    1
  1
0.1000
  7
STANDARD
210
0
220
0
230
1
 50
0
 73
    2
 44
1
  0
SOLID
  5
14A
100
AcDbEntity
  8
0
  6
ByBlock
 62
    0
370
   -2
100
AcDbTrace
 10
0.7000000000000002
 20
3.9
 30
0
 11
0.6000000000000002
 21
3.883348613689087
 31
0
 12
0.6000000000000002
 22
3.916651386310914
 32
0
 13
0.6000000000000002
 23
3.916651386310914
 33
0
  0
SOLID
  5
14B
100
AcDbEntity
  8
0
  6
ByBlock
 62
    0
370
   -2
100
AcDbTrace
 10
0.8000000000000002
 20
3.9
 30
0
 11
0.9000000000000001
 21
3.916651386310914
 31
0
 12
0.9000000000000001
 22
3.883348613689087
 32
0
 13
0.9000000000000001
 23
3.883348613689087
 33
0
  0
LINE
  5
14C
100
AcDbEntity
  8
0
  6
ByBlock
 62
    0
370
   -2
100
AcDbLine
 10
0.7000000000000002
 20
3.825
 11
0.7000000000000002
 21
3.95
  0
LINE
  5
14D
100
AcDbEntity
  8
0
  6
ByBlock
 62
    0
370
   -2
100
AcDbLine
 10
0.8000000000000002
 20
3.725
 11
0.8000000000000002
 21
3.95
  0
ENDBLK
  5
65
330
63
100
AcDbEntity
  8
0
100
AcDbBlockEnd
  0
BLOCK
  5
67
330
66
100
AcDbEntity
  8
0
100
AcDbBlockBegin
  2
*D52
 70
    1
 10
0
 20
0
  3
*D52
  1

  0
LINE
  5
14E
100
AcDbEntity
  8
0
  6
ByBlock
 62
    0
370
   -2
100
AcDbLine
 10
0.5000000000000001
 20
3.800000000000001
 11
0.5
 21
1.15
  0
MTEXT
  5
14F
100
AcDbEntity
  8
0
  6
CONTINUOUS
 62
    0
370
   -2
100
AcDbMText
 10
0.425
 20
2.475000000000001
 30
0
 40
0.1
 41
0.3888888888889013
 71
    5
 72
    1
  1
2.6500
  7
STANDARD
210
0
220
0
230
1
 50
90
 73
    2
 44
1
  0
SOLID
  5
150
100
AcDbEntity
  8
0
  6
ByBlock
 62
    0
370
   -2
100
AcDbTrace
 10
0.5000000000000001
 20
3.800000000000001
 30
0
 11
0.5166513863109137
 21
3.700000000000001
 31
0
 12
0.4833486136890865
 22
3.700000000000001
 32
0
 13
0.4833486136890865
 23
3.700000000000001
 33
0
  0
SOLID
  5
151
100
AcDbEntity
  8
0
  6
ByBlock
 62
    0
370
   -2
100
AcDbTrace
 10
0.5
 20
1.15
 30
0
 11
0.4833486136890864
 21
1.25
 31
0
 12
0.5166513863109137
 22
1.25
 32
0
 13
0.5166513863109137
 23
1.25
 33
0
  0
LINE
  5
152
100
AcDbEntity
  8
0
  6
ByBlock
 62
    0
370
   -2
100
AcDbLine
 10
0.6749999999999999
 20
3.8
 11
0.4500000000000001
 21
3.800000000000001
  0
LINE
  5
153
100
AcDbEntity
  8
0
  6
ByBlock
 62
    0
370
   -2
100
AcDbLine
 10
0.675
 20
1.15
 11
0.45
 21
1.15
  0
ENDBLK
  5
68
330
66
100
AcDbEntity
  8
0
100
AcDbBlockEnd
  0
BLOCK
  5
6A
330
69
100
AcDbEntity
  8
0
100
AcDbBlockBegin
  2
*D36
 70
    1
 10
0
 20
0
  3
*D36
  1

  0
LINE
  5
154
100
AcDbEntity
  8
0
  6
ByBlock
 62
    0
370
   -2
100
AcDbLine
 10
13.7
 20
4
 11
14.6
 21
4
  0
MTEXT
  5
155
100
AcDbEntity
  8
0
  6
CONTINUOUS
 62
    0
370
   -2
100
AcDbMText
 10
14.15
 20
4.075
 30
0
 40
0.1
 41
0.3888888888888888
 71
    5
 72
    1
  1
0.9000
  7
STANDARD
210
0
220
0
230
1
 50
0
 73
    2
 44
1
  0
SOLID
  5
156
100
AcDbEntity
  8
0
  6
ByBlock
 62
    0
370
   -2
100
AcDbTrace
 10
13.7
 20
4
 30
0
 11
13.8
 21
4.016651386310913
 31
0
 12
13.8
 22
3.983348613689087
 32
0
 13
13.8
 23
3.983348613689087
 33
0
  0
SOLID
  5
157
100
AcDbEntity
  8
0
  6
ByBlock
 62
    0
370
   -2
100
AcDbTrace
 10
14.6
 20
4
 30
0
 11
14.5
 21
3.983348613689087
 31
0
 12
14.5
 22
4.016651386310913
 32
0
 13
14.5
 23
4.016651386310913
 33
0
  0
LINE
  5
158
100
AcDbEntity
  8
0
  6
ByBlock
 62
    0
370
   -2
100
AcDbLine
 10
13.7
 20
3.725
 11
13.7
 21
4.05
  0
LINE
  5
159
100
AcDbEntity
  8
0
  6
ByBlock
 62
    0
370
   -2
100
AcDbLine
 10
14.6
 20
3.725
 11
14.6
 21
4.05
  0
ENDBLK
  5
6B
330
69
100
AcDbEntity
  8
0
100
AcDbBlockEnd
  0
BLOCK
  5
6D
330
6C
100
AcDbEntity
  8
0
100
AcDbBlockBegin
  2
*D14
 70
    1
 10
0
 20
0
  3
*D14
  1

  0
LINE
  5
15A
100
AcDbEntity
  8
0
  6
ByBlock
 62
    0
370
   -2
100
AcDbLine
 10
16.54264258412757
 20
1.561761722751719
 11
16.95735741587243
 21
1.838238277248281
  0
MTEXT
  5
15B
100
AcDbEntity
  8
0
  6
CONTINUOUS
 62
    0
370
   -2
100
AcDbMText
 10
16.93655615851399
 20
1.91450955422925
 30
0
 40
0.1
 41
0.4
 71
    5
 72
    1
  1
0.0984
  7
STANDARD
210
0
220
0
230
1
 50
33.69006752597851
 73
    2
 44
1
  0
SOLID
  5
15C
100
AcDbEntity
  8
0
  6
ByBlock
 62
    0
370
   -2
100
AcDbTrace
 10
16.70905264299514
 20
1.672701761996761
 30
0
 11
16.63508414081544
 21
1.603376951493111
 31
0
 12
16.61661108630727
 22
1.631086533255369
 32
0
 13
16.61661108630727
 23
1.631086533255369
 33
0
  0
SOLID
  5
15D
100
AcDbEntity
  8
0
  6
ByBlock
 62
    0
370
   -2
100
AcDbTrace
 10
16.79094735700486
 20
1.727298238003239
 30
0
 11
16.86491585918456
 21
1.796623048506889
 31
0
 12
16.88338891369273
 22
1.768913466744631
 32
0
 13
16.88338891369273
 23
1.768913466744631
 33
0
  0
ENDBLK
  5
6E
330
6C
100
AcDbEntity
  8
0
100
AcDbBlockEnd
  0
BLOCK
  5
70
330
6F
100
AcDbEntity
  8
0
100
AcDbBlockBegin
  2
*D33
 70
    1
 10
0
 20
0
  3
*D33
  1

  0
LINE
  5
15E
100
AcDbEntity
  8
0
  6
ByBlock
 62
    0
370
   -2
100
AcDbLine
 10
11.1
 20
2.3
 11
10
 21
2.3
  0
MTEXT
  5
15F
100
AcDbEntity
  8
0
  6
CONTINUOUS
 62
    0
370
   -2
100
AcDbMText
 10
10.55
 20
2.375
 30
0
 40
0.1
 41
0.3444444444444444
 71
    5
 72
    1
  1
1.1000
  7
STANDARD
210
0
220
0
230
1
 50
0
 73
    2
 44
1
  0
SOLID
  5
160
100
AcDbEntity
  8
0
  6
ByBlock
 62
    0
370
   -2
100
AcDbTrace
 10
11.1
 20
2.3
 30
0
 11
11
 21
2.283348613689086
 31
0
 12
11
 22
2.316651386310913
 32
0
 13
11
 23
2.316651386310913
 33
0
  0
SOLID
  5
161
100
AcDbEntity
  8
0
  6
ByBlock
 62
    0
370
   -2
100
AcDbTrace
 10
10
 20
2.3
 30
0
 11
10.1
 21
2.316651386310913
 31
0
 12
10.1
 22
2.283348613689086
 32
0
 13
10.1
 23
2.283348613689086
 33
0
  0
LINE
  5
162
100
AcDbEntity
  8
0
  6
ByBlock
 62
    0
370
   -2
100
AcDbLine
 10
11.1
 20
2.575
 11
11.1
 21
2.25
  0
LINE
  5
163
100
AcDbEntity
  8
0
  6
ByBlock
 62
    0
370
   -2
100
AcDbLine
 10
10
 20
2.575
 11
10
 21
2.25
  0
ENDBLK
  5
71
330
6F
100
AcDbEntity
  8
0
100
AcDbBlockEnd
  0
BLOCK
  5
73
330
72
100
AcDbEntity
  8
0
100
AcDbBlockBegin
  2
*D40
 70
    1
 10
0
 20
0
  3
*D40
  1

  0
LINE
  5
164
100
AcDbEntity
  8
0
  6
ByBlock
 62
    0
370
   -2
100
AcDbLine
 10
11.4
 20
2.6
 11
11.4
 21
1.7
  0
MTEXT
  5
165
100
AcDbEntity
  8
0
  6
CONTINUOUS
 62
    0
370
   -2
100
AcDbMText
 10
11.325
 20
2.15
 30
0
 40
0.1
 41
0.3888888888888888
 71
    5
 72
    1
  1
0.9000
  7
STANDARD
210
0
220
0
230
1
 50
90
 73
    2
 44
1
  0
SOLID
  5
166
100
AcDbEntity
  8
0
  6
ByBlock
 62
    0
370
   -2
100
AcDbTrace
 10
11.4
 20
2.6
 30
0
 11
11.41665138631091
 21
2.5
 31
0
 12
11.38334861368909
 22
2.5
 32
0
 13
11.38334861368909
 23
2.5
 33
0
  0
SOLID
  5
167
100
AcDbEntity
  8
0
  6
ByBlock
 62
    0
370
   -2
100
AcDbTrace
 10
11.4
 20
1.7
 30
0
 11
11.38334861368909
 21
1.8
 31
0
 12
11.41665138631091
 22
1.8
 32
0
 13
11.41665138631091
 23
1.8
 33
0
  0
LINE
  5
168
100
AcDbEntity
  8
0
  6
ByBlock
 62
    0
370
   -2
100
AcDbLine
 10
11.125
 20
2.6
 11
11.45
 21
2.6
  0
LINE
  5
169
100
AcDbEntity
  8
0
  6
ByBlock
 62
    0
370
   -2
100
AcDbLine
 10
11.125
 20
1.7
 11
11.45
 21
1.7
  0
ENDBLK
  5
74
330
72
100
AcDbEntity
  8
0
100
AcDbBlockEnd
  0
BLOCK
  5
76
330
75
100
AcDbEntity
  8
0
100
AcDbBlockBegin
  2
*D37
 70
    1
 10
0
 20
0
  3
*D37
  1

  0
LINE
  5
16A
100
AcDbEntity
  8
0
  6
ByBlock
 62
    0
370
   -2
100
AcDbLine
 10
13.7
 20
2.3
 11
15
 21
2.3
  0
MTEXT
  5
16B
100
AcDbEntity
  8
0
  6
CONTINUOUS
 62
    0
370
   -2
100
AcDbMText
 10
14.35
 20
2.375
 30
0
 40
0.1
 41
0.3666666666666729
 71
    5
 72
    1
  1
1.3000
  7
STANDARD
210
0
220
0
230
1
 50
0
 73
    2
 44
1
  0
SOLID
  5
16C
100
AcDbEntity
  8
0
  6
ByBlock
 62
    0
370
   -2
100
AcDbTrace
 10
13.7
 20
2.3
 30
0
 11
13.8
 21
2.316651386310913
 31
0
 12
13.8
 22
2.283348613689086
 32
0
 13
13.8
 23
2.283348613689086
 33
0
  0
SOLID
  5
16D
100
AcDbEntity
  8
0
  6
ByBlock
 62
    0
370
   -2
100
AcDbTrace
 10
15
 20
2.3
 30
0
 11
14.9
 21
2.283348613689086
 31
0
 12
14.9
 22
2.316651386310913
 32
0
 13
14.9
 23
2.316651386310913
 33
0
  0
LINE
  5
16E
100
AcDbEntity
  8
0
  6
ByBlock
 62
    0
370
   -2
100
AcDbLine
 10
13.7
 20
2.575
 11
13.7
 21
2.25
  0
LINE
  5
16F
100
AcDbEntity
  8
0
  6
ByBlock
 62
    0
370
   -2
100
AcDbLine
 10
15
 20
2.575
 11
15
 21
2.25
  0
ENDBLK
  5
77
330
75
100
AcDbEntity
  8
0
100
AcDbBlockEnd
  0
BLOCK
  5
79
330
78
100
AcDbEntity
  8
0
100
AcDbBlockBegin
  2
*D6
 70
    1
 10
0
 20
0
  3
*D6
  1

  0
LINE
  5
170
100
AcDbEntity
  8
0
  6
ByBlock
 62
    0
370
   -2
100
AcDbLine
 10
10.25
 20
1.9
 11
13.5
 21
1.9
  0
MTEXT
  5
171
100
AcDbEntity
  8
0
  6
CONTINUOUS
 62
    0
370
   -2
100
AcDbMText
 10
11.875
 20
1.975
 30
0
 40
0.1
 41
0.3888888888889013
 71
    5
 72
    1
  1
3.2500
  7
STANDARD
210
0
220
0
230
1
 50
0
 73
    2
 44
1
  0
SOLID
  5
172
100
AcDbEntity
  8
0
  6
ByBlock
 62
    0
370
   -2
100
AcDbTrace
 10
10.25
 20
1.9
 30
0
 11
10.35
 21
1.916651386310914
 31
0
 12
10.35
 22
1.883348613689086
 32
0
 13
10.35
 23
1.883348613689086
 33
0
  0
SOLID
  5
173
100
AcDbEntity
  8
0
  6
ByBlock
 62
    0
370
   -2
100
AcDbTrace
 10
13.5
 20
1.9
 30
0
 11
13.4
 21
1.883348613689086
 31
0
 12
13.4
 22
1.916651386310914
 32
0
 13
13.4
 23
1.916651386310914
 33
0
  0
LINE
  5
174
100
AcDbEntity
  8
0
  6
ByBlock
 62
    0
370
   -2
100
AcDbLine
 10
10.25
 20
1.725
 11
10.25
 21
1.95
  0
LINE
  5
175
100
AcDbEntity
  8
0
  6
ByBlock
 62
    0
370
   -2
100
AcDbLine
 10
13.5
 20
1.725
 11
13.5
 21
1.95
  0
ENDBLK
  5
7A
330
78
100
AcDbEntity
  8
0
100
AcDbBlockEnd
  0
BLOCK
  5
7C
330
7B
100
AcDbEntity
  8
0
100
AcDbBlockBegin
  2
*D62
 70
    1
 10
0
 20
0
  3
*D62
  1

  0
LINE
  5
176
100
AcDbEntity
  8
0
  6
ByBlock
 62
    0
370
   -2
100
AcDbLine
 10
4.140000000000001
 20
3.5
 11
4.140000000000001
 21
2.2
  0
MTEXT
  5
177
100
AcDbEntity
  8
0
  6
CONTINUOUS
 62
    0
370
   -2
100
AcDbMText
 10
4.065
 20
2.850000000000001
 30
0
 40
0.1
 41
0.3666666666666729
 71
    5
 72
    1
  1
1.3000
  7
STANDARD
210
0
220
0
230
1
 50
90
 73
    2
 44
1
  0
SOLID
  5
178
100
AcDbEntity
  8
0
  6
ByBlock
 62
    0
370
   -2
100
AcDbTrace
 10
4.140000000000001
 20
3.5
 30
0
 11
4.156651386310914
 21
3.4
 31
0
 12
4.123348613689087
 22
3.4
 32
0
 13
4.123348613689087
 23
3.4
 33
0
  0
SOLID
  5
179
100
AcDbEntity
  8
0
  6
ByBlock
 62
    0
370
   -2
100
AcDbTrace
 10
4.140000000000001
 20
2.2
 30
0
 11
4.123348613689087
 21
2.3
 31
0
 12
4.156651386310914
 22
2.3
 32
0
 13
4.156651386310914
 23
2.3
 33
0
  0
LINE
  5
17A
100
AcDbEntity
  8
0
  6
ByBlock
 62
    0
370
   -2
100
AcDbLine
 10
4.075000000000001
 20
3.5
 11
4.19
 21
3.5
  0
LINE
  5
17B
100
AcDbEntity
  8
0
  6
ByBlock
 62
    0
370
   -2
100
AcDbLine
 10
4.075000000000001
 20
2.2
 11
4.19
 21
2.2
  0
ENDBLK
  5
7D
330
7B
100
AcDbEntity
  8
0
100
AcDbBlockEnd
  0
BLOCK
  5
7F
330
7E
100
AcDbEntity
  8
0
100
AcDbBlockBegin
  2
*D53
 70
    1
 10
0
 20
0
  3
*D53
  1

  0
LINE
  5
17C
100
AcDbEntity
  8
0
  6
ByBlock
 62
    0
370
   -2
100
AcDbLine
 10
3.95
 20
3.800000000000001
 11
3.95
 21
1.15
  0
MTEXT
  5
17D
100
AcDbEntity
  8
0
  6
CONTINUOUS
 62
    0
370
   -2
100
AcDbMText
 10
3.875
 20
2.475000000000001
 30
0
 40
0.1
 41
0.3888888888889013
 71
    5
 72
    1
  1
2.6500
  7
STANDARD
210
0
220
0
230
1
 50
90
 73
    2
 44
1
  0
SOLID
  5
17E
100
AcDbEntity
  8
0
  6
ByBlock
 62
    0
370
   -2
100
AcDbTrace
 10
3.95
 20
3.800000000000001
 30
0
 11
3.966651386310914
 21
3.700000000000001
 31
0
 12
3.933348613689087
 22
3.700000000000001
 32
0
 13
3.933348613689087
 23
3.700000000000001
 33
0
  0
SOLID
  5
17F
100
AcDbEntity
  8
0
  6
ByBlock
 62
    0
370
   -2
100
AcDbTrace
 10
3.95
 20
1.15
 30
0
 11
3.933348613689087
 21
1.25
 31
0
 12
3.966651386310914
 22
1.25
 32
0
 13
3.966651386310914
 23
1.25
 33
0
  0
LINE
  5
180
100
AcDbEntity
  8
0
  6
ByBlock
 62
    0
370
   -2
100
AcDbLine
 10
3.825
 20
3.8
 11
4
 21
3.800000000000001
  0
LINE
  5
181
100
AcDbEntity
  8
0
  6
ByBlock
 62
    0
370
   -2
100
AcDbLine
 10
3.825
 20
1.15
 11
4
 21
1.15
  0
ENDBLK
  5
80
330
7E
100
AcDbEntity
  8
0
100
AcDbBlockEnd
  0
BLOCK
  5
82
330
81
100
AcDbEntity
  8
0
100
AcDbBlockBegin
  2
*D7
 70
    1
 10
0
 20
0
  3
*D7
  1

  0
LINE
  5
182
100
AcDbEntity
  8
0
  6
ByBlock
 62
    0
370
   -2
100
AcDbLine
 10
16.75
 20
1.9
 11
13.5
 21
1.9
  0
MTEXT
  5
183
100
AcDbEntity
  8
0
  6
CONTINUOUS
 62
    0
370
   -2
100
AcDbMText
 10
15.125
 20
1.975
 30
0
 40
0.1
 41
0.3888888888889013
 71
    5
 72
    1
  1
3.2500
  7
STANDARD
210
0
220
0
230
1
 50
0
 73
    2
 44
1
  0
SOLID
  5
184
100
AcDbEntity
  8
0
  6
ByBlock
 62
    0
370
   -2
100
AcDbTrace
 10
16.75
 20
1.9
 30
0
 11
16.65
 21
1.883348613689086
 31
0
 12
16.65
 22
1.916651386310914
 32
0
 13
16.65
 23
1.916651386310914
 33
0
  0
SOLID
  5
185
100
AcDbEntity
  8
0
  6
ByBlock
 62
    0
370
   -2
100
AcDbTrace
 10
13.5
 20
1.9
 30
0
 11
13.6
 21
1.916651386310914
 31
0
 12
13.6
 22
1.883348613689086
 32
0
 13
13.6
 23
1.883348613689086
 33
0
  0
LINE
  5
186
100
AcDbEntity
  8
0
  6
ByBlock
 62
    0
370
   -2
100
AcDbLine
 10
16.75
 20
1.725
 11
16.75
 21
1.95
  0
LINE
  5
187
100
AcDbEntity
  8
0
  6
ByBlock
 62
    0
370
   -2
100
AcDbLine
 10
13.5
 20
1.725
 11
13.5
 21
1.95
  0
ENDBLK
  5
83
330
81
100
AcDbEntity
  8
0
100
AcDbBlockEnd
  0
BLOCK
  5
85
330
84
100
AcDbEntity
  8
0
100
AcDbBlockBegin
  2
*D67
 70
    1
 10
0
 20
0
  3
*D67
  1

  0
LINE
  5
188
100
AcDbEntity
  8
0
  6
ByBlock
 62
    0
370
   -2
100
AcDbLine
 10
16.08523897235392
 20
3.628412990784641
 11
16.51476102764608
 21
3.771587009215359
  0
MTEXT
  5
189
100
AcDbEntity
  8
0
  6
CONTINUOUS
 62
    0
370
   -2
100
AcDbMText
 10
16.27628291754874
 20
3.771151247353789
 30
0
 40
0.1
 41
0.4000000000000062
 71
    5
 72
    1
  1
0.4528
  7
STANDARD
210
0
220
0
230
1
 50
18.4349488229218
 73
    2
 44
1
  0
SOLID
  5
18A
100
AcDbEntity
  8
0
  6
ByBlock
 62
    0
370
   -2
100
AcDbTrace
 10
16.08523897235392
 20
3.628412990784641
 30
0
 11
16.17484167146479
 21
3.675832659468875
 31
0
 12
16.18537293285316
 22
3.644238875303774
 32
0
 13
16.18537293285316
 23
3.644238875303774
 33
0
  0
SOLID
  5
18B
100
AcDbEntity
  8
0
  6
ByBlock
 62
    0
370
   -2
100
AcDbTrace
 10
16.51476102764608
 20
3.771587009215359
 30
0
 11
16.42515832853521
 21
3.724167340531125
 31
0
 12
16.41462706714685
 22
3.755761124696227
 32
0
 13
16.41462706714685
 23
3.755761124696227
 33
0
  0
ENDBLK
  5
86
330
84
100
AcDbEntity
  8
0
100
AcDbBlockEnd
  0
BLOCK
  5
88
330
87
100
AcDbEntity
  8
0
100
AcDbBlockBegin
  2
*D25
 70
    1
 10
0
 20
0
  3
*D25
  1

  0
LINE
  5
18C
100
AcDbEntity
  8
0
  6
ByBlock
 62
    0
370
   -2
100
AcDbLine
 10
13.57422117626564
 20
2.537110588132819
 11
13.82577882373436
 21
2.662889411867181
  0
MTEXT
  5
18D
100
AcDbEntity
  8
0
  6
CONTINUOUS
 62
    0
370
   -2
100
AcDbMText
 10
13.97857680219684
 20
2.823140950254667
 30
0
 40
0.1
 41
0.3666666666666667
 71
    5
 72
    1
  1
0.2812
  7
STANDARD
210
0
220
0
230
1
 50
26.56505117707832
 73
    2
 44
1
  0
SOLID
  5
18E
100
AcDbEntity
  8
0
  6
ByBlock
 62
    0
370
   -2
100
AcDbTrace
 10
13.57422117626564
 20
2.537110588132819
 30
0
 11
13.65621716902347
 21
2.596725400367141
 31
0
 12
13.67111062170779
 22
2.566938494998491
 32
0
 13
13.67111062170779
 23
2.566938494998491
 33
0
  0
SOLID
  5
18F
100
AcDbEntity
  8
0
  6
ByBlock
 62
    0
370
   -2
100
AcDbTrace
 10
13.82577882373436
 20
2.662889411867181
 30
0
 11
13.74378283097653
 21
2.60327459963286
 31
0
 12
13.72888937829221
 22
2.63306150500151
 32
0
 13
13.72888937829221
 23
2.63306150500151
 33
0
  0
ENDBLK
  5
89
330
87
100
AcDbEntity
  8
0
100
AcDbBlockEnd
  0
BLOCK
  5
8B
330
8A
100
AcDbEntity
  8
0
100
AcDbBlockBegin
  2
*D19
 70
    1
 10
0
 20
0
  3
*D19
  1

  0
LINE
  5
190
100
AcDbEntity
  8
0
  6
ByBlock
 62
    0
370
   -2
100
AcDbLine
 10
14.48555557595461
 20
3.642777787977306
 11
14.71444442404539
 21
3.757222212022694
  0
MTEXT
  5
191
100
AcDbEntity
  8
0
  6
CONTINUOUS
 62
    0
370
   -2
100
AcDbMText
 10
14.87718048240788
 20
3.922442790360181
 30
0
 40
0.1
 41
0.3888888888889013
 71
    5
 72
    1
  1
0.2559
  7
STANDARD
210
0
220
0
230
1
 50
26.56505117707774
 73
    2
 44
1
  0
SOLID
  5
192
100
AcDbEntity
  8
0
  6
ByBlock
 62
    0
370
   -2
100
AcDbTrace
 10
14.48555557595461
 20
3.642777787977306
 30
0
 11
14.56755156871244
 21
3.702392600211626
 31
0
 12
14.58244502139676
 22
3.672605694842976
 32
0
 13
14.58244502139676
 23
3.672605694842976
 33
0
  0
SOLID
  5
193
100
AcDbEntity
  8
0
  6
ByBlock
 62
    0
370
   -2
100
AcDbTrace
 10
14.71444442404539
 20
3.757222212022694
 30
0
 11
14.63244843128756
 21
3.697607399788374
 31
0
 12
14.61755497860324
 22
3.727394305157024
 32
0
 13
14.61755497860324
 23
3.727394305157024
 33
0
  0
ENDBLK
  5
8C
330
8A
100
AcDbEntity
  8
0
100
AcDbBlockEnd
  0
BLOCK
  5
8E
330
8D
100
AcDbEntity
  8
0
100
AcDbBlockBegin
  2
*D42
 70
    1
 10
0
 20
0
  3
*D42
  1

  0
LINE
  5
194
100
AcDbEntity
  8
0
  6
ByBlock
 62
    0
370
   -2
100
AcDbLine
 10
6.7
 20
4.2
 11
6.7
 21
4.7
  0
MTEXT
  5
195
100
AcDbEntity
  8
0
  6
CONTINUOUS
 62
    0
370
   -2
100
AcDbMText
 10
6.625
 20
4.45
 30
0
 40
0.1
 41
0.3888888888888952
 71
    5
 72
    1
  1
0.5000
  7
STANDARD
210
0
220
0
230
1
 50
90
 73
    2
 44
1
  0
SOLID
  5
196
100
AcDbEntity
  8
0
  6
ByBlock
 62
    0
370
   -2
100
AcDbTrace
 10
6.7
 20
4.2
 30
0
 11
6.683348613689087
 21
4.3
 31
0
 12
6.716651386310914
 22
4.3
 32
0
 13
6.716651386310914
 23
4.3
 33
0
  0
SOLID
  5
197
100
AcDbEntity
  8
0
  6
ByBlock
 62
    0
370
   -2
100
AcDbTrace
 10
6.7
 20
4.7
 30
0
 11
6.716651386310914
 21
4.600000000000001
 31
0
 12
6.683348613689087
 22
4.600000000000001
 32
0
 13
6.683348613689087
 23
4.600000000000001
 33
0
  0
LINE
  5
198
100
AcDbEntity
  8
0
  6
ByBlock
 62
    0
370
   -2
100
AcDbLine
 10
6.425000000000001
 20
4.2
 11
6.75
 21
4.2
  0
LINE
  5
199
100
AcDbEntity
  8
0
  6
ByBlock
 62
    0
370
   -2
100
AcDbLine
 10
6.425000000000001
 20
4.7
 11
6.75
 21
4.7
  0
ENDBLK
  5
8F
330
8D
100
AcDbEntity
  8
0
100
AcDbBlockEnd
  0
BLOCK
  5
91
330
90
100
AcDbEntity
  8
0
100
AcDbBlockBegin
  2
*D61
 70
    1
 10
0
 20
0
  3
*D61
  1

  0
LINE
  5
19A
100
AcDbEntity
  8
0
  6
ByBlock
 62
    0
370
   -2
100
AcDbLine
 10
3.38
 20
3.9
 11
3.38
 21
3.3
  0
MTEXT
  5
19B
100
AcDbEntity
  8
0
  6
CONTINUOUS
 62
    0
370
   -2
100
AcDbMText
 10
3.305
 20
3.919444444444445
 30
0
 40
0.1
 41
0.3888888888888888
 71
    5
 72
    1
  1
0.2000
  7
STANDARD
210
0
220
0
230
1
 50
90
 73
    2
 44
1
  0
SOLID
  5
19C
100
AcDbEntity
  8
0
  6
ByBlock
 62
    0
370
   -2
100
AcDbTrace
 10
3.38
 20
3.7
 30
0
 11
3.363348613689087
 21
3.8
 31
0
 12
3.396651386310914
 22
3.8
 32
0
 13
3.396651386310914
 23
3.8
 33
0
  0
SOLID
  5
19D
100
AcDbEntity
  8
0
  6
ByBlock
 62
    0
370
   -2
100
AcDbTrace
 10
3.38
 20
3.5
 30
0
 11
3.396651386310914
 21
3.4
 31
0
 12
3.363348613689087
 22
3.4
 32
0
 13
3.363348613689087
 23
3.4
 33
0
  0
LINE
  5
19E
100
AcDbEntity
  8
0
  6
ByBlock
 62
    0
370
   -2
100
AcDbLine
 10
3.525
 20
3.7
 11
3.330000000000001
 21
3.7
  0
LINE
  5
19F
100
AcDbEntity
  8
0
  6
ByBlock
 62
    0
370
   -2
100
AcDbLine
 10
3.525
 20
3.5
 11
3.330000000000001
 21
3.5
  0
ENDBLK
  5
92
330
90
100
AcDbEntity
  8
0
100
AcDbBlockEnd
  0
BLOCK
  5
94
330
93
100
AcDbEntity
  8
0
100
AcDbBlockBegin
  2
*D31
 70
    1
 10
0
 20
0
  3
*D31
  1

  0
LINE
  5
1A0
100
AcDbEntity
  8
0
  6
ByBlock
 62
    0
370
   -2
100
AcDbLine
 10
11.1
 20
4
 11
12.4
 21
4
  0
MTEXT
  5
1A1
100
AcDbEntity
  8
0
  6
CONTINUOUS
 62
    0
370
   -2
100
AcDbMText
 10
11.75
 20
4.075
 30
0
 40
0.1
 41
0.3666666666666729
 71
    5
 72
    1
  1
1.3000
  7
STANDARD
210
0
220
0
230
1
 50
0
 73
    2
 44
1
  0
SOLID
  5
1A2
100
AcDbEntity
  8
0
  6
ByBlock
 62
    0
370
   -2
100
AcDbTrace
 10
11.1
 20
4
 30
0
 11
11.2
 21
4.016651386310913
 31
0
 12
11.2
 22
3.983348613689087
 32
0
 13
11.2
 23
3.983348613689087
 33
0
  0
SOLID
  5
1A3
100
AcDbEntity
  8
0
  6
ByBlock
 62
    0
370
   -2
100
AcDbTrace
 10
12.4
 20
4
 30
0
 11
12.3
 21
3.983348613689087
 31
0
 12
12.3
 22
4.016651386310913
 32
0
 13
12.3
 23
4.016651386310913
 33
0
  0
LINE
  5
1A4
100
AcDbEntity
  8
0
  6
ByBlock
 62
    0
370
   -2
100
AcDbLine
 10
11.1
 20
3.725
 11
11.1
 21
4.05
  0
LINE
  5
1A5
100
AcDbEntity
  8
0
  6
ByBlock
 62
    0
370
   -2
100
AcDbLine
 10
12.4
 20
3.725
 11
12.4
 21
4.05
  0
ENDBLK
  5
95
330
93
100
AcDbEntity
  8
0
100
AcDbBlockEnd
  0
BLOCK
  5
97
330
96
100
AcDbEntity
  8
0
100
AcDbBlockBegin
  2
*D56
 70
    1
 10
0
 20
0
  3
*D56
  1

  0
LINE
  5
1A6
100
AcDbEntity
  8
0
  6
ByBlock
 62
    0
370
   -2
100
AcDbLine
 10
0.8000000000000003
 20
3.8
 11
3.55
 21
3.8
  0
MTEXT
  5
1A7
100
AcDbEntity
  8
0
  6
CONTINUOUS
 62
    0
370
   -2
100
AcDbMText
 10
2.175
 20
3.875
 30
0
 40
0.1
 41
0.3888888888888951
 71
    5
 72
    1
  1
2.7500
  7
STANDARD
210
0
220
0
230
1
 50
0
 73
    2
 44
1
  0
SOLID
  5
1A8
100
AcDbEntity
  8
0
  6
ByBlock
 62
    0
370
   -2
100
AcDbTrace
 10
0.8000000000000003
 20
3.8
 30
0
 11
0.9000000000000002
 21
3.816651386310914
 31
0
 12
0.9000000000000002
 22
3.783348613689087
 32
0
 13
0.9000000000000002
 23
3.783348613689087
 33
0
  0
SOLID
  5
1A9
100
AcDbEntity
  8
0
  6
ByBlock
 62
    0
370
   -2
100
AcDbTrace
 10
3.55
 20
3.8
 30
0
 11
3.45
 21
3.783348613689087
 31
0
 12
3.45
 22
3.816651386310914
 32
0
 13
3.45
 23
3.816651386310914
 33
0
  0
LINE
  5
1AA
100
AcDbEntity
  8
0
  6
ByBlock
 62
    0
370
   -2
100
AcDbLine
 10
0.8000000000000002
 20
3.725
 11
0.8000000000000004
 21
3.85
  0
LINE
  5
1AB
100
AcDbEntity
  8
0
  6
ByBlock
 62
    0
370
   -2
100
AcDbLine
 10
3.55
 20
3.725000000000001
 11
3.55
 21
3.85
  0
ENDBLK
  5
98
330
96
100
AcDbEntity
  8
0
100
AcDbBlockEnd
  0
BLOCK
  5
9A
330
99
100
AcDbEntity
  8
0
100
AcDbBlockBegin
  2
*D39
 70
    1
 10
0
 20
0
  3
*D39
  1

  0
LINE
  5
1AC
100
AcDbEntity
  8
0
  6
ByBlock
 62
    0
370
   -2
100
AcDbLine
 10
10.4
 20
3.7
 11
10.4
 21
2.6
  0
MTEXT
  5
1AD
100
AcDbEntity
  8
0
  6
CONTINUOUS
 62
    0
370
   -2
100
AcDbMText
 10
10.325
 20
3.15
 30
0
 40
0.1
 41
0.3444444444444444
 71
    5
 72
    1
  1
1.1000
  7
STANDARD
210
0
220
0
230
1
 50
90
 73
    2
 44
1
  0
SOLID
  5
1AE
100
AcDbEntity
  8
0
  6
ByBlock
 62
    0
370
   -2
100
AcDbTrace
 10
10.4
 20
3.7
 30
0
 11
10.41665138631091
 21
3.6
 31
0
 12
10.38334861368909
 22
3.6
 32
0
 13
10.38334861368909
 23
3.6
 33
0
  0
SOLID
  5
1AF
100
AcDbEntity
  8
0
  6
ByBlock
 62
    0
370
   -2
100
AcDbTrace
 10
10.4
 20
2.6
 30
0
 11
10.38334861368909
 21
2.7
 31
0
 12
10.41665138631091
 22
2.7
 32
0
 13
10.41665138631091
 23
2.7
 33
0
  0
LINE
  5
1B0
100
AcDbEntity
  8
0
  6
ByBlock
 62
    0
370
   -2
100
AcDbLine
 10
11.075
 20
3.7
 11
10.35
 21
3.7
  0
LINE
  5
1B1
100
AcDbEntity
  8
0
  6
ByBlock
 62
    0
370
   -2
100
AcDbLine
 10
11.075
 20
2.6
 11
10.35
 21
2.6
  0
ENDBLK
  5
9B
330
99
100
AcDbEntity
  8
0
100
AcDbBlockEnd
  0
BLOCK
  5
9D
330
9C
100
AcDbEntity
  8
0
100
AcDbBlockBegin
  2
*D8
 70
    1
 10
0
 20
0
  3
*D8
  1

  0
LINE
  5
1B2
100
AcDbEntity
  8
0
  6
ByBlock
 62
    0
370
   -2
100
AcDbLine
 10
9.920000000000002
 20
0.5999999999999999
 11
9.920000000000002
 21
1.7
  0
MTEXT
  5
1B3
100
AcDbEntity
  8
0
  6
CONTINUOUS
 62
    0
370
   -2
100
AcDbMText
 10
9.845000000000002
 20
1.15
 30
0
 40
0.1
 41
0.3444444444444444
 71
    5
 72
    1
  1
1.1000
  7
STANDARD
210
0
220
0
230
1
 50
90
 73
    2
 44
1
  0
SOLID
  5
1B4
100
AcDbEntity
  8
0
  6
ByBlock
 62
    0
370
   -2
100
AcDbTrace
 10
9.920000000000002
 20
0.5999999999999999
 30
0
 11
9.903348613689088
 21
0.6999999999999998
 31
0
 12
9.936651386310915
 22
0.6999999999999998
 32
0
 13
9.936651386310915
 23
0.6999999999999998
 33
0
  0
SOLID
  5
1B5
100
AcDbEntity
  8
0
  6
ByBlock
 62
    0
370
   -2
100
AcDbTrace
 10
9.920000000000002
 20
1.7
 30
0
 11
9.936651386310915
 21
1.6
 31
0
 12
9.903348613689088
 22
1.6
 32
0
 13
9.903348613689088
 23
1.6
 33
0
  0
LINE
  5
1B6
100
AcDbEntity
  8
0
  6
ByBlock
 62
    0
370
   -2
100
AcDbLine
 10
10.225
 20
0.6
 11
9.870000000000001
 21
0.5999999999999999
  0
LINE
  5
1B7
100
AcDbEntity
  8
0
  6
ByBlock
 62
    0
370
   -2
100
AcDbLine
 10
10.225
 20
1.7
 11
9.870000000000001
 21
1.7
  0
ENDBLK
  5
9E
330
9C
100
AcDbEntity
  8
0
100
AcDbBlockEnd
  0
BLOCK
  5
A0
330
9F
100
AcDbEntity
  8
0
100
AcDbBlockBegin
  2
*D9
 70
    1
 10
0
 20
0
  3
*D9
  1

  0
LINE
  5
1B8
100
AcDbEntity
  8
0
  6
ByBlock
 62
    0
370
   -2
100
AcDbLine
 10
10.14
 20
1.35
 11
10.14
 21
0.9500000000000001
  0
MTEXT
  5
1B9
100
AcDbEntity
  8
0
  6
CONTINUOUS
 62
    0
370
   -2
100
AcDbMText
 10
10.065
 20
1.15
 30
0
 40
0.1
 41
0.4
 71
    5
 72
    1
  1
0.4000
  7
STANDARD
210
0
220
0
230
1
 50
90
 73
    2
 44
1
  0
SOLID
  5
1BA
100
AcDbEntity
  8
0
  6
ByBlock
 62
    0
370
   -2
100
AcDbTrace
 10
10.14
 20
1.35
 30
0
 11
10.15665138631091
 21
1.25
 31
0
 12
10.12334861368909
 22
1.25
 32
0
 13
10.12334861368909
 23
1.25
 33
0
  0
SOLID
  5
1BB
100
AcDbEntity
  8
0
  6
ByBlock
 62
    0
370
   -2
100
AcDbTrace
 10
10.14
 20
0.9500000000000001
 30
0
 11
10.12334861368909
 21
1.05
 31
0
 12
10.15665138631091
 22
1.05
 32
0
 13
10.15665138631091
 23
1.05
 33
0
  0
LINE
  5
1BC
100
AcDbEntity
  8
0
  6
ByBlock
 62
    0
370
   -2
100
AcDbLine
 10
10.175
 20
1.35
 11
10.09
 21
1.35
  0
LINE
  5
1BD
100
AcDbEntity
  8
0
  6
ByBlock
 62
    0
370
   -2
100
AcDbLine
 10
10.175
 20
0.9500000000000001
 11
10.09
 21
0.9500000000000001
  0
ENDBLK
  5
A1
330
9F
100
AcDbEntity
  8
0
100
AcDbBlockEnd
  0
BLOCK
  5
A3
330
A2
100
AcDbEntity
  8
0
100
AcDbBlockBegin
  2
*D38
 70
    1
 10
0
 20
0
  3
*D38
  1

  0
LINE
  5
1BE
100
AcDbEntity
  8
0
  6
ByBlock
 62
    0
370
   -2
100
AcDbLine
 10
15
 20
2.3
 11
16.3
 21
2.3
  0
MTEXT
  5
1BF
100
AcDbEntity
  8
0
  6
CONTINUOUS
 62
    0
370
   -2
100
AcDbMText
 10
15.65
 20
2.375
 30
0
 40
0.1
 41
0.3666666666666729
 71
    5
 72
    1
  1
1.3000
  7
STANDARD
210
0
220
0
230
1
 50
0
 73
    2
 44
1
  0
SOLID
  5
1C0
100
AcDbEntity
  8
0
  6
ByBlock
 62
    0
370
   -2
100
AcDbTrace
 10
15
 20
2.3
 30
0
 11
15.1
 21
2.316651386310913
 31
0
 12
15.1
 22
2.283348613689086
 32
0
 13
15.1
 23
2.283348613689086
 33
0
  0
SOLID
  5
1C1
100
AcDbEntity
  8
0
  6
ByBlock
 62
    0
370
   -2
100
AcDbTrace
 10
16.3
 20
2.3
 30
0
 11
16.2
 21
2.283348613689086
 31
0
 12
16.2
 22
2.316651386310913
 32
0
 13
16.2
 23
2.316651386310913
 33
0
  0
LINE
  5
1C2
100
AcDbEntity
  8
0
  6
ByBlock
 62
    0
370
   -2
100
AcDbLine
 10
15
 20
2.575
 11
15
 21
2.25
  0
LINE
  5
1C3
100
AcDbEntity
  8
0
  6
ByBlock
 62
    0
370
   -2
100
AcDbLine
 10
16.3
 20
2.575
 11
16.3
 21
2.25
  0
ENDBLK
  5
A4
330
A2
100
AcDbEntity
  8
0
100
AcDbBlockEnd
  0
BLOCK
  5
A6
330
A5
100
AcDbEntity
  8
0
100
AcDbBlockBegin
  2
*D34
 70
    1
 10
0
 20
0
  3
*D34
  1

  0
LINE
  5
1C4
100
AcDbEntity
  8
0
  6
ByBlock
 62
    0
370
   -2
100
AcDbLine
 10
11.1
 20
2.3
 11
12.4
 21
2.3
  0
MTEXT
  5
1C5
100
AcDbEntity
  8
0
  6
CONTINUOUS
 62
    0
370
   -2
100
AcDbMText
 10
11.75
 20
2.375
 30
0
 40
0.1
 41
0.3666666666666729
 71
    5
 72
    1
  1
1.3000
  7
STANDARD
210
0
220
0
230
1
 50
0
 73
    2
 44
1
  0
SOLID
  5
1C6
100
AcDbEntity
  8
0
  6
ByBlock
 62
    0
370
   -2
100
AcDbTrace
 10
11.1
 20
2.3
 30
0
 11
11.2
 21
2.316651386310913
 31
0
 12
11.2
 22
2.283348613689086
 32
0
 13
11.2
 23
2.283348613689086
 33
0
  0
SOLID
  5
1C7
100
AcDbEntity
  8
0
  6
ByBlock
 62
    0
370
   -2
100
AcDbTrace
 10
12.4
 20
2.3
 30
0
 11
12.3
 21
2.283348613689086
 31
0
 12
12.3
 22
2.316651386310913
 32
0
 13
12.3
 23
2.316651386310913
 33
0
  0
LINE
  5
1C8
100
AcDbEntity
  8
0
  6
ByBlock
 62
    0
370
   -2
100
AcDbLine
 10
11.1
 20
2.575
 11
11.1
 21
2.25
  0
LINE
  5
1C9
100
AcDbEntity
  8
0
  6
ByBlock
 62
    0
370
   -2
100
AcDbLine
 10
12.4
 20
2.575
 11
12.4
 21
2.25
  0
ENDBLK
  5
A7
330
A5
100
AcDbEntity
  8
0
100
AcDbBlockEnd
  0
BLOCK
  5
A9
330
A8
100
AcDbEntity
  8
0
100
AcDbBlockBegin
  2
*D26
 70
    1
 10
0
 20
0
  3
*D26
  1

  0
LINE
  5
1CA
100
AcDbEntity
  8
0
  6
ByBlock
 62
    0
370
   -2
100
AcDbLine
 10
14.86659141121165
 20
2.555530470403882
 11
15.13340858878835
 21
2.644469529596118
  0
MTEXT
  5
1CB
100
AcDbEntity
  8
0
  6
CONTINUOUS
 62
    0
370
   -2
100
AcDbMText
 10
15.30733386009761
 20
2.78150156153675
 30
0
 40
0.1
 41
0.3666666666666667
 71
    5
 72
    1
  1
0.2812
  7
STANDARD
210
0
220
0
230
1
 50
18.43494882292241
 73
    2
 44
1
  0
SOLID
  5
1CC
100
AcDbEntity
  8
0
  6
ByBlock
 62
    0
370
   -2
100
AcDbTrace
 10
14.86659141121165
 20
2.555530470403882
 30
0
 11
14.95619411032252
 21
2.602950139088117
 31
0
 12
14.96672537171088
 22
2.571356354923016
 32
0
 13
14.96672537171088
 23
2.571356354923016
 33
0
  0
SOLID
  5
1CD
100
AcDbEntity
  8
0
  6
ByBlock
 62
    0
370
   -2
100
AcDbTrace
 10
15.13340858878835
 20
2.644469529596118
 30
0
 11
15.04380588967748
 21
2.597049860911883
 31
0
 12
15.03327462828912
 22
2.628643645076984
 32
0
 13
15.03327462828912
 23
2.628643645076984
 33
0
  0
ENDBLK
  5
AA
330
A8
100
AcDbEntity
  8
0
100
AcDbBlockEnd
  0
BLOCK
  5
AC
330
AB
100
AcDbEntity
  8
0
100
AcDbBlockBegin
  2
*D44
 70
    1
 10
0
 20
0
  3
*D44
  1

  0
LINE
  5
1CE
100
AcDbEntity
  8
0
  6
ByBlock
 62
    0
370
   -2
100
AcDbLine
 10
4.8
 20
0.4
 11
6.4
 21
0.4
  0
MTEXT
  5
1CF
100
AcDbEntity
  8
0
  6
CONTINUOUS
 62
    0
370
   -2
100
AcDbMText
 10
5.6
 20
0.475
 30
0
 40
0.1
 41
0.3666666666666729
 71
    5
 72
    1
  1
1.6000
  7
STANDARD
210
0
220
0
230
1
 50
0
 73
    2
 44
1
  0
SOLID
  5
1D0
100
AcDbEntity
  8
0
  6
ByBlock
 62
    0
370
   -2
100
AcDbTrace
 10
4.8
 20
0.4
 30
0
 11
4.899999999999999
 21
0.4166513863109136
 31
0
 12
4.899999999999999
 22
0.3833486136890864
 32
0
 13
4.899999999999999
 23
0.3833486136890864
 33
0
  0
SOLID
  5
1D1
100
AcDbEntity
  8
0
  6
ByBlock
 62
    0
370
   -2
100
AcDbTrace
 10
6.4
 20
0.4
 30
0
 11
6.300000000000001
 21
0.3833486136890864
 31
0
 12
6.300000000000001
 22
0.4166513863109136
 32
0
 13
6.300000000000001
 23
0.4166513863109136
 33
0
  0
LINE
  5
1D2
100
AcDbEntity
  8
0
  6
ByBlock
 62
    0
370
   -2
100
AcDbLine
 10
4.8
 20
0.575
 11
4.8
 21
0.35
  0
LINE
  5
1D3
100
AcDbEntity
  8
0
  6
ByBlock
 62
    0
370
   -2
100
AcDbLine
 10
6.4
 20
0.575
 11
6.4
 21
0.35
  0
ENDBLK
  5
AD
330
AB
100
AcDbEntity
  8
0
100
AcDbBlockEnd
  0
BLOCK
  5
AF
330
AE
100
AcDbEntity
  8
0
100
AcDbBlockBegin
  2
*D58
 70
    1
 10
0
 20
0
  3
*D58
  1

  0
LINE
  5
1D4
100
AcDbEntity
  8
0
  6
ByBlock
 62
    0
370
   -2
100
AcDbLine
 10
0.8000000000000003
 20
1.33
 11
3.55
 21
1.33
  0
MTEXT
  5
1D5
100
AcDbEntity
  8
0
  6
CONTINUOUS
 62
    0
370
   -2
100
AcDbMText
 10
2.175
 20
1.405
 30
0
 40
0.1
 41
0.3888888888888951
 71
    5
 72
    1
  1
2.7500
  7
STANDARD
210
0
220
0
230
1
 50
0
 73
    2
 44
1
  0
SOLID
  5
1D6
100
AcDbEntity
  8
0
  6
ByBlock
 62
    0
370
   -2
100
AcDbTrace
 10
0.8000000000000003
 20
1.33
 30
0
 11
0.9000000000000002
 21
1.346651386310914
 31
0
 12
0.9000000000000002
 22
1.313348613689086
 32
0
 13
0.9000000000000002
 23
1.313348613689086
 33
0
  0
SOLID
  5
1D7
100
AcDbEntity
  8
0
  6
ByBlock
 62
    0
370
   -2
100
AcDbTrace
 10
3.55
 20
1.33
 30
0
 11
3.45
 21
1.313348613689086
 31
0
 12
3.45
 22
1.346651386310914
 32
0
 13
3.45
 23
1.346651386310914
 33
0
  0
LINE
  5
1D8
100
AcDbEntity
  8
0
  6
ByBlock
 62
    0
370
   -2
100
AcDbLine
 10
0.8000000000000002
 20
1.275
 11
0.8000000000000004
 21
1.38
  0
LINE
  5
1D9
100
AcDbEntity
  8
0
  6
ByBlock
 62
    0
370
   -2
100
AcDbLine
 10
3.55
 20
1.275
 11
3.55
 21
1.38
  0
ENDBLK
  5
B0
330
AE
100
AcDbEntity
  8
0
100
AcDbBlockEnd
  0
BLOCK
  5
B2
330
B1
100
AcDbEntity
  8
0
100
AcDbBlockBegin
  2
*D28
 70
    1
 10
0
 20
0
  3
*D28
  1

  0
LINE
  5
1DA
100
AcDbEntity
  8
0
  6
ByBlock
 62
    0
370
   -2
100
AcDbLine
 10
16.75
 20
0.3899999999999999
 11
17
 21
0.3899999999999999
  0
MTEXT
  5
1DB
100
AcDbEntity
  8
0
  6
CONTINUOUS
 62
    0
370
   -2
100
AcDbMText
 10
17.21944444444445
 20
0.4649999999999999
 30
0
 40
0.1
 41
0.3888888888888951
 71
    5
 72
    1
  1
0.2500
  7
STANDARD
210
0
220
0
230
1
 50
0
 73
    2
 44
1
  0
SOLID
  5
1DC
100
AcDbEntity
  8
0
  6
ByBlock
 62
    0
370
   -2
100
AcDbTrace
 10
16.75
 20
0.3899999999999999
 30
0
 11
16.85
 21
0.4066513863109135
 31
0
 12
16.85
 22
0.3733486136890863
 32
0
 13
16.85
 23
0.3733486136890863
 33
0
  0
SOLID
  5
1DD
100
AcDbEntity
  8
0
  6
ByBlock
 62
    0
370
   -2
100
AcDbTrace
 10
17
 20
0.3899999999999999
 30
0
 11
16.9
 21
0.3733486136890863
 31
0
 12
16.9
 22
0.4066513863109135
 32
0
 13
16.9
 23
0.4066513863109135
 33
0
  0
LINE
  5
1DE
100
AcDbEntity
  8
0
  6
ByBlock
 62
    0
370
   -2
100
AcDbLine
 10
16.75
 20
0.575
 11
16.75
 21
0.3399999999999999
  0
LINE
  5
1DF
100
AcDbEntity
  8
0
  6
ByBlock
 62
    0
370
   -2
100
AcDbLine
 10
17
 20
0.575
 11
17
 21
0.3399999999999999
  0
ENDBLK
  5
B3
330
B1
100
AcDbEntity
  8
0
100
AcDbBlockEnd
  0
BLOCK
  5
B5
330
B4
100
AcDbEntity
  8
0
100
AcDbBlockBegin
  2
*D49
 70
    1
 10
0
 20
0
  3
*D49
  1

  0
LINE
  5
1E0
100
AcDbEntity
  8
0
  6
ByBlock
 62
    0
370
   -2
100
AcDbLine
 10
6.577611860786266
 20
0.7776118607862663
 11
6.222388139213734
 21
0.4223881392137337
  0
MTEXT
  5
1E1
100
AcDbEntity
  8
0
  6
CONTINUOUS
 62
    0
370
   -2
100
AcDbMText
 10
6.534399779713755
 20
0.8404657968917372
 30
0
 40
0.1
 41
0.3777777777777778
 71
    5
 72
    1
  1
0.1024
  7
STANDARD
210
0
220
0
230
1
 50
45
 73
    2
 44
1
  0
SOLID
  5
1E2
100
AcDbEntity
  8
0
  6
ByBlock
 62
    0
370
   -2
100
AcDbTrace
 10
6.436190504548957
 20
0.6361905045489568
 30
0
 11
6.495126874491008
 21
0.7186754908442153
 31
0
 12
6.518675490844216
 22
0.6951268744910076
 32
0
 13
6.518675490844216
 23
0.6951268744910076
 33
0
  0
SOLID
  5
1E3
100
AcDbEntity
  8
0
  6
ByBlock
 62
    0
370
   -2
100
AcDbTrace
 10
6.363809495451044
 20
0.5638094954510432
 30
0
 11
6.304873125508992
 21
0.4813245091557846
 31
0
 12
6.281324509155785
 22
0.5048731255089923
 32
0
 13
6.281324509155785
 23
0.5048731255089923
 33
0
  0
ENDBLK
  5
B6
330
B4
100
AcDbEntity
  8
0
100
AcDbBlockEnd
  0
BLOCK
  5
B8
330
B7
100
AcDbEntity
  8
0
100
AcDbBlockBegin
  2
*D12
 70
    1
 10
0
 20
0
  3
*D12
  1

  0
LINE
  5
1E4
100
AcDbEntity
  8
0
  6
ByBlock
 62
    0
370
   -2
100
AcDbLine
 10
9.875
 20
0.6000000000000001
 11
9.875
 21
6.910583216779284e-17
  0
MTEXT
  5
1E5
100
AcDbEntity
  8
0
  6
CONTINUOUS
 62
    0
370
   -2
100
AcDbMText
 10
9.800000000000001
 20
0.3
 30
0
 40
0.1
 41
0.3888888888888951
 71
    5
 72
    1
  1
0.6000
  7
STANDARD
210
0
220
0
230
1
 50
90
 73
    2
 44
1
  0
SOLID
  5
1E6
100
AcDbEntity
  8
0
  6
ByBlock
 62
    0
370
   -2
100
AcDbTrace
 10
9.875
 20
0.6000000000000001
 30
0
 11
9.891651386310913
 21
0.5000000000000001
 31
0
 12
9.858348613689087
 22
0.5000000000000001
 32
0
 13
9.858348613689087
 23
0.5000000000000001
 33
0
  0
SOLID
  5
1E7
100
AcDbEntity
  8
0
  6
ByBlock
 62
    0
370
   -2
100
AcDbTrace
 10
9.875
 20
6.910583216779284e-17
 30
0
 11
9.858348613689087
 21
0.1000000000000001
 31
0
 12
9.891651386310913
 22
0.1000000000000001
 32
0
 13
9.891651386310913
 23
0.1000000000000001
 33
0
  0
LINE
  5
1E8
100
AcDbEntity
  8
0
  6
ByBlock
 62
    0
370
   -2
100
AcDbLine
 10
10.04
 20
0.6000000000000001
 11
9.824999999999999
 21
0.6000000000000001
  0
LINE
  5
1E9
100
AcDbEntity
  8
0
  6
ByBlock
 62
    0
370
   -2
100
AcDbLine
 10
10.04
 20
6.204221518107983e-17
 11
9.824999999999999
 21
7.52290661635296e-17
  0
ENDBLK
  5
B9
330
B7
100
AcDbEntity
  8
0
100
AcDbBlockEnd
  0
BLOCK
  5
BB
330
BA
100
AcDbEntity
  8
0
100
AcDbBlockBegin
  2
*D60
 70
    1
 10
0
 20
0
  3
*D60
  1

  0
LINE
  5
1EA
100
AcDbEntity
  8
0
  6
ByBlock
 62
    0
370
   -2
100
AcDbLine
 10
3.6
 20
2.2
 11
3.6
 21
1.25
  0
MTEXT
  5
1EB
100
AcDbEntity
  8
0
  6
CONTINUOUS
 62
    0
370
   -2
100
AcDbMText
 10
3.525
 20
1.725
 30
0
 40
0.1
 41
0.3888888888888951
 71
    5
 72
    1
  1
0.9500
  7
STANDARD
210
0
220
0
230
1
 50
90
 73
    2
 44
1
  0
SOLID
  5
1EC
100
AcDbEntity
  8
0
  6
ByBlock
 62
    0
370
   -2
100
AcDbTrace
 10
3.6
 20
2.2
 30
0
 11
3.616651386310914
 21
2.1
 31
0
 12
3.583348613689087
 22
2.1
 32
0
 13
3.583348613689087
 23
2.1
 33
0
  0
SOLID
  5
1ED
100
AcDbEntity
  8
0
  6
ByBlock
 62
    0
370
   -2
100
AcDbTrace
 10
3.6
 20
1.25
 30
0
 11
3.583348613689087
 21
1.35
 31
0
 12
3.616651386310914
 22
1.35
 32
0
 13
3.616651386310914
 23
1.35
 33
0
  0
LINE
  5
1EE
100
AcDbEntity
  8
0
  6
ByBlock
 62
    0
370
   -2
100
AcDbLine
 10
3.575
 20
2.2
 11
3.65
 21
2.2
  0
LINE
  5
1EF
100
AcDbEntity
  8
0
  6
ByBlock
 62
    0
370
   -2
100
AcDbLine
 10
3.575
 20
1.25
 11
3.65
 21
1.25
  0
ENDBLK
  5
BC
330
BA
100
AcDbEntity
  8
0
100
AcDbBlockEnd
  0
BLOCK
  5
BE
330
BD
100
AcDbEntity
  8
0
100
AcDbBlockBegin
  2
*D2
 70
    1
 10
0
 20
0
  3
*D2
  1

  0
LINE
  5
1F0
100
AcDbEntity
  8
0
  6
ByBlock
 62
    0
370
   -2
100
AcDbLine
 10
7.550000000000001
 20
-0.000300000000000189
 11
7.550000000000001
 21
4.7027
  0
MTEXT
  5
1F1
100
AcDbEntity
  8
0
  6
CONTINUOUS
 62
    0
370
   -2
100
AcDbMText
 10
7.475000000000001
 20
2.3512
 30
0
 40
0.1
 41
0.4000000000000061
 71
    5
 72
    1
  1
4.7030
  7
STANDARD
210
0
220
0
230
1
 50
90
 73
    2
 44
1
  0
SOLID
  5
1F2
100
AcDbEntity
  8
0
  6
ByBlock
 62
    0
370
   -2
100
AcDbTrace
 10
7.550000000000001
 20
-0.000300000000000189
 30
0
 11
7.533348613689087
 21
0.09969999999999982
 31
0
 12
7.566651386310914
 22
0.09969999999999982
 32
0
 13
7.566651386310914
 23
0.09969999999999982
 33
0
  0
SOLID
  5
1F3
100
AcDbEntity
  8
0
  6
ByBlock
 62
    0
370
   -2
100
AcDbTrace
 10
7.550000000000001
 20
4.7027
 30
0
 11
7.566651386310914
 21
4.6027
 31
0
 12
7.533348613689087
 22
4.6027
 32
0
 13
7.533348613689087
 23
4.6027
 33
0
  0
LINE
  5
1F4
100
AcDbEntity
  8
0
  6
ByBlock
 62
    0
370
   -2
100
AcDbLine
 10
7.572000000000001
 20
-0.000300000000006684
 11
7.600000000000001
 21
-0.000300000000014945
  0
LINE
  5
1F5
100
AcDbEntity
  8
0
  6
ByBlock
 62
    0
370
   -2
100
AcDbLine
 10
7.572000000000001
 20
4.7027
 11
7.600000000000001
 21
4.7027
  0
ENDBLK
  5
BF
330
BD
100
AcDbEntity
  8
0
100
AcDbBlockEnd
  0
BLOCK
  5
C1
330
C0
100
AcDbEntity
  8
0
100
AcDbBlockBegin
  2
*D41
 70
    1
 10
0
 20
0
  3
*D41
  1

  0
LINE
  5
1F6
100
AcDbEntity
  8
0
  6
ByBlock
 62
    0
370
   -2
100
AcDbLine
 10
4.800000000000001
 20
4.5
 11
6.4
 21
4.5
  0
MTEXT
  5
1F7
100
AcDbEntity
  8
0
  6
CONTINUOUS
 62
    0
370
   -2
100
AcDbMText
 10
5.600000000000001
 20
4.575
 30
0
 40
0.1
 41
0.3666666666666729
 71
    5
 72
    1
  1
1.6000
  7
STANDARD
210
0
220
0
230
1
 50
0
 73
    2
 44
1
  0
SOLID
  5
1F8
100
AcDbEntity
  8
0
  6
ByBlock
 62
    0
370
   -2
100
AcDbTrace
 10
4.800000000000001
 20
4.5
 30
0
 11
4.9
 21
4.516651386310913
 31
0
 12
4.9
 22
4.483348613689087
 32
0
 13
4.9
 23
4.483348613689087
 33
0
  0
SOLID
  5
1F9
100
AcDbEntity
  8
0
  6
ByBlock
 62
    0
370
   -2
100
AcDbTrace
 10
6.4
 20
4.5
 30
0
 11
6.300000000000001
 21
4.483348613689087
 31
0
 12
6.300000000000001
 22
4.516651386310913
 32
0
 13
6.300000000000001
 23
4.516651386310913
 33
0
  0
LINE
  5
1FA
100
AcDbEntity
  8
0
  6
ByBlock
 62
    0
370
   -2
100
AcDbLine
 10
4.800000000000001
 20
4.225000000000001
 11
4.800000000000001
 21
4.55
  0
LINE
  5
1FB
100
AcDbEntity
  8
0
  6
ByBlock
 62
    0
370
   -2
100
AcDbLine
 10
6.4
 20
4.225000000000001
 11
6.4
 21
4.55
  0
ENDBLK
  5
C2
330
C0
100
AcDbEntity
  8
0
100
AcDbBlockEnd
  0
BLOCK
  5
C4
330
C3
100
AcDbEntity
  8
0
100
AcDbBlockBegin
  2
*D21
 70
    1
 10
0
 20
0
  3
*D21
  1

  0
LINE
  5
1FC
100
AcDbEntity
  8
0
  6
ByBlock
 62
    0
370
   -2
100
AcDbLine
 10
12.26659141121165
 20
3.655530470403882
 11
12.53340858878835
 21
3.744469529596118
  0
MTEXT
  5
1FD
100
AcDbEntity
  8
0
  6
CONTINUOUS
 62
    0
370
   -2
100
AcDbMText
 10
12.70733386009761
 20
3.881501561536751
 30
0
 40
0.1
 41
0.3666666666666667
 71
    5
 72
    1
  1
0.2812
  7
STANDARD
210
0
220
0
230
1
 50
18.43494882292262
 73
    2
 44
1
  0
SOLID
  5
1FE
100
AcDbEntity
  8
0
  6
ByBlock
 62
    0
370
   -2
100
AcDbTrace
 10
12.26659141121165
 20
3.655530470403882
 30
0
 11
12.35619411032252
 21
3.702950139088117
 31
0
 12
12.36672537171088
 22
3.671356354923016
 32
0
 13
12.36672537171088
 23
3.671356354923016
 33
0
  0
SOLID
  5
1FF
100
AcDbEntity
  8
0
  6
ByBlock
 62
    0
370
   -2
100
AcDbTrace
 10
12.53340858878835
 20
3.744469529596118
 30
0
 11
12.44380588967748
 21
3.697049860911882
 31
0
 12
12.43327462828911
 22
3.728643645076984
 32
0
 13
12.43327462828911
 23
3.728643645076984
 33
0
  0
ENDBLK
  5
C5
330
C3
100
AcDbEntity
  8
0
100
AcDbBlockEnd
  0
BLOCK
  5
C7
330
C6
100
AcDbEntity
  8
0
100
AcDbBlockBegin
  2
*D43
 70
    1
 10
0
 20
0
  3
*D43
  1

  0
LINE
  5
200
100
AcDbEntity
  8
0
  6
ByBlock
 62
    0
370
   -2
100
AcDbLine
 10
6.7
 20
4.2
 11
6.7
 21
0.6000000000000001
  0
MTEXT
  5
201
100
AcDbEntity
  8
0
  6
CONTINUOUS
 62
    0
370
   -2
100
AcDbMText
 10
6.625
 20
2.4
 30
0
 40
0.1
 41
0.3888888888889013
 71
    5
 72
    1
  1
3.6000
  7
STANDARD
210
0
220
0
230
1
 50
90
 73
    2
 44
1
  0
SOLID
  5
202
100
AcDbEntity
  8
0
  6
ByBlock
 62
    0
370
   -2
100
AcDbTrace
 10
6.7
 20
4.2
 30
0
 11
6.716651386310914
 21
4.100000000000001
 31
0
 12
6.683348613689087
 22
4.100000000000001
 32
0
 13
6.683348613689087
 23
4.100000000000001
 33
0
  0
SOLID
  5
203
100
AcDbEntity
  8
0
  6
ByBlock
 62
    0
370
   -2
100
AcDbTrace
 10
6.7
 20
0.6000000000000001
 30
0
 11
6.683348613689087
 21
0.7000000000000001
 31
0
 12
6.716651386310914
 22
0.7000000000000001
 32
0
 13
6.716651386310914
 23
0.7000000000000001
 33
0
  0
LINE
  5
204
100
AcDbEntity
  8
0
  6
ByBlock
 62
    0
370
   -2
100
AcDbLine
 10
6.425000000000001
 20
4.2
 11
6.75
 21
4.2
  0
LINE
  5
205
100
AcDbEntity
  8
0
  6
ByBlock
 62
    0
370
   -2
100
AcDbLine
 10
6.425000000000001
 20
0.6000000000000001
 11
6.75
 21
0.6000000000000001
  0
ENDBLK
  5
C8
330
C6
100
AcDbEntity
  8
0
100
AcDbBlockEnd
  0
BLOCK
  5
CA
330
C9
100
AcDbEntity
  8
0
100
AcDbBlockBegin
  2
*D1
 70
    1
 10
0
 20
0
  3
*D1
  1

  0
LINE
  5
206
100
AcDbEntity
  8
0
  6
ByBlock
 62
    0
370
   -2
100
AcDbLine
 10
-8.881784197001252e-16
 20
-0.3
 11
7.39
 21
-0.3
  0
MTEXT
  5
207
100
AcDbEntity
  8
0
  6
CONTINUOUS
 62
    0
370
   -2
100
AcDbMText
 10
3.695
 20
-0.225
 30
0
 40
0.1
 41
0.3888888888888952
 71
    5
 72
    1
  1
7.3900
  7
STANDARD
210
0
220
0
230
1
 50
0
 73
    2
 44
1
  0
SOLID
  5
208
100
AcDbEntity
  8
0
  6
ByBlock
 62
    0
370
   -2
100
AcDbTrace
 10
-8.881784197001252e-16
 20
-0.3
 30
0
 11
0.09999999999999912
 21
-0.2833486136890864
 31
0
 12
0.09999999999999912
 22
-0.3166513863109136
 32
0
 13
0.09999999999999912
 23
-0.3166513863109136
 33
0
  0
SOLID
  5
209
100
AcDbEntity
  8
0
  6
ByBlock
 62
    0
370
   -2
100
AcDbTrace
 10
7.39
 20
-0.3
 30
0
 11
7.29
 21
-0.3166513863109136
 31
0
 12
7.29
 22
-0.2833486136890864
 32
0
 13
7.29
 23
-0.2833486136890864
 33
0
  0
LINE
  5
20A
100
AcDbEntity
  8
0
  6
ByBlock
 62
    0
370
   -2
100
AcDbLine
 10
-3.265571026380979e-16
 20
-0.02500000000000003
 11
-9.861811126637429e-16
 21
-0.35
  0
LINE
  5
20B
100
AcDbEntity
  8
0
  6
ByBlock
 62
    0
370
   -2
100
AcDbLine
 10
7.390000000000001
 20
-0.02499999999999999
 11
7.39
 21
-0.35
  0
ENDBLK
  5
CB
330
C9
100
AcDbEntity
  8
0
100
AcDbBlockEnd
  0
BLOCK
  5
CD
330
CC
100
AcDbEntity
  8
0
100
AcDbBlockBegin
  2
*D20
 70
    1
 10
0
 20
0
  3
*D20
  1

  0
LINE
  5
20C
100
AcDbEntity
  8
0
  6
ByBlock
 62
    0
370
   -2
100
AcDbLine
 10
13.56659141121165
 20
3.655530470403883
 11
13.83340858878835
 21
3.744469529596118
  0
MTEXT
  5
20D
100
AcDbEntity
  8
0
  6
CONTINUOUS
 62
    0
370
   -2
100
AcDbMText
 10
14.00733386009761
 20
3.881501561536749
 30
0
 40
0.1
 41
0.3666666666666667
 71
    5
 72
    1
  1
0.2812
  7
STANDARD
210
0
220
0
230
1
 50
18.43494882292236
 73
    2
 44
1
  0
SOLID
  5
20E
100
AcDbEntity
  8
0
  6
ByBlock
 62
    0
370
   -2
100
AcDbTrace
 10
13.56659141121165
 20
3.655530470403883
 30
0
 11
13.65619411032252
 21
3.702950139088118
 31
0
 12
13.66672537171089
 22
3.671356354923017
 32
0
 13
13.66672537171089
 23
3.671356354923017
 33
0
  0
SOLID
  5
20F
100
AcDbEntity
  8
0
  6
ByBlock
 62
    0
370
   -2
100
AcDbTrace
 10
13.83340858878835
 20
3.744469529596118
 30
0
 11
13.74380588967748
 21
3.697049860911883
 31
0
 12
13.73327462828911
 22
3.728643645076984
 32
0
 13
13.73327462828911
 23
3.728643645076984
 33
0
  0
ENDBLK
  5
CE
330
CC
100
AcDbEntity
  8
0
100
AcDbBlockEnd
  0
BLOCK
  5
D0
330
CF
100
AcDbEntity
  8
0
100
AcDbBlockBegin
  2
*D35
 70
    1
 10
0
 20
0
  3
*D35
  1

  0
LINE
  5
210
100
AcDbEntity
  8
0
  6
ByBlock
 62
    0
370
   -2
100
AcDbLine
 10
12.4
 20
2.3
 11
13.7
 21
2.3
  0
MTEXT
  5
211
100
AcDbEntity
  8
0
  6
CONTINUOUS
 62
    0
370
   -2
100
AcDbMText
 10
13.05
 20
2.375
 30
0
 40
0.1
 41
0.3666666666666729
 71
    5
 72
    1
  1
1.3000
  7
STANDARD
210
0
220
0
230
1
 50
0
 73
    2
 44
1
  0
SOLID
  5
212
100
AcDbEntity
  8
0
  6
ByBlock
 62
    0
370
   -2
100
AcDbTrace
 10
12.4
 20
2.3
 30
0
 11
12.5
 21
2.316651386310913
 31
0
 12
12.5
 22
2.283348613689086
 32
0
 13
12.5
 23
2.283348613689086
 33
0
  0
SOLID
  5
213
100
AcDbEntity
  8
0
  6
ByBlock
 62
    0
370
   -2
100
AcDbTrace
 10
13.7
 20
2.3
 30
0
 11
13.6
 21
2.283348613689086
 31
0
 12
13.6
 22
2.316651386310913
 32
0
 13
13.6
 23
2.316651386310913
 33
0
  0
LINE
  5
214
100
AcDbEntity
  8
0
  6
ByBlock
 62
    0
370
   -2
100
AcDbLine
 10
12.4
 20
2.575
 11
12.4
 21
2.25
  0
LINE
  5
215
100
AcDbEntity
  8
0
  6
ByBlock
 62
    0
370
   -2
100
AcDbLine
 10
13.7
 20
2.575
 11
13.7
 21
2.25
  0
ENDBLK
  5
D1
330
CF
100
AcDbEntity
  8
0
100
AcDbBlockEnd
  0
BLOCK
  5
D3
330
D2
100
AcDbEntity
  8
0
100
AcDbBlockBegin
  2
*D47
 70
    1
 10
0
 20
0
  3
*D47
  1

  0
LINE
  5
216
100
AcDbEntity
  8
0
  6
ByBlock
 62
    0
370
   -2
100
AcDbLine
 10
6.479430438865664
 20
3.961708683403007
 11
6.320569561134337
 21
4.438291316596993
  0
MTEXT
  5
217
100
AcDbEntity
  8
0
  6
CONTINUOUS
 62
    0
370
   -2
100
AcDbMText
 10
6.554973738525241
 20
3.972249608936901
 30
0
 40
0.1
 41
0.3777777777777778
 71
    5
 72
    1
  1
0.1024
  7
STANDARD
210
0
220
0
230
1
 50
288.4349488229217
 73
    2
 44
1
  0
SOLID
  5
218
100
AcDbEntity
  8
0
  6
ByBlock
 62
    0
370
   -2
100
AcDbTrace
 10
6.416184885662297
 20
4.15144534301311
 30
0
 11
6.463604554346531
 21
4.061842643902242
 31
0
 12
6.432010770181429
 22
4.051311382513875
 32
0
 13
6.432010770181429
 23
4.051311382513875
 33
0
  0
SOLID
  5
219
100
AcDbEntity
  8
0
  6
ByBlock
 62
    0
370
   -2
100
AcDbTrace
 10
6.383815114337704
 20
4.24855465698689
 30
0
 11
6.33639544565347
 21
4.338157356097758
 31
0
 12
6.367989229818572
 22
4.348688617486125
 32
0
 13
6.367989229818572
 23
4.348688617486125
 33
0
  0
ENDBLK
  5
D4
330
D2
100
AcDbEntity
  8
0
100
AcDbBlockEnd
  0
BLOCK
  5
D6
330
D5
100
AcDbEntity
  8
0
100
AcDbBlockBegin
  2
*D64
 70
    1
 10
0
 20
0
  3
*D64
  1

  0
LINE
  5
21A
100
AcDbEntity
  8
0
  6
ByBlock
 62
    0
370
   -2
100
AcDbLine
 10
3.983179630716875
 20
3.616820369283125
 11
3.616820369283125
 21
3.983179630716875
  0
MTEXT
  5
21B
100
AcDbEntity
  8
0
  6
CONTINUOUS
 62
    0
370
   -2
100
AcDbMText
 10
4.026391711789386
 20
3.679674305388596
 30
0
 40
0.1
 41
0.3222222222222222
 71
    5
 72
    1
  1
0.1181
  7
STANDARD
210
0
220
0
230
1
 50
315
 73
    2
 44
1
  0
SOLID
  5
21C
100
AcDbEntity
  8
0
  6
ByBlock
 62
    0
370
   -2
100
AcDbTrace
 10
3.841758274479565
 20
3.758241725520435
 30
0
 11
3.924243260774824
 21
3.699305355578384
 31
0
 12
3.900694644421616
 22
3.675756739225176
 32
0
 13
3.900694644421616
 23
3.675756739225176
 33
0
  0
SOLID
  5
21D
100
AcDbEntity
  8
0
  6
ByBlock
 62
    0
370
   -2
100
AcDbTrace
 10
3.758241725520434
 20
3.841758274479566
 30
0
 11
3.675756739225176
 21
3.900694644421617
 31
0
 12
3.699305355578383
 22
3.924243260774825
 32
0
 13
3.699305355578383
 23
3.924243260774825
 33
0
  0
ENDBLK
  5
D7
330
D5
100
AcDbEntity
  8
0
100
AcDbBlockEnd
  0
BLOCK
  5
D9
330
D8
100
AcDbEntity
  8
0
100
AcDbBlockBegin
  2
*D22
 70
    1
 10
0
 20
0
  3
*D22
  1

  0
LINE
  5
21E
100
AcDbEntity
  8
0
  6
ByBlock
 62
    0
370
   -2
100
AcDbLine
 10
10.96659141121165
 20
3.655530470403882
 11
11.23340858878835
 21
3.744469529596118
  0
MTEXT
  5
21F
100
AcDbEntity
  8
0
  6
CONTINUOUS
 62
    0
370
   -2
100
AcDbMText
 10
11.40733386009761
 20
3.881501561536751
 30
0
 40
0.1
 41
0.3666666666666667
 71
    5
 72
    1
  1
0.2812
  7
STANDARD
210
0
220
0
230
1
 50
18.43494882292262
 73
    2
 44
1
  0
SOLID
  5
220
100
AcDbEntity
  8
0
  6
ByBlock
 62
    0
370
   -2
100
AcDbTrace
 10
10.96659141121165
 20
3.655530470403882
 30
0
 11
11.05619411032252
 21
3.702950139088117
 31
0
 12
11.06672537171089
 22
3.671356354923016
 32
0
 13
11.06672537171089
 23
3.671356354923016
 33
0
  0
SOLID
  5
221
100
AcDbEntity
  8
0
  6
ByBlock
 62
    0
370
   -2
100
AcDbTrace
 10
11.23340858878835
 20
3.744469529596118
 30
0
 11
11.14380588967748
 21
3.697049860911882
 31
0
 12
11.13327462828912
 22
3.728643645076984
 32
0
 13
11.13327462828912
 23
3.728643645076984
 33
0
  0
ENDBLK
  5
DA
330
D8
100
AcDbEntity
  8
0
100
AcDbBlockEnd
  0
BLOCK
  5
DC
330
DB
100
AcDbEntity
  8
0
100
AcDbBlockBegin
  2
*D24
 70
    1
 10
0
 20
0
  3
*D24
  1

  0
LINE
  5
222
100
AcDbEntity
  8
0
  6
ByBlock
 62
    0
370
   -2
100
AcDbLine
 10
12.27422117626564
 20
2.537110588132819
 11
12.52577882373436
 21
2.662889411867182
  0
MTEXT
  5
223
100
AcDbEntity
  8
0
  6
CONTINUOUS
 62
    0
370
   -2
100
AcDbMText
 10
12.67857680219684
 20
2.823140950254668
 30
0
 40
0.1
 41
0.3666666666666667
 71
    5
 72
    1
  1
0.2812
  7
STANDARD
210
0
220
0
230
1
 50
26.56505117707848
 73
    2
 44
1
  0
SOLID
  5
224
100
AcDbEntity
  8
0
  6
ByBlock
 62
    0
370
   -2
100
AcDbTrace
 10
12.27422117626564
 20
2.537110588132819
 30
0
 11
12.35621716902347
 21
2.596725400367141
 31
0
 12
12.37111062170779
 22
2.566938494998491
 32
0
 13
12.37111062170779
 23
2.566938494998491
 33
0
  0
SOLID
  5
225
100
AcDbEntity
  8
0
  6
ByBlock
 62
    0
370
   -2
100
AcDbTrace
 10
12.52577882373436
 20
2.662889411867182
 30
0
 11
12.44378283097653
 21
2.603274599632861
 31
0
 12
12.42888937829221
 22
2.63306150500151
 32
0
 13
12.42888937829221
 23
2.63306150500151
 33
0
  0
ENDBLK
  5
DD
330
DB
100
AcDbEntity
  8
0
100
AcDbBlockEnd
  0
BLOCK
  5
DF
330
DE
100
AcDbEntity
  8
0
100
AcDbBlockBegin
  2
*D4
 70
    1
 10
0
 20
0
  3
*D4
  1

  0
LINE
  5
226
100
AcDbEntity
  8
0
  6
ByBlock
 62
    0
370
   -2
100
AcDbLine
 10
9.700000000000001
 20
4.313000000000001
 11
9.700000000000001
 21
-1.176836406102672e-17
  0
MTEXT
  5
227
100
AcDbEntity
  8
0
  6
CONTINUOUS
 62
    0
370
   -2
100
AcDbMText
 10
9.625000000000002
 20
2.1565
 30
0
 40
0.1
 41
0.3777777777777902
 71
    5
 72
    1
  1
4.3130
  7
STANDARD
210
0
220
0
230
1
 50
90
 73
    2
 44
1
  0
SOLID
  5
228
100
AcDbEntity
  8
0
  6
ByBlock
 62
    0
370
   -2
100
AcDbTrace
 10
9.700000000000001
 20
4.313000000000001
 30
0
 11
9.716651386310915
 21
4.213000000000001
 31
0
 12
9.683348613689088
 22
4.213000000000001
 32
0
 13
9.683348613689088
 23
4.213000000000001
 33
0
  0
SOLID
  5
229
100
AcDbEntity
  8
0
  6
ByBlock
 62
    0
370
   -2
100
AcDbTrace
 10
9.700000000000001
 20
-1.176836406102672e-17
 30
0
 11
9.683348613689088
 21
0.09999999999999999
 31
0
 12
9.716651386310915
 22
0.09999999999999999
 32
0
 13
9.716651386310915
 23
0.09999999999999999
 33
0
  0
LINE
  5
22A
100
AcDbEntity
  8
0
  6
ByBlock
 62
    0
370
   -2
100
AcDbLine
 10
9.974999999999998
 20
4.313000000000001
 11
9.65
 21
4.313000000000001
  0
LINE
  5
22B
100
AcDbEntity
  8
0
  6
ByBlock
 62
    0
370
   -2
100
AcDbLine
 10
9.975
 20
-2.469395861776053e-17
 11
9.65
 21
-5.64513006528995e-18
  0
ENDBLK
  5
E0
330
DE
100
AcDbEntity
  8
0
100
AcDbBlockEnd
  0
BLOCK
  5
E2
330
E1
100
AcDbEntity
  8
0
100
AcDbBlockBegin
  2
*D10
 70
    1
 10
0
 20
0
  3
*D10
  1

  0
LINE
  5
22C
100
AcDbEntity
  8
0
  6
ByBlock
 62
    0
370
   -2
100
AcDbLine
 10
10.2
 20
0.8500000000000001
 11
10.6
 21
0.8500000000000001
  0
MTEXT
  5
22D
100
AcDbEntity
  8
0
  6
CONTINUOUS
 62
    0
370
   -2
100
AcDbMText
 10
10.4
 20
0.925
 30
0
 40
0.1
 41
0.4
 71
    5
 72
    1
  1
0.4000
  7
STANDARD
210
0
220
0
230
1
 50
0
 73
    2
 44
1
  0
SOLID
  5
22E
100
AcDbEntity
  8
0
  6
ByBlock
 62
    0
370
   -2
100
AcDbTrace
 10
10.2
 20
0.8500000000000001
 30
0
 11
10.3
 21
0.8666513863109137
 31
0
 12
10.3
 22
0.8333486136890864
 32
0
 13
10.3
 23
0.8333486136890864
 33
0
  0
SOLID
  5
22F
100
AcDbEntity
  8
0
  6
ByBlock
 62
    0
370
   -2
100
AcDbTrace
 10
10.6
 20
0.8500000000000001
 30
0
 11
10.5
 21
0.8333486136890864
 31
0
 12
10.5
 22
0.8666513863109138
 32
0
 13
10.5
 23
0.8666513863109138
 33
0
  0
LINE
  5
230
100
AcDbEntity
  8
0
  6
ByBlock
 62
    0
370
   -2
100
AcDbLine
 10
10.2
 20
0.925
 11
10.2
 21
0.8
  0
LINE
  5
231
100
AcDbEntity
  8
0
  6
ByBlock
 62
    0
370
   -2
100
AcDbLine
 10
10.6
 20
0.925
 11
10.6
 21
0.8
  0
ENDBLK
  5
E3
330
E1
100
AcDbEntity
  8
0
100
AcDbBlockEnd
  0
BLOCK
  5
E5
330
E4
100
AcDbEntity
  8
0
100
AcDbBlockBegin
  2
*D23
 70
    1
 10
0
 20
0
  3
*D23
  1

  0
LINE
  5
232
100
AcDbEntity
  8
0
  6
ByBlock
 62
    0
370
   -2
100
AcDbLine
 10
10.96659141121165
 20
2.555530470403882
 11
11.23340858878835
 21
2.644469529596118
  0
MTEXT
  5
233
100
AcDbEntity
  8
0
  6
CONTINUOUS
 62
    0
370
   -2
100
AcDbMText
 10
11.40733386009761
 20
2.78150156153675
 30
0
 40
0.1
 41
0.3666666666666667
 71
    5
 72
    1
  1
0.2812
  7
STANDARD
210
0
220
0
230
1
 50
18.43494882292252
 73
    2
 44
1
  0
SOLID
  5
234
100
AcDbEntity
  8
0
  6
ByBlock
 62
    0
370
   -2
100
AcDbTrace
 10
10.96659141121165
 20
2.555530470403882
 30
0
 11
11.05619411032252
 21
2.602950139088117
 31
0
 12
11.06672537171089
 22
2.571356354923016
 32
0
 13
11.06672537171089
 23
2.571356354923016
 33
0
  0
SOLID
  5
235
100
AcDbEntity
  8
0
  6
ByBlock
 62
    0
370
   -2
100
AcDbTrace
 10
11.23340858878835
 20
2.644469529596118
 30
0
 11
11.14380588967748
 21
2.597049860911883
 31
0
 12
11.13327462828912
 22
2.628643645076984
 32
0
 13
11.13327462828912
 23
2.628643645076984
 33
0
  0
ENDBLK
  5
E6
330
E4
100
AcDbEntity
  8
0
100
AcDbBlockEnd
  0
BLOCK
  5
E8
330
E7
100
AcDbEntity
  8
0
100
AcDbBlockBegin
  2
*D63
 70
    1
 10
0
 20
0
  3
*D63
  1

  0
LINE
  5
236
100
AcDbEntity
  8
0
  6
ByBlock
 62
    0
370
   -2
100
AcDbLine
 10
0.9155468872733999
 20
3.656302075151067
 11
0.4844531127266
 21
3.943697924848933
  0
MTEXT
  5
237
100
AcDbEntity
  8
0
  6
CONTINUOUS
 62
    0
370
   -2
100
AcDbMText
 10
0.9455931479022665
 20
3.726410016618422
 30
0
 40
0.1
 41
0.3222222222222222
 71
    5
 72
    1
  1
0.1181
  7
STANDARD
210
0
220
0
230
1
 50
326.3099324740203
 73
    2
 44
1
  0
SOLID
  5
238
100
AcDbEntity
  8
0
  6
ByBlock
 62
    0
370
   -2
100
AcDbTrace
 10
0.7491368284058312
 20
3.767242114396113
 30
0
 11
0.8415783850937014
 21
3.725626885654719
 31
0
 12
0.8231053305855297
 22
3.697917303892461
 32
0
 13
0.8231053305855297
 23
3.697917303892461
 33
0
  0
SOLID
  5
239
100
AcDbEntity
  8
0
  6
ByBlock
 62
    0
370
   -2
100
AcDbTrace
 10
0.6508631715941687
 20
3.832757885603888
 30
0
 11
0.5584216149062985
 21
3.874373114345282
 31
0
 12
0.5768946694144702
 22
3.902082696107539
 32
0
 13
0.5768946694144702
 23
3.902082696107539
 33
0
  0
ENDBLK
  5
E9
330
E7
100
AcDbEntity
  8
0
100
AcDbBlockEnd
  0
BLOCK
  5
EB
330
EA
100
AcDbEntity
  8
0
100
AcDbBlockBegin
  2
*D16
 70
    1
 10
0
 20
0
  3
*D16
  1

  0
LINE
  5
23A
100
AcDbEntity
  8
0
  6
ByBlock
 62
    0
370
   -2
100
AcDbLine
 10
10.76
 20
0.6
 11
10.76
 21
0.9500000000000001
  0
MTEXT
  5
23B
100
AcDbEntity
  8
0
  6
CONTINUOUS
 62
    0
370
   -2
100
AcDbMText
 10
10.67
 20
0.5844444444444508
 30
0
 40
0.1
 41
0.3888888888889013
 71
    5
 72
    1
  1
0.3500
  7
STANDARD
210
0
220
0
230
1
 50
90
 73
    2
 44
1
  0
SOLID
  5
23C
100
AcDbEntity
  8
0
  6
ByBlock
 62
    0
370
   -2
100
AcDbTrace
 10
10.76
 20
0.6
 30
0
 11
10.74334861368909
 21
0.7
 31
0
 12
10.77665138631091
 22
0.7
 32
0
 13
10.77665138631091
 23
0.7
 33
0
  0
SOLID
  5
23D
100
AcDbEntity
  8
0
  6
ByBlock
 62
    0
370
   -2
100
AcDbTrace
 10
10.76
 20
0.9500000000000001
 30
0
 11
10.77665138631091
 21
0.8500000000000001
 31
0
 12
10.74334861368909
 22
0.8500000000000001
 32
0
 13
10.74334861368909
 23
0.8500000000000001
 33
0
  0
LINE
  5
23E
100
AcDbEntity
  8
0
  6
ByBlock
 62
    0
370
   -2
100
AcDbLine
 10
10.275
 20
0.6
 11
10.81
 21
0.6
  0
LINE
  5
23F
100
AcDbEntity
  8
0
  6
ByBlock
 62
    0
370
   -2
100
AcDbLine
 10
10.275
 20
0.9500000000000001
 11
10.81
 21
0.9500000000000001
  0
ENDBLK
  5
EC
330
EA
100
AcDbEntity
  8
0
100
AcDbBlockEnd
  0
BLOCK
  5
EE
330
ED
100
AcDbEntity
  8
0
100
AcDbBlockBegin
  2
*D70
 70
    1
 10
0
 20
0
  3
*D70
  1

  0
LINE
  5
240
100
AcDbEntity
  8
0
  6
ByBlock
 62
    0
370
   -2
100
AcDbLine
 10
15.28555557595461
 20
3.642777787977306
 11
15.51444442404539
 21
3.757222212022694
  0
MTEXT
  5
241
100
AcDbEntity
  8
0
  6
CONTINUOUS
 62
    0
370
   -2
100
AcDbMText
 10
15.67718048240788
 20
3.922442790360181
 30
0
 40
0.1
 41
0.3888888888889013
 71
    5
 72
    1
  1
0.2559
  7
STANDARD
210
0
220
0
230
1
 50
26.56505117707799
 73
    2
 44
1
  0
SOLID
  5
242
100
AcDbEntity
  8
0
  6
ByBlock
 62
    0
370
   -2
100
AcDbTrace
 10
15.28555557595461
 20
3.642777787977306
 30
0
 11
15.36755156871244
 21
3.702392600211627
 31
0
 12
15.38244502139677
 22
3.672605694842977
 32
0
 13
15.38244502139677
 23
3.672605694842977
 33
0
  0
SOLID
  5
243
100
AcDbEntity
  8
0
  6
ByBlock
 62
    0
370
   -2
100
AcDbTrace
 10
15.51444442404539
 20
3.757222212022694
 30
0
 11
15.43244843128756
 21
3.697607399788374
 31
0
 12
15.41755497860323
 22
3.727394305157023
 32
0
 13
15.41755497860323
 23
3.727394305157023
 33
0
  0
ENDBLK
  5
EF
330
ED
100
AcDbEntity
  8
0
100
AcDbBlockEnd
  0
BLOCK
  5
F1
330
F0
100
AcDbEntity
  8
0
100
AcDbBlockBegin
  2
*D15
 70
    1
 10
0
 20
0
  3
*D15
  1

  0
LINE
  5
244
100
AcDbEntity
  8
0
  6
ByBlock
 62
    0
370
   -2
100
AcDbLine
 10
13.3237800816964
 20
1.523780081696375
 11
13.6762199183036
 21
1.876219918303625
  0
MTEXT
  5
245
100
AcDbEntity
  8
0
  6
CONTINUOUS
 62
    0
370
   -2
100
AcDbMText
 10
13.64086457924427
 20
1.946930596422281
 30
0
 40
0.1
 41
0.4
 71
    5
 72
    1
  1
0.0984
  7
STANDARD
210
0
220
0
230
1
 50
45.00000000000438
 73
    2
 44
1
  0
SOLID
  5
246
100
AcDbEntity
  8
0
  6
ByBlock
 62
    0
370
   -2
100
AcDbTrace
 10
13.4652014379337
 20
1.665201437933695
 30
0
 11
13.40626506799166
 21
1.582716451638432
 31
0
 12
13.38271645163845
 22
1.606265067991638
 32
0
 13
13.38271645163845
 23
1.606265067991638
 33
0
  0
SOLID
  5
247
100
AcDbEntity
  8
0
  6
ByBlock
 62
    0
370
   -2
100
AcDbTrace
 10
13.5347985620663
 20
1.734798562066305
 30
0
 11
13.59373493200834
 21
1.817283548361568
 31
0
 12
13.61728354836155
 22
1.793734932008362
 32
0
 13
13.61728354836155
 23
1.793734932008362
 33
0
  0
ENDBLK
  5
F2
330
F0
100
AcDbEntity
  8
0
100
AcDbBlockEnd
  0
BLOCK
  5
F4
330
F3
100
AcDbEntity
  8
0
100
AcDbBlockBegin
  2
*D17
 70
    1
 10
0
 20
0
  3
*D17
  1

  0
LINE
  5
248
100
AcDbEntity
  8
0
  6
ByBlock
 62
    0
370
   -2
100
AcDbLine
 10
10.0426425828173
 20
0.4617617218781986
 11
10.4573574171827
 21
0.7382382781218013
  0
MTEXT
  5
249
100
AcDbEntity
  8
0
  6
CONTINUOUS
 62
    0
370
   -2
100
AcDbMText
 10
10.35815867454114
 20
0.5421057830274324
 30
0
 40
0.1
 41
0.4
 71
    5
 72
    1
  1
0.0984
  7
STANDARD
210
0
220
0
230
1
 50
33.69006752598042
 73
    2
 44
1
  0
SOLID
  5
24A
100
AcDbEntity
  8
0
  6
ByBlock
 62
    0
370
   -2
100
AcDbTrace
 10
10.20905264168487
 20
0.5727017611232462
 30
0
 11
10.13508413950517
 21
0.5033769506195936
 31
0
 12
10.116611084997
 22
0.5310865323818511
 32
0
 13
10.116611084997
 23
0.5310865323818511
 33
0
  0
SOLID
  5
24B
100
AcDbEntity
  8
0
  6
ByBlock
 62
    0
370
   -2
100
AcDbTrace
 10
10.29094735831513
 20
0.6272982388767537
 30
0
 11
10.36491586049483
 21
0.6966230493804063
 31
0
 12
10.383388915003
 22
0.6689134676181488
 32
0
 13
10.383388915003
 23
0.6689134676181488
 33
0
  0
ENDBLK
  5
F5
330
F3
100
AcDbEntity
  8
0
100
AcDbBlockEnd
  0
BLOCK
  5
F7
330
F6
100
AcDbEntity
  8
0
100
AcDbBlockBegin
  2
*D18
 70
    1
 10
0
 20
0
  3
*D18
  1

  0
LINE
  5
24C
100
AcDbEntity
  8
0
  6
ByBlock
 62
    0
370
   -2
100
AcDbLine
 10
10.0426425828173
 20
1.561761721878198
 11
10.4573574171827
 21
1.838238278121802
  0
MTEXT
  5
24D
100
AcDbEntity
  8
0
  6
CONTINUOUS
 62
    0
370
   -2
100
AcDbMText
 10
10.42815867454114
 20
1.652105783027433
 30
0
 40
0.1
 41
0.4
 71
    5
 72
    1
  1
0.0984
  7
STANDARD
210
0
220
0
230
1
 50
33.69006752598064
 73
    2
 44
1
  0
SOLID
  5
24E
100
AcDbEntity
  8
0
  6
ByBlock
 62
    0
370
   -2
100
AcDbTrace
 10
10.20905264168487
 20
1.672701761123246
 30
0
 11
10.13508413950517
 21
1.603376950619593
 31
0
 12
10.116611084997
 22
1.63108653238185
 32
0
 13
10.116611084997
 23
1.63108653238185
 33
0
  0
SOLID
  5
24F
100
AcDbEntity
  8
0
  6
ByBlock
 62
    0
370
   -2
100
AcDbTrace
 10
10.29094735831513
 20
1.727298238876754
 30
0
 11
10.36491586049483
 21
1.796623049380407
 31
0
 12
10.383388915003
 22
1.768913467618149
 32
0
 13
10.383388915003
 23
1.768913467618149
 33
0
  0
ENDBLK
  5
F8
330
F6
100
AcDbEntity
  8
0
100
AcDbBlockEnd
  0
BLOCK
  5
FA
330
F9
100
AcDbEntity
  8
0
100
AcDbBlockBegin
  2
*D66
 70
    1
 10
0
 20
0
  3
*D66
  1

  0
LINE
  5
250
100
AcDbEntity
  8
0
  6
ByBlock
 62
    0
370
   -2
100
AcDbLine
 10
3.568294058394453
 20
1.265852970802773
 11
4.031705941605548
 21
1.034147029197226
  0
MTEXT
  5
251
100
AcDbEntity
  8
0
  6
CONTINUOUS
 62
    0
370
   -2
100
AcDbMText
 10
4.052824361393045
 20
1.107440368459719
 30
0
 40
0.1
 41
0.3222222222222222
 71
    5
 72
    1
  1
0.1181
  7
STANDARD
210
0
220
0
230
1
 50
333.434948822922
 73
    2
 44
1
  0
SOLID
  5
252
100
AcDbEntity
  8
0
  6
ByBlock
 62
    0
370
   -2
100
AcDbTrace
 10
3.747179496594436
 20
1.176410251702782
 30
0
 11
3.650290051152282
 21
1.206238158568453
 31
0
 12
3.665183503836607
 22
1.236025063937103
 32
0
 13
3.665183503836607
 23
1.236025063937103
 33
0
  0
SOLID
  5
253
100
AcDbEntity
  8
0
  6
ByBlock
 62
    0
370
   -2
100
AcDbTrace
 10
3.852820503405564
 20
1.123589748297218
 30
0
 11
3.949709948847718
 21
1.093761841431547
 31
0
 12
3.934816496163394
 22
1.063974936062897
 32
0
 13
3.934816496163394
 23
1.063974936062897
 33
0
  0
ENDBLK
  5
FB
330
F9
100
AcDbEntity
  8
0
100
AcDbBlockEnd
  0
BLOCK
  5
FD
330
FC
100
AcDbEntity
  8
0
100
AcDbBlockBegin
  2
*D32
 70
    1
 10
0
 20
0
  3
*D32
  1

  0
LINE
  5
254
100
AcDbEntity
  8
0
  6
ByBlock
 62
    0
370
   -2
100
AcDbLine
 10
12.4
 20
4
 11
13.7
 21
4
  0
MTEXT
  5
255
100
AcDbEntity
  8
0
  6
CONTINUOUS
 62
    0
370
   -2
100
AcDbMText
 10
13.05
 20
4.075
 30
0
 40
0.1
 41
0.3666666666666729
 71
    5
 72
    1
  1
1.3000
  7
STANDARD
210
0
220
0
230
1
 50
0
 73
    2
 44
1
  0
SOLID
  5
256
100
AcDbEntity
  8
0
  6
ByBlock
 62
    0
370
   -2
100
AcDbTrace
 10
12.4
 20
4
 30
0
 11
12.5
 21
4.016651386310913
 31
0
 12
12.5
 22
3.983348613689087
 32
0
 13
12.5
 23
3.983348613689087
 33
0
  0
SOLID
  5
257
100
AcDbEntity
  8
0
  6
ByBlock
 62
    0
370
   -2
100
AcDbTrace
 10
13.7
 20
4
 30
0
 11
13.6
 21
3.983348613689087
 31
0
 12
13.6
 22
4.016651386310913
 32
0
 13
13.6
 23
4.016651386310913
 33
0
  0
LINE
  5
258
100
AcDbEntity
  8
0
  6
ByBlock
 62
    0
370
   -2
100
AcDbLine
 10
12.4
 20
3.725
 11
12.4
 21
4.05
  0
LINE
  5
259
100
AcDbEntity
  8
0
  6
ByBlock
 62
    0
370
   -2
100
AcDbLine
 10
13.7
 20
3.725
 11
13.7
 21
4.05
  0
ENDBLK
  5
FE
330
FC
100
AcDbEntity
  8
0
100
AcDbBlockEnd
  0
BLOCK
  5
100
330
FF
100
AcDbEntity
  8
0
100
AcDbBlockBegin
  2
*D65
 70
    1
 10
0
 20
0
  3
*D65
  1

  0
LINE
  5
25A
100
AcDbEntity
  8
0
  6
ByBlock
 62
    0
370
   -2
100
AcDbLine
 10
0.468294058394453
 20
1.265852970802774
 11
0.9317059416055469
 21
1.034147029197226
  0
MTEXT
  5
25B
100
AcDbEntity
  8
0
  6
CONTINUOUS
 62
    0
370
   -2
100
AcDbMText
 10
0.9528243613930449
 20
1.107440368459719
 30
0
 40
0.1
 41
0.3222222222222222
 71
    5
 72
    1
  1
0.1181
  7
STANDARD
210
0
220
0
230
1
 50
333.434948822922
 73
    2
 44
1
  0
SOLID
  5
25C
100
AcDbEntity
  8
0
  6
ByBlock
 62
    0
370
   -2
100
AcDbTrace
 10
0.6471794965944361
 20
1.176410251702782
 30
0
 11
0.550290051152282
 21
1.206238158568453
 31
0
 12
0.565183503836607
 22
1.236025063937103
 32
0
 13
0.565183503836607
 23
1.236025063937103
 33
0
  0
SOLID
  5
25D
100
AcDbEntity
  8
0
  6
ByBlock
 62
    0
370
   -2
100
AcDbTrace
 10
0.7528205034055638
 20
1.123589748297218
 30
0
 11
0.8497099488477179
 21
1.093761841431547
 31
0
 12
0.8348164961633929
 22
1.063974936062897
 32
0
 13
0.8348164961633929
 23
1.063974936062897
 33
0
  0
ENDBLK
  5
101
330
FF
100
AcDbEntity
  8
0
100
AcDbBlockEnd
  0
BLOCK
  5
103
330
102
100
AcDbEntity
  8
0
100
AcDbBlockBegin
  2
*D68
 70
    1
 10
0
 20
0
  3
*D68
  1

  0
LINE
  5
25E
100
AcDbEntity
  8
0
  6
ByBlock
 62
    0
370
   -2
100
AcDbLine
 10
14.6
 20
4
 11
15.4
 21
4
  0
MTEXT
  5
25F
100
AcDbEntity
  8
0
  6
CONTINUOUS
 62
    0
370
   -2
100
AcDbMText
 10
15
 20
4.075
 30
0
 40
0.1
 41
0.3888888888888888
 71
    5
 72
    1
  1
0.8000
  7
STANDARD
210
0
220
0
230
1
 50
0
 73
    2
 44
1
  0
SOLID
  5
260
100
AcDbEntity
  8
0
  6
ByBlock
 62
    0
370
   -2
100
AcDbTrace
 10
14.6
 20
4
 30
0
 11
14.7
 21
4.016651386310913
 31
0
 12
14.7
 22
3.983348613689087
 32
0
 13
14.7
 23
3.983348613689087
 33
0
  0
SOLID
  5
261
100
AcDbEntity
  8
0
  6
ByBlock
 62
    0
370
   -2
100
AcDbTrace
 10
15.4
 20
4
 30
0
 11
15.3
 21
3.983348613689087
 31
0
 12
15.3
 22
4.016651386310913
 32
0
 13
15.3
 23
4.016651386310913
 33
0
  0
LINE
  5
262
100
AcDbEntity
  8
0
  6
ByBlock
 62
    0
370
   -2
100
AcDbLine
 10
14.6
 20
3.725
 11
14.6
 21
4.05
  0
LINE
  5
263
100
AcDbEntity
  8
0
  6
ByBlock
 62
    0
370
   -2
100
AcDbLine
 10
15.4
 20
3.725
 11
15.4
 21
4.05
  0
ENDBLK
  5
104
330
102
100
AcDbEntity
  8
0
100
AcDbBlockEnd
  0
BLOCK
  5
106
330
105
100
AcDbEntity
  8
0
100
AcDbBlockBegin
  2
*D27
 70
    1
 10
0
 20
0
  3
*D27
  1

  0
LINE
  5
264
100
AcDbEntity
  8
0
  6
ByBlock
 62
    0
370
   -2
100
AcDbLine
 10
16.17422117626564
 20
2.537110588132818
 11
16.42577882373437
 21
2.662889411867182
  0
MTEXT
  5
265
100
AcDbEntity
  8
0
  6
CONTINUOUS
 62
    0
370
   -2
100
AcDbMText
 10
16.57857680219685
 20
2.823140950254668
 30
0
 40
0.1
 41
0.3666666666666729
 71
    5
 72
    1
  1
0.2813
  7
STANDARD
210
0
220
0
230
1
 50
26.56505117707784
 73
    2
 44
1
  0
SOLID
  5
266
100
AcDbEntity
  8
0
  6
ByBlock
 62
    0
370
   -2
100
AcDbTrace
 10
16.17422117626564
 20
2.537110588132818
 30
0
 11
16.25621716902347
 21
2.596725400367139
 31
0
 12
16.27111062170779
 22
2.566938494998489
 32
0
 13
16.27111062170779
 23
2.566938494998489
 33
0
  0
SOLID
  5
267
100
AcDbEntity
  8
0
  6
ByBlock
 62
    0
370
   -2
100
AcDbTrace
 10
16.42577882373437
 20
2.662889411867182
 30
0
 11
16.34378283097654
 21
2.603274599632861
 31
0
 12
16.32888937829221
 22
2.633061505001511
 32
0
 13
16.32888937829221
 23
2.633061505001511
 33
0
  0
ENDBLK
  5
107
330
105
100
AcDbEntity
  8
0
100
AcDbBlockEnd
  0
BLOCK
  5
109
330
108
100
AcDbEntity
  8
0
100
AcDbBlockBegin
  2
*D29
 70
    1
 10
0
 20
0
  3
*D29
  1

  0
LINE
  5
268
100
AcDbEntity
  8
0
  6
ByBlock
 62
    0
370
   -2
100
AcDbLine
 10
10.25
 20
0.2
 11
10
 21
0.2
  0
MTEXT
  5
269
100
AcDbEntity
  8
0
  6
CONTINUOUS
 62
    0
370
   -2
100
AcDbMText
 10
10.46944444444445
 20
0.275
 30
0
 40
0.1
 41
0.3888888888888951
 71
    5
 72
    1
  1
0.2500
  7
STANDARD
210
0
220
0
230
1
 50
0
 73
    2
 44
1
  0
SOLID
  5
26A
100
AcDbEntity
  8
0
  6
ByBlock
 62
    0
370
   -2
100
AcDbTrace
 10
10.25
 20
0.2
 30
0
 11
10.15
 21
0.1833486136890864
 31
0
 12
10.15
 22
0.2166513863109136
 32
0
 13
10.15
 23
0.2166513863109136
 33
0
  0
SOLID
  5
26B
100
AcDbEntity
  8
0
  6
ByBlock
 62
    0
370
   -2
100
AcDbTrace
 10
10
 20
0.2
 30
0
 11
10.1
 21
0.2166513863109136
 31
0
 12
10.1
 22
0.1833486136890864
 32
0
 13
10.1
 23
0.1833486136890864
 33
0
  0
LINE
  5
26C
100
AcDbEntity
  8
0
  6
ByBlock
 62
    0
370
   -2
100
AcDbLine
 10
10.25
 20
0.575
 11
10.25
 21
0.15
  0
LINE
  5
26D
100
AcDbEntity
  8
0
  6
ByBlock
 62
    0
370
   -2
100
AcDbLine
 10
10
 20
0.575
 11
10
 21
0.15
  0
ENDBLK
  5
10A
330
108
100
AcDbEntity
  8
0
100
AcDbBlockEnd
  0
BLOCK
  5
10C
330
10B
100
AcDbEntity
  8
0
100
AcDbBlockBegin
  2
*D50
 70
    1
 10
0
 20
0
  3
*D50
  1

  0
LINE
  5
26E
100
AcDbEntity
  8
0
  6
ByBlock
 62
    0
370
   -2
100
AcDbLine
 10
3.800000000000001
 20
1.01
 11
0.7
 21
1.01
  0
MTEXT
  5
26F
100
AcDbEntity
  8
0
  6
CONTINUOUS
 62
    0
370
   -2
100
AcDbMText
 10
2.25
 20
1.085
 30
0
 40
0.1
 41
0.3666666666666729
 71
    5
 72
    1
  1
3.1000
  7
STANDARD
210
0
220
0
230
1
 50
0
 73
    2
 44
1
  0
SOLID
  5
270
100
AcDbEntity
  8
0
  6
ByBlock
 62
    0
370
   -2
100
AcDbTrace
 10
3.800000000000001
 20
1.01
 30
0
 11
3.700000000000001
 21
0.9933486136890863
 31
0
 12
3.700000000000001
 22
1.026651386310914
 32
0
 13
3.700000000000001
 23
1.026651386310914
 33
0
  0
SOLID
  5
271
100
AcDbEntity
  8
0
  6
ByBlock
 62
    0
370
   -2
100
AcDbTrace
 10
0.7
 20
1.01
 30
0
 11
0.7999999999999999
 21
1.026651386310914
 31
0
 12
0.7999999999999999
 22
0.9933486136890863
 32
0
 13
0.7999999999999999
 23
0.9933486136890863
 33
0
  0
LINE
  5
272
100
AcDbEntity
  8
0
  6
ByBlock
 62
    0
370
   -2
100
AcDbLine
 10
3.8
 20
1.125
 11
3.800000000000001
 21
0.96
  0
LINE
  5
273
100
AcDbEntity
  8
0
  6
ByBlock
 62
    0
370
   -2
100
AcDbLine
 10
0.7
 20
1.125
 11
0.7
 21
0.96
  0
ENDBLK
  5
10D
330
10B
100
AcDbEntity
  8
0
100
AcDbBlockEnd
  0
BLOCK
  5
10F
330
10E
100
AcDbEntity
  8
0
100
AcDbBlockBegin
  2
*D30
 70
    1
 10
0
 20
0
  3
*D30
  1

  0
LINE
  5
274
100
AcDbEntity
  8
0
  6
ByBlock
 62
    0
370
   -2
100
AcDbLine
 10
11.1
 20
4
 11
10
 21
4
  0
MTEXT
  5
275
100
AcDbEntity
  8
0
  6
CONTINUOUS
 62
    0
370
   -2
100
AcDbMText
 10
10.55
 20
4.075
 30
0
 40
0.1
 41
0.3444444444444444
 71
    5
 72
    1
  1
1.1000
  7
STANDARD
210
0
220
0
230
1
 50
0
 73
    2
 44
1
  0
SOLID
  5
276
100
AcDbEntity
  8
0
  6
ByBlock
 62
    0
370
   -2
100
AcDbTrace
 10
11.1
 20
4
 30
0
 11
11
 21
3.983348613689087
 31
0
 12
11
 22
4.016651386310913
 32
0
 13
11
 23
4.016651386310913
 33
0
  0
SOLID
  5
277
100
AcDbEntity
  8
0
  6
ByBlock
 62
    0
370
   -2
100
AcDbTrace
 10
10
 20
4
 30
0
 11
10.1
 21
4.016651386310913
 31
0
 12
10.1
 22
3.983348613689087
 32
0
 13
10.1
 23
3.983348613689087
 33
0
  0
LINE
  5
278
100
AcDbEntity
  8
0
  6
ByBlock
 62
    0
370
   -2
100
AcDbLine
 10
11.1
 20
3.725
 11
11.1
 21
4.05
  0
LINE
  5
279
100
AcDbEntity
  8
0
  6
ByBlock
 62
    0
370
   -2
100
AcDbLine
 10
10
 20
3.725
 11
10
 21
4.05
  0
ENDBLK
  5
110
330
10E
100
AcDbEntity
  8
0
100
AcDbBlockEnd
  0
BLOCK
  5
112
330
111
100
AcDbEntity
  8
0
100
AcDbBlockBegin
  2
*D55
 70
    1
 10
0
 20
0
  3
*D55
  1

  0
LINE
  5
27A
100
AcDbEntity
  8
0
  6
ByBlock
 62
    0
370
   -2
100
AcDbLine
 10
3.8
 20
3.9
 11
3.55
 21
3.9
  0
MTEXT
  5
27B
100
AcDbEntity
  8
0
  6
CONTINUOUS
 62
    0
370
   -2
100
AcDbMText
 10
4.019444444444447
 20
3.975000000000001
 30
0
 40
0.1
 41
0.3888888888888951
 71
    5
 72
    1
  1
0.2500
  7
STANDARD
210
0
220
0
230
1
 50
0
 73
    2
 44
1
  0
SOLID
  5
27C
100
AcDbEntity
  8
0
  6
ByBlock
 62
    0
370
   -2
100
AcDbTrace
 10
3.8
 20
3.9
 30
0
 11
3.7
 21
3.883348613689087
 31
0
 12
3.7
 22
3.916651386310914
 32
0
 13
3.7
 23
3.916651386310914
 33
0
  0
SOLID
  5
27D
100
AcDbEntity
  8
0
  6
ByBlock
 62
    0
370
   -2
100
AcDbTrace
 10
3.55
 20
3.9
 30
0
 11
3.65
 21
3.916651386310914
 31
0
 12
3.65
 22
3.883348613689087
 32
0
 13
3.65
 23
3.883348613689087
 33
0
  0
LINE
  5
27E
100
AcDbEntity
  8
0
  6
ByBlock
 62
    0
370
   -2
100
AcDbLine
 10
3.8
 20
3.825
 11
3.8
 21
3.95
  0
LINE
  5
27F
100
AcDbEntity
  8
0
  6
ByBlock
 62
    0
370
   -2
100
AcDbLine
 10
3.55
 20
3.725000000000001
 11
3.55
 21
3.95
  0
ENDBLK
  5
113
330
111
100
AcDbEntity
  8
0
100
AcDbBlockEnd
  0
BLOCK
  5
115
330
114
100
AcDbEntity
  8
0
100
AcDbBlockBegin
  2
*D13
 70
    1
 10
0
 20
0
  3
*D13
  1

  0
LINE
  5
280
100
AcDbEntity
  8
0
  6
ByBlock
 62
    0
370
   -2
100
AcDbLine
 10
16.54264258412757
 20
0.4617617227517177
 11
16.95735741587243
 21
0.7382382772482824
  0
MTEXT
  5
281
100
AcDbEntity
  8
0
  6
CONTINUOUS
 62
    0
370
   -2
100
AcDbMText
 10
16.93655615851399
 20
0.814509554229252
 30
0
 40
0.1
 41
0.4
 71
    5
 72
    1
  1
0.0984
  7
STANDARD
210
0
220
0
230
1
 50
33.69006752597889
 73
    2
 44
1
  0
SOLID
  5
282
100
AcDbEntity
  8
0
  6
ByBlock
 62
    0
370
   -2
100
AcDbTrace
 10
16.70905264299514
 20
0.5727017619967607
 30
0
 11
16.63508414081544
 21
0.5033769514931101
 31
0
 12
16.61661108630727
 22
0.531086533255368
 32
0
 13
16.61661108630727
 23
0.531086533255368
 33
0
  0
SOLID
  5
283
100
AcDbEntity
  8
0
  6
ByBlock
 62
    0
370
   -2
100
AcDbTrace
 10
16.79094735700486
 20
0.6272982380032394
 30
0
 11
16.86491585918456
 21
0.6966230485068898
 31
0
 12
16.88338891369273
 22
0.6689134667446319
 32
0
 13
16.88338891369273
 23
0.6689134667446319
 33
0
  0
ENDBLK
  5
116
330
114
100
AcDbEntity
  8
0
100
AcDbBlockEnd
  0
BLOCK
  5
118
330
117
100
AcDbEntity
  8
0
100
AcDbBlockBegin
  2
*D46
 70
    1
 10
0
 20
0
  3
*D46
  1

  0
LINE
  5
284
100
AcDbEntity
  8
0
  6
ByBlock
 62
    0
370
   -2
100
AcDbLine
 10
4.575336792181862
 20
4.087668396090931
 11
5.024663207818138
 21
4.312331603909069
  0
MTEXT
  5
285
100
AcDbEntity
  8
0
  6
CONTINUOUS
 62
    0
370
   -2
100
AcDbMText
 10
5.00354478803064
 20
4.385624943171563
 30
0
 40
0.1
 41
0.3777777777777778
 71
    5
 72
    1
  1
0.1024
  7
STANDARD
210
0
220
0
230
1
 50
26.56505117707799
 73
    2
 44
1
  0
SOLID
  5
286
100
AcDbEntity
  8
0
  6
ByBlock
 62
    0
370
   -2
100
AcDbTrace
 10
4.754222230381845
 20
4.177111115190923
 30
0
 11
4.672226237624016
 21
4.117496302956602
 31
0
 12
4.65733278493969
 22
4.147283208325252
 32
0
 13
4.65733278493969
 23
4.147283208325252
 33
0
  0
SOLID
  5
287
100
AcDbEntity
  8
0
  6
ByBlock
 62
    0
370
   -2
100
AcDbTrace
 10
4.845777769618155
 20
4.222888884809078
 30
0
 11
4.927773762375984
 21
4.282503697043398
 31
0
 12
4.942667215060309
 22
4.252716791674748
 32
0
 13
4.942667215060309
 23
4.252716791674748
 33
0
  0
ENDBLK
  5
119
330
117
100
AcDbEntity
  8
0
100
AcDbBlockEnd
  0
BLOCK
  5
11B
330
11A
100
AcDbEntity
  8
0
100
AcDbBlockBegin
  2
*D69
 70
    1
 10
0
 20
0
  3
*D69
  1

  0
LINE
  5
288
100
AcDbEntity
  8
0
  6
ByBlock
 62
    0
370
   -2
100
AcDbLine
 10
15.4
 20
4
 11
16.3
 21
4
  0
MTEXT
  5
289
100
AcDbEntity
  8
0
  6
CONTINUOUS
 62
    0
370
   -2
100
AcDbMText
 10
15.85
 20
4.075
 30
0
 40
0.1
 41
0.3888888888888888
 71
    5
 72
    1
  1
0.9000
  7
STANDARD
210
0
220
0
230
1
 50
0
 73
    2
 44
1
  0
SOLID
  5
28A
100
AcDbEntity
  8
0
  6
ByBlock
 62
    0
370
   -2
100
AcDbTrace
 10
15.4
 20
4
 30
0
 11
15.5
 21
4.016651386310913
 31
0
 12
15.5
 22
3.983348613689087
 32
0
 13
15.5
 23
3.983348613689087
 33
0
  0
SOLID
  5
28B
100
AcDbEntity
  8
0
  6
ByBlock
 62
    0
370
   -2
100
AcDbTrace
 10
16.3
 20
4
 30
0
 11
16.2
 21
3.983348613689087
 31
0
 12
16.2
 22
4.016651386310913
 32
0
 13
16.2
 23
4.016651386310913
 33
0
  0
LINE
  5
28C
100
AcDbEntity
  8
0
  6
ByBlock
 62
    0
370
   -2
100
AcDbLine
 10
15.4
 20
3.725
 11
15.4
 21
4.05
  0
LINE
  5
28D
100
AcDbEntity
  8
0
  6
ByBlock
 62
    0
370
   -2
100
AcDbLine
 10
16.3
 20
3.725
 11
16.3
 21
4.05
  0
ENDBLK
  5
11C
330
11A
100
AcDbEntity
  8
0
100
AcDbBlockEnd
  0
BLOCK
  5
11E
330
11D
100
AcDbEntity
  8
0
100
AcDbBlockBegin
  2
*D11
 70
    1
 10
0
 20
0
  3
*D11
  1

  0
LINE
  5
28E
100
AcDbEntity
  8
0
  6
ByBlock
 62
    0
370
   -2
100
AcDbLine
 10
10.14
 20
1.7
 11
10.14
 21
1.35
  0
MTEXT
  5
28F
100
AcDbEntity
  8
0
  6
CONTINUOUS
 62
    0
370
   -2
100
AcDbMText
 10
10.065
 20
1.919444444444451
 30
0
 40
0.1
 41
0.3888888888889013
 71
    5
 72
    1
  1
0.3500
  7
STANDARD
210
0
220
0
230
1
 50
90
 73
    2
 44
1
  0
SOLID
  5
290
100
AcDbEntity
  8
0
  6
ByBlock
 62
    0
370
   -2
100
AcDbTrace
 10
10.14
 20
1.7
 30
0
 11
10.15665138631091
 21
1.6
 31
0
 12
10.12334861368909
 22
1.6
 32
0
 13
10.12334861368909
 23
1.6
 33
0
  0
SOLID
  5
291
100
AcDbEntity
  8
0
  6
ByBlock
 62
    0
370
   -2
100
AcDbTrace
 10
10.14
 20
1.35
 30
0
 11
10.12334861368909
 21
1.45
 31
0
 12
10.15665138631091
 22
1.45
 32
0
 13
10.15665138631091
 23
1.45
 33
0
  0
LINE
  5
292
100
AcDbEntity
  8
0
  6
ByBlock
 62
    0
370
   -2
100
AcDbLine
 10
10.225
 20
1.7
 11
10.09
 21
1.7
  0
LINE
  5
293
100
AcDbEntity
  8
0
  6
ByBlock
 62
    0
370
   -2
100
AcDbLine
 10
10.225
 20
1.35
 11
10.09
 21
1.35
  0
ENDBLK
  5
11F
330
11D
100
AcDbEntity
  8
0
100
AcDbBlockEnd
  0
ENDSEC
  0
SECTION
  2
ENTITIES
  0
DIMENSION
  5
294
100
AcDbEntity
  8
0
  6
ByLayer
 62
  256
370
   -1
100
AcDbDimension
  2
*D1
 10
2
 20
-0.3
 30
0
 11
3.695
 21
-0.225
 31
0
 70
   32
 71
    5
 72
    0
  3
Standard
 53
0
210
0
220
0
230
1
100
AcDbAlignedDimension
 13
-2.775557561562891e-16
 23
-2.775557561562891e-17
 33
0
 14
7.390000000000001
 24
1.040834085586084e-17
 34
0
100
AcDbRotatedDimension
  0
LINE
  5
295
100
AcDbEntity
  8
0
  6
ByLayer
 62
  256
370
   -1
100
AcDbLine
 10
8.326672684688674e-17
 20
6.38378239159465e-16
 11
7.390000000000001
 21
2.046973701652632e-16
  0
LINE
  5
296
100
AcDbEntity
  8
0
  6
ByLayer
 62
  256
370
   -1
100
AcDbLine
 10
7.39
 20
-1.387778780781446e-17
 11
7.39
 21
4.7029
  0
DIMENSION
  5
297
100
AcDbEntity
  8
0
  6
ByLayer
 62
  256
370
   -1
100
AcDbDimension
  2
*D2
 10
7.550000000000001
 20
4.7
 30
0
 11
7.475000000000001
 21
2.3512
 31
0
 70
   32
 71
    5
 72
    0
  3
Standard
 53
0
210
0
220
0
230
1
100
AcDbAlignedDimension
 13
7.547000000000001
 23
-0.000299999999999306
 33
0
 14
7.547000000000001
 24
4.7027
 34
0
 50
90
100
AcDbRotatedDimension
  0
LINE
  5
298
100
AcDbEntity
  8
0
  6
ByLayer
 62
  256
370
   -1
100
AcDbLine
 10
7.39
 20
4.702999999999999
 11
-2.602085213965211e-18
 21
4.703
  0
LINE
  5
299
100
AcDbEntity
  8
0
  6
ByLayer
 62
  256
370
   -1
100
AcDbLine
 10
-2.602085213965211e-18
 20
4.703
 11
-4.336808689942018e-18
 21
-8.673617379884035e-19
  0
DIMENSION
  5
29A
100
AcDbEntity
  8
0
  6
ByLayer
 62
  256
370
   -1
100
AcDbDimension
  2
*D3
 10
-0.3000000000000002
 20
-1.877174725683723e-17
 30
0
 11
-0.3750000000000001
 21
2.3515
 31
0
 70
   32
 71
    5
 72
    0
  3
Standard
 53
0
210
0
220
0
230
1
100
AcDbAlignedDimension
 13
8.673617379884035e-19
 23
4.702999999999999
 33
0
 14
-1.665334536937735e-16
 24
-5.551115123125783e-17
 34
0
 50
90
100
AcDbRotatedDimension
  0
MTEXT
  5
29B
100
AcDbEntity
  8
0
  6
ByLayer
 62
  256
370
   -1
100
AcDbMText
 10
3.960069437500007
 20
5.525
 30
0
 40
0.125
 41
1.302083319444458
 71
    2
 72
    1
  1
COVER (Bottom)
  7
iso
210
0
220
0
230
1
 50
0
 73
    2
 44
1
  0
LINE
  5
29C
100
AcDbEntity
  8
0
  6
ByLayer
 62
  256
370
   -1
100
AcDbLine
 10
10
 20
0
 11
17
 21
0
  0
LINE
  5
29D
100
AcDbEntity
  8
0
  6
ByLayer
 62
  256
370
   -1
100
AcDbLine
 10
17
 20
0
 11
17
 21
4.313
  0
LINE
  5
29E
100
AcDbEntity
  8
0
  6
ByLayer
 62
  256
370
   -1
100
AcDbLine
 10
17
 20
4.313
 11
10
 21
4.313
  0
LINE
  5
29F
100
AcDbEntity
  8
0
  6
ByLayer
 62
  256
370
   -1
100
AcDbLine
 10
10
 20
4.313
 11
10
 21
0
  0
DIMENSION
  5
2A0
100
AcDbEntity
  8
0
  6
ByLayer
 62
  256
370
   -1
100
AcDbDimension
  2
*D4
 10
9.700000000000001
 20
8.983828358791552e-18
 30
0
 11
9.625000000000002
 21
2.1565
 31
0
 70
   32
 71
    5
 72
    0
  3
Standard
 53
0
210
0
220
0
230
1
100
AcDbAlignedDimension
 13
9.999999999999998
 23
4.313000000000001
 33
0
 14
10
 24
-2.775557561562891e-17
 34
0
 50
90
100
AcDbRotatedDimension
  0
DIMENSION
  5
2A1
100
AcDbEntity
  8
0
  6
ByLayer
 62
  256
370
   -1
100
AcDbDimension
  2
*D5
 10
17
 20
-0.4999999999999994
 30
0
 11
13.5
 21
-0.4249999999999994
 31
0
 70
   32
 71
    5
 72
    0
  3
Standard
 53
0
210
0
220
0
230
1
100
AcDbAlignedDimension
 13
10
 23
0
 33
0
 14
17
 24
-5.204170427930421e-18
 34
0
100
AcDbRotatedDimension
  0
DIMENSION
  5
2A2
100
AcDbEntity
  8
0
  6
ByLayer
 62
  256
370
   -1
100
AcDbDimension
  2
*D6
 10
13.5
 20
1.9
 30
0
 11
11.875
 21
1.975
 31
0
 70
   32
 71
    5
 72
    0
  3
Standard
 53
0
210
0
220
0
230
1
100
AcDbAlignedDimension
 13
10.25
 23
1.7
 33
0
 14
13.5
 24
1.7
 34
0
100
AcDbRotatedDimension
  0
DIMENSION
  5
2A3
100
AcDbEntity
  8
0
  6
ByLayer
 62
  256
370
   -1
100
AcDbDimension
  2
*D7
 10
13.5
 20
1.9
 30
0
 11
15.125
 21
1.975
 31
0
 70
   32
 71
    5
 72
    0
  3
Standard
 53
0
210
0
220
0
230
1
100
AcDbAlignedDimension
 13
16.75
 23
1.7
 33
0
 14
13.5
 24
1.7
 34
0
100
AcDbRotatedDimension
  0
CIRCLE
  5
2A4
100
AcDbEntity
  8
0
  6
ByLayer
 62
  256
370
   -1
100
AcDbCircle
 10
16.75
 20
1.7
 40
0.04921259842525
  0
CIRCLE
  5
2A5
100
AcDbEntity
  8
0
  6
ByLayer
 62
  256
370
   -1
100
AcDbCircle
 10
13.5
 20
1.7
 40
0.04921259842525
  0
CIRCLE
  5
2A6
100
AcDbEntity
  8
0
  6
ByLayer
 62
  256
370
   -1
100
AcDbCircle
 10
10.25
 20
1.7
 40
0.0492126
  0
CIRCLE
  5
2A7
100
AcDbEntity
  8
0
  6
ByLayer
 62
  256
370
   -1
100
AcDbCircle
 10
10.25
 20
0.6
 40
0.0492126
  0
DIMENSION
  5
2A8
100
AcDbEntity
  8
0
  6
ByLayer
 62
  256
370
   -1
100
AcDbDimension
  2
*D8
 10
9.920000000000002
 20
1.7
 30
0
 11
9.845000000000002
 21
1.15
 31
0
 70
   32
 71
    5
 72
    0
  3
Standard
 53
0
210
0
220
0
230
1
100
AcDbAlignedDimension
 13
10.25
 23
0.6
 33
0
 14
10.25
 24
1.7
 34
0
 50
90
100
AcDbRotatedDimension
  0
LINE
  5
2A9
100
AcDbEntity
  8
0
  6
ByLayer
 62
  256
370
   -1
100
AcDbLine
 10
10.2
 20
1.35
 11
10.6
 21
1.35
  0
LINE
  5
2AA
100
AcDbEntity
  8
0
  6
ByLayer
 62
  256
370
   -1
100
AcDbLine
 10
10.6
 20
1.35
 11
10.6
 21
0.95
  0
LINE
  5
2AB
100
AcDbEntity
  8
0
  6
ByLayer
 62
  256
370
   -1
100
AcDbLine
 10
10.6
 20
0.95
 11
10.2
 21
0.95
  0
LINE
  5
2AC
100
AcDbEntity
  8
0
  6
ByLayer
 62
  256
370
   -1
100
AcDbLine
 10
10.2
 20
0.95
 11
10.2
 21
1.35
  0
DIMENSION
  5
2AD
100
AcDbEntity
  8
0
  6
ByLayer
 62
  256
370
   -1
100
AcDbDimension
  2
*D9
 10
10.14
 20
0.9500000000000001
 30
0
 11
10.065
 21
1.15
 31
0
 70
   32
 71
    5
 72
    0
  3
Standard
 53
0
210
0
220
0
230
1
100
AcDbAlignedDimension
 13
10.2
 23
1.35
 33
0
 14
10.2
 24
0.9500000000000001
 34
0
 50
90
100
AcDbRotatedDimension
  0
DIMENSION
  5
2AE
100
AcDbEntity
  8
0
  6
ByLayer
 62
  256
370
   -1
100
AcDbDimension
  2
*D10
 10
10.6
 20
0.8500000000000001
 30
0
 11
10.4
 21
0.925
 31
0
 70
   32
 71
    5
 72
    0
  3
Standard
 53
0
210
0
220
0
230
1
100
AcDbAlignedDimension
 13
10.2
 23
0.9500000000000001
 33
0
 14
10.6
 24
0.9500000000000001
 34
0
100
AcDbRotatedDimension
  0
DIMENSION
  5
2AF
100
AcDbEntity
  8
0
  6
ByLayer
 62
  256
370
   -1
100
AcDbDimension
  2
*D11
 10
10.14
 20
1.35
 30
0
 11
10.065
 21
1.525
 31
0
 70
   32
 71
    5
 72
    0
  3
Standard
 53
0
210
0
220
0
230
1
100
AcDbAlignedDimension
 13
10.25
 23
1.7
 33
0
 14
10.25
 24
1.35
 34
0
 50
90
100
AcDbRotatedDimension
  0
DIMENSION
  5
2B0
100
AcDbEntity
  8
0
  6
ByLayer
 62
  256
370
   -1
100
AcDbDimension
  2
*D12
 10
9.875
 20
8.224888736701109e-17
 30
0
 11
9.800000000000001
 21
0.3
 31
0
 70
   32
 71
    5
 72
    0
  3
Standard
 53
0
210
0
220
0
230
1
100
AcDbAlignedDimension
 13
10.065
 23
0.6000000000000001
 33
0
 14
10.065
 24
5.898059818321144e-17
 34
0
 50
90
100
AcDbRotatedDimension
  0
CIRCLE
  5
2B1
100
AcDbEntity
  8
0
  6
ByLayer
 62
  256
370
   -1
100
AcDbCircle
 10
16.75
 20
0.6
 40
0.04921259842525
  0
DIMENSION
  5
2B2
100
AcDbEntity
  8
0
  6
ByLayer
 62
  256
370
   -1
100
AcDbDimension
  2
*D13
 10
16.70905264299514
 20
0.5727017619967607
 30
0
 11
16.70839748528311
 21
0.6624037720753391
 31
0
 70
   35
 71
    5
 72
    0
  3
Standard
 53
0
210
0
220
0
230
1
100
AcDbDiametricDimension
 15
16.79094735700486
 25
0.6272982380032394
 35
0
 40
0
  0
DIMENSION
  5
2B3
100
AcDbEntity
  8
0
  6
ByLayer
 62
  256
370
   -1
100
AcDbDimension
  2
*D14
 10
16.70905264299514
 20
1.672701761996761
 30
0
 11
16.70839748528311
 21
1.762403772075339
 31
0
 70
   35
 71
    5
 72
    0
  3
Standard
 53
0
210
0
220
0
230
1
100
AcDbDiametricDimension
 15
16.79094735700486
 25
1.727298238003239
 35
0
 40
0
  0
DIMENSION
  5
2B4
100
AcDbEntity
  8
0
  6
ByLayer
 62
  256
370
   -1
100
AcDbDimension
  2
*D15
 10
13.4652014379337
 20
1.665201437933695
 30
0
 11
13.44696699141101
 21
1.753033008588991
 31
0
 70
   35
 71
    5
 72
    0
  3
Standard
 53
0
210
0
220
0
230
1
100
AcDbDiametricDimension
 15
13.5347985620663
 25
1.734798562066305
 35
0
 40
0
  0
DIMENSION
  5
2B5
100
AcDbEntity
  8
0
  6
ByLayer
 62
  256
370
   -1
100
AcDbDimension
  2
*D16
 10
10.76
 20
0.95
 30
0
 11
10.67
 21
0.19
 31
0
 70
   32
 71
    5
 72
    0
  3
Standard
 53
0
210
0
220
0
230
1
100
AcDbAlignedDimension
 13
10.25
 23
0.6
 33
0
 14
10.25
 24
0.9500000000000001
 34
0
 50
90
100
AcDbRotatedDimension
  0
DIMENSION
  5
2B6
100
AcDbEntity
  8
0
  6
ByLayer
 62
  256
370
   -1
100
AcDbDimension
  2
*D17
 10
10.20905264168487
 20
0.5727017611232462
 30
0
 11
10.13
 21
0.39
 31
0
 70
   35
 71
    5
 72
    0
  3
Standard
 53
0
210
0
220
0
230
1
100
AcDbDiametricDimension
 15
10.29094735831513
 25
0.6272982388767537
 35
0
 40
0
  0
DIMENSION
  5
2B7
100
AcDbEntity
  8
0
  6
ByLayer
 62
  256
370
   -1
100
AcDbDimension
  2
*D18
 10
10.20905264168487
 20
1.672701761123246
 30
0
 11
10.2
 21
1.5
 31
0
 70
   35
 71
    5
 72
    0
  3
Standard
 53
0
210
0
220
0
230
1
100
AcDbDiametricDimension
 15
10.29094735831513
 25
1.727298238876754
 35
0
 40
0
  0
CIRCLE
  5
2B8
100
AcDbEntity
  8
0
  6
ByLayer
 62
  256
370
   -1
100
AcDbCircle
 10
13.7
 20
3.7
 40
0.140625
  0
CIRCLE
  5
2B9
100
AcDbEntity
  8
0
  6
ByLayer
 62
  256
370
   -1
100
AcDbCircle
 10
12.4
 20
3.7
 40
0.140625
  0
CIRCLE
  5
2BA
100
AcDbEntity
  8
0
  6
ByLayer
 62
  256
370
   -1
100
AcDbCircle
 10
11.1
 20
3.7
 40
0.140625
  0
CIRCLE
  5
2BB
100
AcDbEntity
  8
0
  6
ByLayer
 62
  256
370
   -1
100
AcDbCircle
 10
16.3
 20
2.6
 40
0.140625
  0
CIRCLE
  5
2BC
100
AcDbEntity
  8
0
  6
ByLayer
 62
  256
370
   -1
100
AcDbCircle
 10
15
 20
2.6
 40
0.140625
  0
CIRCLE
  5
2BD
100
AcDbEntity
  8
0
  6
ByLayer
 62
  256
370
   -1
100
AcDbCircle
 10
13.7
 20
2.6
 40
0.140625
  0
CIRCLE
  5
2BE
100
AcDbEntity
  8
0
  6
ByLayer
 62
  256
370
   -1
100
AcDbCircle
 10
12.4
 20
2.6
 40
0.140625
  0
CIRCLE
  5
2BF
100
AcDbEntity
  8
0
  6
ByLayer
 62
  256
370
   -1
100
AcDbCircle
 10
11.1
 20
2.6
 40
0.140625
  0
CIRCLE
  5
2C0
100
AcDbEntity
  8
0
  6
ByLayer
 62
  256
370
   -1
100
AcDbCircle
 10
14.6
 20
3.7
 40
0.12795275590565
  0
DIMENSION
  5
2C1
100
AcDbEntity
  8
0
  6
ByLayer
 62
  256
370
   -1
100
AcDbDimension
  2
*D19
 10
14.48555557595461
 20
3.642777787977306
 30
0
 11
14.5664589803375
 21
3.767082039324994
 31
0
 70
   35
 71
    5
 72
    0
  3
Standard
 53
0
210
0
220
0
230
1
100
AcDbDiametricDimension
 15
14.71444442404539
 25
3.757222212022694
 35
0
 40
0
  0
DIMENSION
  5
2C2
100
AcDbEntity
  8
0
  6
ByLayer
 62
  256
370
   -1
100
AcDbDimension
  2
*D20
 10
13.56659141121165
 20
3.655530470403883
 30
0
 11
13.67628291754874
 21
3.771151247353789
 31
0
 70
   35
 71
    5
 72
    0
  3
Standard
 53
0
210
0
220
0
230
1
100
AcDbDiametricDimension
 15
13.83340858878835
 25
3.744469529596118
 35
0
 40
0
  0
DIMENSION
  5
2C3
100
AcDbEntity
  8
0
  6
ByLayer
 62
  256
370
   -1
100
AcDbDimension
  2
*D21
 10
12.26659141121165
 20
3.655530470403882
 30
0
 11
12.37628291754874
 21
3.771151247353789
 31
0
 70
   35
 71
    5
 72
    0
  3
Standard
 53
0
210
0
220
0
230
1
100
AcDbDiametricDimension
 15
12.53340858878835
 25
3.744469529596118
 35
0
 40
0
  0
DIMENSION
  5
2C4
100
AcDbEntity
  8
0
  6
ByLayer
 62
  256
370
   -1
100
AcDbDimension
  2
*D22
 10
10.96659141121165
 20
3.655530470403882
 30
0
 11
11.07628291754874
 21
3.771151247353789
 31
0
 70
   35
 71
    5
 72
    0
  3
Standard
 53
0
210
0
220
0
230
1
100
AcDbDiametricDimension
 15
11.23340858878835
 25
3.744469529596118
 35
0
 40
0
  0
DIMENSION
  5
2C5
100
AcDbEntity
  8
0
  6
ByLayer
 62
  256
370
   -1
100
AcDbDimension
  2
*D23
 10
10.96659141121165
 20
2.555530470403882
 30
0
 11
11.07628291754874
 21
2.671151247353789
 31
0
 70
   35
 71
    5
 72
    0
  3
Standard
 53
0
210
0
220
0
230
1
100
AcDbDiametricDimension
 15
11.23340858878835
 25
2.644469529596118
 35
0
 40
0
  0
DIMENSION
  5
2C6
100
AcDbEntity
  8
0
  6
ByLayer
 62
  256
370
   -1
100
AcDbDimension
  2
*D24
 10
12.27422117626564
 20
2.537110588132819
 30
0
 11
12.3664589803375
 21
2.667082039324994
 31
0
 70
   35
 71
    5
 72
    0
  3
Standard
 53
0
210
0
220
0
230
1
100
AcDbDiametricDimension
 15
12.52577882373436
 25
2.662889411867182
 35
0
 40
0
  0
DIMENSION
  5
2C7
100
AcDbEntity
  8
0
  6
ByLayer
 62
  256
370
   -1
100
AcDbDimension
  2
*D25
 10
13.57422117626564
 20
2.537110588132819
 30
0
 11
13.6664589803375
 21
2.667082039324994
 31
0
 70
   35
 71
    5
 72
    0
  3
Standard
 53
0
210
0
220
0
230
1
100
AcDbDiametricDimension
 15
13.82577882373436
 25
2.662889411867181
 35
0
 40
0
  0
DIMENSION
  5
2C8
100
AcDbEntity
  8
0
  6
ByLayer
 62
  256
370
   -1
100
AcDbDimension
  2
*D26
 10
14.86659141121165
 20
2.555530470403882
 30
0
 11
14.97628291754874
 21
2.671151247353789
 31
0
 70
   35
 71
    5
 72
    0
  3
Standard
 53
0
210
0
220
0
230
1
100
AcDbDiametricDimension
 15
15.13340858878835
 25
2.644469529596118
 35
0
 40
0
  0
DIMENSION
  5
2C9
100
AcDbEntity
  8
0
  6
ByLayer
 62
  256
370
   -1
100
AcDbDimension
  2
*D27
 10
16.17422117626564
 20
2.537110588132818
 30
0
 11
16.2664589803375
 21
2.667082039324994
 31
0
 70
   35
 71
    5
 72
    0
  3
Standard
 53
0
210
0
220
0
230
1
100
AcDbDiametricDimension
 15
16.42577882373437
 25
2.662889411867182
 35
0
 40
0
  0
MTEXT
  5
2CA
100
AcDbEntity
  8
0
  6
ByLayer
 62
  256
370
   -1
100
AcDbMText
 10
13.4
 20
4.7
 30
0
 40
0.125
 41
0.8715277638888889
 71
    2
 72
    1
  1
Top (Body)
  7
iso
210
0
220
0
230
1
 50
0
 73
    2
 44
1
  0
DIMENSION
  5
2CB
100
AcDbEntity
  8
0
  6
ByLayer
 62
  256
370
   -1
100
AcDbDimension
  2
*D28
 10
17
 20
0.3899999999999999
 30
0
 11
16.875
 21
0.4649999999999999
 31
0
 70
   32
 71
    5
 72
    0
  3
Standard
 53
0
210
0
220
0
230
1
100
AcDbAlignedDimension
 13
16.75
 23
0.6
 33
0
 14
17
 24
0.6
 34
0
100
AcDbRotatedDimension
  0
DIMENSION
  5
2CC
100
AcDbEntity
  8
0
  6
ByLayer
 62
  256
370
   -1
100
AcDbDimension
  2
*D29
 10
10
 20
0.2
 30
0
 11
10.125
 21
0.275
 31
0
 70
   32
 71
    5
 72
    0
  3
Standard
 53
0
210
0
220
0
230
1
100
AcDbAlignedDimension
 13
10.25
 23
0.6
 33
0
 14
10
 24
0.6
 34
0
100
AcDbRotatedDimension
  0
DIMENSION
  5
2CD
100
AcDbEntity
  8
0
  6
ByLayer
 62
  256
370
   -1
100
AcDbDimension
  2
*D30
 10
10
 20
4
 30
0
 11
10.55
 21
4.075
 31
0
 70
   32
 71
    5
 72
    0
  3
Standard
 53
0
210
0
220
0
230
1
100
AcDbAlignedDimension
 13
11.1
 23
3.7
 33
0
 14
10
 24
3.7
 34
0
100
AcDbRotatedDimension
  0
DIMENSION
  5
2CE
100
AcDbEntity
  8
0
  6
ByLayer
 62
  256
370
   -1
100
AcDbDimension
  2
*D31
 10
12.4
 20
4
 30
0
 11
11.75
 21
4.075
 31
0
 70
   32
 71
    5
 72
    0
  3
Standard
 53
0
210
0
220
0
230
1
100
AcDbAlignedDimension
 13
11.1
 23
3.7
 33
0
 14
12.4
 24
3.7
 34
0
100
AcDbRotatedDimension
  0
DIMENSION
  5
2CF
100
AcDbEntity
  8
0
  6
ByLayer
 62
  256
370
   -1
100
AcDbDimension
  2
*D32
 10
13.7
 20
4
 30
0
 11
13.05
 21
4.075
 31
0
 70
   32
 71
    5
 72
    0
  3
Standard
 53
0
210
0
220
0
230
1
100
AcDbAlignedDimension
 13
12.4
 23
3.7
 33
0
 14
13.7
 24
3.7
 34
0
100
AcDbRotatedDimension
  0
DIMENSION
  5
2D0
100
AcDbEntity
  8
0
  6
ByLayer
 62
  256
370
   -1
100
AcDbDimension
  2
*D33
 10
10
 20
2.3
 30
0
 11
10.55
 21
2.375
 31
0
 70
   32
 71
    5
 72
    0
  3
Standard
 53
0
210
0
220
0
230
1
100
AcDbAlignedDimension
 13
11.1
 23
2.6
 33
0
 14
10
 24
2.6
 34
0
100
AcDbRotatedDimension
  0
DIMENSION
  5
2D1
100
AcDbEntity
  8
0
  6
ByLayer
 62
  256
370
   -1
100
AcDbDimension
  2
*D34
 10
12.4
 20
2.3
 30
0
 11
11.75
 21
2.375
 31
0
 70
   32
 71
    5
 72
    0
  3
Standard
 53
0
210
0
220
0
230
1
100
AcDbAlignedDimension
 13
11.1
 23
2.6
 33
0
 14
12.4
 24
2.6
 34
0
100
AcDbRotatedDimension
  0
DIMENSION
  5
2D2
100
AcDbEntity
  8
0
  6
ByLayer
 62
  256
370
   -1
100
AcDbDimension
  2
*D35
 10
13.7
 20
2.3
 30
0
 11
13.05
 21
2.375
 31
0
 70
   32
 71
    5
 72
    0
  3
Standard
 53
0
210
0
220
0
230
1
100
AcDbAlignedDimension
 13
12.4
 23
2.6
 33
0
 14
13.7
 24
2.6
 34
0
100
AcDbRotatedDimension
  0
DIMENSION
  5
2D3
100
AcDbEntity
  8
0
  6
ByLayer
 62
  256
370
   -1
100
AcDbDimension
  2
*D36
 10
14.6
 20
4
 30
0
 11
14.15
 21
4.075
 31
0
 70
   32
 71
    5
 72
    0
  3
Standard
 53
0
210
0
220
0
230
1
100
AcDbAlignedDimension
 13
13.7
 23
3.7
 33
0
 14
14.6
 24
3.7
 34
0
100
AcDbRotatedDimension
  0
DIMENSION
  5
2D4
100
AcDbEntity
  8
0
  6
ByLayer
 62
  256
370
   -1
100
AcDbDimension
  2
*D37
 10
15
 20
2.3
 30
0
 11
14.35
 21
2.375
 31
0
 70
   32
 71
    5
 72
    0
  3
Standard
 53
0
210
0
220
0
230
1
100
AcDbAlignedDimension
 13
13.7
 23
2.6
 33
0
 14
15
 24
2.6
 34
0
100
AcDbRotatedDimension
  0
DIMENSION
  5
2D5
100
AcDbEntity
  8
0
  6
ByLayer
 62
  256
370
   -1
100
AcDbDimension
  2
*D38
 10
16.3
 20
2.3
 30
0
 11
15.65
 21
2.375
 31
0
 70
   32
 71
    5
 72
    0
  3
Standard
 53
0
210
0
220
0
230
1
100
AcDbAlignedDimension
 13
15
 23
2.6
 33
0
 14
16.3
 24
2.6
 34
0
100
AcDbRotatedDimension
  0
DIMENSION
  5
2D6
100
AcDbEntity
  8
0
  6
ByLayer
 62
  256
370
   -1
100
AcDbDimension
  2
*D39
 10
10.4
 20
2.6
 30
0
 11
10.325
 21
3.15
 31
0
 70
   32
 71
    5
 72
    0
  3
Standard
 53
0
210
0
220
0
230
1
100
AcDbAlignedDimension
 13
11.1
 23
3.7
 33
0
 14
11.1
 24
2.6
 34
0
 50
90
100
AcDbRotatedDimension
  0
DIMENSION
  5
2D7
100
AcDbEntity
  8
0
  6
ByLayer
 62
  256
370
   -1
100
AcDbDimension
  2
*D40
 10
11.4
 20
1.7
 30
0
 11
11.325
 21
2.15
 31
0
 70
   32
 71
    5
 72
    0
  3
Standard
 53
0
210
0
220
0
230
1
100
AcDbAlignedDimension
 13
11.1
 23
2.6
 33
0
 14
11.1
 24
1.7
 34
0
 50
90
100
AcDbRotatedDimension
  0
MTEXT
  5
2D8
100
AcDbEntity
  8
0
  6
ByLayer
 62
  256
370
   -1
100
AcDbMText
 10
16.4
 20
1.8
 30
0
 40
0.1
 41
0.5416666666666867
 71
    2
 72
    1
  1
3mm tap
  7
iso
210
0
220
0
230
1
 50
0
 73
    2
 44
1
  0
MTEXT
  5
2D9
100
AcDbEntity
  8
0
  6
ByLayer
 62
  256
370
   -1
100
AcDbMText
 10
16.4
 20
0.7000000000000001
 30
0
 40
0.1
 41
0.5416666666666867
 71
    2
 72
    1
  1
3mm tap
  7
iso
210
0
220
0
230
1
 50
0
 73
    2
 44
1
  0
MTEXT
  5
2DA
100
AcDbEntity
  8
0
  6
ByLayer
 62
  256
370
   -1
100
AcDbMText
 10
13.9
 20
1.7
 30
0
 40
0.1
 41
0.5416666666666867
 71
    2
 72
    1
  1
3mm tap
  7
iso
210
0
220
0
230
1
 50
0
 73
    2
 44
1
  0
MTEXT
  5
2DB
100
AcDbEntity
  8
0
  6
ByLayer
 62
  256
370
   -1
100
AcDbMText
 10
10.7
 20
1.9
 30
0
 40
0.1
 41
0.5416666666666867
 71
    2
 72
    1
  1
3mm tap
  7
iso
210
0
220
0
230
1
 50
0
 73
    2
 44
1
  0
MTEXT
  5
2DC
100
AcDbEntity
  8
0
  6
ByLayer
 62
  256
370
   -1
100
AcDbMText
 10
11.1
 20
0.6000000000000001
 30
0
 40
0.1
 41
0.5416666666666867
 71
    2
 72
    1
  1
3mm tap
  7
iso
210
0
220
0
230
1
 50
0
 73
    2
 44
1
  0
MTEXT
  5
2DD
100
AcDbEntity
  8
0
  6
ByLayer
 62
  256
370
   -1
100
AcDbMText
 10
13
 20
5
 30
0
 40
0.2
 41
1.572222222222235
 71
    2
 72
    1
  1
CU-744 Top
  7
iso
210
0
220
0
230
1
 50
0
 73
    2
 44
1
  0
DIMENSION
  5
2DE
100
AcDbEntity
  8
0
  6
ByLayer
 62
  256
370
   -1
100
AcDbDimension
  2
*D41
 10
6.4
 20
4.5
 30
0
 11
5.600000000000001
 21
4.575
 31
0
 70
   32
 71
    5
  3
Standard
 53
0
210
0
220
0
230
1
100
AcDbAlignedDimension
 13
4.800000000000001
 23
4.2
 33
0
 14
6.4
 24
4.2
 34
0
100
AcDbRotatedDimension
  0
DIMENSION
  5
2DF
100
AcDbEntity
  8
0
  6
ByLayer
 62
  256
370
   -1
100
AcDbDimension
  2
*D42
 10
6.7
 20
4.7
 30
0
 11
6.625
 21
4.45
 31
0
 70
   32
 71
    5
  3
Standard
 53
0
210
0
220
0
230
1
100
AcDbAlignedDimension
 13
6.4
 23
4.2
 33
0
 14
6.4
 24
4.7
 34
0
 50
90
100
AcDbRotatedDimension
  0
DIMENSION
  5
2E0
100
AcDbEntity
  8
0
  6
ByLayer
 62
  256
370
   -1
100
AcDbDimension
  2
*D43
 10
6.7
 20
0.6000000000000001
 30
0
 11
6.625
 21
2.4
 31
0
 70
   32
 71
    5
  3
Standard
 53
0
210
0
220
0
230
1
100
AcDbAlignedDimension
 13
6.4
 23
4.2
 33
0
 14
6.4
 24
0.6000000000000001
 34
0
 50
90
100
AcDbRotatedDimension
  0
CIRCLE
  5
2E1
100
AcDbEntity
  8
0
  6
ByLayer
 62
  256
370
   -1
100
AcDbCircle
 10
4.8
 20
4.2
 40
0.05118110236226
  0
CIRCLE
  5
2E2
100
AcDbEntity
  8
0
  6
ByLayer
 62
  256
370
   -1
100
AcDbCircle
 10
6.4
 20
4.2
 40
0.05118110236226
  0
CIRCLE
  5
2E3
100
AcDbEntity
  8
0
  6
ByLayer
 62
  256
370
   -1
100
AcDbCircle
 10
6.4
 20
0.6
 40
0.05118110236226
  0
CIRCLE
  5
2E4
100
AcDbEntity
  8
0
  6
ByLayer
 62
  256
370
   -1
100
AcDbCircle
 10
4.8
 20
0.6
 40
0.05118110236226
  0
DIMENSION
  5
2E5
100
AcDbEntity
  8
0
  6
ByLayer
 62
  256
370
   -1
100
AcDbDimension
  2
*D44
 10
6.4
 20
0.4
 30
0
 11
5.6
 21
0.475
 31
0
 70
   32
 71
    5
  3
Standard
 53
0
210
0
220
0
230
1
100
AcDbAlignedDimension
 13
4.8
 23
0.6
 33
0
 14
6.4
 24
0.6
 34
0
100
AcDbRotatedDimension
  0
DIMENSION
  5
2E6
100
AcDbEntity
  8
0
  6
ByLayer
 62
  256
370
   -1
100
AcDbDimension
  2
*D45
 10
7.4
 20
0.4000000000000001
 30
0
 11
6.9
 21
0.4750000000000001
 31
0
 70
   32
 71
    5
  3
Standard
 53
0
210
0
220
0
230
1
100
AcDbAlignedDimension
 13
6.4
 23
0.6000000000000001
 33
0
 14
7.4
 24
0.6000000000000001
 34
0
100
AcDbRotatedDimension
  0
DIMENSION
  5
2E7
100
AcDbEntity
  8
0
  6
ByLayer
 62
  256
370
   -1
100
AcDbDimension
  2
*D46
 10
4.754222230381845
 20
4.177111115190923
 30
0
 11
4.766458980337503
 21
4.267082039324994
 31
0
 70
   35
 71
    5
  3
Standard
 53
0
210
0
220
0
230
1
100
AcDbDiametricDimension
 15
4.845777769618155
 25
4.222888884809078
 35
0
 40
0
  0
DIMENSION
  5
2E8
100
AcDbEntity
  8
0
  6
ByLayer
 62
  256
370
   -1
100
AcDbDimension
  2
*D47
 10
6.416184885662297
 20
4.15144534301311
 30
0
 11
6.471151247353789
 21
4.223717082451262
 31
0
 70
   35
 71
    5
  3
Standard
 53
0
210
0
220
0
230
1
100
AcDbDiametricDimension
 15
6.383815114337704
 25
4.24855465698689
 35
0
 40
0
  0
DIMENSION
  5
2E9
100
AcDbEntity
  8
0
  6
ByLayer
 62
  256
370
   -1
100
AcDbDimension
  2
*D48
 10
4.754222230381845
 20
0.5771111151909223
 30
0
 11
4.766458980337503
 21
0.6670820393249937
 31
0
 70
   35
 71
    5
  3
Standard
 53
0
210
0
220
0
230
1
100
AcDbDiametricDimension
 15
4.845777769618155
 25
0.6228888848090777
 35
0
 40
0
  0
DIMENSION
  5
2EA
100
AcDbEntity
  8
0
  6
ByLayer
 62
  256
370
   -1
100
AcDbDimension
  2
*D49
 10
6.436190504548957
 20
0.6361905045489568
 30
0
 11
6.346966991411009
 21
0.653033008588991
 31
0
 70
   35
 71
    5
  3
Standard
 53
0
210
0
220
0
230
1
100
AcDbDiametricDimension
 15
6.363809495451044
 25
0.5638094954510432
 35
0
 40
0
  0
CIRCLE
  5
2EB
100
AcDbEntity
  8
0
  6
ByLayer
 62
  256
370
   -1
100
AcDbCircle
 10
0.7
 20
3.8
 40
0.0590551181103
  0
CIRCLE
  5
2EC
100
AcDbEntity
  8
0
  6
ByLayer
 62
  256
370
   -1
100
AcDbCircle
 10
0.7
 20
1.15
 40
0.0590551181103
  0
CIRCLE
  5
2ED
100
AcDbEntity
  8
0
  6
ByLayer
 62
  256
370
   -1
100
AcDbCircle
 10
3.8
 20
3.8
 40
0.0590551181103
  0
CIRCLE
  5
2EE
100
AcDbEntity
  8
0
  6
ByLayer
 62
  256
370
   -1
100
AcDbCircle
 10
3.8
 20
1.15
 40
0.0590551181103
  0
DIMENSION
  5
2EF
100
AcDbEntity
  8
0
  6
ByLayer
 62
  256
370
   -1
100
AcDbDimension
  2
*D50
 10
0.7
 20
1.01
 30
0
 11
2.25
 21
1.085
 31
0
 70
   32
 71
    5
  3
Standard
 53
0
210
0
220
0
230
1
100
AcDbAlignedDimension
 13
3.8
 23
1.15
 33
0
 14
0.7
 24
1.15
 34
0
100
AcDbRotatedDimension
  0
DIMENSION
  5
2F0
100
AcDbEntity
  8
0
  6
ByLayer
 62
  256
370
   -1
100
AcDbDimension
  2
*D51
 10
3.8
 20
4
 30
0
 11
2.25
 21
4.075
 31
0
 70
   32
 71
    5
  3
Standard
 53
0
210
0
220
0
230
1
100
AcDbAlignedDimension
 13
0.7
 23
3.8
 33
0
 14
3.8
 24
3.8
 34
0
100
AcDbRotatedDimension
  0
DIMENSION
  5
2F1
100
AcDbEntity
  8
0
  6
ByLayer
 62
  256
370
   -1
100
AcDbDimension
  2
*D52
 10
0.5
 20
1.15
 30
0
 11
0.425
 21
2.475000000000001
 31
0
 70
   32
 71
    5
  3
Standard
 53
0
210
0
220
0
230
1
100
AcDbAlignedDimension
 13
0.7
 23
3.8
 33
0
 14
0.7000000000000001
 24
1.15
 34
0
 50
90
100
AcDbRotatedDimension
  0
DIMENSION
  5
2F2
100
AcDbEntity
  8
0
  6
ByLayer
 62
  256
370
   -1
100
AcDbDimension
  2
*D53
 10
3.95
 20
1.15
 30
0
 11
3.875
 21
2.475000000000001
 31
0
 70
   32
 71
    5
  3
Standard
 53
0
210
0
220
0
230
1
100
AcDbAlignedDimension
 13
3.8
 23
3.8
 33
0
 14
3.8
 24
1.15
 34
0
 50
90
100
AcDbRotatedDimension
  0
LINE
  5
2F3
100
AcDbEntity
  8
0
  6
ByLayer
 62
  256
370
   -1
100
AcDbLine
 10
0.7999999999999999
 20
3.7
 11
3.55
 21
3.7
  0
LINE
  5
2F4
100
AcDbEntity
  8
0
  6
ByLayer
 62
  256
370
   -1
100
AcDbLine
 10
3.55
 20
3.7
 11
3.55
 21
3.5
  0
LINE
  5
2F5
100
AcDbEntity
  8
0
  6
ByLayer
 62
  256
370
   -1
100
AcDbLine
 10
3.55
 20
3.5
 11
4.05
 21
3.5
  0
LINE
  5
2F6
100
AcDbEntity
  8
0
  6
ByLayer
 62
  256
370
   -1
100
AcDbLine
 10
4.05
 20
3.5
 11
4.050000000000001
 21
2.2
  0
LINE
  5
2F7
100
AcDbEntity
  8
0
  6
ByLayer
 62
  256
370
   -1
100
AcDbLine
 10
4.050000000000001
 20
2.2
 11
3.55
 21
2.2
  0
LINE
  5
2F8
100
AcDbEntity
  8
0
  6
ByLayer
 62
  256
370
   -1
100
AcDbLine
 10
3.55
 20
2.2
 11
3.55
 21
1.25
  0
LINE
  5
2F9
100
AcDbEntity
  8
0
  6
ByLayer
 62
  256
370
   -1
100
AcDbLine
 10
3.55
 20
1.25
 11
0.8
 21
1.25
  0
LINE
  5
2FA
100
AcDbEntity
  8
0
  6
ByLayer
 62
  256
370
   -1
100
AcDbLine
 10
0.8
 20
1.25
 11
0.8
 21
3.700000000000001
  0
DIMENSION
  5
2FB
100
AcDbEntity
  8
0
  6
ByLayer
 62
  256
370
   -1
100
AcDbDimension
  2
*D54
 10
0.8000000000000002
 20
3.9
 30
0
 11
0.7500000000000002
 21
3.975000000000001
 31
0
 70
   32
 71
    5
  3
Standard
 53
0
210
0
220
0
230
1
100
AcDbAlignedDimension
 13
0.7000000000000002
 23
3.8
 33
0
 14
0.8000000000000002
 24
3.7
 34
0
100
AcDbRotatedDimension
  0
DIMENSION
  5
2FC
100
AcDbEntity
  8
0
  6
ByLayer
 62
  256
370
   -1
100
AcDbDimension
  2
*D55
 10
3.55
 20
3.9
 30
0
 11
3.675
 21
3.975000000000001
 31
0
 70
   32
 71
    5
  3
Standard
 53
0
210
0
220
0
230
1
100
AcDbAlignedDimension
 13
3.8
 23
3.8
 33
0
 14
3.55
 24
3.700000000000001
 34
0
100
AcDbRotatedDimension
  0
DIMENSION
  5
2FD
100
AcDbEntity
  8
0
  6
ByLayer
 62
  256
370
   -1
100
AcDbDimension
  2
*D56
 10
3.55
 20
3.8
 30
0
 11
2.175
 21
3.875
 31
0
 70
   32
 71
    5
  3
Standard
 53
0
210
0
220
0
230
1
100
AcDbAlignedDimension
 13
0.8
 23
3.7
 33
0
 14
3.55
 24
3.700000000000001
 34
0
100
AcDbRotatedDimension
  0
DIMENSION
  5
2FE
100
AcDbEntity
  8
0
  6
ByLayer
 62
  256
370
   -1
100
AcDbDimension
  2
*D57
 10
4.050000000000001
 20
3.34
 30
0
 11
3.800000000000001
 21
3.415
 31
0
 70
   32
 71
    5
  3
Standard
 53
0
210
0
220
0
230
1
100
AcDbAlignedDimension
 13
3.55
 23
3.5
 33
0
 14
4.050000000000001
 24
3.5
 34
0
100
AcDbRotatedDimension
  0
DIMENSION
  5
2FF
100
AcDbEntity
  8
0
  6
ByLayer
 62
  256
370
   -1
100
AcDbDimension
  2
*D58
 10
3.55
 20
1.33
 30
0
 11
2.175
 21
1.405
 31
0
 70
   32
 71
    5
  3
Standard
 53
0
210
0
220
0
230
1
100
AcDbAlignedDimension
 13
0.8
 23
1.25
 33
0
 14
3.55
 24
1.25
 34
0
100
AcDbRotatedDimension
  0
DIMENSION
  5
300
100
AcDbEntity
  8
0
  6
ByLayer
 62
  256
370
   -1
100
AcDbDimension
  2
*D59
 10
0.7
 20
1.25
 30
0
 11
0.625
 21
2.475000000000001
 31
0
 70
   32
 71
    5
  3
Standard
 53
0
210
0
220
0
230
1
100
AcDbAlignedDimension
 13
0.8
 23
3.700000000000001
 33
0
 14
0.8
 24
1.25
 34
0
 50
90
100
AcDbRotatedDimension
  0
DIMENSION
  5
301
100
AcDbEntity
  8
0
  6
ByLayer
 62
  256
370
   -1
100
AcDbDimension
  2
*D60
 10
3.6
 20
1.25
 30
0
 11
3.525
 21
1.725
 31
0
 70
   32
 71
    5
  3
Standard
 53
0
210
0
220
0
230
1
100
AcDbAlignedDimension
 13
3.55
 23
2.2
 33
0
 14
3.55
 24
1.25
 34
0
 50
90
100
AcDbRotatedDimension
  0
DIMENSION
  5
302
100
AcDbEntity
  8
0
  6
ByLayer
 62
  256
370
   -1
100
AcDbDimension
  2
*D61
 10
3.38
 20
3.5
 30
0
 11
3.305
 21
3.600000000000001
 31
0
 70
   32
 71
    5
  3
Standard
 53
0
210
0
220
0
230
1
100
AcDbAlignedDimension
 13
3.55
 23
3.7
 33
0
 14
3.55
 24
3.5
 34
0
 50
90
100
AcDbRotatedDimension
  0
DIMENSION
  5
303
100
AcDbEntity
  8
0
  6
ByLayer
 62
  256
370
   -1
100
AcDbDimension
  2
*D62
 10
4.140000000000001
 20
2.2
 30
0
 11
4.065
 21
2.850000000000001
 31
0
 70
   32
 71
    5
  3
Standard
 53
0
210
0
220
0
230
1
100
AcDbAlignedDimension
 13
4.050000000000001
 23
3.5
 33
0
 14
4.050000000000001
 24
2.2
 34
0
 50
90
100
AcDbRotatedDimension
  0
DIMENSION
  5
304
100
AcDbEntity
  8
0
  6
ByLayer
 62
  256
370
   -1
100
AcDbDimension
  2
*D63
 10
0.7491368284058312
 20
3.767242114396113
 30
0
 11
0.7416025147168921
 21
3.862403772075338
 31
0
 70
   35
 71
    5
  3
Standard
 53
0
210
0
220
0
230
1
100
AcDbDiametricDimension
 15
0.6508631715941687
 25
3.832757885603888
 35
0
 40
0
  0
DIMENSION
  5
305
100
AcDbEntity
  8
0
  6
ByLayer
 62
  256
370
   -1
100
AcDbDimension
  2
*D64
 10
3.841758274479565
 20
3.758241725520435
 30
0
 11
3.853033008588991
 21
3.853033008588991
 31
0
 70
   35
 71
    5
  3
Standard
 53
0
210
0
220
0
230
1
100
AcDbDiametricDimension
 15
3.758241725520434
 25
3.841758274479566
 35
0
 40
0
  0
DIMENSION
  5
306
100
AcDbEntity
  8
0
  6
ByLayer
 62
  256
370
   -1
100
AcDbDimension
  2
*D65
 10
0.6471794965944361
 20
1.176410251702782
 30
0
 11
0.7335410196624969
 21
1.217082039324993
 31
0
 70
   35
 71
    5
  3
Standard
 53
0
210
0
220
0
230
1
100
AcDbDiametricDimension
 15
0.7528205034055638
 25
1.123589748297218
 35
0
 40
0
  0
DIMENSION
  5
307
100
AcDbEntity
  8
0
  6
ByLayer
 62
  256
370
   -1
100
AcDbDimension
  2
*D66
 10
3.747179496594436
 20
1.176410251702782
 30
0
 11
3.833541019662497
 21
1.217082039324994
 31
0
 70
   35
 71
    5
  3
Standard
 53
0
210
0
220
0
230
1
100
AcDbDiametricDimension
 15
3.852820503405564
 25
1.123589748297218
 35
0
 40
0
  0
MTEXT
  5
308
100
AcDbEntity
  8
0
  6
ByLayer
 62
  256
370
   -1
100
AcDbMText
 10
4.300000000000001
 20
1.3
 30
0
 40
0.1
 41
0.563888888888909
 71
    2
 72
    1
  1
3mm Tap
  7
iso
210
0
220
0
230
1
 50
0
 73
    2
 44
1
  0
MTEXT
  5
309
100
AcDbEntity
  8
0
  6
ByLayer
 62
  256
370
   -1
100
AcDbMText
 10
4.4
 20
3.9
 30
0
 40
0.1
 41
0.563888888888909
 71
    2
 72
    1
  1
3mm Tap
  7
iso
210
0
220
0
230
1
 50
0
 73
    2
 44
1
  0
MTEXT
  5
30A
100
AcDbEntity
  8
0
  6
ByLayer
 62
  256
370
   -1
100
AcDbMText
 10
0.1999999999999997
 20
4
 30
0
 40
0.1
 41
0.563888888888909
 71
    2
 72
    1
  1
3mm Tap
  7
iso
210
0
220
0
230
1
 50
0
 73
    2
 44
1
  0
MTEXT
  5
30B
100
AcDbEntity
  8
0
  6
ByLayer
 62
  256
370
   -1
100
AcDbMText
 10
0.3999999999999997
 20
1
 30
0
 40
0.1
 41
0.563888888888909
 71
    2
 72
    1
  1
3mm Tap
  7
iso
210
0
220
0
230
1
 50
0
 73
    2
 44
1
  0
MTEXT
  5
30C
100
AcDbEntity
  8
0
  6
ByLayer
 62
  256
370
   -1
100
AcDbMText
 10
2.1
 20
2.7
 30
0
 40
0.1
 41
1.094444444444449
 71
    2
 72
    1
  1
Battery Cut Out
  7
iso
210
0
220
0
230
1
 50
0
 73
    2
 44
1
  0
MTEXT
  5
30D
100
AcDbEntity
  8
0
  6
ByLayer
 62
  256
370
   -1
100
AcDbMText
 10
10.4
 20
1.3
 30
0
 40
0.1
 41
0.2
 71
    2
 72
    1
  1
Cut\POut
  7
iso
210
0
220
0
230
1
 50
0
 73
    2
 44
1
  0
CIRCLE
  5
30E
100
AcDbEntity
  8
0
  6
ByLayer
 62
  256
370
   -1
100
AcDbCircle
 10
16.3
 20
3.7
 40
0.226378
  0
DIMENSION
  5
30F
100
AcDbEntity
  8
0
  6
ByLayer
 62
  256
370
   -1
100
AcDbDimension
  2
*D67
 10
16.08523897235392
 20
3.628412990784641
 30
0
 11
16.27628291754874
 21
3.771151247353789
 31
0
 70
   35
 71
    5
  3
Standard
 53
0
210
0
220
0
230
1
100
AcDbDiametricDimension
 15
16.51476102764608
 25
3.771587009215359
 35
0
 40
0
  0
CIRCLE
  5
310
100
AcDbEntity
  8
0
  6
ByLayer
 62
  256
370
   -1
100
AcDbCircle
 10
15.4
 20
3.7
 40
0.12795275590565
  0
DIMENSION
  5
311
100
AcDbEntity
  8
0
  6
ByLayer
 62
  256
370
   -1
100
AcDbDimension
  2
*D68
 10
15.2
 20
4
 30
0
 11
15
 21
4.075
 31
0
 70
   32
 71
    5
 72
    0
  3
Standard
 53
0
210
0
220
0
230
1
100
AcDbAlignedDimension
 13
14.6
 23
3.7
 33
0
 14
15.4
 24
3.7
 34
0
100
AcDbRotatedDimension
  0
DIMENSION
  5
312
100
AcDbEntity
  8
0
  6
ByLayer
 62
  256
370
   -1
100
AcDbDimension
  2
*D69
 10
16
 20
4
 30
0
 11
15.85
 21
4.075
 31
0
 70
   32
 71
    5
 72
    0
  3
Standard
 53
0
210
0
220
0
230
1
100
AcDbAlignedDimension
 13
15.4
 23
3.7
 33
0
 14
16.3
 24
3.7
 34
0
100
AcDbRotatedDimension
  0
DIMENSION
  5
313
100
AcDbEntity
  8
0
  6
ByLayer
 62
  256
370
   -1
100
AcDbDimension
  2
*D70
 10
15.28555557595461
 20
3.642777787977306
 30
0
 11
15.3664589803375
 21
3.767082039324994
 31
0
 70
   35
 71
    5
  3
Standard
 53
0
210
0
220
0
230
1
100
AcDbDiametricDimension
 15
15.51444442404539
 25
3.757222212022694
 35
0
 40
0
  0
ENDSEC
  0
SECTION
  2
OBJECTS
  0
DICTIONARY
  5
C
330
0
100
AcDbDictionary
281
    1
  3
ACAD_GROUP
350
D
  0
DICTIONARY
  5
D
330
C
100
AcDbDictionary
281
    1
  0
PLOTSETTINGS
  5
314
100
AcDbPlotSettings
  6
1x1
 40
0
 41
0
 42
0
 43
0
  0
ENDSEC
  0
EOF
