%TF.GenerationSoftware,KiCad,Pcbnew,9.0.6*%
%TF.CreationDate,2026-04-05T22:13:19-07:00*%
%TF.ProjectId,absonus-v0.2,6162736f-6e75-4732-9d76-302e322e6b69,v0.3*%
%TF.SameCoordinates,Original*%
%TF.FileFunction,Copper,L2,Bot*%
%TF.FilePolarity,Positive*%
%FSLAX46Y46*%
G04 Gerber Fmt 4.6, Leading zero omitted, Abs format (unit mm)*
G04 Created by KiCad (PCBNEW 9.0.6) date 2026-04-05 22:13:19*
%MOMM*%
%LPD*%
G01*
G04 APERTURE LIST*
G04 Aperture macros list*
%AMRoundRect*
0 Rectangle with rounded corners*
0 $1 Rounding radius*
0 $2 $3 $4 $5 $6 $7 $8 $9 X,Y pos of 4 corners*
0 Add a 4 corners polygon primitive as box body*
4,1,4,$2,$3,$4,$5,$6,$7,$8,$9,$2,$3,0*
0 Add four circle primitives for the rounded corners*
1,1,$1+$1,$2,$3*
1,1,$1+$1,$4,$5*
1,1,$1+$1,$6,$7*
1,1,$1+$1,$8,$9*
0 Add four rect primitives between the rounded corners*
20,1,$1+$1,$2,$3,$4,$5,0*
20,1,$1+$1,$4,$5,$6,$7,0*
20,1,$1+$1,$6,$7,$8,$9,0*
20,1,$1+$1,$8,$9,$2,$3,0*%
G04 Aperture macros list end*
%TA.AperFunction,ComponentPad*%
%ADD10R,1.700000X1.700000*%
%TD*%
%TA.AperFunction,ComponentPad*%
%ADD11C,1.700000*%
%TD*%
%TA.AperFunction,ComponentPad*%
%ADD12RoundRect,0.250000X0.750000X-0.600000X0.750000X0.600000X-0.750000X0.600000X-0.750000X-0.600000X0*%
%TD*%
%TA.AperFunction,ComponentPad*%
%ADD13O,2.000000X1.700000*%
%TD*%
%TA.AperFunction,ComponentPad*%
%ADD14RoundRect,0.250000X-0.600000X0.600000X-0.600000X-0.600000X0.600000X-0.600000X0.600000X0.600000X0*%
%TD*%
%TA.AperFunction,ComponentPad*%
%ADD15O,1.700000X1.700000*%
%TD*%
%TA.AperFunction,ComponentPad*%
%ADD16RoundRect,0.250000X-0.750000X0.600000X-0.750000X-0.600000X0.750000X-0.600000X0.750000X0.600000X0*%
%TD*%
%TA.AperFunction,ComponentPad*%
%ADD17RoundRect,0.250000X0.725000X-0.600000X0.725000X0.600000X-0.725000X0.600000X-0.725000X-0.600000X0*%
%TD*%
%TA.AperFunction,ComponentPad*%
%ADD18O,1.950000X1.700000*%
%TD*%
%TA.AperFunction,ComponentPad*%
%ADD19RoundRect,0.250000X-0.725000X0.600000X-0.725000X-0.600000X0.725000X-0.600000X0.725000X0.600000X0*%
%TD*%
%TA.AperFunction,ComponentPad*%
%ADD20R,1.338000X1.338000*%
%TD*%
%TA.AperFunction,ComponentPad*%
%ADD21C,1.338000*%
%TD*%
%TA.AperFunction,ViaPad*%
%ADD22C,0.800000*%
%TD*%
%TA.AperFunction,Conductor*%
%ADD23C,0.500000*%
%TD*%
%TA.AperFunction,Conductor*%
%ADD24C,0.250000*%
%TD*%
G04 APERTURE END LIST*
D10*
%TO.P,A1,1,USB_ID*%
%TO.N,unconnected-(A1-USB_ID-Pad1)*%
X38100000Y-30480000D03*
D11*
%TO.P,A1,2,SD_DATA_3*%
%TO.N,unconnected-(A1-SD_DATA_3-Pad2)*%
X38100000Y-33020000D03*
%TO.P,A1,3,SD_DATA_2*%
%TO.N,unconnected-(A1-SD_DATA_2-Pad3)*%
X38100000Y-35560000D03*
%TO.P,A1,4,SD_DATA_1*%
%TO.N,unconnected-(A1-SD_DATA_1-Pad4)*%
X38100000Y-38100000D03*
%TO.P,A1,5,SD_DATA_0*%
%TO.N,unconnected-(A1-SD_DATA_0-Pad5)*%
X38100000Y-40640000D03*
%TO.P,A1,6,SD_CMD*%
%TO.N,unconnected-(A1-SD_CMD-Pad6)*%
X38100000Y-43180000D03*
%TO.P,A1,7,SD_CLK*%
%TO.N,unconnected-(A1-SD_CLK-Pad7)*%
X38100000Y-45720000D03*
%TO.P,A1,8,SPI1_CS*%
%TO.N,unconnected-(A1-SPI1_CS-Pad8)*%
X38100000Y-48260000D03*
%TO.P,A1,9,SPI1_SCK*%
%TO.N,unconnected-(A1-SPI1_SCK-Pad9)*%
X38100000Y-50800000D03*
%TO.P,A1,10,SPI1_POCI*%
%TO.N,unconnected-(A1-SPI1_POCI-Pad10)*%
X38100000Y-53340000D03*
%TO.P,A1,11,SPI1_PICO*%
%TO.N,unconnected-(A1-SPI1_PICO-Pad11)*%
X38100000Y-55880000D03*
%TO.P,A1,12,I2C1_SCL*%
%TO.N,Net-(A1-I2C1_SCL)*%
X38100000Y-58420000D03*
%TO.P,A1,13,I2C1_SDA*%
%TO.N,Net-(A1-I2C1_SDA)*%
X38100000Y-60960000D03*
%TO.P,A1,14,USART1_TX*%
%TO.N,Net-(A1-USART1_TX)*%
X38100000Y-63500000D03*
%TO.P,A1,15,USART1_RX*%
%TO.N,Net-(A1-USART1_RX)*%
X38100000Y-66040000D03*
%TO.P,A1,16,AUDIO_IN_1*%
%TO.N,unconnected-(A1-AUDIO_IN_1-Pad16)*%
X38100000Y-68580000D03*
%TO.P,A1,17,AUDIO_IN_2*%
%TO.N,unconnected-(A1-AUDIO_IN_2-Pad17)*%
X38100000Y-71120000D03*
%TO.P,A1,18,AUDIO_OUT_1*%
%TO.N,Net-(A1-AUDIO_OUT_1)*%
X38100000Y-73660000D03*
%TO.P,A1,19,AUDIO_OUT_2*%
%TO.N,Net-(A1-AUDIO_OUT_2)*%
X38100000Y-76200000D03*
%TO.P,A1,20,AGND*%
%TO.N,GND*%
X38100000Y-78740000D03*
%TO.P,A1,21,3V3_A*%
%TO.N,+3V3*%
X53340000Y-78740000D03*
%TO.P,A1,22,ADC_0*%
%TO.N,Net-(A1-ADC_0)*%
X53340000Y-76200000D03*
%TO.P,A1,23,ADC_1*%
%TO.N,Net-(A1-ADC_1)*%
X53340000Y-73660000D03*
%TO.P,A1,24,ADC_2*%
%TO.N,Net-(A1-ADC_2)*%
X53340000Y-71120000D03*
%TO.P,A1,25,ADC_3*%
%TO.N,Net-(A1-ADC_3)*%
X53340000Y-68580000D03*
%TO.P,A1,26,ADC_4*%
%TO.N,Net-(A1-ADC_4)*%
X53340000Y-66040000D03*
%TO.P,A1,27,ADC_5*%
%TO.N,Net-(A1-ADC_5)*%
X53340000Y-63500000D03*
%TO.P,A1,28,ADC_6*%
%TO.N,Net-(A1-ADC_6)*%
X53340000Y-60960000D03*
%TO.P,A1,29,DAC_OUT2*%
%TO.N,Net-(A1-DAC_OUT2)*%
X53340000Y-58420000D03*
%TO.P,A1,30,DAC_OUT1*%
%TO.N,Net-(A1-DAC_OUT1)*%
X53340000Y-55880000D03*
%TO.P,A1,31,SAI2_MCLK*%
%TO.N,Net-(A1-SAI2_MCLK)*%
X53340000Y-53340000D03*
%TO.P,A1,32,SAI2_SD_B*%
%TO.N,unconnected-(A1-SAI2_SD_B-Pad32)*%
X53340000Y-50800000D03*
%TO.P,A1,33,SAI2_SD_A*%
%TO.N,unconnected-(A1-SAI2_SD_A-Pad33)*%
X53340000Y-48260000D03*
%TO.P,A1,34,SAI2_FS*%
%TO.N,unconnected-(A1-SAI2_FS-Pad34)*%
X53340000Y-45720000D03*
%TO.P,A1,35,SAI2_SCK*%
%TO.N,unconnected-(A1-SAI2_SCK-Pad35)*%
X53340000Y-43180000D03*
%TO.P,A1,36,USB_D_-*%
%TO.N,unconnected-(A1-USB_D_--Pad36)*%
X53340000Y-40640000D03*
%TO.P,A1,37,USB_D_+*%
%TO.N,unconnected-(A1-USB_D_+-Pad37)*%
X53340000Y-38100000D03*
%TO.P,A1,38,3V3_D*%
%TO.N,unconnected-(A1-3V3_D-Pad38)*%
X53340000Y-35560000D03*
%TO.P,A1,39,VIN*%
%TO.N,+5V*%
X53340000Y-33020000D03*
%TO.P,A1,40,DGND*%
%TO.N,GND*%
X53340000Y-30480000D03*
%TD*%
D12*
%TO.P,J6,1,Pin_1*%
%TO.N,Net-(J6-Pin_1)*%
X30480000Y-109220000D03*
D13*
%TO.P,J6,2,Pin_2*%
%TO.N,GND*%
X30480000Y-106720000D03*
%TD*%
D12*
%TO.P,J5,1,Pin_1*%
%TO.N,Net-(J5-Pin_1)*%
X30480000Y-99060000D03*
D13*
%TO.P,J5,2,Pin_2*%
%TO.N,GND*%
X30480000Y-96560000D03*
%TD*%
D14*
%TO.P,J10,1,Pin_1*%
%TO.N,+3V3*%
X55880000Y-116840000D03*
D11*
%TO.P,J10,2,Pin_2*%
%TO.N,GND*%
X55880000Y-119380000D03*
%TO.P,J10,3,Pin_3*%
%TO.N,Net-(A1-ADC_3)*%
X53340000Y-116840000D03*
%TO.P,J10,4,Pin_4*%
%TO.N,Net-(A1-ADC_4)*%
X53340000Y-119380000D03*
%TO.P,J10,5,Pin_5*%
%TO.N,Net-(A1-ADC_2)*%
X50800000Y-116840000D03*
%TO.P,J10,6,Pin_6*%
%TO.N,Net-(A1-ADC_5)*%
X50800000Y-119380000D03*
%TO.P,J10,7,Pin_7*%
%TO.N,Net-(A1-ADC_1)*%
X48260000Y-116840000D03*
%TO.P,J10,8,Pin_8*%
%TO.N,Net-(A1-ADC_6)*%
X48260000Y-119380000D03*
%TO.P,J10,9,Pin_9*%
%TO.N,Net-(A1-ADC_0)*%
X45720000Y-116840000D03*
%TO.P,J10,10,Pin_10*%
%TO.N,Net-(A1-DAC_OUT2)*%
X45720000Y-119380000D03*
%TD*%
D10*
%TO.P,A2,1*%
%TO.N,N/C*%
X38100000Y-30480000D03*
D15*
%TO.P,A2,2*%
X38100000Y-33020000D03*
%TO.P,A2,3*%
X38100000Y-35560000D03*
%TO.P,A2,4*%
X38100000Y-38100000D03*
%TO.P,A2,5*%
X38100000Y-40640000D03*
%TO.P,A2,6*%
X38100000Y-43180000D03*
%TO.P,A2,7*%
X38100000Y-45720000D03*
%TO.P,A2,8*%
X38100000Y-48260000D03*
%TO.P,A2,9*%
X38100000Y-50800000D03*
%TO.P,A2,10*%
X38100000Y-53340000D03*
%TO.P,A2,11*%
X38100000Y-55880000D03*
%TO.P,A2,12*%
X38100000Y-58420000D03*
%TO.P,A2,13*%
X38100000Y-60960000D03*
%TO.P,A2,14*%
X38100000Y-63500000D03*
%TO.P,A2,15*%
X38100000Y-66040000D03*
%TO.P,A2,16*%
X38100000Y-68580000D03*
%TO.P,A2,17*%
X38100000Y-71120000D03*
%TO.P,A2,18*%
X38100000Y-73660000D03*
%TO.P,A2,19*%
X38100000Y-76200000D03*
%TO.P,A2,20*%
X38100000Y-78740000D03*
%TD*%
D16*
%TO.P,J4,1,Pin_1*%
%TO.N,+3V3*%
X71120000Y-83860000D03*
D13*
%TO.P,J4,2,Pin_2*%
%TO.N,Net-(A1-DAC_OUT1)*%
X71120000Y-86360000D03*
%TD*%
D16*
%TO.P,J3,1,Pin_1*%
%TO.N,+5V*%
X71120000Y-40680000D03*
D13*
%TO.P,J3,2,Pin_2*%
%TO.N,GND*%
X71120000Y-43180000D03*
%TD*%
D10*
%TO.P,A3,1*%
%TO.N,N/C*%
X53340000Y-30480000D03*
D15*
%TO.P,A3,2*%
X53340000Y-33020000D03*
%TO.P,A3,3*%
X53340000Y-35560000D03*
%TO.P,A3,4*%
X53340000Y-38100000D03*
%TO.P,A3,5*%
X53340000Y-40640000D03*
%TO.P,A3,6*%
X53340000Y-43180000D03*
%TO.P,A3,7*%
X53340000Y-45720000D03*
%TO.P,A3,8*%
X53340000Y-48260000D03*
%TO.P,A3,9*%
X53340000Y-50800000D03*
%TO.P,A3,10*%
X53340000Y-53340000D03*
%TO.P,A3,11*%
X53340000Y-55880000D03*
%TO.P,A3,12*%
X53340000Y-58420000D03*
%TO.P,A3,13*%
X53340000Y-60960000D03*
%TO.P,A3,14*%
X53340000Y-63500000D03*
%TO.P,A3,15*%
X53340000Y-66040000D03*
%TO.P,A3,16*%
X53340000Y-68580000D03*
%TO.P,A3,17*%
X53340000Y-71120000D03*
%TO.P,A3,18*%
X53340000Y-73660000D03*
%TO.P,A3,19*%
X53340000Y-76200000D03*
%TO.P,A3,20*%
X53340000Y-78740000D03*
%TD*%
D17*
%TO.P,J9,1,Pin_1*%
%TO.N,Net-(A1-AUDIO_OUT_1)*%
X30480000Y-88900000D03*
D18*
%TO.P,J9,2,Pin_2*%
%TO.N,GND*%
X30480000Y-86400000D03*
%TO.P,J9,3,Pin_3*%
%TO.N,Net-(A1-AUDIO_OUT_2)*%
X30480000Y-83900000D03*
%TD*%
D19*
%TO.P,J8,1,Pin_1*%
%TO.N,+3V3*%
X71120000Y-94060000D03*
D18*
%TO.P,J8,2,Pin_2*%
%TO.N,Net-(A1-SAI2_MCLK)*%
X71120000Y-96560000D03*
%TO.P,J8,3,Pin_3*%
%TO.N,GND*%
X71120000Y-99060000D03*
%TD*%
D16*
%TO.P,J7,1,Pin_1*%
%TO.N,+5V*%
X71120000Y-50840000D03*
D13*
%TO.P,J7,2,Pin_2*%
%TO.N,GND*%
X71120000Y-53340000D03*
%TD*%
D20*
%TO.P,U1,1,VDD*%
%TO.N,+3V3*%
X39243000Y-87630000D03*
D21*
%TO.P,U1,2,SW0*%
%TO.N,Net-(J5-Pin_1)*%
X39243000Y-90170000D03*
%TO.P,U1,3,SW1*%
%TO.N,Net-(J6-Pin_1)*%
X39243000Y-92710000D03*
%TO.P,U1,4,SW2*%
%TO.N,unconnected-(U1-SW2-Pad4)*%
X39243000Y-95250000D03*
%TO.P,U1,5,OUT2*%
%TO.N,unconnected-(U1-OUT2-Pad5)*%
X47117000Y-95250000D03*
%TO.P,U1,6,OUT1*%
%TO.N,Net-(A1-USART1_RX)*%
X47117000Y-92710000D03*
%TO.P,U1,7,OUT0*%
%TO.N,Net-(A1-USART1_TX)*%
X47117000Y-90170000D03*
%TO.P,U1,8,VSS*%
%TO.N,GND*%
X47117000Y-87630000D03*
%TD*%
D22*
%TO.N,Net-(A1-I2C1_SCL)*%
X52578000Y-86868000D03*
%TO.N,Net-(A1-I2C1_SDA)*%
X51562000Y-88138000D03*
%TO.N,GND*%
X36068000Y-112776000D03*
X64008000Y-51562000D03*
X52070000Y-92710000D03*
X49784000Y-52578000D03*
X49784000Y-65024000D03*
X48006000Y-101600000D03*
X65786000Y-76200000D03*
X57150000Y-36576000D03*
X42672000Y-39370000D03*
X62738000Y-36576000D03*
X52324000Y-105664000D03*
X49784000Y-70612000D03*
X37846000Y-82804000D03*
X42418000Y-46228000D03*
X50038000Y-46736000D03*
X64008000Y-96520000D03*
X31750000Y-114554000D03*
X46482000Y-35814000D03*
X45720000Y-56642000D03*
X42418000Y-59436000D03*
X59436000Y-93980000D03*
X38862000Y-102108000D03*
X63500000Y-44196000D03*
X57150000Y-44450000D03*
X66294000Y-115316000D03*
X44958000Y-107188000D03*
X65278000Y-102362000D03*
X59690000Y-81026000D03*
X65786000Y-69850000D03*
X51816000Y-99060000D03*
X42926000Y-32258000D03*
X60198000Y-47244000D03*
X71120000Y-68326000D03*
X45974000Y-62230000D03*
X46482000Y-43942000D03*
X50038000Y-95758000D03*
X49784000Y-39878000D03*
X38354000Y-105410000D03*
X49784000Y-59436000D03*
X71628000Y-75184000D03*
X40894000Y-72390000D03*
X63500000Y-59436000D03*
X41148000Y-109220000D03*
X50038000Y-32258000D03*
X47498000Y-110744000D03*
X65532000Y-91186000D03*
X58928000Y-30480000D03*
X35560000Y-116840000D03*
X60198000Y-40640000D03*
X48260000Y-75946000D03*
X65786000Y-63246000D03*
X61214000Y-57150000D03*
X65024000Y-119634000D03*
X58674000Y-87630000D03*
X64262000Y-87376000D03*
X69596000Y-59690000D03*
X65786000Y-56134000D03*
X41148000Y-78232000D03*
X42164000Y-52578000D03*
X45974000Y-49530000D03*
X71120000Y-79248000D03*
%TO.N,Net-(A1-DAC_OUT1)*%
X60706000Y-59436000D03*
%TO.N,Net-(A1-SAI2_MCLK)*%
X60833000Y-54483000D03*
%TD*%
D23*
%TO.N,Net-(A1-I2C1_SCL)*%
X45720000Y-66040000D02*
X45720000Y-80010000D01*
X38100000Y-58420000D02*
X45720000Y-66040000D01*
X45720000Y-80010000D02*
X52578000Y-86868000D01*
%TO.N,Net-(A1-I2C1_SDA)*%
X51562000Y-88138000D02*
X51562000Y-88392000D01*
X44196000Y-67056000D02*
X44196000Y-80772000D01*
X44196000Y-80772000D02*
X51562000Y-88138000D01*
X38100000Y-60960000D02*
X44196000Y-67056000D01*
D24*
%TO.N,Net-(A1-USART1_TX)*%
X43180000Y-88900000D02*
X44450000Y-90170000D01*
X38100000Y-63500000D02*
X43180000Y-68580000D01*
X43180000Y-68580000D02*
X43180000Y-88900000D01*
X44450000Y-90170000D02*
X47117000Y-90170000D01*
%TO.N,Net-(A1-USART1_RX)*%
X38100000Y-66040000D02*
X42543604Y-70483604D01*
X44450000Y-92710000D02*
X47117000Y-92710000D01*
X42543604Y-70483604D02*
X42543604Y-90803604D01*
X42543604Y-90803604D02*
X44450000Y-92710000D01*
%TO.N,Net-(A1-AUDIO_OUT_1)*%
X35560000Y-73660000D02*
X33020000Y-76200000D01*
X33020000Y-86360000D02*
X30480000Y-88900000D01*
X33020000Y-76200000D02*
X33020000Y-86360000D01*
X38100000Y-73660000D02*
X35560000Y-73660000D01*
%TO.N,GND*%
X47498000Y-87630000D02*
X49276000Y-89408000D01*
X49276000Y-98044000D02*
X40600000Y-106720000D01*
X47117000Y-87630000D02*
X47498000Y-87630000D01*
X49276000Y-89408000D02*
X49276000Y-98044000D01*
X40600000Y-106720000D02*
X30480000Y-106720000D01*
%TO.N,Net-(A1-ADC_0)*%
X55880000Y-106680000D02*
X55880000Y-78740000D01*
X45720000Y-116840000D02*
X55880000Y-106680000D01*
X55880000Y-78740000D02*
X53340000Y-76200000D01*
%TO.N,Net-(A1-ADC_1)*%
X48260000Y-116840000D02*
X56330000Y-108770000D01*
X56330000Y-108770000D02*
X56330000Y-76650000D01*
X56330000Y-76650000D02*
X53340000Y-73660000D01*
%TO.N,Net-(A1-ADC_2)*%
X50800000Y-116840000D02*
X56780000Y-110860000D01*
X56780000Y-74560000D02*
X53340000Y-71120000D01*
X56780000Y-110860000D02*
X56780000Y-74560000D01*
%TO.N,Net-(A1-ADC_3)*%
X57230000Y-112950000D02*
X57230000Y-72470000D01*
X53340000Y-116840000D02*
X57230000Y-112950000D01*
X57230000Y-72470000D02*
X53340000Y-68580000D01*
%TO.N,Net-(A1-ADC_4)*%
X60960000Y-119380000D02*
X60960000Y-73660000D01*
X53340000Y-119380000D02*
X55880000Y-121920000D01*
X58420000Y-121920000D02*
X60960000Y-119380000D01*
X60960000Y-73660000D02*
X53340000Y-66040000D01*
X55880000Y-121920000D02*
X58420000Y-121920000D01*
%TO.N,Net-(A1-ADC_5)*%
X50800000Y-119380000D02*
X53790000Y-122370000D01*
X58606396Y-122370000D02*
X61410000Y-119566396D01*
X61410000Y-71570000D02*
X53340000Y-63500000D01*
X53790000Y-122370000D02*
X58606396Y-122370000D01*
X61410000Y-119566396D02*
X61410000Y-71570000D01*
%TO.N,Net-(A1-ADC_6)*%
X58792792Y-122820000D02*
X61860000Y-119752792D01*
X61860000Y-69480000D02*
X53340000Y-60960000D01*
X51700000Y-122820000D02*
X58792792Y-122820000D01*
X48260000Y-119380000D02*
X51700000Y-122820000D01*
X61860000Y-119752792D02*
X61860000Y-69480000D01*
%TO.N,Net-(A1-DAC_OUT2)*%
X49610000Y-123270000D02*
X58979188Y-123270000D01*
X58979188Y-123270000D02*
X62310000Y-119939188D01*
X62310000Y-67390000D02*
X53340000Y-58420000D01*
X45720000Y-119380000D02*
X49610000Y-123270000D01*
X62310000Y-119939188D02*
X62310000Y-67390000D01*
%TO.N,Net-(A1-DAC_OUT1)*%
X62760000Y-80540000D02*
X68580000Y-86360000D01*
X62760000Y-61490000D02*
X62760000Y-80540000D01*
X60706000Y-59436000D02*
X62760000Y-61490000D01*
X68580000Y-86360000D02*
X71120000Y-86360000D01*
%TO.N,Net-(A1-SAI2_MCLK)*%
X73660000Y-94020000D02*
X71120000Y-96560000D01*
X60833000Y-54483000D02*
X73660000Y-67310000D01*
X73660000Y-67310000D02*
X73660000Y-94020000D01*
%TD*%
%TA.AperFunction,Conductor*%
%TO.N,GND*%
G36*
X71122611Y-25400608D02*
G01*
X71496044Y-25416053D01*
X71501764Y-25416421D01*
X71544857Y-25420191D01*
X71587525Y-25423925D01*
X71592082Y-25424408D01*
X71919460Y-25465216D01*
X71925683Y-25466151D01*
X72005992Y-25480312D01*
X72009846Y-25481056D01*
X72286738Y-25539113D01*
X72338027Y-25549868D01*
X72344779Y-25551479D01*
X72372886Y-25559009D01*
X72415263Y-25570364D01*
X72418477Y-25571273D01*
X72748707Y-25669587D01*
X72755772Y-25671921D01*
X72811041Y-25692038D01*
X72813671Y-25693030D01*
X73148260Y-25823587D01*
X73155689Y-25826764D01*
X73187697Y-25841690D01*
X73189658Y-25842626D01*
X73532887Y-26010421D01*
X73542043Y-26015375D01*
X73893756Y-26224951D01*
X73902458Y-26230637D01*
X74058020Y-26341706D01*
X74235655Y-26468535D01*
X74243872Y-26474931D01*
X74556279Y-26739525D01*
X74563941Y-26746579D01*
X74853420Y-27036058D01*
X74860474Y-27043720D01*
X75125068Y-27356127D01*
X75131464Y-27364344D01*
X75369357Y-27697533D01*
X75375053Y-27706251D01*
X75584622Y-28057953D01*
X75589578Y-28067112D01*
X75757339Y-28410271D01*
X75758331Y-28412349D01*
X75758337Y-28412362D01*
X75758338Y-28412363D01*
X75773231Y-28444303D01*
X75776415Y-28451748D01*
X75906959Y-28786304D01*
X75907980Y-28789010D01*
X75923644Y-28832045D01*
X75926782Y-28840668D01*
X75928062Y-28844183D01*
X75930423Y-28851327D01*
X76028704Y-29181447D01*
X76029649Y-29184790D01*
X76048519Y-29255219D01*
X76050130Y-29261971D01*
X76118929Y-29590085D01*
X76119697Y-29594063D01*
X76133842Y-29674284D01*
X76134788Y-29680578D01*
X76175585Y-30007870D01*
X76176073Y-30012473D01*
X76183576Y-30098229D01*
X76183948Y-30104004D01*
X76199392Y-30477388D01*
X76199500Y-30482595D01*
X76199500Y-121917404D01*
X76199392Y-121922611D01*
X76183948Y-122295994D01*
X76183576Y-122301769D01*
X76176073Y-122387525D01*
X76175585Y-122392128D01*
X76134788Y-122719420D01*
X76133842Y-122725714D01*
X76119697Y-122805935D01*
X76118929Y-122809913D01*
X76050130Y-123138027D01*
X76048519Y-123144779D01*
X76029649Y-123215208D01*
X76028704Y-123218551D01*
X75930423Y-123548671D01*
X75928062Y-123555815D01*
X75907980Y-123610988D01*
X75906959Y-123613694D01*
X75776415Y-123948250D01*
X75773231Y-123955695D01*
X75758338Y-123987635D01*
X75757339Y-123989727D01*
X75589578Y-124332887D01*
X75584622Y-124342046D01*
X75375053Y-124693748D01*
X75369357Y-124702466D01*
X75131464Y-125035655D01*
X75125068Y-125043872D01*
X74860474Y-125356279D01*
X74853420Y-125363941D01*
X74563941Y-125653420D01*
X74556279Y-125660474D01*
X74243872Y-125925068D01*
X74235655Y-125931464D01*
X73902466Y-126169357D01*
X73893748Y-126175053D01*
X73542046Y-126384622D01*
X73532887Y-126389578D01*
X73189727Y-126557339D01*
X73187635Y-126558338D01*
X73155695Y-126573231D01*
X73148250Y-126576415D01*
X72813694Y-126706959D01*
X72810988Y-126707980D01*
X72755815Y-126728062D01*
X72748671Y-126730423D01*
X72418551Y-126828704D01*
X72415208Y-126829649D01*
X72344779Y-126848519D01*
X72338027Y-126850130D01*
X72009913Y-126918929D01*
X72005935Y-126919697D01*
X71925714Y-126933842D01*
X71919420Y-126934788D01*
X71592128Y-126975585D01*
X71587525Y-126976073D01*
X71501769Y-126983576D01*
X71495994Y-126983948D01*
X71122611Y-126999392D01*
X71117404Y-126999500D01*
X30482596Y-126999500D01*
X30477389Y-126999392D01*
X30104004Y-126983948D01*
X30098229Y-126983576D01*
X30012473Y-126976073D01*
X30007870Y-126975585D01*
X29680578Y-126934788D01*
X29674284Y-126933842D01*
X29594063Y-126919697D01*
X29590085Y-126918929D01*
X29261971Y-126850130D01*
X29255219Y-126848519D01*
X29184790Y-126829649D01*
X29181447Y-126828704D01*
X28851327Y-126730423D01*
X28844183Y-126728062D01*
X28789010Y-126707980D01*
X28786304Y-126706959D01*
X28451748Y-126576415D01*
X28444303Y-126573231D01*
X28412363Y-126558338D01*
X28410271Y-126557339D01*
X28067112Y-126389578D01*
X28057953Y-126384622D01*
X27706251Y-126175053D01*
X27697533Y-126169357D01*
X27364344Y-125931464D01*
X27356127Y-125925068D01*
X27043720Y-125660474D01*
X27036058Y-125653420D01*
X26746579Y-125363941D01*
X26739525Y-125356279D01*
X26474931Y-125043872D01*
X26468535Y-125035655D01*
X26230637Y-124702458D01*
X26224946Y-124693748D01*
X26123116Y-124522856D01*
X26015375Y-124342043D01*
X26010421Y-124332887D01*
X25842626Y-123989658D01*
X25841690Y-123987697D01*
X25826764Y-123955689D01*
X25823583Y-123948250D01*
X25696918Y-123623636D01*
X25693030Y-123613671D01*
X25692038Y-123611041D01*
X25671921Y-123555772D01*
X25669587Y-123548707D01*
X25571273Y-123218477D01*
X25570364Y-123215263D01*
X25559009Y-123172886D01*
X25551479Y-123144779D01*
X25549868Y-123138027D01*
X25539113Y-123086738D01*
X25481056Y-122809846D01*
X25480312Y-122805992D01*
X25466151Y-122725683D01*
X25465216Y-122719460D01*
X25424408Y-122392082D01*
X25423925Y-122387525D01*
X25416422Y-122301769D01*
X25416053Y-122296044D01*
X25400608Y-121922611D01*
X25400500Y-121917404D01*
X25400500Y-121806771D01*
X28752500Y-121806771D01*
X28752500Y-122033228D01*
X28782056Y-122257735D01*
X28782058Y-122257742D01*
X28840668Y-122476478D01*
X28927328Y-122685693D01*
X28927329Y-122685694D01*
X28927334Y-122685705D01*
X29040554Y-122881808D01*
X29178411Y-123061465D01*
X29178424Y-123061479D01*
X29338520Y-123221575D01*
X29338534Y-123221588D01*
X29338536Y-123221590D01*
X29422136Y-123285738D01*
X29518191Y-123359445D01*
X29714294Y-123472665D01*
X29714298Y-123472666D01*
X29714307Y-123472672D01*
X29923522Y-123559332D01*
X30142258Y-123617942D01*
X30142262Y-123617942D01*
X30142264Y-123617943D01*
X30200127Y-123625560D01*
X30366774Y-123647500D01*
X30366781Y-123647500D01*
X30593219Y-123647500D01*
X30593226Y-123647500D01*
X30796131Y-123620787D01*
X30817735Y-123617943D01*
X30817735Y-123617942D01*
X30817742Y-123617942D01*
X31036478Y-123559332D01*
X31245693Y-123472672D01*
X31441807Y-123359446D01*
X31621464Y-123221590D01*
X31781590Y-123061464D01*
X31919446Y-122881807D01*
X32032672Y-122685693D01*
X32119332Y-122476478D01*
X32177942Y-122257742D01*
X32207500Y-122033226D01*
X32207500Y-121806774D01*
X32177942Y-121582258D01*
X32119332Y-121363522D01*
X32032672Y-121154307D01*
X32032666Y-121154298D01*
X32032665Y-121154294D01*
X31919445Y-120958191D01*
X31781588Y-120778534D01*
X31781575Y-120778520D01*
X31621479Y-120618424D01*
X31621465Y-120618411D01*
X31441808Y-120480554D01*
X31245705Y-120367334D01*
X31245697Y-120367330D01*
X31245693Y-120367328D01*
X31036478Y-120280668D01*
X30819261Y-120222465D01*
X30817735Y-120222056D01*
X30593228Y-120192500D01*
X30593226Y-120192500D01*
X30366774Y-120192500D01*
X30366771Y-120192500D01*
X30142264Y-120222056D01*
X29923522Y-120280668D01*
X29817341Y-120324650D01*
X29714305Y-120367329D01*
X29714294Y-120367334D01*
X29518191Y-120480554D01*
X29338534Y-120618411D01*
X29338520Y-120618424D01*
X29178424Y-120778520D01*
X29178411Y-120778534D01*
X29040554Y-120958191D01*
X28927334Y-121154294D01*
X28927329Y-121154305D01*
X28840668Y-121363522D01*
X28782056Y-121582264D01*
X28752500Y-121806771D01*
X25400500Y-121806771D01*
X25400500Y-116753074D01*
X44615500Y-116753074D01*
X44615500Y-116926926D01*
X44642697Y-117098638D01*
X44696420Y-117263981D01*
X44696421Y-117263982D01*
X44775349Y-117418887D01*
X44877536Y-117559535D01*
X45000464Y-117682463D01*
X45000467Y-117682465D01*
X45141116Y-117784653D01*
X45296019Y-117863580D01*
X45461362Y-117917303D01*
X45633074Y-117944500D01*
X45633077Y-117944500D01*
X45806923Y-117944500D01*
X45806926Y-117944500D01*
X45978638Y-117917303D01*
X46143981Y-117863580D01*
X46298884Y-117784653D01*
X46439533Y-117682465D01*
X46562465Y-117559533D01*
X46664653Y-117418884D01*
X46743580Y-117263981D01*
X46797303Y-117098638D01*
X46824500Y-116926926D01*
X46824500Y-116753074D01*
X46797303Y-116581362D01*
X46752011Y-116441969D01*
X46749984Y-116371006D01*
X46782748Y-116313944D01*
X55735407Y-107361286D01*
X55797717Y-107327262D01*
X55868532Y-107332327D01*
X55925368Y-107374874D01*
X55950179Y-107441394D01*
X55950500Y-107450383D01*
X55950500Y-108560615D01*
X55930498Y-108628736D01*
X55913595Y-108649710D01*
X48786056Y-115777248D01*
X48723744Y-115811274D01*
X48658025Y-115807986D01*
X48518642Y-115762698D01*
X48518640Y-115762697D01*
X48518638Y-115762697D01*
X48346926Y-115735500D01*
X48173074Y-115735500D01*
X48001362Y-115762697D01*
X48001360Y-115762697D01*
X48001357Y-115762698D01*
X47836023Y-115816418D01*
X47836017Y-115816421D01*
X47681112Y-115895349D01*
X47540464Y-115997536D01*
X47417536Y-116120464D01*
X47315349Y-116261112D01*
X47236421Y-116416017D01*
X47236418Y-116416023D01*
X47182698Y-116581357D01*
X47182698Y-116581359D01*
X47182697Y-116581362D01*
X47155500Y-116753074D01*
X47155500Y-116926926D01*
X47182697Y-117098638D01*
X47236420Y-117263981D01*
X47236421Y-117263982D01*
X47315349Y-117418887D01*
X47417536Y-117559535D01*
X47540464Y-117682463D01*
X47540467Y-117682465D01*
X47681116Y-117784653D01*
X47836019Y-117863580D01*
X48001362Y-117917303D01*
X48173074Y-117944500D01*
X48173077Y-117944500D01*
X48346923Y-117944500D01*
X48346926Y-117944500D01*
X48518638Y-117917303D01*
X48683981Y-117863580D01*
X48838884Y-117784653D01*
X48979533Y-117682465D01*
X49102465Y-117559533D01*
X49204653Y-117418884D01*
X49283580Y-117263981D01*
X49337303Y-117098638D01*
X49364500Y-116926926D01*
X49364500Y-116753074D01*
X49337303Y-116581362D01*
X49292011Y-116441969D01*
X49289984Y-116371006D01*
X49322748Y-116313944D01*
X56185407Y-109451286D01*
X56247717Y-109417262D01*
X56318532Y-109422327D01*
X56375368Y-109464874D01*
X56400179Y-109531394D01*
X56400500Y-109540383D01*
X56400500Y-110650615D01*
X56380498Y-110718736D01*
X56363595Y-110739710D01*
X51326056Y-115777248D01*
X51263744Y-115811274D01*
X51198025Y-115807986D01*
X51058642Y-115762698D01*
X51058640Y-115762697D01*
X51058638Y-115762697D01*
X50886926Y-115735500D01*
X50713074Y-115735500D01*
X50541362Y-115762697D01*
X50541360Y-115762697D01*
X50541357Y-115762698D01*
X50376023Y-115816418D01*
X50376017Y-115816421D01*
X50221112Y-115895349D01*
X50080464Y-115997536D01*
X49957536Y-116120464D01*
X49855349Y-116261112D01*
X49776421Y-116416017D01*
X49776418Y-116416023D01*
X49722698Y-116581357D01*
X49722698Y-116581359D01*
X49722697Y-116581362D01*
X49695500Y-116753074D01*
X49695500Y-116926926D01*
X49722697Y-117098638D01*
X49776420Y-117263981D01*
X49776421Y-117263982D01*
X49855349Y-117418887D01*
X49957536Y-117559535D01*
X50080464Y-117682463D01*
X50080467Y-117682465D01*
X50221116Y-117784653D01*
X50376019Y-117863580D01*
X50541362Y-117917303D01*
X50713074Y-117944500D01*
X50713077Y-117944500D01*
X50886923Y-117944500D01*
X50886926Y-117944500D01*
X51058638Y-117917303D01*
X51223981Y-117863580D01*
X51378884Y-117784653D01*
X51519533Y-117682465D01*
X51642465Y-117559533D01*
X51744653Y-117418884D01*
X51823580Y-117263981D01*
X51877303Y-117098638D01*
X51904500Y-116926926D01*
X51904500Y-116753074D01*
X51877303Y-116581362D01*
X51832011Y-116441969D01*
X51829984Y-116371006D01*
X51862748Y-116313944D01*
X56635407Y-111541286D01*
X56697717Y-111507262D01*
X56768532Y-111512327D01*
X56825368Y-111554874D01*
X56850179Y-111621394D01*
X56850500Y-111630383D01*
X56850500Y-112740615D01*
X56830498Y-112808736D01*
X56813595Y-112829710D01*
X53866056Y-115777248D01*
X53803744Y-115811274D01*
X53738025Y-115807986D01*
X53598642Y-115762698D01*
X53598640Y-115762697D01*
X53598638Y-115762697D01*
X53426926Y-115735500D01*
X53253074Y-115735500D01*
X53081362Y-115762697D01*
X53081360Y-115762697D01*
X53081357Y-115762698D01*
X52916023Y-115816418D01*
X52916017Y-115816421D01*
X52761112Y-115895349D01*
X52620464Y-115997536D01*
X52497536Y-116120464D01*
X52395349Y-116261112D01*
X52316421Y-116416017D01*
X52316418Y-116416023D01*
X52262698Y-116581357D01*
X52262698Y-116581359D01*
X52262697Y-116581362D01*
X52235500Y-116753074D01*
X52235500Y-116926926D01*
X52262697Y-117098638D01*
X52316420Y-117263981D01*
X52316421Y-117263982D01*
X52395349Y-117418887D01*
X52497536Y-117559535D01*
X52620464Y-117682463D01*
X52620467Y-117682465D01*
X52761116Y-117784653D01*
X52916019Y-117863580D01*
X53081362Y-117917303D01*
X53253074Y-117944500D01*
X53253077Y-117944500D01*
X53426923Y-117944500D01*
X53426926Y-117944500D01*
X53598638Y-117917303D01*
X53763981Y-117863580D01*
X53918884Y-117784653D01*
X54059533Y-117682465D01*
X54182465Y-117559533D01*
X54284653Y-117418884D01*
X54363580Y-117263981D01*
X54417303Y-117098638D01*
X54444500Y-116926926D01*
X54444500Y-116753074D01*
X54417303Y-116581362D01*
X54372011Y-116441969D01*
X54369984Y-116371006D01*
X54402748Y-116313944D01*
X54560407Y-116156285D01*
X54622717Y-116122261D01*
X54693532Y-116127326D01*
X54750368Y-116169873D01*
X54775179Y-116236393D01*
X54775500Y-116245382D01*
X54775500Y-117488246D01*
X54775502Y-117488270D01*
X54781959Y-117548339D01*
X54781959Y-117548341D01*
X54832657Y-117684266D01*
X54832658Y-117684267D01*
X54919596Y-117800404D01*
X55035733Y-117887342D01*
X55171658Y-117938040D01*
X55216891Y-117942903D01*
X55282483Y-117970073D01*
X55322973Y-118028391D01*
X55325507Y-118099343D01*
X55289279Y-118160400D01*
X55260624Y-118180448D01*
X55172447Y-118225376D01*
X55172446Y-118225377D01*
X55118282Y-118264729D01*
X55750591Y-118897037D01*
X55687007Y-118914075D01*
X55572993Y-118979901D01*
X55479901Y-119072993D01*
X55414075Y-119187007D01*
X55397037Y-119250591D01*
X54764729Y-118618282D01*
X54725377Y-118672446D01*
X54725376Y-118672447D01*
X54628907Y-118861778D01*
X54628904Y-118861784D01*
X54600651Y-118948740D01*
X54560577Y-119007346D01*
X54495181Y-119034983D01*
X54425224Y-119022876D01*
X54372918Y-118974870D01*
X54364407Y-118958018D01*
X54363581Y-118956023D01*
X54363580Y-118956019D01*
X54284653Y-118801116D01*
X54182465Y-118660467D01*
X54182463Y-118660464D01*
X54059535Y-118537536D01*
X53918887Y-118435349D01*
X53918886Y-118435348D01*
X53918884Y-118435347D01*
X53763981Y-118356420D01*
X53763978Y-118356419D01*
X53763976Y-118356418D01*
X53598642Y-118302698D01*
X53598640Y-118302697D01*
X53598638Y-118302697D01*
X53426926Y-118275500D01*
X53253074Y-118275500D01*
X53081362Y-118302697D01*
X53081360Y-118302697D01*
X53081357Y-118302698D01*
X52916023Y-118356418D01*
X52916017Y-118356421D01*
X52761112Y-118435349D01*
X52620464Y-118537536D01*
X52497536Y-118660464D01*
X52395349Y-118801112D01*
X52316421Y-118956017D01*
X52316418Y-118956023D01*
X52262698Y-119121357D01*
X52262697Y-119121360D01*
X52262697Y-119121362D01*
X52235500Y-119293074D01*
X52235500Y-119466926D01*
X52252300Y-119572993D01*
X52262698Y-119638642D01*
X52307986Y-119778026D01*
X52316420Y-119803981D01*
X52395347Y-119958884D01*
X52395349Y-119958887D01*
X52497536Y-120099535D01*
X52620464Y-120222463D01*
X52648545Y-120242865D01*
X52761116Y-120324653D01*
X52916019Y-120403580D01*
X53081362Y-120457303D01*
X53253074Y-120484500D01*
X53253077Y-120484500D01*
X53426923Y-120484500D01*
X53426926Y-120484500D01*
X53598638Y-120457303D01*
X53738026Y-120412012D01*
X53808993Y-120409985D01*
X53866057Y-120442751D01*
X55198711Y-121775405D01*
X55232737Y-121837717D01*
X55227672Y-121908532D01*
X55185125Y-121965368D01*
X55118605Y-121990179D01*
X55109616Y-121990500D01*
X53999384Y-121990500D01*
X53931263Y-121970498D01*
X53910289Y-121953595D01*
X51862751Y-119906057D01*
X51828725Y-119843745D01*
X51832013Y-119778026D01*
X51858622Y-119696131D01*
X51877303Y-119638638D01*
X51904500Y-119466926D01*
X51904500Y-119293074D01*
X51877303Y-119121362D01*
X51823580Y-118956019D01*
X51744653Y-118801116D01*
X51642465Y-118660467D01*
X51642463Y-118660464D01*
X51519535Y-118537536D01*
X51378887Y-118435349D01*
X51378886Y-118435348D01*
X51378884Y-118435347D01*
X51223981Y-118356420D01*
X51223978Y-118356419D01*
X51223976Y-118356418D01*
X51058642Y-118302698D01*
X51058640Y-118302697D01*
X51058638Y-118302697D01*
X50886926Y-118275500D01*
X50713074Y-118275500D01*
X50541362Y-118302697D01*
X50541360Y-118302697D01*
X50541357Y-118302698D01*
X50376023Y-118356418D01*
X50376017Y-118356421D01*
X50221112Y-118435349D01*
X50080464Y-118537536D01*
X49957536Y-118660464D01*
X49855349Y-118801112D01*
X49776421Y-118956017D01*
X49776418Y-118956023D01*
X49722698Y-119121357D01*
X49722697Y-119121360D01*
X49722697Y-119121362D01*
X49695500Y-119293074D01*
X49695500Y-119466926D01*
X49712300Y-119572993D01*
X49722698Y-119638642D01*
X49767986Y-119778026D01*
X49776420Y-119803981D01*
X49855347Y-119958884D01*
X49855349Y-119958887D01*
X49957536Y-120099535D01*
X50080464Y-120222463D01*
X50108545Y-120242865D01*
X50221116Y-120324653D01*
X50376019Y-120403580D01*
X50541362Y-120457303D01*
X50713074Y-120484500D01*
X50713077Y-120484500D01*
X50886923Y-120484500D01*
X50886926Y-120484500D01*
X51058638Y-120457303D01*
X51198026Y-120412012D01*
X51268993Y-120409985D01*
X51326057Y-120442751D01*
X53108711Y-122225405D01*
X53142737Y-122287717D01*
X53137672Y-122358532D01*
X53095125Y-122415368D01*
X53028605Y-122440179D01*
X53019616Y-122440500D01*
X51909384Y-122440500D01*
X51841263Y-122420498D01*
X51820289Y-122403595D01*
X49322751Y-119906057D01*
X49288725Y-119843745D01*
X49292013Y-119778026D01*
X49318622Y-119696131D01*
X49337303Y-119638638D01*
X49364500Y-119466926D01*
X49364500Y-119293074D01*
X49337303Y-119121362D01*
X49283580Y-118956019D01*
X49204653Y-118801116D01*
X49102465Y-118660467D01*
X49102463Y-118660464D01*
X48979535Y-118537536D01*
X48838887Y-118435349D01*
X48838886Y-118435348D01*
X48838884Y-118435347D01*
X48683981Y-118356420D01*
X48683978Y-118356419D01*
X48683976Y-118356418D01*
X48518642Y-118302698D01*
X48518640Y-118302697D01*
X48518638Y-118302697D01*
X48346926Y-118275500D01*
X48173074Y-118275500D01*
X48001362Y-118302697D01*
X48001360Y-118302697D01*
X48001357Y-118302698D01*
X47836023Y-118356418D01*
X47836017Y-118356421D01*
X47681112Y-118435349D01*
X47540464Y-118537536D01*
X47417536Y-118660464D01*
X47315349Y-118801112D01*
X47236421Y-118956017D01*
X47236418Y-118956023D01*
X47182698Y-119121357D01*
X47182697Y-119121360D01*
X47182697Y-119121362D01*
X47155500Y-119293074D01*
X47155500Y-119466926D01*
X47172300Y-119572993D01*
X47182698Y-119638642D01*
X47227986Y-119778026D01*
X47236420Y-119803981D01*
X47315347Y-119958884D01*
X47315349Y-119958887D01*
X47417536Y-120099535D01*
X47540464Y-120222463D01*
X47568545Y-120242865D01*
X47681116Y-120324653D01*
X47836019Y-120403580D01*
X48001362Y-120457303D01*
X48173074Y-120484500D01*
X48173077Y-120484500D01*
X48346923Y-120484500D01*
X48346926Y-120484500D01*
X48518638Y-120457303D01*
X48658026Y-120412012D01*
X48728993Y-120409985D01*
X48786057Y-120442751D01*
X51018711Y-122675405D01*
X51052737Y-122737717D01*
X51047672Y-122808532D01*
X51005125Y-122865368D01*
X50938605Y-122890179D01*
X50929616Y-122890500D01*
X49819384Y-122890500D01*
X49751263Y-122870498D01*
X49730289Y-122853595D01*
X46782751Y-119906057D01*
X46748725Y-119843745D01*
X46752013Y-119778026D01*
X46778622Y-119696131D01*
X46797303Y-119638638D01*
X46824500Y-119466926D01*
X46824500Y-119293074D01*
X46797303Y-119121362D01*
X46743580Y-118956019D01*
X46664653Y-118801116D01*
X46562465Y-118660467D01*
X46562463Y-118660464D01*
X46439535Y-118537536D01*
X46298887Y-118435349D01*
X46298886Y-118435348D01*
X46298884Y-118435347D01*
X46143981Y-118356420D01*
X46143978Y-118356419D01*
X46143976Y-118356418D01*
X45978642Y-118302698D01*
X45978640Y-118302697D01*
X45978638Y-118302697D01*
X45806926Y-118275500D01*
X45633074Y-118275500D01*
X45461362Y-118302697D01*
X45461360Y-118302697D01*
X45461357Y-118302698D01*
X45296023Y-118356418D01*
X45296017Y-118356421D01*
X45141112Y-118435349D01*
X45000464Y-118537536D01*
X44877536Y-118660464D01*
X44775349Y-118801112D01*
X44696421Y-118956017D01*
X44696418Y-118956023D01*
X44642698Y-119121357D01*
X44642697Y-119121360D01*
X44642697Y-119121362D01*
X44615500Y-119293074D01*
X44615500Y-119466926D01*
X44632300Y-119572993D01*
X44642698Y-119638642D01*
X44687986Y-119778026D01*
X44696420Y-119803981D01*
X44775347Y-119958884D01*
X44775349Y-119958887D01*
X44877536Y-120099535D01*
X45000464Y-120222463D01*
X45028545Y-120242865D01*
X45141116Y-120324653D01*
X45296019Y-120403580D01*
X45461362Y-120457303D01*
X45633074Y-120484500D01*
X45633077Y-120484500D01*
X45806923Y-120484500D01*
X45806926Y-120484500D01*
X45978638Y-120457303D01*
X46118026Y-120412012D01*
X46188993Y-120409985D01*
X46246057Y-120442751D01*
X49301913Y-123498607D01*
X49301934Y-123498630D01*
X49376974Y-123573670D01*
X49376979Y-123573674D01*
X49376981Y-123573676D01*
X49376982Y-123573677D01*
X49376984Y-123573678D01*
X49463514Y-123623636D01*
X49463518Y-123623638D01*
X49483915Y-123629103D01*
X49560038Y-123649501D01*
X49659962Y-123649501D01*
X49659966Y-123649500D01*
X58921492Y-123649500D01*
X58921508Y-123649501D01*
X58929226Y-123649501D01*
X59029149Y-123649501D01*
X59029150Y-123649501D01*
X59105268Y-123629104D01*
X59105270Y-123629104D01*
X59112736Y-123627102D01*
X59125670Y-123623638D01*
X59212207Y-123573676D01*
X59282864Y-123503019D01*
X59293231Y-123492652D01*
X59293238Y-123492642D01*
X60979110Y-121806771D01*
X69392500Y-121806771D01*
X69392500Y-122033228D01*
X69422056Y-122257735D01*
X69422058Y-122257742D01*
X69480668Y-122476478D01*
X69567328Y-122685693D01*
X69567329Y-122685694D01*
X69567334Y-122685705D01*
X69680554Y-122881808D01*
X69818411Y-123061465D01*
X69818424Y-123061479D01*
X69978520Y-123221575D01*
X69978534Y-123221588D01*
X69978536Y-123221590D01*
X70062136Y-123285738D01*
X70158191Y-123359445D01*
X70354294Y-123472665D01*
X70354298Y-123472666D01*
X70354307Y-123472672D01*
X70563522Y-123559332D01*
X70782258Y-123617942D01*
X70782262Y-123617942D01*
X70782264Y-123617943D01*
X70840127Y-123625560D01*
X71006774Y-123647500D01*
X71006781Y-123647500D01*
X71233219Y-123647500D01*
X71233226Y-123647500D01*
X71436131Y-123620787D01*
X71457735Y-123617943D01*
X71457735Y-123617942D01*
X71457742Y-123617942D01*
X71676478Y-123559332D01*
X71885693Y-123472672D01*
X72081807Y-123359446D01*
X72261464Y-123221590D01*
X72421590Y-123061464D01*
X72559446Y-122881807D01*
X72672672Y-122685693D01*
X72759332Y-122476478D01*
X72817942Y-122257742D01*
X72847500Y-122033226D01*
X72847500Y-121806774D01*
X72817942Y-121582258D01*
X72759332Y-121363522D01*
X72672672Y-121154307D01*
X72672666Y-121154298D01*
X72672665Y-121154294D01*
X72559445Y-120958191D01*
X72421588Y-120778534D01*
X72421575Y-120778520D01*
X72261479Y-120618424D01*
X72261465Y-120618411D01*
X72081808Y-120480554D01*
X71885705Y-120367334D01*
X71885697Y-120367330D01*
X71885693Y-120367328D01*
X71676478Y-120280668D01*
X71459261Y-120222465D01*
X71457735Y-120222056D01*
X71233228Y-120192500D01*
X71233226Y-120192500D01*
X71006774Y-120192500D01*
X71006771Y-120192500D01*
X70782264Y-120222056D01*
X70563522Y-120280668D01*
X70457341Y-120324650D01*
X70354305Y-120367329D01*
X70354294Y-120367334D01*
X70158191Y-120480554D01*
X69978534Y-120618411D01*
X69978520Y-120618424D01*
X69818424Y-120778520D01*
X69818411Y-120778534D01*
X69680554Y-120958191D01*
X69567334Y-121154294D01*
X69567329Y-121154305D01*
X69480668Y-121363522D01*
X69422056Y-121582264D01*
X69392500Y-121806771D01*
X60979110Y-121806771D01*
X62543016Y-120242865D01*
X62543019Y-120242864D01*
X62613676Y-120172207D01*
X62663638Y-120085670D01*
X62663639Y-120085669D01*
X62689501Y-119989150D01*
X62689501Y-119889226D01*
X62689501Y-119881509D01*
X62689500Y-119881491D01*
X62689500Y-81310384D01*
X62709502Y-81242263D01*
X62763158Y-81195770D01*
X62833432Y-81185666D01*
X62898012Y-81215160D01*
X62904594Y-81221288D01*
X68276323Y-86593018D01*
X68276324Y-86593019D01*
X68346981Y-86663676D01*
X68346982Y-86663677D01*
X68346984Y-86663678D01*
X68421156Y-86706501D01*
X68433518Y-86713638D01*
X68447521Y-86717390D01*
X68530038Y-86739501D01*
X68629962Y-86739501D01*
X68629966Y-86739500D01*
X69846543Y-86739500D01*
X69914664Y-86759502D01*
X69958809Y-86808296D01*
X70023843Y-86935933D01*
X70025349Y-86938887D01*
X70127536Y-87079535D01*
X70250464Y-87202463D01*
X70250467Y-87202465D01*
X70391116Y-87304653D01*
X70546019Y-87383580D01*
X70711362Y-87437303D01*
X70883074Y-87464500D01*
X70883077Y-87464500D01*
X71356923Y-87464500D01*
X71356926Y-87464500D01*
X71528638Y-87437303D01*
X71693981Y-87383580D01*
X71848884Y-87304653D01*
X71989533Y-87202465D01*
X72112465Y-87079533D01*
X72214653Y-86938884D01*
X72293580Y-86783981D01*
X72347303Y-86618638D01*
X72374500Y-86446926D01*
X72374500Y-86273074D01*
X72347303Y-86101362D01*
X72293580Y-85936019D01*
X72214653Y-85781116D01*
X72112465Y-85640467D01*
X72112463Y-85640464D01*
X71989535Y-85517536D01*
X71848887Y-85415349D01*
X71848886Y-85415348D01*
X71848884Y-85415347D01*
X71693981Y-85336420D01*
X71693978Y-85336419D01*
X71693976Y-85336418D01*
X71528642Y-85282698D01*
X71528640Y-85282697D01*
X71528638Y-85282697D01*
X71356926Y-85255500D01*
X70883074Y-85255500D01*
X70711362Y-85282697D01*
X70711360Y-85282697D01*
X70711357Y-85282698D01*
X70546023Y-85336418D01*
X70546017Y-85336421D01*
X70391112Y-85415349D01*
X70250464Y-85517536D01*
X70127536Y-85640464D01*
X70025349Y-85781112D01*
X69958810Y-85911703D01*
X69910062Y-85963318D01*
X69846543Y-85980500D01*
X68789385Y-85980500D01*
X68721264Y-85960498D01*
X68700290Y-85943595D01*
X65968432Y-83211737D01*
X69865500Y-83211737D01*
X69865500Y-84508246D01*
X69865502Y-84508270D01*
X69871959Y-84568339D01*
X69871959Y-84568341D01*
X69922657Y-84704266D01*
X69922658Y-84704267D01*
X70009596Y-84820404D01*
X70125733Y-84907342D01*
X70261658Y-84958040D01*
X70321745Y-84964500D01*
X71918254Y-84964499D01*
X71978342Y-84958040D01*
X72114267Y-84907342D01*
X72230404Y-84820404D01*
X72317342Y-84704267D01*
X72368040Y-84568342D01*
X72374500Y-84508255D01*
X72374499Y-83211746D01*
X72368040Y-83151658D01*
X72317342Y-83015733D01*
X72230404Y-82899596D01*
X72114267Y-82812658D01*
X72114265Y-82812657D01*
X72114266Y-82812657D01*
X71978349Y-82761962D01*
X71978344Y-82761960D01*
X71978342Y-82761960D01*
X71948298Y-82758730D01*
X71918256Y-82755500D01*
X70321753Y-82755500D01*
X70321729Y-82755502D01*
X70261660Y-82761959D01*
X70261658Y-82761959D01*
X70125733Y-82812657D01*
X70009596Y-82899596D01*
X69922657Y-83015734D01*
X69871962Y-83151650D01*
X69871960Y-83151658D01*
X69865500Y-83211737D01*
X65968432Y-83211737D01*
X63176405Y-80419710D01*
X63142379Y-80357398D01*
X63139500Y-80330615D01*
X63139500Y-61558038D01*
X63139500Y-61539965D01*
X63139501Y-61539962D01*
X63139501Y-61440038D01*
X63113638Y-61343519D01*
X63113638Y-61343518D01*
X63063676Y-61256981D01*
X63063674Y-61256979D01*
X63063670Y-61256974D01*
X62988630Y-61181934D01*
X62988607Y-61181913D01*
X61397405Y-59590711D01*
X61363379Y-59528399D01*
X61360500Y-59501616D01*
X61360500Y-59371538D01*
X61360499Y-59371534D01*
X61335348Y-59245089D01*
X61286011Y-59125978D01*
X61214383Y-59018780D01*
X61214378Y-59018774D01*
X61123225Y-58927621D01*
X61123219Y-58927616D01*
X61057561Y-58883745D01*
X61016022Y-58855989D01*
X60896911Y-58806652D01*
X60770465Y-58781500D01*
X60770463Y-58781500D01*
X60641537Y-58781500D01*
X60641534Y-58781500D01*
X60515088Y-58806652D01*
X60515083Y-58806654D01*
X60395978Y-58855989D01*
X60288780Y-58927616D01*
X60288774Y-58927621D01*
X60197621Y-59018774D01*
X60197616Y-59018780D01*
X60125989Y-59125978D01*
X60076654Y-59245083D01*
X60076652Y-59245088D01*
X60051500Y-59371534D01*
X60051500Y-59500465D01*
X60060350Y-59544955D01*
X60076652Y-59626911D01*
X60125989Y-59746022D01*
X60140396Y-59767583D01*
X60197616Y-59853219D01*
X60197621Y-59853225D01*
X60288774Y-59944378D01*
X60288780Y-59944383D01*
X60395978Y-60016011D01*
X60515089Y-60065348D01*
X60641537Y-60090500D01*
X60641538Y-60090500D01*
X60771616Y-60090500D01*
X60839737Y-60110502D01*
X60860711Y-60127405D01*
X62343595Y-61610289D01*
X62377621Y-61672601D01*
X62380500Y-61699384D01*
X62380500Y-66619616D01*
X62360498Y-66687737D01*
X62306842Y-66734230D01*
X62236568Y-66744334D01*
X62171988Y-66714840D01*
X62165405Y-66708711D01*
X54402751Y-58946057D01*
X54368725Y-58883745D01*
X54372013Y-58818026D01*
X54383881Y-58781500D01*
X54417303Y-58678638D01*
X54444500Y-58506926D01*
X54444500Y-58333074D01*
X54417303Y-58161362D01*
X54363580Y-57996019D01*
X54284653Y-57841116D01*
X54182465Y-57700467D01*
X54182463Y-57700464D01*
X54059535Y-57577536D01*
X53918887Y-57475349D01*
X53918886Y-57475348D01*
X53918884Y-57475347D01*
X53763981Y-57396420D01*
X53763978Y-57396419D01*
X53763976Y-57396418D01*
X53598642Y-57342698D01*
X53598640Y-57342697D01*
X53598638Y-57342697D01*
X53426926Y-57315500D01*
X53253074Y-57315500D01*
X53081362Y-57342697D01*
X53081360Y-57342697D01*
X53081357Y-57342698D01*
X52916023Y-57396418D01*
X52916017Y-57396421D01*
X52761112Y-57475349D01*
X52620464Y-57577536D01*
X52497536Y-57700464D01*
X52395349Y-57841112D01*
X52316421Y-57996017D01*
X52316418Y-57996023D01*
X52262698Y-58161357D01*
X52262697Y-58161360D01*
X52262697Y-58161362D01*
X52235500Y-58333074D01*
X52235500Y-58506926D01*
X52262697Y-58678638D01*
X52262698Y-58678642D01*
X52307986Y-58818026D01*
X52316420Y-58843981D01*
X52395347Y-58998884D01*
X52395349Y-58998887D01*
X52497536Y-59139535D01*
X52620464Y-59262463D01*
X52620467Y-59262465D01*
X52761116Y-59364653D01*
X52916019Y-59443580D01*
X53081362Y-59497303D01*
X53253074Y-59524500D01*
X53253077Y-59524500D01*
X53426923Y-59524500D01*
X53426926Y-59524500D01*
X53598638Y-59497303D01*
X53738026Y-59452012D01*
X53808993Y-59449985D01*
X53866057Y-59482751D01*
X61893595Y-67510289D01*
X61927621Y-67572601D01*
X61930500Y-67599384D01*
X61930500Y-68709616D01*
X61910498Y-68777737D01*
X61856842Y-68824230D01*
X61786568Y-68834334D01*
X61721988Y-68804840D01*
X61715405Y-68798711D01*
X54402751Y-61486057D01*
X54368725Y-61423745D01*
X54372013Y-61358026D01*
X54377577Y-61340902D01*
X54417303Y-61218638D01*
X54444500Y-61046926D01*
X54444500Y-60873074D01*
X54417303Y-60701362D01*
X54363580Y-60536019D01*
X54284653Y-60381116D01*
X54182465Y-60240467D01*
X54182463Y-60240464D01*
X54059535Y-60117536D01*
X53918887Y-60015349D01*
X53918886Y-60015348D01*
X53918884Y-60015347D01*
X53763981Y-59936420D01*
X53763978Y-59936419D01*
X53763976Y-59936418D01*
X53598642Y-59882698D01*
X53598640Y-59882697D01*
X53598638Y-59882697D01*
X53426926Y-59855500D01*
X53253074Y-59855500D01*
X53081362Y-59882697D01*
X53081360Y-59882697D01*
X53081357Y-59882698D01*
X52916023Y-59936418D01*
X52916017Y-59936421D01*
X52761112Y-60015349D01*
X52620464Y-60117536D01*
X52497536Y-60240464D01*
X52395349Y-60381112D01*
X52316421Y-60536017D01*
X52316418Y-60536023D01*
X52262698Y-60701357D01*
X52262697Y-60701360D01*
X52262697Y-60701362D01*
X52235500Y-60873074D01*
X52235500Y-61046926D01*
X52256884Y-61181934D01*
X52262698Y-61218642D01*
X52307986Y-61358026D01*
X52316420Y-61383981D01*
X52395347Y-61538884D01*
X52395349Y-61538887D01*
X52497536Y-61679535D01*
X52620464Y-61802463D01*
X52620467Y-61802465D01*
X52761116Y-61904653D01*
X52916019Y-61983580D01*
X53081362Y-62037303D01*
X53253074Y-62064500D01*
X53253077Y-62064500D01*
X53426923Y-62064500D01*
X53426926Y-62064500D01*
X53598638Y-62037303D01*
X53738026Y-61992012D01*
X53808993Y-61989985D01*
X53866057Y-62022751D01*
X61443595Y-69600289D01*
X61477621Y-69662601D01*
X61480500Y-69689384D01*
X61480500Y-70799616D01*
X61460498Y-70867737D01*
X61406842Y-70914230D01*
X61336568Y-70924334D01*
X61271988Y-70894840D01*
X61265405Y-70888711D01*
X54402751Y-64026057D01*
X54368725Y-63963745D01*
X54372013Y-63898026D01*
X54417303Y-63758638D01*
X54444500Y-63586926D01*
X54444500Y-63413074D01*
X54417303Y-63241362D01*
X54363580Y-63076019D01*
X54284653Y-62921116D01*
X54182465Y-62780467D01*
X54182463Y-62780464D01*
X54059535Y-62657536D01*
X53918887Y-62555349D01*
X53918886Y-62555348D01*
X53918884Y-62555347D01*
X53763981Y-62476420D01*
X53763978Y-62476419D01*
X53763976Y-62476418D01*
X53598642Y-62422698D01*
X53598640Y-62422697D01*
X53598638Y-62422697D01*
X53426926Y-62395500D01*
X53253074Y-62395500D01*
X53081362Y-62422697D01*
X53081360Y-62422697D01*
X53081357Y-62422698D01*
X52916023Y-62476418D01*
X52916017Y-62476421D01*
X52761112Y-62555349D01*
X52620464Y-62657536D01*
X52497536Y-62780464D01*
X52395349Y-62921112D01*
X52316421Y-63076017D01*
X52316418Y-63076023D01*
X52262698Y-63241357D01*
X52262697Y-63241360D01*
X52262697Y-63241362D01*
X52235500Y-63413074D01*
X52235500Y-63586926D01*
X52262697Y-63758638D01*
X52262698Y-63758642D01*
X52307986Y-63898026D01*
X52316420Y-63923981D01*
X52395347Y-64078884D01*
X52395349Y-64078887D01*
X52497536Y-64219535D01*
X52620464Y-64342463D01*
X52620467Y-64342465D01*
X52761116Y-64444653D01*
X52916019Y-64523580D01*
X53081362Y-64577303D01*
X53253074Y-64604500D01*
X53253077Y-64604500D01*
X53426923Y-64604500D01*
X53426926Y-64604500D01*
X53598638Y-64577303D01*
X53738026Y-64532012D01*
X53808993Y-64529985D01*
X53866057Y-64562751D01*
X60993595Y-71690289D01*
X61027621Y-71752601D01*
X61030500Y-71779384D01*
X61030500Y-72889616D01*
X61010498Y-72957737D01*
X60956842Y-73004230D01*
X60886568Y-73014334D01*
X60821988Y-72984840D01*
X60815405Y-72978711D01*
X54402751Y-66566057D01*
X54368725Y-66503745D01*
X54372013Y-66438026D01*
X54417303Y-66298638D01*
X54444500Y-66126926D01*
X54444500Y-65953074D01*
X54417303Y-65781362D01*
X54363580Y-65616019D01*
X54284653Y-65461116D01*
X54182465Y-65320467D01*
X54182463Y-65320464D01*
X54059535Y-65197536D01*
X53918887Y-65095349D01*
X53918886Y-65095348D01*
X53918884Y-65095347D01*
X53763981Y-65016420D01*
X53763978Y-65016419D01*
X53763976Y-65016418D01*
X53598642Y-64962698D01*
X53598640Y-64962697D01*
X53598638Y-64962697D01*
X53426926Y-64935500D01*
X53253074Y-64935500D01*
X53081362Y-64962697D01*
X53081360Y-64962697D01*
X53081357Y-64962698D01*
X52916023Y-65016418D01*
X52916017Y-65016421D01*
X52761112Y-65095349D01*
X52620464Y-65197536D01*
X52497536Y-65320464D01*
X52395349Y-65461112D01*
X52316421Y-65616017D01*
X52316418Y-65616023D01*
X52262698Y-65781357D01*
X52262697Y-65781360D01*
X52262697Y-65781362D01*
X52235500Y-65953074D01*
X52235500Y-66126926D01*
X52262697Y-66298638D01*
X52262698Y-66298642D01*
X52307986Y-66438026D01*
X52316420Y-66463981D01*
X52395347Y-66618884D01*
X52395349Y-66618887D01*
X52497535Y-66759533D01*
X52497539Y-66759538D01*
X52620464Y-66882463D01*
X52620467Y-66882465D01*
X52761116Y-66984653D01*
X52916019Y-67063580D01*
X53081362Y-67117303D01*
X53253074Y-67144500D01*
X53253077Y-67144500D01*
X53426923Y-67144500D01*
X53426926Y-67144500D01*
X53598638Y-67117303D01*
X53738026Y-67072012D01*
X53808993Y-67069985D01*
X53866057Y-67102751D01*
X60543595Y-73780289D01*
X60577621Y-73842601D01*
X60580500Y-73869384D01*
X60580500Y-119170616D01*
X60560498Y-119238737D01*
X60543595Y-119259711D01*
X58299711Y-121503595D01*
X58237399Y-121537621D01*
X58210616Y-121540500D01*
X56089384Y-121540500D01*
X56021263Y-121520498D01*
X56000289Y-121503595D01*
X55386274Y-120889580D01*
X55352248Y-120827268D01*
X55357313Y-120756453D01*
X55399860Y-120699617D01*
X55466380Y-120674806D01*
X55514306Y-120680652D01*
X55563870Y-120696756D01*
X55773756Y-120730000D01*
X55986244Y-120730000D01*
X56196131Y-120696756D01*
X56398215Y-120631095D01*
X56398221Y-120631092D01*
X56587555Y-120534621D01*
X56587557Y-120534620D01*
X56641716Y-120495270D01*
X56641717Y-120495269D01*
X56009409Y-119862962D01*
X56072993Y-119845925D01*
X56187007Y-119780099D01*
X56280099Y-119687007D01*
X56345925Y-119572993D01*
X56362962Y-119509410D01*
X56995269Y-120141717D01*
X56995270Y-120141716D01*
X57034620Y-120087557D01*
X57034621Y-120087555D01*
X57131092Y-119898221D01*
X57131095Y-119898215D01*
X57196756Y-119696131D01*
X57230000Y-119486243D01*
X57230000Y-119273756D01*
X57196756Y-119063868D01*
X57131095Y-118861784D01*
X57131092Y-118861778D01*
X57034622Y-118672446D01*
X56995269Y-118618282D01*
X56362962Y-119250589D01*
X56345925Y-119187007D01*
X56280099Y-119072993D01*
X56187007Y-118979901D01*
X56072993Y-118914075D01*
X56009409Y-118897037D01*
X56641716Y-118264730D01*
X56641716Y-118264729D01*
X56587553Y-118225377D01*
X56499374Y-118180447D01*
X56447759Y-118131698D01*
X56430693Y-118062783D01*
X56453594Y-117995582D01*
X56509192Y-117951430D01*
X56543112Y-117942902D01*
X56555470Y-117941573D01*
X56588342Y-117938040D01*
X56724267Y-117887342D01*
X56840404Y-117800404D01*
X56927342Y-117684267D01*
X56978040Y-117548342D01*
X56984500Y-117488255D01*
X56984499Y-116191746D01*
X56978040Y-116131658D01*
X56927342Y-115995733D01*
X56840404Y-115879596D01*
X56724267Y-115792658D01*
X56724265Y-115792657D01*
X56724266Y-115792657D01*
X56588349Y-115741962D01*
X56588344Y-115741960D01*
X56588342Y-115741960D01*
X56580831Y-115741152D01*
X56528262Y-115735500D01*
X55285382Y-115735500D01*
X55217261Y-115715498D01*
X55170768Y-115661842D01*
X55160664Y-115591568D01*
X55190158Y-115526988D01*
X55196273Y-115520419D01*
X57452642Y-113264050D01*
X57452652Y-113264043D01*
X57533670Y-113183025D01*
X57533676Y-113183019D01*
X57583638Y-113096482D01*
X57589103Y-113076084D01*
X57609501Y-112999962D01*
X57609501Y-112900038D01*
X57609500Y-112900034D01*
X57609500Y-72530125D01*
X57609501Y-72530112D01*
X57609501Y-72420038D01*
X57609500Y-72420036D01*
X57583638Y-72323520D01*
X57583637Y-72323516D01*
X57533678Y-72236984D01*
X57533670Y-72236974D01*
X57458630Y-72161934D01*
X57458607Y-72161913D01*
X54402751Y-69106057D01*
X54368725Y-69043745D01*
X54372013Y-68978026D01*
X54417303Y-68838638D01*
X54444500Y-68666926D01*
X54444500Y-68493074D01*
X54417303Y-68321362D01*
X54363580Y-68156019D01*
X54284653Y-68001116D01*
X54182465Y-67860467D01*
X54182463Y-67860464D01*
X54059535Y-67737536D01*
X53918887Y-67635349D01*
X53918886Y-67635348D01*
X53918884Y-67635347D01*
X53763981Y-67556420D01*
X53763978Y-67556419D01*
X53763976Y-67556418D01*
X53598642Y-67502698D01*
X53598640Y-67502697D01*
X53598638Y-67502697D01*
X53426926Y-67475500D01*
X53253074Y-67475500D01*
X53081362Y-67502697D01*
X53081360Y-67502697D01*
X53081357Y-67502698D01*
X52916023Y-67556418D01*
X52916017Y-67556421D01*
X52761112Y-67635349D01*
X52620464Y-67737536D01*
X52497536Y-67860464D01*
X52395349Y-68001112D01*
X52316421Y-68156017D01*
X52316418Y-68156023D01*
X52262698Y-68321357D01*
X52262697Y-68321360D01*
X52262697Y-68321362D01*
X52235500Y-68493074D01*
X52235500Y-68666926D01*
X52262697Y-68838638D01*
X52262698Y-68838642D01*
X52307986Y-68978026D01*
X52316420Y-69003981D01*
X52395347Y-69158884D01*
X52395349Y-69158887D01*
X52497536Y-69299535D01*
X52620464Y-69422463D01*
X52620467Y-69422465D01*
X52761116Y-69524653D01*
X52916019Y-69603580D01*
X53081362Y-69657303D01*
X53253074Y-69684500D01*
X53253077Y-69684500D01*
X53426923Y-69684500D01*
X53426926Y-69684500D01*
X53598638Y-69657303D01*
X53738026Y-69612012D01*
X53808993Y-69609985D01*
X53866057Y-69642751D01*
X56813595Y-72590289D01*
X56847621Y-72652601D01*
X56850500Y-72679384D01*
X56850500Y-73789616D01*
X56830498Y-73857737D01*
X56776842Y-73904230D01*
X56706568Y-73914334D01*
X56641988Y-73884840D01*
X56635405Y-73878711D01*
X54402751Y-71646057D01*
X54368725Y-71583745D01*
X54372013Y-71518026D01*
X54417303Y-71378638D01*
X54444500Y-71206926D01*
X54444500Y-71033074D01*
X54417303Y-70861362D01*
X54363580Y-70696019D01*
X54284653Y-70541116D01*
X54182465Y-70400467D01*
X54182463Y-70400464D01*
X54059535Y-70277536D01*
X53918887Y-70175349D01*
X53918886Y-70175348D01*
X53918884Y-70175347D01*
X53763981Y-70096420D01*
X53763978Y-70096419D01*
X53763976Y-70096418D01*
X53598642Y-70042698D01*
X53598640Y-70042697D01*
X53598638Y-70042697D01*
X53426926Y-70015500D01*
X53253074Y-70015500D01*
X53081362Y-70042697D01*
X53081360Y-70042697D01*
X53081357Y-70042698D01*
X52916023Y-70096418D01*
X52916017Y-70096421D01*
X52761112Y-70175349D01*
X52620464Y-70277536D01*
X52497536Y-70400464D01*
X52395349Y-70541112D01*
X52316421Y-70696017D01*
X52316418Y-70696023D01*
X52262698Y-70861357D01*
X52262697Y-70861360D01*
X52262697Y-70861362D01*
X52235500Y-71033074D01*
X52235500Y-71206926D01*
X52262697Y-71378638D01*
X52262698Y-71378642D01*
X52307986Y-71518026D01*
X52316420Y-71543981D01*
X52390968Y-71690289D01*
X52395349Y-71698887D01*
X52497536Y-71839535D01*
X52620464Y-71962463D01*
X52620467Y-71962465D01*
X52761116Y-72064653D01*
X52916019Y-72143580D01*
X53081362Y-72197303D01*
X53253074Y-72224500D01*
X53253077Y-72224500D01*
X53426923Y-72224500D01*
X53426926Y-72224500D01*
X53598638Y-72197303D01*
X53738026Y-72152012D01*
X53808993Y-72149985D01*
X53866057Y-72182751D01*
X56363595Y-74680289D01*
X56397621Y-74742601D01*
X56400500Y-74769384D01*
X56400500Y-75879616D01*
X56380498Y-75947737D01*
X56326842Y-75994230D01*
X56256568Y-76004334D01*
X56191988Y-75974840D01*
X56185405Y-75968711D01*
X54402751Y-74186057D01*
X54368725Y-74123745D01*
X54372013Y-74058026D01*
X54377097Y-74042379D01*
X54417303Y-73918638D01*
X54444500Y-73746926D01*
X54444500Y-73573074D01*
X54417303Y-73401362D01*
X54363580Y-73236019D01*
X54284653Y-73081116D01*
X54210251Y-72978711D01*
X54182463Y-72940464D01*
X54059535Y-72817536D01*
X53918887Y-72715349D01*
X53918886Y-72715348D01*
X53918884Y-72715347D01*
X53763981Y-72636420D01*
X53763978Y-72636419D01*
X53763976Y-72636418D01*
X53598642Y-72582698D01*
X53598640Y-72582697D01*
X53598638Y-72582697D01*
X53426926Y-72555500D01*
X53253074Y-72555500D01*
X53081362Y-72582697D01*
X53081360Y-72582697D01*
X53081357Y-72582698D01*
X52916023Y-72636418D01*
X52916017Y-72636421D01*
X52761112Y-72715349D01*
X52620464Y-72817536D01*
X52497536Y-72940464D01*
X52395349Y-73081112D01*
X52316421Y-73236017D01*
X52316418Y-73236023D01*
X52262698Y-73401357D01*
X52262697Y-73401360D01*
X52262697Y-73401362D01*
X52235500Y-73573074D01*
X52235500Y-73746926D01*
X52262697Y-73918638D01*
X52262698Y-73918642D01*
X52307986Y-74058026D01*
X52316420Y-74083981D01*
X52395347Y-74238884D01*
X52395349Y-74238887D01*
X52497536Y-74379535D01*
X52620464Y-74502463D01*
X52620467Y-74502465D01*
X52761116Y-74604653D01*
X52916019Y-74683580D01*
X53081362Y-74737303D01*
X53253074Y-74764500D01*
X53253077Y-74764500D01*
X53426923Y-74764500D01*
X53426926Y-74764500D01*
X53598638Y-74737303D01*
X53738026Y-74692012D01*
X53808993Y-74689985D01*
X53866057Y-74722751D01*
X55913595Y-76770289D01*
X55947621Y-76832601D01*
X55950500Y-76859384D01*
X55950500Y-77969616D01*
X55930498Y-78037737D01*
X55876842Y-78084230D01*
X55806568Y-78094334D01*
X55741988Y-78064840D01*
X55735405Y-78058711D01*
X54402751Y-76726057D01*
X54368725Y-76663745D01*
X54372013Y-76598026D01*
X54417303Y-76458638D01*
X54444500Y-76286926D01*
X54444500Y-76113074D01*
X54417303Y-75941362D01*
X54363580Y-75776019D01*
X54284653Y-75621116D01*
X54182465Y-75480467D01*
X54182463Y-75480464D01*
X54059535Y-75357536D01*
X53918887Y-75255349D01*
X53918886Y-75255348D01*
X53918884Y-75255347D01*
X53763981Y-75176420D01*
X53763978Y-75176419D01*
X53763976Y-75176418D01*
X53598642Y-75122698D01*
X53598640Y-75122697D01*
X53598638Y-75122697D01*
X53426926Y-75095500D01*
X53253074Y-75095500D01*
X53081362Y-75122697D01*
X53081360Y-75122697D01*
X53081357Y-75122698D01*
X52916023Y-75176418D01*
X52916017Y-75176421D01*
X52761112Y-75255349D01*
X52620464Y-75357536D01*
X52497536Y-75480464D01*
X52395349Y-75621112D01*
X52316421Y-75776017D01*
X52316418Y-75776023D01*
X52262698Y-75941357D01*
X52262697Y-75941360D01*
X52262697Y-75941362D01*
X52235500Y-76113074D01*
X52235500Y-76286926D01*
X52246630Y-76357194D01*
X52262698Y-76458642D01*
X52307986Y-76598026D01*
X52316420Y-76623981D01*
X52390968Y-76770289D01*
X52395349Y-76778887D01*
X52497536Y-76919535D01*
X52620464Y-77042463D01*
X52620467Y-77042465D01*
X52761116Y-77144653D01*
X52916019Y-77223580D01*
X53081362Y-77277303D01*
X53253074Y-77304500D01*
X53253077Y-77304500D01*
X53426923Y-77304500D01*
X53426926Y-77304500D01*
X53598638Y-77277303D01*
X53738026Y-77232012D01*
X53808993Y-77229985D01*
X53866057Y-77262751D01*
X55463595Y-78860289D01*
X55497621Y-78922601D01*
X55500500Y-78949384D01*
X55500500Y-106470615D01*
X55480498Y-106538736D01*
X55463595Y-106559710D01*
X46246056Y-115777248D01*
X46183744Y-115811274D01*
X46118025Y-115807986D01*
X45978642Y-115762698D01*
X45978640Y-115762697D01*
X45978638Y-115762697D01*
X45806926Y-115735500D01*
X45633074Y-115735500D01*
X45461362Y-115762697D01*
X45461360Y-115762697D01*
X45461357Y-115762698D01*
X45296023Y-115816418D01*
X45296017Y-115816421D01*
X45141112Y-115895349D01*
X45000464Y-115997536D01*
X44877536Y-116120464D01*
X44775349Y-116261112D01*
X44696421Y-116416017D01*
X44696418Y-116416023D01*
X44642698Y-116581357D01*
X44642698Y-116581359D01*
X44642697Y-116581362D01*
X44615500Y-116753074D01*
X25400500Y-116753074D01*
X25400500Y-106470000D01*
X29002769Y-106470000D01*
X30046988Y-106470000D01*
X30014075Y-106527007D01*
X29980000Y-106654174D01*
X29980000Y-106785826D01*
X30014075Y-106912993D01*
X30046988Y-106970000D01*
X29002769Y-106970000D01*
X29013243Y-107036130D01*
X29078904Y-107238215D01*
X29078907Y-107238221D01*
X29175379Y-107427557D01*
X29300280Y-107599468D01*
X29300282Y-107599471D01*
X29450528Y-107749717D01*
X29450531Y-107749719D01*
X29622444Y-107874622D01*
X29647826Y-107887554D01*
X29699443Y-107936301D01*
X29716511Y-108005215D01*
X29693611Y-108072418D01*
X29638014Y-108116571D01*
X29624801Y-108120787D01*
X29485733Y-108172657D01*
X29369596Y-108259596D01*
X29282657Y-108375734D01*
X29231962Y-108511650D01*
X29231960Y-108511658D01*
X29225500Y-108571737D01*
X29225500Y-109868246D01*
X29225502Y-109868270D01*
X29231959Y-109928339D01*
X29231959Y-109928341D01*
X29282657Y-110064266D01*
X29282658Y-110064267D01*
X29369596Y-110180404D01*
X29485733Y-110267342D01*
X29621658Y-110318040D01*
X29681745Y-110324500D01*
X31278254Y-110324499D01*
X31338342Y-110318040D01*
X31474267Y-110267342D01*
X31590404Y-110180404D01*
X31677342Y-110064267D01*
X31728040Y-109928342D01*
X31734500Y-109868255D01*
X31734499Y-108571746D01*
X31728040Y-108511658D01*
X31677342Y-108375733D01*
X31590404Y-108259596D01*
X31474267Y-108172658D01*
X31474265Y-108172657D01*
X31474266Y-108172657D01*
X31330957Y-108119205D01*
X31331612Y-108117446D01*
X31278692Y-108087303D01*
X31245791Y-108024389D01*
X31252127Y-107953676D01*
X31295688Y-107897614D01*
X31312174Y-107887553D01*
X31337557Y-107874620D01*
X31509468Y-107749719D01*
X31509471Y-107749717D01*
X31659717Y-107599471D01*
X31659719Y-107599468D01*
X31784620Y-107427557D01*
X31881092Y-107238221D01*
X31881095Y-107238215D01*
X31946756Y-107036130D01*
X31957231Y-106970000D01*
X30913012Y-106970000D01*
X30945925Y-106912993D01*
X30980000Y-106785826D01*
X30980000Y-106654174D01*
X30945925Y-106527007D01*
X30913012Y-106470000D01*
X31957230Y-106470000D01*
X31946756Y-106403869D01*
X31881095Y-106201784D01*
X31881092Y-106201778D01*
X31784620Y-106012442D01*
X31659719Y-105840531D01*
X31659717Y-105840528D01*
X31509471Y-105690282D01*
X31509468Y-105690280D01*
X31337557Y-105565379D01*
X31148221Y-105468907D01*
X31148215Y-105468904D01*
X30946129Y-105403243D01*
X30946133Y-105403243D01*
X30736244Y-105370000D01*
X30730000Y-105370000D01*
X30730000Y-106286988D01*
X30672993Y-106254075D01*
X30545826Y-106220000D01*
X30414174Y-106220000D01*
X30287007Y-106254075D01*
X30230000Y-106286988D01*
X30230000Y-105370000D01*
X30223756Y-105370000D01*
X30013868Y-105403243D01*
X29811784Y-105468904D01*
X29811778Y-105468907D01*
X29622442Y-105565379D01*
X29450531Y-105690280D01*
X29450528Y-105690282D01*
X29300282Y-105840528D01*
X29300280Y-105840531D01*
X29175379Y-106012442D01*
X29078907Y-106201778D01*
X29078904Y-106201784D01*
X29013243Y-106403869D01*
X29002769Y-106470000D01*
X25400500Y-106470000D01*
X25400500Y-96310000D01*
X29002769Y-96310000D01*
X30046988Y-96310000D01*
X30014075Y-96367007D01*
X29980000Y-96494174D01*
X29980000Y-96625826D01*
X30014075Y-96752993D01*
X30046988Y-96810000D01*
X29002769Y-96810000D01*
X29013243Y-96876130D01*
X29078904Y-97078215D01*
X29078907Y-97078221D01*
X29175379Y-97267557D01*
X29300280Y-97439468D01*
X29300282Y-97439471D01*
X29450528Y-97589717D01*
X29450531Y-97589719D01*
X29622444Y-97714622D01*
X29647826Y-97727554D01*
X29699443Y-97776301D01*
X29716511Y-97845215D01*
X29693611Y-97912418D01*
X29638014Y-97956571D01*
X29624801Y-97960787D01*
X29485733Y-98012657D01*
X29369596Y-98099596D01*
X29282657Y-98215734D01*
X29231962Y-98351650D01*
X29231960Y-98351658D01*
X29225500Y-98411737D01*
X29225500Y-99708246D01*
X29225502Y-99708270D01*
X29231959Y-99768339D01*
X29231959Y-99768341D01*
X29282657Y-99904266D01*
X29282658Y-99904267D01*
X29369596Y-100020404D01*
X29485733Y-100107342D01*
X29621658Y-100158040D01*
X29681745Y-100164500D01*
X31278254Y-100164499D01*
X31338342Y-100158040D01*
X31474267Y-100107342D01*
X31590404Y-100020404D01*
X31677342Y-99904267D01*
X31728040Y-99768342D01*
X31734500Y-99708255D01*
X31734499Y-98411746D01*
X31728040Y-98351658D01*
X31677342Y-98215733D01*
X31590404Y-98099596D01*
X31474267Y-98012658D01*
X31474265Y-98012657D01*
X31474266Y-98012657D01*
X31330957Y-97959205D01*
X31331612Y-97957446D01*
X31278692Y-97927303D01*
X31245791Y-97864389D01*
X31252127Y-97793676D01*
X31295688Y-97737614D01*
X31312174Y-97727553D01*
X31337557Y-97714620D01*
X31509468Y-97589719D01*
X31509471Y-97589717D01*
X31659717Y-97439471D01*
X31659719Y-97439468D01*
X31784620Y-97267557D01*
X31881092Y-97078221D01*
X31881095Y-97078215D01*
X31946756Y-96876130D01*
X31957231Y-96810000D01*
X30913012Y-96810000D01*
X30945925Y-96752993D01*
X30980000Y-96625826D01*
X30980000Y-96494174D01*
X30945925Y-96367007D01*
X30913012Y-96310000D01*
X31957230Y-96310000D01*
X31946756Y-96243869D01*
X31881095Y-96041784D01*
X31881092Y-96041778D01*
X31784620Y-95852442D01*
X31659719Y-95680531D01*
X31659717Y-95680528D01*
X31509471Y-95530282D01*
X31509468Y-95530280D01*
X31337557Y-95405379D01*
X31148221Y-95308907D01*
X31148215Y-95308904D01*
X31036746Y-95272686D01*
X30946129Y-95243243D01*
X30946133Y-95243243D01*
X30736244Y-95210000D01*
X30730000Y-95210000D01*
X30730000Y-96126988D01*
X30672993Y-96094075D01*
X30545826Y-96060000D01*
X30414174Y-96060000D01*
X30287007Y-96094075D01*
X30230000Y-96126988D01*
X30230000Y-95210000D01*
X30223756Y-95210000D01*
X30013868Y-95243243D01*
X29811784Y-95308904D01*
X29811778Y-95308907D01*
X29622442Y-95405379D01*
X29450531Y-95530280D01*
X29450528Y-95530282D01*
X29300282Y-95680528D01*
X29300280Y-95680531D01*
X29175379Y-95852442D01*
X29078907Y-96041778D01*
X29078904Y-96041784D01*
X29013243Y-96243869D01*
X29002769Y-96310000D01*
X25400500Y-96310000D01*
X25400500Y-95159039D01*
X38319500Y-95159039D01*
X38319500Y-95340960D01*
X38354990Y-95519375D01*
X38354991Y-95519378D01*
X38394743Y-95615347D01*
X38424605Y-95687441D01*
X38525671Y-95838697D01*
X38654303Y-95967329D01*
X38805559Y-96068395D01*
X38973625Y-96138010D01*
X39152043Y-96173500D01*
X39333957Y-96173500D01*
X39512375Y-96138010D01*
X39680441Y-96068395D01*
X39831697Y-95967329D01*
X39960329Y-95838697D01*
X40061395Y-95687441D01*
X40131010Y-95519375D01*
X40166500Y-95340957D01*
X40166500Y-95159043D01*
X40166499Y-95159039D01*
X46193500Y-95159039D01*
X46193500Y-95340960D01*
X46228990Y-95519375D01*
X46228991Y-95519378D01*
X46268743Y-95615347D01*
X46298605Y-95687441D01*
X46399671Y-95838697D01*
X46528303Y-95967329D01*
X46679559Y-96068395D01*
X46847625Y-96138010D01*
X47026043Y-96173500D01*
X47207957Y-96173500D01*
X47386375Y-96138010D01*
X47554441Y-96068395D01*
X47705697Y-95967329D01*
X47834329Y-95838697D01*
X47935395Y-95687441D01*
X48005010Y-95519375D01*
X48040500Y-95340957D01*
X48040500Y-95159043D01*
X48005010Y-94980625D01*
X47935395Y-94812559D01*
X47834329Y-94661303D01*
X47705697Y-94532671D01*
X47554441Y-94431605D01*
X47386378Y-94361991D01*
X47386375Y-94361990D01*
X47207960Y-94326500D01*
X47207957Y-94326500D01*
X47026043Y-94326500D01*
X47026039Y-94326500D01*
X46847624Y-94361990D01*
X46847621Y-94361991D01*
X46679558Y-94431605D01*
X46528307Y-94532668D01*
X46528300Y-94532673D01*
X46399673Y-94661300D01*
X46399668Y-94661307D01*
X46298605Y-94812558D01*
X46228991Y-94980621D01*
X46228990Y-94980624D01*
X46193500Y-95159039D01*
X40166499Y-95159039D01*
X40131010Y-94980625D01*
X40061395Y-94812559D01*
X39960329Y-94661303D01*
X39831697Y-94532671D01*
X39680441Y-94431605D01*
X39512378Y-94361991D01*
X39512375Y-94361990D01*
X39333960Y-94326500D01*
X39333957Y-94326500D01*
X39152043Y-94326500D01*
X39152039Y-94326500D01*
X38973624Y-94361990D01*
X38973621Y-94361991D01*
X38805558Y-94431605D01*
X38654307Y-94532668D01*
X38654300Y-94532673D01*
X38525673Y-94661300D01*
X38525668Y-94661307D01*
X38424605Y-94812558D01*
X38354991Y-94980621D01*
X38354990Y-94980624D01*
X38319500Y-95159039D01*
X25400500Y-95159039D01*
X25400500Y-92619039D01*
X38319500Y-92619039D01*
X38319500Y-92800960D01*
X38354990Y-92979375D01*
X38354991Y-92979378D01*
X38404787Y-93099596D01*
X38424605Y-93147441D01*
X38525671Y-93298697D01*
X38654303Y-93427329D01*
X38805559Y-93528395D01*
X38973625Y-93598010D01*
X39152043Y-93633500D01*
X39333957Y-93633500D01*
X39512375Y-93598010D01*
X39680441Y-93528395D01*
X39831697Y-93427329D01*
X39960329Y-93298697D01*
X40061395Y-93147441D01*
X40131010Y-92979375D01*
X40166500Y-92800957D01*
X40166500Y-92619043D01*
X40131010Y-92440625D01*
X40061395Y-92272559D01*
X39960329Y-92121303D01*
X39831697Y-91992671D01*
X39680441Y-91891605D01*
X39512378Y-91821991D01*
X39512375Y-91821990D01*
X39333960Y-91786500D01*
X39333957Y-91786500D01*
X39152043Y-91786500D01*
X39152039Y-91786500D01*
X38973624Y-91821990D01*
X38973621Y-91821991D01*
X38805558Y-91891605D01*
X38654307Y-91992668D01*
X38654300Y-91992673D01*
X38525673Y-92121300D01*
X38525668Y-92121307D01*
X38424605Y-92272558D01*
X38354991Y-92440621D01*
X38354990Y-92440624D01*
X38319500Y-92619039D01*
X25400500Y-92619039D01*
X25400500Y-90079039D01*
X38319500Y-90079039D01*
X38319500Y-90260960D01*
X38354990Y-90439375D01*
X38354991Y-90439378D01*
X38408890Y-90569502D01*
X38424605Y-90607441D01*
X38525671Y-90758697D01*
X38654303Y-90887329D01*
X38805559Y-90988395D01*
X38973625Y-91058010D01*
X39152043Y-91093500D01*
X39333957Y-91093500D01*
X39512375Y-91058010D01*
X39680441Y-90988395D01*
X39831697Y-90887329D01*
X39960329Y-90758697D01*
X40061395Y-90607441D01*
X40131010Y-90439375D01*
X40166500Y-90260957D01*
X40166500Y-90079043D01*
X40131010Y-89900625D01*
X40061395Y-89732559D01*
X39960329Y-89581303D01*
X39831697Y-89452671D01*
X39680441Y-89351605D01*
X39512378Y-89281991D01*
X39512375Y-89281990D01*
X39333960Y-89246500D01*
X39333957Y-89246500D01*
X39152043Y-89246500D01*
X39152039Y-89246500D01*
X38973624Y-89281990D01*
X38973621Y-89281991D01*
X38805558Y-89351605D01*
X38654307Y-89452668D01*
X38654300Y-89452673D01*
X38525673Y-89581300D01*
X38525668Y-89581307D01*
X38424605Y-89732558D01*
X38354991Y-89900621D01*
X38354990Y-89900624D01*
X38319500Y-90079039D01*
X25400500Y-90079039D01*
X25400500Y-86150000D01*
X29027769Y-86150000D01*
X30075854Y-86150000D01*
X30037370Y-86216657D01*
X30005000Y-86337465D01*
X30005000Y-86462535D01*
X30037370Y-86583343D01*
X30075854Y-86650000D01*
X29027769Y-86650000D01*
X29038243Y-86716130D01*
X29103904Y-86918215D01*
X29103907Y-86918221D01*
X29200379Y-87107557D01*
X29325280Y-87279468D01*
X29325282Y-87279471D01*
X29475528Y-87429717D01*
X29475531Y-87429719D01*
X29647444Y-87554622D01*
X29672826Y-87567554D01*
X29724443Y-87616301D01*
X29741511Y-87685215D01*
X29718611Y-87752418D01*
X29663014Y-87796571D01*
X29649801Y-87800787D01*
X29510733Y-87852657D01*
X29394596Y-87939596D01*
X29307657Y-88055734D01*
X29256962Y-88191650D01*
X29256960Y-88191658D01*
X29250500Y-88251737D01*
X29250500Y-89548246D01*
X29250502Y-89548270D01*
X29256959Y-89608339D01*
X29256959Y-89608341D01*
X29307657Y-89744266D01*
X29307658Y-89744267D01*
X29394596Y-89860404D01*
X29510733Y-89947342D01*
X29646658Y-89998040D01*
X29706745Y-90004500D01*
X31253254Y-90004499D01*
X31313342Y-89998040D01*
X31449267Y-89947342D01*
X31565404Y-89860404D01*
X31652342Y-89744267D01*
X31703040Y-89608342D01*
X31709500Y-89548255D01*
X31709499Y-88259382D01*
X31729501Y-88191262D01*
X31746399Y-88170293D01*
X32980762Y-86935930D01*
X38319500Y-86935930D01*
X38319500Y-88324063D01*
X38319501Y-88324073D01*
X38334265Y-88398300D01*
X38390516Y-88482484D01*
X38474697Y-88538733D01*
X38474699Y-88538734D01*
X38548933Y-88553500D01*
X39937066Y-88553499D01*
X39937069Y-88553498D01*
X39937073Y-88553498D01*
X39986326Y-88543701D01*
X40011301Y-88538734D01*
X40095484Y-88482484D01*
X40151734Y-88398301D01*
X40166500Y-88324067D01*
X40166499Y-86935934D01*
X40166498Y-86935930D01*
X40166498Y-86935926D01*
X40151734Y-86861699D01*
X40116051Y-86808297D01*
X40095484Y-86777516D01*
X40095483Y-86777515D01*
X40011302Y-86721266D01*
X39937067Y-86706500D01*
X38548936Y-86706500D01*
X38548926Y-86706501D01*
X38474699Y-86721265D01*
X38390515Y-86777516D01*
X38334266Y-86861697D01*
X38319500Y-86935930D01*
X32980762Y-86935930D01*
X33242642Y-86674050D01*
X33242652Y-86674043D01*
X33323670Y-86593025D01*
X33323676Y-86593019D01*
X33373638Y-86506482D01*
X33399500Y-86409962D01*
X33399500Y-78633756D01*
X36750000Y-78633756D01*
X36750000Y-78846243D01*
X36783243Y-79056131D01*
X36848904Y-79258215D01*
X36848907Y-79258221D01*
X36945377Y-79447553D01*
X36984729Y-79501716D01*
X37056169Y-79430276D01*
X37118481Y-79396251D01*
X37189297Y-79401315D01*
X37234360Y-79430276D01*
X37241375Y-79437291D01*
X37257535Y-79459533D01*
X37380467Y-79582465D01*
X37402708Y-79598624D01*
X37409722Y-79605638D01*
X37422173Y-79628440D01*
X37438042Y-79649019D01*
X37438906Y-79659083D01*
X37443748Y-79667950D01*
X37441893Y-79693871D01*
X37444117Y-79719756D01*
X37439403Y-79728688D01*
X37438683Y-79738765D01*
X37423109Y-79759568D01*
X37410985Y-79782547D01*
X37409723Y-79783828D01*
X37338282Y-79855269D01*
X37392446Y-79894622D01*
X37581778Y-79991092D01*
X37581784Y-79991095D01*
X37783870Y-80056756D01*
X37783866Y-80056756D01*
X37993756Y-80090000D01*
X38206244Y-80090000D01*
X38416131Y-80056756D01*
X38618215Y-79991095D01*
X38618221Y-79991092D01*
X38807555Y-79894621D01*
X38807557Y-79894620D01*
X38861716Y-79855270D01*
X38790276Y-79783830D01*
X38756251Y-79721518D01*
X38761315Y-79650702D01*
X38790276Y-79605639D01*
X38797287Y-79598627D01*
X38819533Y-79582465D01*
X38942465Y-79459533D01*
X38958627Y-79437287D01*
X38965639Y-79430276D01*
X38988442Y-79417824D01*
X39009018Y-79401957D01*
X39019083Y-79401092D01*
X39027951Y-79396250D01*
X39053869Y-79398103D01*
X39079755Y-79395880D01*
X39088689Y-79400594D01*
X39098766Y-79401315D01*
X39119565Y-79416885D01*
X39142547Y-79429011D01*
X39143830Y-79430276D01*
X39215270Y-79501716D01*
X39254620Y-79447557D01*
X39254621Y-79447555D01*
X39351092Y-79258221D01*
X39351095Y-79258215D01*
X39416756Y-79056131D01*
X39450000Y-78846243D01*
X39450000Y-78633756D01*
X39416756Y-78423868D01*
X39351095Y-78221784D01*
X39351092Y-78221778D01*
X39254622Y-78032446D01*
X39215269Y-77978282D01*
X39143828Y-78049723D01*
X39081516Y-78083748D01*
X39010700Y-78078682D01*
X38965638Y-78049722D01*
X38958624Y-78042708D01*
X38942465Y-78020467D01*
X38819533Y-77897535D01*
X38797291Y-77881375D01*
X38790276Y-77874360D01*
X38777823Y-77851555D01*
X38761955Y-77830976D01*
X38761090Y-77820913D01*
X38756250Y-77812048D01*
X38758103Y-77786127D01*
X38755881Y-77760240D01*
X38760594Y-77751307D01*
X38761315Y-77741233D01*
X38776886Y-77720431D01*
X38789014Y-77697449D01*
X38790276Y-77696169D01*
X38861716Y-77624729D01*
X38807553Y-77585377D01*
X38618221Y-77488907D01*
X38618215Y-77488904D01*
X38531259Y-77460651D01*
X38472653Y-77420578D01*
X38445016Y-77355181D01*
X38457123Y-77285224D01*
X38505129Y-77232918D01*
X38521987Y-77224405D01*
X38523967Y-77223584D01*
X38523981Y-77223580D01*
X38678884Y-77144653D01*
X38819533Y-77042465D01*
X38942465Y-76919533D01*
X39044653Y-76778884D01*
X39123580Y-76623981D01*
X39177303Y-76458638D01*
X39204500Y-76286926D01*
X39204500Y-76113074D01*
X39177303Y-75941362D01*
X39123580Y-75776019D01*
X39044653Y-75621116D01*
X38942465Y-75480467D01*
X38942463Y-75480464D01*
X38819535Y-75357536D01*
X38678887Y-75255349D01*
X38678886Y-75255348D01*
X38678884Y-75255347D01*
X38523981Y-75176420D01*
X38523978Y-75176419D01*
X38523976Y-75176418D01*
X38358642Y-75122698D01*
X38358640Y-75122697D01*
X38358638Y-75122697D01*
X38186926Y-75095500D01*
X38013074Y-75095500D01*
X37841362Y-75122697D01*
X37841360Y-75122697D01*
X37841357Y-75122698D01*
X37676023Y-75176418D01*
X37676017Y-75176421D01*
X37521112Y-75255349D01*
X37380464Y-75357536D01*
X37257536Y-75480464D01*
X37155349Y-75621112D01*
X37076421Y-75776017D01*
X37076418Y-75776023D01*
X37022698Y-75941357D01*
X37022697Y-75941360D01*
X37022697Y-75941362D01*
X36995500Y-76113074D01*
X36995500Y-76286926D01*
X37006630Y-76357194D01*
X37022698Y-76458642D01*
X37067986Y-76598026D01*
X37076420Y-76623981D01*
X37150968Y-76770289D01*
X37155349Y-76778887D01*
X37257536Y-76919535D01*
X37380464Y-77042463D01*
X37380467Y-77042465D01*
X37521116Y-77144653D01*
X37676019Y-77223580D01*
X37676029Y-77223583D01*
X37678018Y-77224407D01*
X37678662Y-77224926D01*
X37680430Y-77225827D01*
X37680240Y-77226198D01*
X37733300Y-77268954D01*
X37755724Y-77336316D01*
X37738168Y-77405108D01*
X37686208Y-77453488D01*
X37668740Y-77460651D01*
X37581784Y-77488904D01*
X37581778Y-77488907D01*
X37392447Y-77585376D01*
X37392446Y-77585377D01*
X37338282Y-77624729D01*
X37338282Y-77624730D01*
X37409722Y-77696170D01*
X37443748Y-77758482D01*
X37438683Y-77829297D01*
X37409722Y-77874360D01*
X37402701Y-77881380D01*
X37380467Y-77897535D01*
X37257535Y-78020467D01*
X37241380Y-78042701D01*
X37234360Y-78049722D01*
X37211554Y-78062175D01*
X37190973Y-78078044D01*
X37180912Y-78078907D01*
X37172048Y-78083748D01*
X37146124Y-78081893D01*
X37120237Y-78084116D01*
X37111306Y-78079403D01*
X37101233Y-78078683D01*
X37080427Y-78063107D01*
X37057447Y-78050981D01*
X37056170Y-78049722D01*
X36984730Y-77978282D01*
X36984729Y-77978282D01*
X36945377Y-78032446D01*
X36945376Y-78032447D01*
X36848907Y-78221778D01*
X36848904Y-78221784D01*
X36783243Y-78423868D01*
X36750000Y-78633756D01*
X33399500Y-78633756D01*
X33399500Y-76409384D01*
X33419502Y-76341263D01*
X33436405Y-76320289D01*
X35680289Y-74076405D01*
X35742601Y-74042379D01*
X35769384Y-74039500D01*
X36976543Y-74039500D01*
X37044664Y-74059502D01*
X37088809Y-74108296D01*
X37128430Y-74186057D01*
X37155349Y-74238887D01*
X37257536Y-74379535D01*
X37380464Y-74502463D01*
X37380467Y-74502465D01*
X37521116Y-74604653D01*
X37676019Y-74683580D01*
X37841362Y-74737303D01*
X38013074Y-74764500D01*
X38013077Y-74764500D01*
X38186923Y-74764500D01*
X38186926Y-74764500D01*
X38358638Y-74737303D01*
X38523981Y-74683580D01*
X38678884Y-74604653D01*
X38819533Y-74502465D01*
X38942465Y-74379533D01*
X39044653Y-74238884D01*
X39123580Y-74083981D01*
X39177303Y-73918638D01*
X39204500Y-73746926D01*
X39204500Y-73573074D01*
X39177303Y-73401362D01*
X39123580Y-73236019D01*
X39044653Y-73081116D01*
X38970251Y-72978711D01*
X38942463Y-72940464D01*
X38819535Y-72817536D01*
X38678887Y-72715349D01*
X38678886Y-72715348D01*
X38678884Y-72715347D01*
X38523981Y-72636420D01*
X38523978Y-72636419D01*
X38523976Y-72636418D01*
X38358642Y-72582698D01*
X38358640Y-72582697D01*
X38358638Y-72582697D01*
X38186926Y-72555500D01*
X38013074Y-72555500D01*
X37841362Y-72582697D01*
X37841360Y-72582697D01*
X37841357Y-72582698D01*
X37676023Y-72636418D01*
X37676017Y-72636421D01*
X37521112Y-72715349D01*
X37380464Y-72817536D01*
X37257536Y-72940464D01*
X37155349Y-73081112D01*
X37088810Y-73211703D01*
X37040062Y-73263318D01*
X36976543Y-73280500D01*
X35510038Y-73280500D01*
X35450963Y-73296328D01*
X35413513Y-73306363D01*
X35326984Y-73356321D01*
X35326979Y-73356325D01*
X35291652Y-73391653D01*
X35256324Y-73426981D01*
X35256322Y-73426983D01*
X32786983Y-75896322D01*
X32786981Y-75896324D01*
X32751653Y-75931652D01*
X32716325Y-75966979D01*
X32716321Y-75966984D01*
X32667872Y-76050902D01*
X32666362Y-76053518D01*
X32666362Y-76053519D01*
X32640499Y-76150038D01*
X32640499Y-76249962D01*
X32640500Y-76249965D01*
X32640500Y-76268038D01*
X32640500Y-86150614D01*
X32620498Y-86218735D01*
X32603595Y-86239710D01*
X32148876Y-86694428D01*
X32086564Y-86728453D01*
X32015748Y-86723388D01*
X31963969Y-86687162D01*
X31932230Y-86650000D01*
X30884146Y-86650000D01*
X30922630Y-86583343D01*
X30955000Y-86462535D01*
X30955000Y-86337465D01*
X30922630Y-86216657D01*
X30884146Y-86150000D01*
X31932230Y-86150000D01*
X31921756Y-86083869D01*
X31856095Y-85881784D01*
X31856092Y-85881778D01*
X31759620Y-85692442D01*
X31634719Y-85520531D01*
X31634717Y-85520528D01*
X31484471Y-85370282D01*
X31484468Y-85370280D01*
X31312557Y-85245379D01*
X31123221Y-85148907D01*
X31123222Y-85148907D01*
X31084945Y-85136470D01*
X31026340Y-85096395D01*
X30998704Y-85030998D01*
X31010812Y-84961042D01*
X31058818Y-84908736D01*
X31066661Y-84904380D01*
X31183884Y-84844653D01*
X31324533Y-84742465D01*
X31447465Y-84619533D01*
X31549653Y-84478884D01*
X31628580Y-84323981D01*
X31682303Y-84158638D01*
X31709500Y-83986926D01*
X31709500Y-83813074D01*
X31682303Y-83641362D01*
X31628580Y-83476019D01*
X31549653Y-83321116D01*
X31447465Y-83180467D01*
X31447463Y-83180464D01*
X31324535Y-83057536D01*
X31183887Y-82955349D01*
X31183886Y-82955348D01*
X31183884Y-82955347D01*
X31028981Y-82876420D01*
X31028978Y-82876419D01*
X31028976Y-82876418D01*
X30863642Y-82822698D01*
X30863640Y-82822697D01*
X30863638Y-82822697D01*
X30691926Y-82795500D01*
X30268074Y-82795500D01*
X30096362Y-82822697D01*
X30096360Y-82822697D01*
X30096357Y-82822698D01*
X29931023Y-82876418D01*
X29931017Y-82876421D01*
X29776112Y-82955349D01*
X29635464Y-83057536D01*
X29512536Y-83180464D01*
X29410349Y-83321112D01*
X29331421Y-83476017D01*
X29331418Y-83476023D01*
X29277698Y-83641357D01*
X29277697Y-83641360D01*
X29277697Y-83641362D01*
X29250500Y-83813074D01*
X29250500Y-83986926D01*
X29277697Y-84158638D01*
X29331420Y-84323981D01*
X29331421Y-84323982D01*
X29410349Y-84478887D01*
X29512536Y-84619535D01*
X29635464Y-84742463D01*
X29635467Y-84742465D01*
X29776116Y-84844653D01*
X29893318Y-84904370D01*
X29944934Y-84953118D01*
X29962000Y-85022033D01*
X29939100Y-85089235D01*
X29883502Y-85133387D01*
X29875055Y-85136469D01*
X29836785Y-85148904D01*
X29836778Y-85148907D01*
X29647442Y-85245379D01*
X29475531Y-85370280D01*
X29475528Y-85370282D01*
X29325282Y-85520528D01*
X29325280Y-85520531D01*
X29200379Y-85692442D01*
X29103907Y-85881778D01*
X29103904Y-85881784D01*
X29038243Y-86083869D01*
X29027769Y-86150000D01*
X25400500Y-86150000D01*
X25400500Y-71033074D01*
X36995500Y-71033074D01*
X36995500Y-71206926D01*
X37022697Y-71378638D01*
X37022698Y-71378642D01*
X37067986Y-71518026D01*
X37076420Y-71543981D01*
X37150968Y-71690289D01*
X37155349Y-71698887D01*
X37257536Y-71839535D01*
X37380464Y-71962463D01*
X37380467Y-71962465D01*
X37521116Y-72064653D01*
X37676019Y-72143580D01*
X37841362Y-72197303D01*
X38013074Y-72224500D01*
X38013077Y-72224500D01*
X38186923Y-72224500D01*
X38186926Y-72224500D01*
X38358638Y-72197303D01*
X38523981Y-72143580D01*
X38678884Y-72064653D01*
X38819533Y-71962465D01*
X38942465Y-71839533D01*
X39044653Y-71698884D01*
X39123580Y-71543981D01*
X39177303Y-71378638D01*
X39204500Y-71206926D01*
X39204500Y-71033074D01*
X39177303Y-70861362D01*
X39123580Y-70696019D01*
X39044653Y-70541116D01*
X38942465Y-70400467D01*
X38942463Y-70400464D01*
X38819535Y-70277536D01*
X38678887Y-70175349D01*
X38678886Y-70175348D01*
X38678884Y-70175347D01*
X38523981Y-70096420D01*
X38523978Y-70096419D01*
X38523976Y-70096418D01*
X38358642Y-70042698D01*
X38358640Y-70042697D01*
X38358638Y-70042697D01*
X38186926Y-70015500D01*
X38013074Y-70015500D01*
X37841362Y-70042697D01*
X37841360Y-70042697D01*
X37841357Y-70042698D01*
X37676023Y-70096418D01*
X37676017Y-70096421D01*
X37521112Y-70175349D01*
X37380464Y-70277536D01*
X37257536Y-70400464D01*
X37155349Y-70541112D01*
X37076421Y-70696017D01*
X37076418Y-70696023D01*
X37022698Y-70861357D01*
X37022697Y-70861360D01*
X37022697Y-70861362D01*
X36995500Y-71033074D01*
X25400500Y-71033074D01*
X25400500Y-68493074D01*
X36995500Y-68493074D01*
X36995500Y-68666926D01*
X37022697Y-68838638D01*
X37022698Y-68838642D01*
X37067986Y-68978026D01*
X37076420Y-69003981D01*
X37155347Y-69158884D01*
X37155349Y-69158887D01*
X37257536Y-69299535D01*
X37380464Y-69422463D01*
X37380467Y-69422465D01*
X37521116Y-69524653D01*
X37676019Y-69603580D01*
X37841362Y-69657303D01*
X38013074Y-69684500D01*
X38013077Y-69684500D01*
X38186923Y-69684500D01*
X38186926Y-69684500D01*
X38358638Y-69657303D01*
X38523981Y-69603580D01*
X38678884Y-69524653D01*
X38819533Y-69422465D01*
X38942465Y-69299533D01*
X39044653Y-69158884D01*
X39123580Y-69003981D01*
X39177303Y-68838638D01*
X39204500Y-68666926D01*
X39204500Y-68493074D01*
X39177303Y-68321362D01*
X39123580Y-68156019D01*
X39044653Y-68001116D01*
X38942465Y-67860467D01*
X38942463Y-67860464D01*
X38819535Y-67737536D01*
X38678887Y-67635349D01*
X38678886Y-67635348D01*
X38678884Y-67635347D01*
X38523981Y-67556420D01*
X38523978Y-67556419D01*
X38523976Y-67556418D01*
X38358642Y-67502698D01*
X38358640Y-67502697D01*
X38358638Y-67502697D01*
X38186926Y-67475500D01*
X38013074Y-67475500D01*
X37841362Y-67502697D01*
X37841360Y-67502697D01*
X37841357Y-67502698D01*
X37676023Y-67556418D01*
X37676017Y-67556421D01*
X37521112Y-67635349D01*
X37380464Y-67737536D01*
X37257536Y-67860464D01*
X37155349Y-68001112D01*
X37076421Y-68156017D01*
X37076418Y-68156023D01*
X37022698Y-68321357D01*
X37022697Y-68321360D01*
X37022697Y-68321362D01*
X36995500Y-68493074D01*
X25400500Y-68493074D01*
X25400500Y-58333074D01*
X36995500Y-58333074D01*
X36995500Y-58506926D01*
X37022697Y-58678638D01*
X37022698Y-58678642D01*
X37067986Y-58818026D01*
X37076420Y-58843981D01*
X37155347Y-58998884D01*
X37155349Y-58998887D01*
X37257536Y-59139535D01*
X37380464Y-59262463D01*
X37380467Y-59262465D01*
X37521116Y-59364653D01*
X37676019Y-59443580D01*
X37841362Y-59497303D01*
X38013074Y-59524500D01*
X38013077Y-59524500D01*
X38186923Y-59524500D01*
X38186926Y-59524500D01*
X38358638Y-59497303D01*
X38364590Y-59495368D01*
X38435557Y-59493334D01*
X38492632Y-59526103D01*
X38734112Y-59767583D01*
X38768138Y-59829895D01*
X38763073Y-59900710D01*
X38720526Y-59957546D01*
X38654006Y-59982357D01*
X38587815Y-59968945D01*
X38523981Y-59936420D01*
X38523978Y-59936419D01*
X38523976Y-59936418D01*
X38358642Y-59882698D01*
X38358640Y-59882697D01*
X38358638Y-59882697D01*
X38186926Y-59855500D01*
X38013074Y-59855500D01*
X37841362Y-59882697D01*
X37841360Y-59882697D01*
X37841357Y-59882698D01*
X37676023Y-59936418D01*
X37676017Y-59936421D01*
X37521112Y-60015349D01*
X37380464Y-60117536D01*
X37257536Y-60240464D01*
X37155349Y-60381112D01*
X37076421Y-60536017D01*
X37076418Y-60536023D01*
X37022698Y-60701357D01*
X37022697Y-60701360D01*
X37022697Y-60701362D01*
X36995500Y-60873074D01*
X36995500Y-61046926D01*
X37016884Y-61181934D01*
X37022698Y-61218642D01*
X37067986Y-61358026D01*
X37076420Y-61383981D01*
X37155347Y-61538884D01*
X37155349Y-61538887D01*
X37257536Y-61679535D01*
X37380464Y-61802463D01*
X37380467Y-61802465D01*
X37521116Y-61904653D01*
X37676019Y-61983580D01*
X37841362Y-62037303D01*
X38013074Y-62064500D01*
X38013077Y-62064500D01*
X38186923Y-62064500D01*
X38186926Y-62064500D01*
X38358638Y-62037303D01*
X38364590Y-62035368D01*
X38435557Y-62033334D01*
X38492632Y-62066103D01*
X38734112Y-62307583D01*
X38768138Y-62369895D01*
X38763073Y-62440710D01*
X38720526Y-62497546D01*
X38654006Y-62522357D01*
X38587815Y-62508945D01*
X38523981Y-62476420D01*
X38523978Y-62476419D01*
X38523976Y-62476418D01*
X38358642Y-62422698D01*
X38358640Y-62422697D01*
X38358638Y-62422697D01*
X38186926Y-62395500D01*
X38013074Y-62395500D01*
X37841362Y-62422697D01*
X37841360Y-62422697D01*
X37841357Y-62422698D01*
X37676023Y-62476418D01*
X37676017Y-62476421D01*
X37521112Y-62555349D01*
X37380464Y-62657536D01*
X37257536Y-62780464D01*
X37155349Y-62921112D01*
X37076421Y-63076017D01*
X37076418Y-63076023D01*
X37022698Y-63241357D01*
X37022697Y-63241360D01*
X37022697Y-63241362D01*
X36995500Y-63413074D01*
X36995500Y-63586926D01*
X37022697Y-63758638D01*
X37022698Y-63758642D01*
X37067986Y-63898026D01*
X37076420Y-63923981D01*
X37155347Y-64078884D01*
X37155349Y-64078887D01*
X37257536Y-64219535D01*
X37380464Y-64342463D01*
X37380467Y-64342465D01*
X37521116Y-64444653D01*
X37676019Y-64523580D01*
X37841362Y-64577303D01*
X38013074Y-64604500D01*
X38013077Y-64604500D01*
X38186923Y-64604500D01*
X38186926Y-64604500D01*
X38358638Y-64577303D01*
X38498026Y-64532012D01*
X38568993Y-64529985D01*
X38626057Y-64562751D01*
X42763595Y-68700289D01*
X42797621Y-68762601D01*
X42800500Y-68789384D01*
X42800500Y-69899616D01*
X42780498Y-69967737D01*
X42726842Y-70014230D01*
X42656568Y-70024334D01*
X42591988Y-69994840D01*
X42585405Y-69988711D01*
X39162751Y-66566057D01*
X39128725Y-66503745D01*
X39132013Y-66438026D01*
X39177303Y-66298638D01*
X39204500Y-66126926D01*
X39204500Y-65953074D01*
X39177303Y-65781362D01*
X39123580Y-65616019D01*
X39044653Y-65461116D01*
X38942465Y-65320467D01*
X38942463Y-65320464D01*
X38819535Y-65197536D01*
X38678887Y-65095349D01*
X38678886Y-65095348D01*
X38678884Y-65095347D01*
X38523981Y-65016420D01*
X38523978Y-65016419D01*
X38523976Y-65016418D01*
X38358642Y-64962698D01*
X38358640Y-64962697D01*
X38358638Y-64962697D01*
X38186926Y-64935500D01*
X38013074Y-64935500D01*
X37841362Y-64962697D01*
X37841360Y-64962697D01*
X37841357Y-64962698D01*
X37676023Y-65016418D01*
X37676017Y-65016421D01*
X37521112Y-65095349D01*
X37380464Y-65197536D01*
X37257536Y-65320464D01*
X37155349Y-65461112D01*
X37076421Y-65616017D01*
X37076418Y-65616023D01*
X37022698Y-65781357D01*
X37022697Y-65781360D01*
X37022697Y-65781362D01*
X36995500Y-65953074D01*
X36995500Y-66126926D01*
X37022697Y-66298638D01*
X37022698Y-66298642D01*
X37067986Y-66438026D01*
X37076420Y-66463981D01*
X37155347Y-66618884D01*
X37155349Y-66618887D01*
X37257535Y-66759533D01*
X37257539Y-66759538D01*
X37380464Y-66882463D01*
X37380467Y-66882465D01*
X37521116Y-66984653D01*
X37676019Y-67063580D01*
X37841362Y-67117303D01*
X38013074Y-67144500D01*
X38013077Y-67144500D01*
X38186923Y-67144500D01*
X38186926Y-67144500D01*
X38358638Y-67117303D01*
X38498026Y-67072012D01*
X38568993Y-67069985D01*
X38626057Y-67102751D01*
X42127199Y-70603893D01*
X42161225Y-70666205D01*
X42164104Y-70692988D01*
X42164104Y-90753638D01*
X42164103Y-90753642D01*
X42164103Y-90853566D01*
X42184500Y-90929688D01*
X42186920Y-90938720D01*
X42186921Y-90938725D01*
X42189965Y-90950084D01*
X42239925Y-91036619D01*
X42239933Y-91036629D01*
X42317760Y-91114456D01*
X42317774Y-91114468D01*
X44141913Y-92938607D01*
X44141934Y-92938630D01*
X44216974Y-93013670D01*
X44216979Y-93013674D01*
X44216981Y-93013676D01*
X44216982Y-93013677D01*
X44216984Y-93013678D01*
X44303514Y-93063636D01*
X44303518Y-93063638D01*
X44323915Y-93069103D01*
X44400038Y-93089501D01*
X44499962Y-93089501D01*
X44499966Y-93089500D01*
X46192542Y-93089500D01*
X46260663Y-93109502D01*
X46297307Y-93145498D01*
X46298604Y-93147439D01*
X46298605Y-93147441D01*
X46399671Y-93298697D01*
X46528303Y-93427329D01*
X46679559Y-93528395D01*
X46847625Y-93598010D01*
X47026043Y-93633500D01*
X47207957Y-93633500D01*
X47386375Y-93598010D01*
X47554441Y-93528395D01*
X47705697Y-93427329D01*
X47834329Y-93298697D01*
X47935395Y-93147441D01*
X48005010Y-92979375D01*
X48040500Y-92800957D01*
X48040500Y-92619043D01*
X48005010Y-92440625D01*
X47935395Y-92272559D01*
X47834329Y-92121303D01*
X47705697Y-91992671D01*
X47554441Y-91891605D01*
X47386378Y-91821991D01*
X47386375Y-91821990D01*
X47207960Y-91786500D01*
X47207957Y-91786500D01*
X47026043Y-91786500D01*
X47026039Y-91786500D01*
X46847624Y-91821990D01*
X46847621Y-91821991D01*
X46679558Y-91891605D01*
X46528307Y-91992668D01*
X46528300Y-91992673D01*
X46399673Y-92121300D01*
X46399668Y-92121307D01*
X46297307Y-92274502D01*
X46242830Y-92320030D01*
X46192542Y-92330500D01*
X44659384Y-92330500D01*
X44591263Y-92310498D01*
X44570289Y-92293595D01*
X42960009Y-90683315D01*
X42925983Y-90621003D01*
X42923104Y-90594220D01*
X42923104Y-89483988D01*
X42943106Y-89415867D01*
X42996762Y-89369374D01*
X43067036Y-89359270D01*
X43131616Y-89388764D01*
X43138199Y-89394893D01*
X44146322Y-90403016D01*
X44146324Y-90403019D01*
X44216981Y-90473676D01*
X44262453Y-90499929D01*
X44271626Y-90505225D01*
X44303520Y-90523639D01*
X44400034Y-90549500D01*
X44400038Y-90549501D01*
X44507680Y-90549501D01*
X44507696Y-90549500D01*
X46192542Y-90549500D01*
X46260663Y-90569502D01*
X46297307Y-90605498D01*
X46298604Y-90607439D01*
X46298605Y-90607441D01*
X46399671Y-90758697D01*
X46528303Y-90887329D01*
X46679559Y-90988395D01*
X46847625Y-91058010D01*
X47026043Y-91093500D01*
X47207957Y-91093500D01*
X47386375Y-91058010D01*
X47554441Y-90988395D01*
X47705697Y-90887329D01*
X47834329Y-90758697D01*
X47935395Y-90607441D01*
X48005010Y-90439375D01*
X48040500Y-90260957D01*
X48040500Y-90079043D01*
X48005010Y-89900625D01*
X47935395Y-89732559D01*
X47834329Y-89581303D01*
X47705697Y-89452671D01*
X47554441Y-89351605D01*
X47386378Y-89281991D01*
X47386375Y-89281990D01*
X47207960Y-89246500D01*
X47207957Y-89246500D01*
X47026043Y-89246500D01*
X47026039Y-89246500D01*
X46847624Y-89281990D01*
X46847621Y-89281991D01*
X46679558Y-89351605D01*
X46528307Y-89452668D01*
X46528300Y-89452673D01*
X46399673Y-89581300D01*
X46399668Y-89581307D01*
X46297307Y-89734502D01*
X46242830Y-89780030D01*
X46192542Y-89790500D01*
X44659384Y-89790500D01*
X44591263Y-89770498D01*
X44570289Y-89753595D01*
X43596405Y-88779711D01*
X43581460Y-88752342D01*
X43564604Y-88726114D01*
X43563698Y-88719815D01*
X43562379Y-88717399D01*
X43559500Y-88690616D01*
X43559500Y-87538000D01*
X45948000Y-87538000D01*
X45948000Y-87721999D01*
X45976784Y-87903744D01*
X46033645Y-88078741D01*
X46117180Y-88242689D01*
X46131308Y-88262135D01*
X46703438Y-87690005D01*
X46730282Y-87790184D01*
X46784917Y-87884816D01*
X46862184Y-87962083D01*
X46956816Y-88016718D01*
X47056992Y-88043560D01*
X46484863Y-88615689D01*
X46484863Y-88615690D01*
X46504308Y-88629818D01*
X46504313Y-88629821D01*
X46668258Y-88713354D01*
X46843255Y-88770215D01*
X47025000Y-88799000D01*
X47209000Y-88799000D01*
X47390744Y-88770215D01*
X47565741Y-88713354D01*
X47729691Y-88629818D01*
X47749135Y-88615690D01*
X47177006Y-88043560D01*
X47277184Y-88016718D01*
X47371816Y-87962083D01*
X47449083Y-87884816D01*
X47503718Y-87790184D01*
X47530561Y-87690006D01*
X48102690Y-88262135D01*
X48116818Y-88242691D01*
X48200354Y-88078741D01*
X48257215Y-87903744D01*
X48286000Y-87721999D01*
X48286000Y-87538000D01*
X48257215Y-87356255D01*
X48200354Y-87181258D01*
X48116821Y-87017313D01*
X48116818Y-87017308D01*
X48102690Y-86997863D01*
X48102689Y-86997863D01*
X47530560Y-87569992D01*
X47503718Y-87469816D01*
X47449083Y-87375184D01*
X47371816Y-87297917D01*
X47277184Y-87243282D01*
X47177006Y-87216439D01*
X47749135Y-86644308D01*
X47729689Y-86630180D01*
X47565741Y-86546645D01*
X47390744Y-86489784D01*
X47209000Y-86461000D01*
X47025000Y-86461000D01*
X46843255Y-86489784D01*
X46668258Y-86546645D01*
X46504309Y-86630181D01*
X46484862Y-86644309D01*
X47056992Y-87216439D01*
X46956816Y-87243282D01*
X46862184Y-87297917D01*
X46784917Y-87375184D01*
X46730282Y-87469816D01*
X46703439Y-87569992D01*
X46131309Y-86997862D01*
X46117181Y-87017309D01*
X46033645Y-87181258D01*
X45976784Y-87356255D01*
X45948000Y-87538000D01*
X43559500Y-87538000D01*
X43559500Y-81148788D01*
X43579502Y-81080667D01*
X43633158Y-81034174D01*
X43703432Y-81024070D01*
X43768012Y-81053564D01*
X43786425Y-81075867D01*
X43787272Y-81075218D01*
X43792304Y-81081776D01*
X50879108Y-88168579D01*
X50913134Y-88230891D01*
X50913592Y-88233091D01*
X50932652Y-88328911D01*
X50981989Y-88448022D01*
X51005016Y-88482484D01*
X51053615Y-88555218D01*
X51053617Y-88555220D01*
X51089377Y-88590980D01*
X51109399Y-88617072D01*
X51158300Y-88701770D01*
X51158302Y-88701772D01*
X51158305Y-88701776D01*
X51252223Y-88795694D01*
X51252228Y-88795698D01*
X51252230Y-88795700D01*
X51252231Y-88795701D01*
X51252233Y-88795702D01*
X51296865Y-88821470D01*
X51367270Y-88862119D01*
X51495581Y-88896500D01*
X51495583Y-88896500D01*
X51628417Y-88896500D01*
X51628419Y-88896500D01*
X51756730Y-88862119D01*
X51871770Y-88795700D01*
X51965700Y-88701770D01*
X52014601Y-88617070D01*
X52034618Y-88590983D01*
X52070383Y-88555220D01*
X52142011Y-88448022D01*
X52191348Y-88328911D01*
X52216500Y-88202463D01*
X52216500Y-88073537D01*
X52191348Y-87947089D01*
X52142011Y-87827978D01*
X52070383Y-87720780D01*
X52070378Y-87720774D01*
X51979225Y-87629621D01*
X51979219Y-87629616D01*
X51898025Y-87575364D01*
X51872022Y-87557989D01*
X51752911Y-87508652D01*
X51686814Y-87495504D01*
X51657091Y-87489592D01*
X51594182Y-87456684D01*
X51592579Y-87455108D01*
X44737405Y-80599934D01*
X44703379Y-80537622D01*
X44700500Y-80510839D01*
X44700500Y-66989582D01*
X44700500Y-66989581D01*
X44666119Y-66861270D01*
X44607381Y-66759533D01*
X44599701Y-66746230D01*
X44599697Y-66746226D01*
X44599695Y-66746223D01*
X39206103Y-61352632D01*
X39172077Y-61290320D01*
X39175369Y-61224590D01*
X39177301Y-61218644D01*
X39177300Y-61218644D01*
X39177303Y-61218638D01*
X39204500Y-61046926D01*
X39204500Y-60873074D01*
X39177303Y-60701362D01*
X39123580Y-60536019D01*
X39091053Y-60472182D01*
X39077950Y-60402409D01*
X39104650Y-60336624D01*
X39162677Y-60295717D01*
X39233609Y-60292676D01*
X39292416Y-60325887D01*
X45178595Y-66212065D01*
X45212621Y-66274377D01*
X45215500Y-66301160D01*
X45215500Y-80076417D01*
X45215499Y-80076417D01*
X45249880Y-80204728D01*
X45249882Y-80204733D01*
X45262701Y-80226935D01*
X45268123Y-80236325D01*
X45316299Y-80319770D01*
X45316302Y-80319773D01*
X45316305Y-80319777D01*
X51895108Y-86898579D01*
X51929134Y-86960891D01*
X51929592Y-86963091D01*
X51948652Y-87058911D01*
X51997989Y-87178022D01*
X52022697Y-87215000D01*
X52069616Y-87285219D01*
X52069621Y-87285225D01*
X52160774Y-87376378D01*
X52160780Y-87376383D01*
X52267978Y-87448011D01*
X52387089Y-87497348D01*
X52513537Y-87522500D01*
X52513538Y-87522500D01*
X52642462Y-87522500D01*
X52642463Y-87522500D01*
X52768911Y-87497348D01*
X52888022Y-87448011D01*
X52995220Y-87376383D01*
X53086383Y-87285220D01*
X53158011Y-87178022D01*
X53207348Y-87058911D01*
X53232500Y-86932463D01*
X53232500Y-86803537D01*
X53207348Y-86677089D01*
X53158011Y-86557978D01*
X53086383Y-86450780D01*
X53086378Y-86450774D01*
X52995225Y-86359621D01*
X52995219Y-86359616D01*
X52959649Y-86335849D01*
X52888022Y-86287989D01*
X52768911Y-86238652D01*
X52702814Y-86225504D01*
X52673091Y-86219592D01*
X52610182Y-86186684D01*
X52608579Y-86185108D01*
X46261405Y-79837934D01*
X46227379Y-79775622D01*
X46224500Y-79748839D01*
X46224500Y-78653074D01*
X52235500Y-78653074D01*
X52235500Y-78826926D01*
X52262697Y-78998638D01*
X52262698Y-78998642D01*
X52281377Y-79056131D01*
X52316420Y-79163981D01*
X52361532Y-79252518D01*
X52395349Y-79318887D01*
X52497536Y-79459535D01*
X52620464Y-79582463D01*
X52620467Y-79582465D01*
X52761116Y-79684653D01*
X52916019Y-79763580D01*
X53081362Y-79817303D01*
X53253074Y-79844500D01*
X53253077Y-79844500D01*
X53426923Y-79844500D01*
X53426926Y-79844500D01*
X53598638Y-79817303D01*
X53763981Y-79763580D01*
X53918884Y-79684653D01*
X54059533Y-79582465D01*
X54182465Y-79459533D01*
X54284653Y-79318884D01*
X54363580Y-79163981D01*
X54417303Y-78998638D01*
X54444500Y-78826926D01*
X54444500Y-78653074D01*
X54417303Y-78481362D01*
X54363580Y-78316019D01*
X54284653Y-78161116D01*
X54203720Y-78049722D01*
X54182463Y-78020464D01*
X54059535Y-77897536D01*
X53918887Y-77795349D01*
X53918886Y-77795348D01*
X53918884Y-77795347D01*
X53763981Y-77716420D01*
X53763978Y-77716419D01*
X53763976Y-77716418D01*
X53598642Y-77662698D01*
X53598640Y-77662697D01*
X53598638Y-77662697D01*
X53426926Y-77635500D01*
X53253074Y-77635500D01*
X53081362Y-77662697D01*
X53081360Y-77662697D01*
X53081357Y-77662698D01*
X52916023Y-77716418D01*
X52916017Y-77716421D01*
X52761112Y-77795349D01*
X52620464Y-77897536D01*
X52497536Y-78020464D01*
X52395349Y-78161112D01*
X52316421Y-78316017D01*
X52316418Y-78316023D01*
X52262698Y-78481357D01*
X52262697Y-78481360D01*
X52262697Y-78481362D01*
X52235500Y-78653074D01*
X46224500Y-78653074D01*
X46224500Y-65973582D01*
X46219005Y-65953074D01*
X46190119Y-65845270D01*
X46123700Y-65730230D01*
X46029770Y-65636300D01*
X39206103Y-58812632D01*
X39172077Y-58750320D01*
X39175369Y-58684590D01*
X39177301Y-58678644D01*
X39177300Y-58678644D01*
X39177303Y-58678638D01*
X39204500Y-58506926D01*
X39204500Y-58333074D01*
X39177303Y-58161362D01*
X39123580Y-57996019D01*
X39044653Y-57841116D01*
X38942465Y-57700467D01*
X38942463Y-57700464D01*
X38819535Y-57577536D01*
X38678887Y-57475349D01*
X38678886Y-57475348D01*
X38678884Y-57475347D01*
X38523981Y-57396420D01*
X38523978Y-57396419D01*
X38523976Y-57396418D01*
X38358642Y-57342698D01*
X38358640Y-57342697D01*
X38358638Y-57342697D01*
X38186926Y-57315500D01*
X38013074Y-57315500D01*
X37841362Y-57342697D01*
X37841360Y-57342697D01*
X37841357Y-57342698D01*
X37676023Y-57396418D01*
X37676017Y-57396421D01*
X37521112Y-57475349D01*
X37380464Y-57577536D01*
X37257536Y-57700464D01*
X37155349Y-57841112D01*
X37076421Y-57996017D01*
X37076418Y-57996023D01*
X37022698Y-58161357D01*
X37022697Y-58161360D01*
X37022697Y-58161362D01*
X36995500Y-58333074D01*
X25400500Y-58333074D01*
X25400500Y-55793074D01*
X36995500Y-55793074D01*
X36995500Y-55966926D01*
X37022697Y-56138638D01*
X37076420Y-56303981D01*
X37076421Y-56303982D01*
X37155349Y-56458887D01*
X37257536Y-56599535D01*
X37380464Y-56722463D01*
X37380467Y-56722465D01*
X37521116Y-56824653D01*
X37676019Y-56903580D01*
X37841362Y-56957303D01*
X38013074Y-56984500D01*
X38013077Y-56984500D01*
X38186923Y-56984500D01*
X38186926Y-56984500D01*
X38358638Y-56957303D01*
X38523981Y-56903580D01*
X38678884Y-56824653D01*
X38819533Y-56722465D01*
X38942465Y-56599533D01*
X39044653Y-56458884D01*
X39123580Y-56303981D01*
X39177303Y-56138638D01*
X39204500Y-55966926D01*
X39204500Y-55793074D01*
X52235500Y-55793074D01*
X52235500Y-55966926D01*
X52262697Y-56138638D01*
X52316420Y-56303981D01*
X52316421Y-56303982D01*
X52395349Y-56458887D01*
X52497536Y-56599535D01*
X52620464Y-56722463D01*
X52620467Y-56722465D01*
X52761116Y-56824653D01*
X52916019Y-56903580D01*
X53081362Y-56957303D01*
X53253074Y-56984500D01*
X53253077Y-56984500D01*
X53426923Y-56984500D01*
X53426926Y-56984500D01*
X53598638Y-56957303D01*
X53763981Y-56903580D01*
X53918884Y-56824653D01*
X54059533Y-56722465D01*
X54182465Y-56599533D01*
X54284653Y-56458884D01*
X54363580Y-56303981D01*
X54417303Y-56138638D01*
X54444500Y-55966926D01*
X54444500Y-55793074D01*
X54417303Y-55621362D01*
X54363580Y-55456019D01*
X54284653Y-55301116D01*
X54182465Y-55160467D01*
X54182463Y-55160464D01*
X54059535Y-55037536D01*
X53918887Y-54935349D01*
X53918886Y-54935348D01*
X53918884Y-54935347D01*
X53763981Y-54856420D01*
X53763978Y-54856419D01*
X53763976Y-54856418D01*
X53598642Y-54802698D01*
X53598640Y-54802697D01*
X53598638Y-54802697D01*
X53426926Y-54775500D01*
X53253074Y-54775500D01*
X53081362Y-54802697D01*
X53081360Y-54802697D01*
X53081357Y-54802698D01*
X52916023Y-54856418D01*
X52916017Y-54856421D01*
X52761112Y-54935349D01*
X52620464Y-55037536D01*
X52497536Y-55160464D01*
X52395349Y-55301112D01*
X52316421Y-55456017D01*
X52316418Y-55456023D01*
X52262698Y-55621357D01*
X52262697Y-55621360D01*
X52262697Y-55621362D01*
X52235500Y-55793074D01*
X39204500Y-55793074D01*
X39177303Y-55621362D01*
X39123580Y-55456019D01*
X39044653Y-55301116D01*
X38942465Y-55160467D01*
X38942463Y-55160464D01*
X38819535Y-55037536D01*
X38678887Y-54935349D01*
X38678886Y-54935348D01*
X38678884Y-54935347D01*
X38523981Y-54856420D01*
X38523978Y-54856419D01*
X38523976Y-54856418D01*
X38358642Y-54802698D01*
X38358640Y-54802697D01*
X38358638Y-54802697D01*
X38186926Y-54775500D01*
X38013074Y-54775500D01*
X37841362Y-54802697D01*
X37841360Y-54802697D01*
X37841357Y-54802698D01*
X37676023Y-54856418D01*
X37676017Y-54856421D01*
X37521112Y-54935349D01*
X37380464Y-55037536D01*
X37257536Y-55160464D01*
X37155349Y-55301112D01*
X37076421Y-55456017D01*
X37076418Y-55456023D01*
X37022698Y-55621357D01*
X37022697Y-55621360D01*
X37022697Y-55621362D01*
X36995500Y-55793074D01*
X25400500Y-55793074D01*
X25400500Y-53253074D01*
X36995500Y-53253074D01*
X36995500Y-53426926D01*
X37012242Y-53532626D01*
X37022698Y-53598642D01*
X37022698Y-53598643D01*
X37076420Y-53763981D01*
X37155347Y-53918884D01*
X37155349Y-53918887D01*
X37257536Y-54059535D01*
X37380464Y-54182463D01*
X37380467Y-54182465D01*
X37521116Y-54284653D01*
X37676019Y-54363580D01*
X37841362Y-54417303D01*
X38013074Y-54444500D01*
X38013077Y-54444500D01*
X38186923Y-54444500D01*
X38186926Y-54444500D01*
X38358638Y-54417303D01*
X38523981Y-54363580D01*
X38678884Y-54284653D01*
X38819533Y-54182465D01*
X38942465Y-54059533D01*
X39044653Y-53918884D01*
X39123580Y-53763981D01*
X39177303Y-53598638D01*
X39204500Y-53426926D01*
X39204500Y-53253074D01*
X52235500Y-53253074D01*
X52235500Y-53426926D01*
X52252242Y-53532626D01*
X52262698Y-53598642D01*
X52262698Y-53598643D01*
X52316420Y-53763981D01*
X52395347Y-53918884D01*
X52395349Y-53918887D01*
X52497536Y-54059535D01*
X52620464Y-54182463D01*
X52620467Y-54182465D01*
X52761116Y-54284653D01*
X52916019Y-54363580D01*
X53081362Y-54417303D01*
X53253074Y-54444500D01*
X53253077Y-54444500D01*
X53426923Y-54444500D01*
X53426926Y-54444500D01*
X53590866Y-54418534D01*
X60178500Y-54418534D01*
X60178500Y-54547465D01*
X60187178Y-54591092D01*
X60203652Y-54673911D01*
X60252989Y-54793022D01*
X60295349Y-54856418D01*
X60324616Y-54900219D01*
X60324621Y-54900225D01*
X60415774Y-54991378D01*
X60415780Y-54991383D01*
X60522978Y-55063011D01*
X60642089Y-55112348D01*
X60768537Y-55137500D01*
X60768538Y-55137500D01*
X60898616Y-55137500D01*
X60966737Y-55157502D01*
X60987711Y-55174405D01*
X73243595Y-67430289D01*
X73277621Y-67492601D01*
X73280500Y-67519384D01*
X73280500Y-93810614D01*
X73260498Y-93878735D01*
X73243595Y-93899710D01*
X72564594Y-94578710D01*
X72502282Y-94612735D01*
X72431466Y-94607670D01*
X72374631Y-94565123D01*
X72349820Y-94498603D01*
X72349499Y-94489637D01*
X72349499Y-93411746D01*
X72343040Y-93351658D01*
X72292342Y-93215733D01*
X72205404Y-93099596D01*
X72089267Y-93012658D01*
X72089265Y-93012657D01*
X72089266Y-93012657D01*
X71953349Y-92961962D01*
X71953344Y-92961960D01*
X71953342Y-92961960D01*
X71923298Y-92958730D01*
X71893256Y-92955500D01*
X70346753Y-92955500D01*
X70346729Y-92955502D01*
X70286660Y-92961959D01*
X70286658Y-92961959D01*
X70150733Y-93012657D01*
X70034596Y-93099596D01*
X69947657Y-93215734D01*
X69896962Y-93351650D01*
X69896960Y-93351658D01*
X69890500Y-93411737D01*
X69890500Y-94708246D01*
X69890502Y-94708270D01*
X69896959Y-94768339D01*
X69896959Y-94768341D01*
X69947657Y-94904266D01*
X69947658Y-94904267D01*
X70034596Y-95020404D01*
X70150733Y-95107342D01*
X70286658Y-95158040D01*
X70346745Y-95164500D01*
X71674615Y-95164499D01*
X71742736Y-95184501D01*
X71789229Y-95238157D01*
X71799333Y-95308431D01*
X71769840Y-95373011D01*
X71763710Y-95379594D01*
X71676711Y-95466593D01*
X71614399Y-95500619D01*
X71548682Y-95497332D01*
X71503640Y-95482697D01*
X71434953Y-95471818D01*
X71331926Y-95455500D01*
X70908074Y-95455500D01*
X70736362Y-95482697D01*
X70736360Y-95482697D01*
X70736357Y-95482698D01*
X70571023Y-95536418D01*
X70571017Y-95536421D01*
X70416112Y-95615349D01*
X70275464Y-95717536D01*
X70152536Y-95840464D01*
X70050349Y-95981112D01*
X69971421Y-96136017D01*
X69971418Y-96136023D01*
X69917698Y-96301357D01*
X69917697Y-96301360D01*
X69917697Y-96301362D01*
X69890500Y-96473074D01*
X69890500Y-96646926D01*
X69917697Y-96818638D01*
X69971420Y-96983981D01*
X69971421Y-96983982D01*
X70050349Y-97138887D01*
X70152536Y-97279535D01*
X70275464Y-97402463D01*
X70275467Y-97402465D01*
X70416116Y-97504653D01*
X70533318Y-97564370D01*
X70584934Y-97613118D01*
X70602000Y-97682033D01*
X70579100Y-97749235D01*
X70523502Y-97793387D01*
X70515055Y-97796469D01*
X70476785Y-97808904D01*
X70476778Y-97808907D01*
X70287442Y-97905379D01*
X70115531Y-98030280D01*
X70115528Y-98030282D01*
X69965282Y-98180528D01*
X69965280Y-98180531D01*
X69840379Y-98352442D01*
X69743907Y-98541778D01*
X69743904Y-98541784D01*
X69678243Y-98743869D01*
X69667769Y-98810000D01*
X70715854Y-98810000D01*
X70677370Y-98876657D01*
X70645000Y-98997465D01*
X70645000Y-99122535D01*
X70677370Y-99243343D01*
X70715854Y-99310000D01*
X69667769Y-99310000D01*
X69678243Y-99376130D01*
X69743904Y-99578215D01*
X69743907Y-99578221D01*
X69840379Y-99767557D01*
X69965280Y-99939468D01*
X69965282Y-99939471D01*
X70115528Y-100089717D01*
X70115531Y-100089719D01*
X70287442Y-100214620D01*
X70476778Y-100311092D01*
X70476784Y-100311095D01*
X70678870Y-100376756D01*
X70678868Y-100376756D01*
X70870000Y-100407028D01*
X70870000Y-99464145D01*
X70936657Y-99502630D01*
X71057465Y-99535000D01*
X71182535Y-99535000D01*
X71303343Y-99502630D01*
X71370000Y-99464145D01*
X71370000Y-100407028D01*
X71561130Y-100376756D01*
X71763215Y-100311095D01*
X71763221Y-100311092D01*
X71952557Y-100214620D01*
X72124468Y-100089719D01*
X72124471Y-100089717D01*
X72274717Y-99939471D01*
X72274719Y-99939468D01*
X72399620Y-99767557D01*
X72496092Y-99578221D01*
X72496095Y-99578215D01*
X72561756Y-99376130D01*
X72572231Y-99310000D01*
X71524146Y-99310000D01*
X71562630Y-99243343D01*
X71595000Y-99122535D01*
X71595000Y-98997465D01*
X71562630Y-98876657D01*
X71524146Y-98810000D01*
X72572230Y-98810000D01*
X72561756Y-98743869D01*
X72496095Y-98541784D01*
X72496092Y-98541778D01*
X72399620Y-98352442D01*
X72274719Y-98180531D01*
X72274717Y-98180528D01*
X72124471Y-98030282D01*
X72124468Y-98030280D01*
X71952557Y-97905379D01*
X71763221Y-97808907D01*
X71763222Y-97808907D01*
X71724945Y-97796470D01*
X71666340Y-97756395D01*
X71638704Y-97690998D01*
X71650812Y-97621042D01*
X71698818Y-97568736D01*
X71706661Y-97564380D01*
X71823884Y-97504653D01*
X71964533Y-97402465D01*
X72087465Y-97279533D01*
X72189653Y-97138884D01*
X72268580Y-96983981D01*
X72322303Y-96818638D01*
X72349500Y-96646926D01*
X72349500Y-96473074D01*
X72322303Y-96301362D01*
X72268580Y-96136019D01*
X72246713Y-96093104D01*
X72233609Y-96023330D01*
X72260308Y-95957545D01*
X72269876Y-95946816D01*
X73882642Y-94334050D01*
X73882652Y-94334043D01*
X73963670Y-94253025D01*
X73963676Y-94253019D01*
X74013638Y-94166482D01*
X74039500Y-94069962D01*
X74039500Y-67260038D01*
X74013638Y-67163518D01*
X74013636Y-67163515D01*
X74013636Y-67163513D01*
X73963678Y-67076984D01*
X73963670Y-67076974D01*
X73888630Y-67001934D01*
X73888607Y-67001913D01*
X61524405Y-54637711D01*
X61490379Y-54575399D01*
X61487500Y-54548616D01*
X61487500Y-54418538D01*
X61487499Y-54418534D01*
X61462348Y-54292089D01*
X61413011Y-54172978D01*
X61341383Y-54065780D01*
X61341378Y-54065774D01*
X61250225Y-53974621D01*
X61250219Y-53974616D01*
X61214649Y-53950849D01*
X61143022Y-53902989D01*
X61023911Y-53853652D01*
X60897465Y-53828500D01*
X60897463Y-53828500D01*
X60768537Y-53828500D01*
X60768534Y-53828500D01*
X60642088Y-53853652D01*
X60642083Y-53853654D01*
X60522978Y-53902989D01*
X60415780Y-53974616D01*
X60415774Y-53974621D01*
X60324621Y-54065774D01*
X60324616Y-54065780D01*
X60252989Y-54172978D01*
X60203654Y-54292083D01*
X60203652Y-54292088D01*
X60178500Y-54418534D01*
X53590866Y-54418534D01*
X53598638Y-54417303D01*
X53763981Y-54363580D01*
X53918884Y-54284653D01*
X54059533Y-54182465D01*
X54182465Y-54059533D01*
X54284653Y-53918884D01*
X54363580Y-53763981D01*
X54417303Y-53598638D01*
X54444500Y-53426926D01*
X54444500Y-53253074D01*
X54418671Y-53090000D01*
X69642769Y-53090000D01*
X70686988Y-53090000D01*
X70654075Y-53147007D01*
X70620000Y-53274174D01*
X70620000Y-53405826D01*
X70654075Y-53532993D01*
X70686988Y-53590000D01*
X69642769Y-53590000D01*
X69653243Y-53656130D01*
X69718904Y-53858215D01*
X69718907Y-53858221D01*
X69815379Y-54047557D01*
X69940280Y-54219468D01*
X69940282Y-54219471D01*
X70090528Y-54369717D01*
X70090531Y-54369719D01*
X70262442Y-54494620D01*
X70451778Y-54591092D01*
X70451784Y-54591095D01*
X70653870Y-54656756D01*
X70653866Y-54656756D01*
X70863756Y-54690000D01*
X70870000Y-54690000D01*
X70870000Y-53773012D01*
X70927007Y-53805925D01*
X71054174Y-53840000D01*
X71185826Y-53840000D01*
X71312993Y-53805925D01*
X71370000Y-53773012D01*
X71370000Y-54690000D01*
X71376244Y-54690000D01*
X71586131Y-54656756D01*
X71788215Y-54591095D01*
X71788221Y-54591092D01*
X71977557Y-54494620D01*
X72149468Y-54369719D01*
X72149471Y-54369717D01*
X72299717Y-54219471D01*
X72299719Y-54219468D01*
X72424620Y-54047557D01*
X72521092Y-53858221D01*
X72521095Y-53858215D01*
X72586756Y-53656130D01*
X72597231Y-53590000D01*
X71553012Y-53590000D01*
X71585925Y-53532993D01*
X71620000Y-53405826D01*
X71620000Y-53274174D01*
X71585925Y-53147007D01*
X71553012Y-53090000D01*
X72597230Y-53090000D01*
X72586756Y-53023869D01*
X72521095Y-52821784D01*
X72521092Y-52821778D01*
X72424620Y-52632442D01*
X72299719Y-52460531D01*
X72299717Y-52460528D01*
X72149471Y-52310282D01*
X72149468Y-52310280D01*
X71977554Y-52185377D01*
X71952171Y-52172444D01*
X71900555Y-52123697D01*
X71883489Y-52054782D01*
X71906389Y-51987580D01*
X71961986Y-51943427D01*
X71975200Y-51939211D01*
X71978338Y-51938040D01*
X71978342Y-51938040D01*
X72114267Y-51887342D01*
X72230404Y-51800404D01*
X72317342Y-51684267D01*
X72368040Y-51548342D01*
X72374500Y-51488255D01*
X72374499Y-50191746D01*
X72368040Y-50131658D01*
X72317342Y-49995733D01*
X72230404Y-49879596D01*
X72114267Y-49792658D01*
X72114265Y-49792657D01*
X72114266Y-49792657D01*
X71978349Y-49741962D01*
X71978344Y-49741960D01*
X71978342Y-49741960D01*
X71948298Y-49738730D01*
X71918256Y-49735500D01*
X70321753Y-49735500D01*
X70321729Y-49735502D01*
X70261660Y-49741959D01*
X70261658Y-49741959D01*
X70125733Y-49792657D01*
X70009596Y-49879596D01*
X69922657Y-49995734D01*
X69871962Y-50131650D01*
X69871960Y-50131658D01*
X69865500Y-50191737D01*
X69865500Y-51488246D01*
X69865502Y-51488270D01*
X69871959Y-51548339D01*
X69871959Y-51548341D01*
X69922657Y-51684266D01*
X69922658Y-51684267D01*
X70009596Y-51800404D01*
X70125733Y-51887342D01*
X70269043Y-51940795D01*
X70268386Y-51942556D01*
X70321296Y-51972685D01*
X70354205Y-52035594D01*
X70347878Y-52106308D01*
X70304324Y-52162376D01*
X70287829Y-52172444D01*
X70262443Y-52185378D01*
X70090531Y-52310280D01*
X70090528Y-52310282D01*
X69940282Y-52460528D01*
X69940280Y-52460531D01*
X69815379Y-52632442D01*
X69718907Y-52821778D01*
X69718904Y-52821784D01*
X69653243Y-53023869D01*
X69642769Y-53090000D01*
X54418671Y-53090000D01*
X54417303Y-53081362D01*
X54363580Y-52916019D01*
X54284653Y-52761116D01*
X54249592Y-52712859D01*
X54182463Y-52620464D01*
X54059535Y-52497536D01*
X53918887Y-52395349D01*
X53918886Y-52395348D01*
X53918884Y-52395347D01*
X53763981Y-52316420D01*
X53763978Y-52316419D01*
X53763976Y-52316418D01*
X53598642Y-52262698D01*
X53598640Y-52262697D01*
X53598638Y-52262697D01*
X53426926Y-52235500D01*
X53253074Y-52235500D01*
X53081362Y-52262697D01*
X53081360Y-52262697D01*
X53081357Y-52262698D01*
X52916023Y-52316418D01*
X52916017Y-52316421D01*
X52761112Y-52395349D01*
X52620464Y-52497536D01*
X52497536Y-52620464D01*
X52395349Y-52761112D01*
X52316421Y-52916017D01*
X52316418Y-52916023D01*
X52262698Y-53081357D01*
X52262697Y-53081360D01*
X52262697Y-53081362D01*
X52235500Y-53253074D01*
X39204500Y-53253074D01*
X39177303Y-53081362D01*
X39123580Y-52916019D01*
X39044653Y-52761116D01*
X39009592Y-52712859D01*
X38942463Y-52620464D01*
X38819535Y-52497536D01*
X38678887Y-52395349D01*
X38678886Y-52395348D01*
X38678884Y-52395347D01*
X38523981Y-52316420D01*
X38523978Y-52316419D01*
X38523976Y-52316418D01*
X38358642Y-52262698D01*
X38358640Y-52262697D01*
X38358638Y-52262697D01*
X38186926Y-52235500D01*
X38013074Y-52235500D01*
X37841362Y-52262697D01*
X37841360Y-52262697D01*
X37841357Y-52262698D01*
X37676023Y-52316418D01*
X37676017Y-52316421D01*
X37521112Y-52395349D01*
X37380464Y-52497536D01*
X37257536Y-52620464D01*
X37155349Y-52761112D01*
X37076421Y-52916017D01*
X37076418Y-52916023D01*
X37022698Y-53081357D01*
X37022697Y-53081360D01*
X37022697Y-53081362D01*
X36995500Y-53253074D01*
X25400500Y-53253074D01*
X25400500Y-50713074D01*
X36995500Y-50713074D01*
X36995500Y-50886926D01*
X37022697Y-51058638D01*
X37076420Y-51223981D01*
X37076421Y-51223982D01*
X37155349Y-51378887D01*
X37257536Y-51519535D01*
X37380464Y-51642463D01*
X37380467Y-51642465D01*
X37521116Y-51744653D01*
X37676019Y-51823580D01*
X37841362Y-51877303D01*
X38013074Y-51904500D01*
X38013077Y-51904500D01*
X38186923Y-51904500D01*
X38186926Y-51904500D01*
X38358638Y-51877303D01*
X38523981Y-51823580D01*
X38678884Y-51744653D01*
X38819533Y-51642465D01*
X38942465Y-51519533D01*
X39044653Y-51378884D01*
X39123580Y-51223981D01*
X39177303Y-51058638D01*
X39204500Y-50886926D01*
X39204500Y-50713074D01*
X52235500Y-50713074D01*
X52235500Y-50886926D01*
X52262697Y-51058638D01*
X52316420Y-51223981D01*
X52316421Y-51223982D01*
X52395349Y-51378887D01*
X52497536Y-51519535D01*
X52620464Y-51642463D01*
X52620467Y-51642465D01*
X52761116Y-51744653D01*
X52916019Y-51823580D01*
X53081362Y-51877303D01*
X53253074Y-51904500D01*
X53253077Y-51904500D01*
X53426923Y-51904500D01*
X53426926Y-51904500D01*
X53598638Y-51877303D01*
X53763981Y-51823580D01*
X53918884Y-51744653D01*
X54059533Y-51642465D01*
X54182465Y-51519533D01*
X54284653Y-51378884D01*
X54363580Y-51223981D01*
X54417303Y-51058638D01*
X54444500Y-50886926D01*
X54444500Y-50713074D01*
X54417303Y-50541362D01*
X54363580Y-50376019D01*
X54284653Y-50221116D01*
X54182465Y-50080467D01*
X54182463Y-50080464D01*
X54059535Y-49957536D01*
X53918887Y-49855349D01*
X53918886Y-49855348D01*
X53918884Y-49855347D01*
X53763981Y-49776420D01*
X53763978Y-49776419D01*
X53763976Y-49776418D01*
X53598642Y-49722698D01*
X53598640Y-49722697D01*
X53598638Y-49722697D01*
X53426926Y-49695500D01*
X53253074Y-49695500D01*
X53081362Y-49722697D01*
X53081360Y-49722697D01*
X53081357Y-49722698D01*
X52916023Y-49776418D01*
X52916017Y-49776421D01*
X52761112Y-49855349D01*
X52620464Y-49957536D01*
X52497536Y-50080464D01*
X52395349Y-50221112D01*
X52316421Y-50376017D01*
X52316418Y-50376023D01*
X52262698Y-50541357D01*
X52262697Y-50541360D01*
X52262697Y-50541362D01*
X52235500Y-50713074D01*
X39204500Y-50713074D01*
X39177303Y-50541362D01*
X39123580Y-50376019D01*
X39044653Y-50221116D01*
X38942465Y-50080467D01*
X38942463Y-50080464D01*
X38819535Y-49957536D01*
X38678887Y-49855349D01*
X38678886Y-49855348D01*
X38678884Y-49855347D01*
X38523981Y-49776420D01*
X38523978Y-49776419D01*
X38523976Y-49776418D01*
X38358642Y-49722698D01*
X38358640Y-49722697D01*
X38358638Y-49722697D01*
X38186926Y-49695500D01*
X38013074Y-49695500D01*
X37841362Y-49722697D01*
X37841360Y-49722697D01*
X37841357Y-49722698D01*
X37676023Y-49776418D01*
X37676017Y-49776421D01*
X37521112Y-49855349D01*
X37380464Y-49957536D01*
X37257536Y-50080464D01*
X37155349Y-50221112D01*
X37076421Y-50376017D01*
X37076418Y-50376023D01*
X37022698Y-50541357D01*
X37022697Y-50541360D01*
X37022697Y-50541362D01*
X36995500Y-50713074D01*
X25400500Y-50713074D01*
X25400500Y-48173074D01*
X36995500Y-48173074D01*
X36995500Y-48346926D01*
X37022697Y-48518638D01*
X37076420Y-48683981D01*
X37076421Y-48683982D01*
X37155349Y-48838887D01*
X37257536Y-48979535D01*
X37380464Y-49102463D01*
X37380467Y-49102465D01*
X37521116Y-49204653D01*
X37676019Y-49283580D01*
X37841362Y-49337303D01*
X38013074Y-49364500D01*
X38013077Y-49364500D01*
X38186923Y-49364500D01*
X38186926Y-49364500D01*
X38358638Y-49337303D01*
X38523981Y-49283580D01*
X38678884Y-49204653D01*
X38819533Y-49102465D01*
X38942465Y-48979533D01*
X39044653Y-48838884D01*
X39123580Y-48683981D01*
X39177303Y-48518638D01*
X39204500Y-48346926D01*
X39204500Y-48173074D01*
X52235500Y-48173074D01*
X52235500Y-48346926D01*
X52262697Y-48518638D01*
X52316420Y-48683981D01*
X52316421Y-48683982D01*
X52395349Y-48838887D01*
X52497536Y-48979535D01*
X52620464Y-49102463D01*
X52620467Y-49102465D01*
X52761116Y-49204653D01*
X52916019Y-49283580D01*
X53081362Y-49337303D01*
X53253074Y-49364500D01*
X53253077Y-49364500D01*
X53426923Y-49364500D01*
X53426926Y-49364500D01*
X53598638Y-49337303D01*
X53763981Y-49283580D01*
X53918884Y-49204653D01*
X54059533Y-49102465D01*
X54182465Y-48979533D01*
X54284653Y-48838884D01*
X54363580Y-48683981D01*
X54417303Y-48518638D01*
X54444500Y-48346926D01*
X54444500Y-48173074D01*
X54417303Y-48001362D01*
X54363580Y-47836019D01*
X54284653Y-47681116D01*
X54182465Y-47540467D01*
X54182463Y-47540464D01*
X54059535Y-47417536D01*
X53918887Y-47315349D01*
X53918886Y-47315348D01*
X53918884Y-47315347D01*
X53763981Y-47236420D01*
X53763978Y-47236419D01*
X53763976Y-47236418D01*
X53598642Y-47182698D01*
X53598640Y-47182697D01*
X53598638Y-47182697D01*
X53426926Y-47155500D01*
X53253074Y-47155500D01*
X53081362Y-47182697D01*
X53081360Y-47182697D01*
X53081357Y-47182698D01*
X52916023Y-47236418D01*
X52916017Y-47236421D01*
X52761112Y-47315349D01*
X52620464Y-47417536D01*
X52497536Y-47540464D01*
X52395349Y-47681112D01*
X52316421Y-47836017D01*
X52316418Y-47836023D01*
X52262698Y-48001357D01*
X52262697Y-48001360D01*
X52262697Y-48001362D01*
X52235500Y-48173074D01*
X39204500Y-48173074D01*
X39177303Y-48001362D01*
X39123580Y-47836019D01*
X39044653Y-47681116D01*
X38942465Y-47540467D01*
X38942463Y-47540464D01*
X38819535Y-47417536D01*
X38678887Y-47315349D01*
X38678886Y-47315348D01*
X38678884Y-47315347D01*
X38523981Y-47236420D01*
X38523978Y-47236419D01*
X38523976Y-47236418D01*
X38358642Y-47182698D01*
X38358640Y-47182697D01*
X38358638Y-47182697D01*
X38186926Y-47155500D01*
X38013074Y-47155500D01*
X37841362Y-47182697D01*
X37841360Y-47182697D01*
X37841357Y-47182698D01*
X37676023Y-47236418D01*
X37676017Y-47236421D01*
X37521112Y-47315349D01*
X37380464Y-47417536D01*
X37257536Y-47540464D01*
X37155349Y-47681112D01*
X37076421Y-47836017D01*
X37076418Y-47836023D01*
X37022698Y-48001357D01*
X37022697Y-48001360D01*
X37022697Y-48001362D01*
X36995500Y-48173074D01*
X25400500Y-48173074D01*
X25400500Y-45633074D01*
X36995500Y-45633074D01*
X36995500Y-45806926D01*
X37022697Y-45978638D01*
X37076420Y-46143981D01*
X37076421Y-46143982D01*
X37155349Y-46298887D01*
X37257536Y-46439535D01*
X37380464Y-46562463D01*
X37380467Y-46562465D01*
X37521116Y-46664653D01*
X37676019Y-46743580D01*
X37841362Y-46797303D01*
X38013074Y-46824500D01*
X38013077Y-46824500D01*
X38186923Y-46824500D01*
X38186926Y-46824500D01*
X38358638Y-46797303D01*
X38523981Y-46743580D01*
X38678884Y-46664653D01*
X38819533Y-46562465D01*
X38942465Y-46439533D01*
X39044653Y-46298884D01*
X39123580Y-46143981D01*
X39177303Y-45978638D01*
X39204500Y-45806926D01*
X39204500Y-45633074D01*
X52235500Y-45633074D01*
X52235500Y-45806926D01*
X52262697Y-45978638D01*
X52316420Y-46143981D01*
X52316421Y-46143982D01*
X52395349Y-46298887D01*
X52497536Y-46439535D01*
X52620464Y-46562463D01*
X52620467Y-46562465D01*
X52761116Y-46664653D01*
X52916019Y-46743580D01*
X53081362Y-46797303D01*
X53253074Y-46824500D01*
X53253077Y-46824500D01*
X53426923Y-46824500D01*
X53426926Y-46824500D01*
X53598638Y-46797303D01*
X53763981Y-46743580D01*
X53918884Y-46664653D01*
X54059533Y-46562465D01*
X54182465Y-46439533D01*
X54284653Y-46298884D01*
X54363580Y-46143981D01*
X54417303Y-45978638D01*
X54444500Y-45806926D01*
X54444500Y-45633074D01*
X54417303Y-45461362D01*
X54363580Y-45296019D01*
X54284653Y-45141116D01*
X54182465Y-45000467D01*
X54182463Y-45000464D01*
X54059535Y-44877536D01*
X53918887Y-44775349D01*
X53918886Y-44775348D01*
X53918884Y-44775347D01*
X53763981Y-44696420D01*
X53763978Y-44696419D01*
X53763976Y-44696418D01*
X53598642Y-44642698D01*
X53598640Y-44642697D01*
X53598638Y-44642697D01*
X53426926Y-44615500D01*
X53253074Y-44615500D01*
X53081362Y-44642697D01*
X53081360Y-44642697D01*
X53081357Y-44642698D01*
X52916023Y-44696418D01*
X52916017Y-44696421D01*
X52761112Y-44775349D01*
X52620464Y-44877536D01*
X52497536Y-45000464D01*
X52395349Y-45141112D01*
X52316421Y-45296017D01*
X52316418Y-45296023D01*
X52262698Y-45461357D01*
X52262697Y-45461360D01*
X52262697Y-45461362D01*
X52235500Y-45633074D01*
X39204500Y-45633074D01*
X39177303Y-45461362D01*
X39123580Y-45296019D01*
X39044653Y-45141116D01*
X38942465Y-45000467D01*
X38942463Y-45000464D01*
X38819535Y-44877536D01*
X38678887Y-44775349D01*
X38678886Y-44775348D01*
X38678884Y-44775347D01*
X38523981Y-44696420D01*
X38523978Y-44696419D01*
X38523976Y-44696418D01*
X38358642Y-44642698D01*
X38358640Y-44642697D01*
X38358638Y-44642697D01*
X38186926Y-44615500D01*
X38013074Y-44615500D01*
X37841362Y-44642697D01*
X37841360Y-44642697D01*
X37841357Y-44642698D01*
X37676023Y-44696418D01*
X37676017Y-44696421D01*
X37521112Y-44775349D01*
X37380464Y-44877536D01*
X37257536Y-45000464D01*
X37155349Y-45141112D01*
X37076421Y-45296017D01*
X37076418Y-45296023D01*
X37022698Y-45461357D01*
X37022697Y-45461360D01*
X37022697Y-45461362D01*
X36995500Y-45633074D01*
X25400500Y-45633074D01*
X25400500Y-43093074D01*
X36995500Y-43093074D01*
X36995500Y-43266926D01*
X37012242Y-43372626D01*
X37022698Y-43438642D01*
X37022698Y-43438643D01*
X37076420Y-43603981D01*
X37076421Y-43603982D01*
X37155349Y-43758887D01*
X37257536Y-43899535D01*
X37380464Y-44022463D01*
X37380467Y-44022465D01*
X37521116Y-44124653D01*
X37676019Y-44203580D01*
X37841362Y-44257303D01*
X38013074Y-44284500D01*
X38013077Y-44284500D01*
X38186923Y-44284500D01*
X38186926Y-44284500D01*
X38358638Y-44257303D01*
X38523981Y-44203580D01*
X38678884Y-44124653D01*
X38819533Y-44022465D01*
X38942465Y-43899533D01*
X39044653Y-43758884D01*
X39123580Y-43603981D01*
X39177303Y-43438638D01*
X39204500Y-43266926D01*
X39204500Y-43093074D01*
X52235500Y-43093074D01*
X52235500Y-43266926D01*
X52252242Y-43372626D01*
X52262698Y-43438642D01*
X52262698Y-43438643D01*
X52316420Y-43603981D01*
X52316421Y-43603982D01*
X52395349Y-43758887D01*
X52497536Y-43899535D01*
X52620464Y-44022463D01*
X52620467Y-44022465D01*
X52761116Y-44124653D01*
X52916019Y-44203580D01*
X53081362Y-44257303D01*
X53253074Y-44284500D01*
X53253077Y-44284500D01*
X53426923Y-44284500D01*
X53426926Y-44284500D01*
X53598638Y-44257303D01*
X53763981Y-44203580D01*
X53918884Y-44124653D01*
X54059533Y-44022465D01*
X54182465Y-43899533D01*
X54284653Y-43758884D01*
X54363580Y-43603981D01*
X54417303Y-43438638D01*
X54444500Y-43266926D01*
X54444500Y-43093074D01*
X54418671Y-42930000D01*
X69642769Y-42930000D01*
X70686988Y-42930000D01*
X70654075Y-42987007D01*
X70620000Y-43114174D01*
X70620000Y-43245826D01*
X70654075Y-43372993D01*
X70686988Y-43430000D01*
X69642769Y-43430000D01*
X69653243Y-43496130D01*
X69718904Y-43698215D01*
X69718907Y-43698221D01*
X69815379Y-43887557D01*
X69940280Y-44059468D01*
X69940282Y-44059471D01*
X70090528Y-44209717D01*
X70090531Y-44209719D01*
X70262442Y-44334620D01*
X70451778Y-44431092D01*
X70451784Y-44431095D01*
X70653870Y-44496756D01*
X70653866Y-44496756D01*
X70863756Y-44530000D01*
X70870000Y-44530000D01*
X70870000Y-43613012D01*
X70927007Y-43645925D01*
X71054174Y-43680000D01*
X71185826Y-43680000D01*
X71312993Y-43645925D01*
X71370000Y-43613012D01*
X71370000Y-44530000D01*
X71376244Y-44530000D01*
X71586131Y-44496756D01*
X71788215Y-44431095D01*
X71788221Y-44431092D01*
X71977557Y-44334620D01*
X72149468Y-44209719D01*
X72149471Y-44209717D01*
X72299717Y-44059471D01*
X72299719Y-44059468D01*
X72424620Y-43887557D01*
X72521092Y-43698221D01*
X72521095Y-43698215D01*
X72586756Y-43496130D01*
X72597231Y-43430000D01*
X71553012Y-43430000D01*
X71585925Y-43372993D01*
X71620000Y-43245826D01*
X71620000Y-43114174D01*
X71585925Y-42987007D01*
X71553012Y-42930000D01*
X72597230Y-42930000D01*
X72586756Y-42863869D01*
X72521095Y-42661784D01*
X72521092Y-42661778D01*
X72424620Y-42472442D01*
X72299719Y-42300531D01*
X72299717Y-42300528D01*
X72149471Y-42150282D01*
X72149468Y-42150280D01*
X71977554Y-42025377D01*
X71952171Y-42012444D01*
X71900555Y-41963697D01*
X71883489Y-41894782D01*
X71906389Y-41827580D01*
X71961986Y-41783427D01*
X71975200Y-41779211D01*
X71978338Y-41778040D01*
X71978342Y-41778040D01*
X72114267Y-41727342D01*
X72230404Y-41640404D01*
X72317342Y-41524267D01*
X72368040Y-41388342D01*
X72374500Y-41328255D01*
X72374499Y-40031746D01*
X72368040Y-39971658D01*
X72317342Y-39835733D01*
X72230404Y-39719596D01*
X72114267Y-39632658D01*
X72114265Y-39632657D01*
X72114266Y-39632657D01*
X71978349Y-39581962D01*
X71978344Y-39581960D01*
X71978342Y-39581960D01*
X71948298Y-39578730D01*
X71918256Y-39575500D01*
X70321753Y-39575500D01*
X70321729Y-39575502D01*
X70261660Y-39581959D01*
X70261658Y-39581959D01*
X70125733Y-39632657D01*
X70009596Y-39719596D01*
X69922657Y-39835734D01*
X69871962Y-39971650D01*
X69871960Y-39971658D01*
X69865500Y-40031737D01*
X69865500Y-41328246D01*
X69865502Y-41328270D01*
X69871959Y-41388339D01*
X69871959Y-41388341D01*
X69922657Y-41524266D01*
X69922658Y-41524267D01*
X70009596Y-41640404D01*
X70125733Y-41727342D01*
X70269043Y-41780795D01*
X70268386Y-41782556D01*
X70321296Y-41812685D01*
X70354205Y-41875594D01*
X70347878Y-41946308D01*
X70304324Y-42002376D01*
X70287829Y-42012444D01*
X70262443Y-42025378D01*
X70090531Y-42150280D01*
X70090528Y-42150282D01*
X69940282Y-42300528D01*
X69940280Y-42300531D01*
X69815379Y-42472442D01*
X69718907Y-42661778D01*
X69718904Y-42661784D01*
X69653243Y-42863869D01*
X69642769Y-42930000D01*
X54418671Y-42930000D01*
X54417303Y-42921362D01*
X54363580Y-42756019D01*
X54284653Y-42601116D01*
X54249592Y-42552859D01*
X54182463Y-42460464D01*
X54059535Y-42337536D01*
X53918887Y-42235349D01*
X53918886Y-42235348D01*
X53918884Y-42235347D01*
X53763981Y-42156420D01*
X53763978Y-42156419D01*
X53763976Y-42156418D01*
X53598642Y-42102698D01*
X53598640Y-42102697D01*
X53598638Y-42102697D01*
X53426926Y-42075500D01*
X53253074Y-42075500D01*
X53081362Y-42102697D01*
X53081360Y-42102697D01*
X53081357Y-42102698D01*
X52916023Y-42156418D01*
X52916017Y-42156421D01*
X52761112Y-42235349D01*
X52620464Y-42337536D01*
X52497536Y-42460464D01*
X52395349Y-42601112D01*
X52316421Y-42756017D01*
X52316418Y-42756023D01*
X52262698Y-42921357D01*
X52262697Y-42921360D01*
X52262697Y-42921362D01*
X52235500Y-43093074D01*
X39204500Y-43093074D01*
X39177303Y-42921362D01*
X39123580Y-42756019D01*
X39044653Y-42601116D01*
X39009592Y-42552859D01*
X38942463Y-42460464D01*
X38819535Y-42337536D01*
X38678887Y-42235349D01*
X38678886Y-42235348D01*
X38678884Y-42235347D01*
X38523981Y-42156420D01*
X38523978Y-42156419D01*
X38523976Y-42156418D01*
X38358642Y-42102698D01*
X38358640Y-42102697D01*
X38358638Y-42102697D01*
X38186926Y-42075500D01*
X38013074Y-42075500D01*
X37841362Y-42102697D01*
X37841360Y-42102697D01*
X37841357Y-42102698D01*
X37676023Y-42156418D01*
X37676017Y-42156421D01*
X37521112Y-42235349D01*
X37380464Y-42337536D01*
X37257536Y-42460464D01*
X37155349Y-42601112D01*
X37076421Y-42756017D01*
X37076418Y-42756023D01*
X37022698Y-42921357D01*
X37022697Y-42921360D01*
X37022697Y-42921362D01*
X36995500Y-43093074D01*
X25400500Y-43093074D01*
X25400500Y-40553074D01*
X36995500Y-40553074D01*
X36995500Y-40726926D01*
X37022697Y-40898638D01*
X37076420Y-41063981D01*
X37076421Y-41063982D01*
X37155349Y-41218887D01*
X37257536Y-41359535D01*
X37380464Y-41482463D01*
X37380467Y-41482465D01*
X37521116Y-41584653D01*
X37676019Y-41663580D01*
X37841362Y-41717303D01*
X38013074Y-41744500D01*
X38013077Y-41744500D01*
X38186923Y-41744500D01*
X38186926Y-41744500D01*
X38358638Y-41717303D01*
X38523981Y-41663580D01*
X38678884Y-41584653D01*
X38819533Y-41482465D01*
X38942465Y-41359533D01*
X39044653Y-41218884D01*
X39123580Y-41063981D01*
X39177303Y-40898638D01*
X39204500Y-40726926D01*
X39204500Y-40553074D01*
X52235500Y-40553074D01*
X52235500Y-40726926D01*
X52262697Y-40898638D01*
X52316420Y-41063981D01*
X52316421Y-41063982D01*
X52395349Y-41218887D01*
X52497536Y-41359535D01*
X52620464Y-41482463D01*
X52620467Y-41482465D01*
X52761116Y-41584653D01*
X52916019Y-41663580D01*
X53081362Y-41717303D01*
X53253074Y-41744500D01*
X53253077Y-41744500D01*
X53426923Y-41744500D01*
X53426926Y-41744500D01*
X53598638Y-41717303D01*
X53763981Y-41663580D01*
X53918884Y-41584653D01*
X54059533Y-41482465D01*
X54182465Y-41359533D01*
X54284653Y-41218884D01*
X54363580Y-41063981D01*
X54417303Y-40898638D01*
X54444500Y-40726926D01*
X54444500Y-40553074D01*
X54417303Y-40381362D01*
X54363580Y-40216019D01*
X54284653Y-40061116D01*
X54182465Y-39920467D01*
X54182463Y-39920464D01*
X54059535Y-39797536D01*
X53918887Y-39695349D01*
X53918886Y-39695348D01*
X53918884Y-39695347D01*
X53763981Y-39616420D01*
X53763978Y-39616419D01*
X53763976Y-39616418D01*
X53598642Y-39562698D01*
X53598640Y-39562697D01*
X53598638Y-39562697D01*
X53426926Y-39535500D01*
X53253074Y-39535500D01*
X53081362Y-39562697D01*
X53081360Y-39562697D01*
X53081357Y-39562698D01*
X52916023Y-39616418D01*
X52916017Y-39616421D01*
X52761112Y-39695349D01*
X52620464Y-39797536D01*
X52497536Y-39920464D01*
X52395349Y-40061112D01*
X52316421Y-40216017D01*
X52316418Y-40216023D01*
X52262698Y-40381357D01*
X52262697Y-40381360D01*
X52262697Y-40381362D01*
X52235500Y-40553074D01*
X39204500Y-40553074D01*
X39177303Y-40381362D01*
X39123580Y-40216019D01*
X39044653Y-40061116D01*
X38942465Y-39920467D01*
X38942463Y-39920464D01*
X38819535Y-39797536D01*
X38678887Y-39695349D01*
X38678886Y-39695348D01*
X38678884Y-39695347D01*
X38523981Y-39616420D01*
X38523978Y-39616419D01*
X38523976Y-39616418D01*
X38358642Y-39562698D01*
X38358640Y-39562697D01*
X38358638Y-39562697D01*
X38186926Y-39535500D01*
X38013074Y-39535500D01*
X37841362Y-39562697D01*
X37841360Y-39562697D01*
X37841357Y-39562698D01*
X37676023Y-39616418D01*
X37676017Y-39616421D01*
X37521112Y-39695349D01*
X37380464Y-39797536D01*
X37257536Y-39920464D01*
X37155349Y-40061112D01*
X37076421Y-40216017D01*
X37076418Y-40216023D01*
X37022698Y-40381357D01*
X37022697Y-40381360D01*
X37022697Y-40381362D01*
X36995500Y-40553074D01*
X25400500Y-40553074D01*
X25400500Y-38013074D01*
X36995500Y-38013074D01*
X36995500Y-38186926D01*
X37022697Y-38358638D01*
X37076420Y-38523981D01*
X37076421Y-38523982D01*
X37155349Y-38678887D01*
X37257536Y-38819535D01*
X37380464Y-38942463D01*
X37380467Y-38942465D01*
X37521116Y-39044653D01*
X37676019Y-39123580D01*
X37841362Y-39177303D01*
X38013074Y-39204500D01*
X38013077Y-39204500D01*
X38186923Y-39204500D01*
X38186926Y-39204500D01*
X38358638Y-39177303D01*
X38523981Y-39123580D01*
X38678884Y-39044653D01*
X38819533Y-38942465D01*
X38942465Y-38819533D01*
X39044653Y-38678884D01*
X39123580Y-38523981D01*
X39177303Y-38358638D01*
X39204500Y-38186926D01*
X39204500Y-38013074D01*
X52235500Y-38013074D01*
X52235500Y-38186926D01*
X52262697Y-38358638D01*
X52316420Y-38523981D01*
X52316421Y-38523982D01*
X52395349Y-38678887D01*
X52497536Y-38819535D01*
X52620464Y-38942463D01*
X52620467Y-38942465D01*
X52761116Y-39044653D01*
X52916019Y-39123580D01*
X53081362Y-39177303D01*
X53253074Y-39204500D01*
X53253077Y-39204500D01*
X53426923Y-39204500D01*
X53426926Y-39204500D01*
X53598638Y-39177303D01*
X53763981Y-39123580D01*
X53918884Y-39044653D01*
X54059533Y-38942465D01*
X54182465Y-38819533D01*
X54284653Y-38678884D01*
X54363580Y-38523981D01*
X54417303Y-38358638D01*
X54444500Y-38186926D01*
X54444500Y-38013074D01*
X54417303Y-37841362D01*
X54363580Y-37676019D01*
X54284653Y-37521116D01*
X54182465Y-37380467D01*
X54182463Y-37380464D01*
X54059535Y-37257536D01*
X53918887Y-37155349D01*
X53918886Y-37155348D01*
X53918884Y-37155347D01*
X53763981Y-37076420D01*
X53763978Y-37076419D01*
X53763976Y-37076418D01*
X53598642Y-37022698D01*
X53598640Y-37022697D01*
X53598638Y-37022697D01*
X53426926Y-36995500D01*
X53253074Y-36995500D01*
X53081362Y-37022697D01*
X53081360Y-37022697D01*
X53081357Y-37022698D01*
X52916023Y-37076418D01*
X52916017Y-37076421D01*
X52761112Y-37155349D01*
X52620464Y-37257536D01*
X52497536Y-37380464D01*
X52395349Y-37521112D01*
X52316421Y-37676017D01*
X52316418Y-37676023D01*
X52262698Y-37841357D01*
X52262697Y-37841360D01*
X52262697Y-37841362D01*
X52235500Y-38013074D01*
X39204500Y-38013074D01*
X39177303Y-37841362D01*
X39123580Y-37676019D01*
X39044653Y-37521116D01*
X38942465Y-37380467D01*
X38942463Y-37380464D01*
X38819535Y-37257536D01*
X38678887Y-37155349D01*
X38678886Y-37155348D01*
X38678884Y-37155347D01*
X38523981Y-37076420D01*
X38523978Y-37076419D01*
X38523976Y-37076418D01*
X38358642Y-37022698D01*
X38358640Y-37022697D01*
X38358638Y-37022697D01*
X38186926Y-36995500D01*
X38013074Y-36995500D01*
X37841362Y-37022697D01*
X37841360Y-37022697D01*
X37841357Y-37022698D01*
X37676023Y-37076418D01*
X37676017Y-37076421D01*
X37521112Y-37155349D01*
X37380464Y-37257536D01*
X37257536Y-37380464D01*
X37155349Y-37521112D01*
X37076421Y-37676017D01*
X37076418Y-37676023D01*
X37022698Y-37841357D01*
X37022697Y-37841360D01*
X37022697Y-37841362D01*
X36995500Y-38013074D01*
X25400500Y-38013074D01*
X25400500Y-35473074D01*
X36995500Y-35473074D01*
X36995500Y-35646926D01*
X37022697Y-35818638D01*
X37076420Y-35983981D01*
X37076421Y-35983982D01*
X37155349Y-36138887D01*
X37257536Y-36279535D01*
X37380464Y-36402463D01*
X37380467Y-36402465D01*
X37521116Y-36504653D01*
X37676019Y-36583580D01*
X37841362Y-36637303D01*
X38013074Y-36664500D01*
X38013077Y-36664500D01*
X38186923Y-36664500D01*
X38186926Y-36664500D01*
X38358638Y-36637303D01*
X38523981Y-36583580D01*
X38678884Y-36504653D01*
X38819533Y-36402465D01*
X38942465Y-36279533D01*
X39044653Y-36138884D01*
X39123580Y-35983981D01*
X39177303Y-35818638D01*
X39204500Y-35646926D01*
X39204500Y-35473074D01*
X52235500Y-35473074D01*
X52235500Y-35646926D01*
X52262697Y-35818638D01*
X52316420Y-35983981D01*
X52316421Y-35983982D01*
X52395349Y-36138887D01*
X52497536Y-36279535D01*
X52620464Y-36402463D01*
X52620467Y-36402465D01*
X52761116Y-36504653D01*
X52916019Y-36583580D01*
X53081362Y-36637303D01*
X53253074Y-36664500D01*
X53253077Y-36664500D01*
X53426923Y-36664500D01*
X53426926Y-36664500D01*
X53598638Y-36637303D01*
X53763981Y-36583580D01*
X53918884Y-36504653D01*
X54059533Y-36402465D01*
X54182465Y-36279533D01*
X54284653Y-36138884D01*
X54363580Y-35983981D01*
X54417303Y-35818638D01*
X54444500Y-35646926D01*
X54444500Y-35473074D01*
X54417303Y-35301362D01*
X54363580Y-35136019D01*
X54284653Y-34981116D01*
X54182465Y-34840467D01*
X54182463Y-34840464D01*
X54059535Y-34717536D01*
X53918887Y-34615349D01*
X53918886Y-34615348D01*
X53918884Y-34615347D01*
X53763981Y-34536420D01*
X53763978Y-34536419D01*
X53763976Y-34536418D01*
X53598642Y-34482698D01*
X53598640Y-34482697D01*
X53598638Y-34482697D01*
X53426926Y-34455500D01*
X53253074Y-34455500D01*
X53081362Y-34482697D01*
X53081360Y-34482697D01*
X53081357Y-34482698D01*
X52916023Y-34536418D01*
X52916017Y-34536421D01*
X52761112Y-34615349D01*
X52620464Y-34717536D01*
X52497536Y-34840464D01*
X52395349Y-34981112D01*
X52316421Y-35136017D01*
X52316418Y-35136023D01*
X52262698Y-35301357D01*
X52262697Y-35301360D01*
X52262697Y-35301362D01*
X52235500Y-35473074D01*
X39204500Y-35473074D01*
X39177303Y-35301362D01*
X39123580Y-35136019D01*
X39044653Y-34981116D01*
X38942465Y-34840467D01*
X38942463Y-34840464D01*
X38819535Y-34717536D01*
X38678887Y-34615349D01*
X38678886Y-34615348D01*
X38678884Y-34615347D01*
X38523981Y-34536420D01*
X38523978Y-34536419D01*
X38523976Y-34536418D01*
X38358642Y-34482698D01*
X38358640Y-34482697D01*
X38358638Y-34482697D01*
X38186926Y-34455500D01*
X38013074Y-34455500D01*
X37841362Y-34482697D01*
X37841360Y-34482697D01*
X37841357Y-34482698D01*
X37676023Y-34536418D01*
X37676017Y-34536421D01*
X37521112Y-34615349D01*
X37380464Y-34717536D01*
X37257536Y-34840464D01*
X37155349Y-34981112D01*
X37076421Y-35136017D01*
X37076418Y-35136023D01*
X37022698Y-35301357D01*
X37022697Y-35301360D01*
X37022697Y-35301362D01*
X36995500Y-35473074D01*
X25400500Y-35473074D01*
X25400500Y-32933074D01*
X36995500Y-32933074D01*
X36995500Y-33106926D01*
X37022697Y-33278638D01*
X37076420Y-33443981D01*
X37076421Y-33443982D01*
X37155349Y-33598887D01*
X37257536Y-33739535D01*
X37380464Y-33862463D01*
X37380467Y-33862465D01*
X37521116Y-33964653D01*
X37676019Y-34043580D01*
X37841362Y-34097303D01*
X38013074Y-34124500D01*
X38013077Y-34124500D01*
X38186923Y-34124500D01*
X38186926Y-34124500D01*
X38358638Y-34097303D01*
X38523981Y-34043580D01*
X38678884Y-33964653D01*
X38819533Y-33862465D01*
X38942465Y-33739533D01*
X39044653Y-33598884D01*
X39123580Y-33443981D01*
X39177303Y-33278638D01*
X39204500Y-33106926D01*
X39204500Y-32933074D01*
X39177303Y-32761362D01*
X39123580Y-32596019D01*
X39044653Y-32441116D01*
X38942465Y-32300467D01*
X38942463Y-32300464D01*
X38819535Y-32177536D01*
X38678887Y-32075349D01*
X38678886Y-32075348D01*
X38678884Y-32075347D01*
X38523981Y-31996420D01*
X38523978Y-31996419D01*
X38523976Y-31996418D01*
X38358642Y-31942698D01*
X38358640Y-31942697D01*
X38358638Y-31942697D01*
X38186926Y-31915500D01*
X38013074Y-31915500D01*
X37841362Y-31942697D01*
X37841360Y-31942697D01*
X37841357Y-31942698D01*
X37676023Y-31996418D01*
X37676017Y-31996421D01*
X37521112Y-32075349D01*
X37380464Y-32177536D01*
X37257536Y-32300464D01*
X37155349Y-32441112D01*
X37076421Y-32596017D01*
X37076418Y-32596023D01*
X37022698Y-32761357D01*
X37022697Y-32761360D01*
X37022697Y-32761362D01*
X36995500Y-32933074D01*
X25400500Y-32933074D01*
X25400500Y-30482595D01*
X25400608Y-30477388D01*
X25405183Y-30366771D01*
X28752500Y-30366771D01*
X28752500Y-30593228D01*
X28782056Y-30817735D01*
X28782058Y-30817742D01*
X28840668Y-31036478D01*
X28927328Y-31245693D01*
X28927329Y-31245694D01*
X28927334Y-31245705D01*
X29040554Y-31441808D01*
X29138715Y-31569733D01*
X29168511Y-31608564D01*
X29178411Y-31621465D01*
X29178424Y-31621479D01*
X29338520Y-31781575D01*
X29338534Y-31781588D01*
X29338536Y-31781590D01*
X29361774Y-31799421D01*
X29518191Y-31919445D01*
X29714294Y-32032665D01*
X29714298Y-32032666D01*
X29714307Y-32032672D01*
X29923522Y-32119332D01*
X30142258Y-32177942D01*
X30142262Y-32177942D01*
X30142264Y-32177943D01*
X30200127Y-32185560D01*
X30366774Y-32207500D01*
X30366781Y-32207500D01*
X30593219Y-32207500D01*
X30593226Y-32207500D01*
X30796131Y-32180787D01*
X30817735Y-32177943D01*
X30817735Y-32177942D01*
X30817742Y-32177942D01*
X31036478Y-32119332D01*
X31245693Y-32032672D01*
X31441807Y-31919446D01*
X31621464Y-31781590D01*
X31781590Y-31621464D01*
X31919446Y-31441807D01*
X32032672Y-31245693D01*
X32119332Y-31036478D01*
X32177942Y-30817742D01*
X32177947Y-30817708D01*
X32180787Y-30796131D01*
X32207500Y-30593226D01*
X32207500Y-30366774D01*
X32180787Y-30163868D01*
X32177943Y-30142264D01*
X32177942Y-30142262D01*
X32177942Y-30142258D01*
X32119332Y-29923522D01*
X32032672Y-29714307D01*
X32032666Y-29714298D01*
X32032665Y-29714294D01*
X32002325Y-29661743D01*
X31969524Y-29604930D01*
X36995500Y-29604930D01*
X36995500Y-31355063D01*
X36995501Y-31355073D01*
X37010265Y-31429300D01*
X37066516Y-31513484D01*
X37150697Y-31569733D01*
X37150699Y-31569734D01*
X37224933Y-31584500D01*
X38975066Y-31584499D01*
X38975069Y-31584498D01*
X38975073Y-31584498D01*
X39024326Y-31574701D01*
X39049301Y-31569734D01*
X39133484Y-31513484D01*
X39189734Y-31429301D01*
X39204500Y-31355067D01*
X39204499Y-30373756D01*
X51990000Y-30373756D01*
X51990000Y-30586243D01*
X52023243Y-30796131D01*
X52088904Y-30998215D01*
X52088907Y-30998221D01*
X52185378Y-31187556D01*
X52211436Y-31223421D01*
X52235294Y-31290288D01*
X52235500Y-31297480D01*
X52235500Y-31355062D01*
X52235501Y-31355073D01*
X52250265Y-31429300D01*
X52306516Y-31513484D01*
X52390697Y-31569733D01*
X52390699Y-31569734D01*
X52464933Y-31584500D01*
X52522518Y-31584499D01*
X52590636Y-31604500D01*
X52596579Y-31608564D01*
X52632441Y-31634620D01*
X52821778Y-31731092D01*
X52821787Y-31731096D01*
X52908739Y-31759348D01*
X52967345Y-31799421D01*
X52994983Y-31864817D01*
X52982877Y-31934774D01*
X52934871Y-31987081D01*
X52918033Y-31995585D01*
X52916030Y-31996414D01*
X52761112Y-32075349D01*
X52620464Y-32177536D01*
X52497536Y-32300464D01*
X52395349Y-32441112D01*
X52316421Y-32596017D01*
X52316418Y-32596023D01*
X52262698Y-32761357D01*
X52262697Y-32761360D01*
X52262697Y-32761362D01*
X52235500Y-32933074D01*
X52235500Y-33106926D01*
X52262697Y-33278638D01*
X52316420Y-33443981D01*
X52316421Y-33443982D01*
X52395349Y-33598887D01*
X52497536Y-33739535D01*
X52620464Y-33862463D01*
X52620467Y-33862465D01*
X52761116Y-33964653D01*
X52916019Y-34043580D01*
X53081362Y-34097303D01*
X53253074Y-34124500D01*
X53253077Y-34124500D01*
X53426923Y-34124500D01*
X53426926Y-34124500D01*
X53598638Y-34097303D01*
X53763981Y-34043580D01*
X53918884Y-33964653D01*
X54059533Y-33862465D01*
X54182465Y-33739533D01*
X54284653Y-33598884D01*
X54363580Y-33443981D01*
X54417303Y-33278638D01*
X54444500Y-33106926D01*
X54444500Y-32933074D01*
X54417303Y-32761362D01*
X54363580Y-32596019D01*
X54284653Y-32441116D01*
X54182465Y-32300467D01*
X54182463Y-32300464D01*
X54059535Y-32177536D01*
X53918887Y-32075349D01*
X53918886Y-32075348D01*
X53918884Y-32075347D01*
X53763981Y-31996420D01*
X53763978Y-31996419D01*
X53761972Y-31995588D01*
X53761327Y-31995068D01*
X53759570Y-31994173D01*
X53759758Y-31993803D01*
X53706693Y-31951038D01*
X53684275Y-31883673D01*
X53701836Y-31814883D01*
X53753800Y-31766506D01*
X53771260Y-31759347D01*
X53858222Y-31731092D01*
X54047553Y-31634622D01*
X54083419Y-31608564D01*
X54150287Y-31584705D01*
X54157480Y-31584499D01*
X54215066Y-31584499D01*
X54215069Y-31584498D01*
X54215072Y-31584498D01*
X54251663Y-31577219D01*
X54289301Y-31569734D01*
X54373484Y-31513484D01*
X54429734Y-31429301D01*
X54444500Y-31355067D01*
X54444499Y-31297479D01*
X54464500Y-31229362D01*
X54468565Y-31223417D01*
X54494622Y-31187554D01*
X54591092Y-30998221D01*
X54591095Y-30998215D01*
X54656756Y-30796131D01*
X54690000Y-30586243D01*
X54690000Y-30373756D01*
X54688894Y-30366771D01*
X69392500Y-30366771D01*
X69392500Y-30593228D01*
X69422056Y-30817735D01*
X69422058Y-30817742D01*
X69480668Y-31036478D01*
X69567328Y-31245693D01*
X69567329Y-31245694D01*
X69567334Y-31245705D01*
X69680554Y-31441808D01*
X69778715Y-31569733D01*
X69808511Y-31608564D01*
X69818411Y-31621465D01*
X69818424Y-31621479D01*
X69978520Y-31781575D01*
X69978534Y-31781588D01*
X69978536Y-31781590D01*
X70001774Y-31799421D01*
X70158191Y-31919445D01*
X70354294Y-32032665D01*
X70354298Y-32032666D01*
X70354307Y-32032672D01*
X70563522Y-32119332D01*
X70782258Y-32177942D01*
X70782262Y-32177942D01*
X70782264Y-32177943D01*
X70840127Y-32185560D01*
X71006774Y-32207500D01*
X71006781Y-32207500D01*
X71233219Y-32207500D01*
X71233226Y-32207500D01*
X71436131Y-32180787D01*
X71457735Y-32177943D01*
X71457735Y-32177942D01*
X71457742Y-32177942D01*
X71676478Y-32119332D01*
X71885693Y-32032672D01*
X72081807Y-31919446D01*
X72261464Y-31781590D01*
X72421590Y-31621464D01*
X72559446Y-31441807D01*
X72672672Y-31245693D01*
X72759332Y-31036478D01*
X72817942Y-30817742D01*
X72817947Y-30817708D01*
X72820787Y-30796131D01*
X72847500Y-30593226D01*
X72847500Y-30366774D01*
X72820787Y-30163868D01*
X72817943Y-30142264D01*
X72817942Y-30142262D01*
X72817942Y-30142258D01*
X72759332Y-29923522D01*
X72672672Y-29714307D01*
X72672666Y-29714298D01*
X72672665Y-29714294D01*
X72559445Y-29518191D01*
X72449954Y-29375501D01*
X72421590Y-29338536D01*
X72421588Y-29338534D01*
X72421575Y-29338520D01*
X72261479Y-29178424D01*
X72261465Y-29178411D01*
X72081808Y-29040554D01*
X71885705Y-28927334D01*
X71885697Y-28927330D01*
X71885693Y-28927328D01*
X71676478Y-28840668D01*
X71527075Y-28800635D01*
X71457735Y-28782056D01*
X71233228Y-28752500D01*
X71233226Y-28752500D01*
X71006774Y-28752500D01*
X71006771Y-28752500D01*
X70782264Y-28782056D01*
X70563522Y-28840668D01*
X70354305Y-28927329D01*
X70354294Y-28927334D01*
X70158191Y-29040554D01*
X69978534Y-29178411D01*
X69978520Y-29178424D01*
X69818424Y-29338520D01*
X69818411Y-29338534D01*
X69680554Y-29518191D01*
X69567334Y-29714294D01*
X69567329Y-29714305D01*
X69567328Y-29714307D01*
X69543248Y-29772442D01*
X69480668Y-29923522D01*
X69422056Y-30142264D01*
X69392500Y-30366771D01*
X54688894Y-30366771D01*
X54656756Y-30163868D01*
X54591095Y-29961784D01*
X54591092Y-29961778D01*
X54494620Y-29772442D01*
X54468563Y-29736577D01*
X54444704Y-29669709D01*
X54444499Y-29662516D01*
X54444499Y-29604936D01*
X54444498Y-29604927D01*
X54429734Y-29530699D01*
X54373483Y-29446515D01*
X54289302Y-29390266D01*
X54215069Y-29375500D01*
X54157482Y-29375500D01*
X54089361Y-29355498D01*
X54083421Y-29351436D01*
X54047556Y-29325378D01*
X53858221Y-29228907D01*
X53858215Y-29228904D01*
X53656129Y-29163243D01*
X53656133Y-29163243D01*
X53446244Y-29130000D01*
X53233756Y-29130000D01*
X53023868Y-29163243D01*
X52821784Y-29228904D01*
X52821778Y-29228907D01*
X52632448Y-29325376D01*
X52596576Y-29351438D01*
X52529708Y-29375295D01*
X52522519Y-29375500D01*
X52464937Y-29375500D01*
X52464926Y-29375501D01*
X52390699Y-29390265D01*
X52306515Y-29446516D01*
X52250266Y-29530697D01*
X52235500Y-29604930D01*
X52235500Y-29662517D01*
X52215498Y-29730638D01*
X52211438Y-29736576D01*
X52185376Y-29772448D01*
X52088907Y-29961778D01*
X52088904Y-29961784D01*
X52023243Y-30163868D01*
X51990000Y-30373756D01*
X39204499Y-30373756D01*
X39204499Y-29604934D01*
X39204498Y-29604927D01*
X39204498Y-29604926D01*
X39189734Y-29530699D01*
X39133483Y-29446515D01*
X39049302Y-29390266D01*
X38975067Y-29375500D01*
X37224936Y-29375500D01*
X37224926Y-29375501D01*
X37150699Y-29390265D01*
X37066515Y-29446516D01*
X37010266Y-29530697D01*
X36995500Y-29604930D01*
X31969524Y-29604930D01*
X31919445Y-29518191D01*
X31809954Y-29375501D01*
X31781590Y-29338536D01*
X31781588Y-29338534D01*
X31781575Y-29338520D01*
X31621479Y-29178424D01*
X31621465Y-29178411D01*
X31441808Y-29040554D01*
X31245705Y-28927334D01*
X31245697Y-28927330D01*
X31245693Y-28927328D01*
X31036478Y-28840668D01*
X30887075Y-28800635D01*
X30817735Y-28782056D01*
X30593228Y-28752500D01*
X30593226Y-28752500D01*
X30366774Y-28752500D01*
X30366771Y-28752500D01*
X30142264Y-28782056D01*
X29923522Y-28840668D01*
X29714305Y-28927329D01*
X29714294Y-28927334D01*
X29518191Y-29040554D01*
X29338534Y-29178411D01*
X29338520Y-29178424D01*
X29178424Y-29338520D01*
X29178411Y-29338534D01*
X29040554Y-29518191D01*
X28927334Y-29714294D01*
X28927329Y-29714305D01*
X28927328Y-29714307D01*
X28903248Y-29772442D01*
X28840668Y-29923522D01*
X28782056Y-30142264D01*
X28752500Y-30366771D01*
X25405183Y-30366771D01*
X25405569Y-30357442D01*
X25405569Y-30357441D01*
X25409280Y-30267708D01*
X25416053Y-30103952D01*
X25416422Y-30098229D01*
X25423925Y-30012473D01*
X25424406Y-30007929D01*
X25465217Y-29680527D01*
X25466149Y-29674328D01*
X25480316Y-29593984D01*
X25481051Y-29590177D01*
X25549869Y-29261963D01*
X25551479Y-29255219D01*
X25558530Y-29228904D01*
X25570374Y-29184698D01*
X25571261Y-29181561D01*
X25669593Y-28851272D01*
X25671914Y-28844247D01*
X25692058Y-28788902D01*
X25693006Y-28786388D01*
X25823596Y-28451717D01*
X25826754Y-28444332D01*
X25841730Y-28412217D01*
X25842585Y-28410426D01*
X26010427Y-28067099D01*
X26015369Y-28057966D01*
X26224958Y-27706232D01*
X26230629Y-27697552D01*
X26468545Y-27364331D01*
X26474921Y-27356139D01*
X26739536Y-27043707D01*
X26746567Y-27036070D01*
X27036070Y-26746567D01*
X27043707Y-26739536D01*
X27356139Y-26474921D01*
X27364331Y-26468545D01*
X27697552Y-26230629D01*
X27706232Y-26224958D01*
X28057966Y-26015369D01*
X28067099Y-26010427D01*
X28410426Y-25842585D01*
X28412217Y-25841730D01*
X28444332Y-25826754D01*
X28451717Y-25823596D01*
X28786388Y-25693006D01*
X28788902Y-25692058D01*
X28844247Y-25671914D01*
X28851272Y-25669593D01*
X29181561Y-25571261D01*
X29184698Y-25570374D01*
X29255219Y-25551479D01*
X29261963Y-25549869D01*
X29590177Y-25481051D01*
X29593984Y-25480316D01*
X29674328Y-25466149D01*
X29680527Y-25465217D01*
X30007929Y-25424406D01*
X30012469Y-25423925D01*
X30098241Y-25416421D01*
X30103950Y-25416053D01*
X30477389Y-25400608D01*
X30482596Y-25400500D01*
X71117404Y-25400500D01*
X71122611Y-25400608D01*
G37*
%TD.AperFunction*%
%TD*%
M02*
