%TF.GenerationSoftware,KiCad,Pcbnew,9.0.6*%
%TF.CreationDate,2026-04-05T22:13:20-07:00*%
%TF.ProjectId,absonus-v0.2,6162736f-6e75-4732-9d76-302e322e6b69,v0.3*%
%TF.SameCoordinates,Original*%
%TF.FileFunction,Soldermask,Bot*%
%TF.FilePolarity,Negative*%
%FSLAX46Y46*%
G04 Gerber Fmt 4.6, Leading zero omitted, Abs format (unit mm)*
G04 Created by KiCad (PCBNEW 9.0.6) date 2026-04-05 22:13:20*
%MOMM*%
%LPD*%
G01*
G04 APERTURE LIST*
G04 Aperture macros list*
%AMRoundRect*
0 Rectangle with rounded corners*
0 $1 Rounding radius*
0 $2 $3 $4 $5 $6 $7 $8 $9 X,Y pos of 4 corners*
0 Add a 4 corners polygon primitive as box body*
4,1,4,$2,$3,$4,$5,$6,$7,$8,$9,$2,$3,0*
0 Add four circle primitives for the rounded corners*
1,1,$1+$1,$2,$3*
1,1,$1+$1,$4,$5*
1,1,$1+$1,$6,$7*
1,1,$1+$1,$8,$9*
0 Add four rect primitives between the rounded corners*
20,1,$1+$1,$2,$3,$4,$5,0*
20,1,$1+$1,$4,$5,$6,$7,0*
20,1,$1+$1,$6,$7,$8,$9,0*
20,1,$1+$1,$8,$9,$2,$3,0*%
G04 Aperture macros list end*
%ADD10R,1.700000X1.700000*%
%ADD11C,1.700000*%
%ADD12RoundRect,0.250000X0.750000X-0.600000X0.750000X0.600000X-0.750000X0.600000X-0.750000X-0.600000X0*%
%ADD13O,2.000000X1.700000*%
%ADD14C,3.200000*%
%ADD15RoundRect,0.250000X-0.600000X0.600000X-0.600000X-0.600000X0.600000X-0.600000X0.600000X0.600000X0*%
%ADD16O,1.700000X1.700000*%
%ADD17RoundRect,0.250000X-0.750000X0.600000X-0.750000X-0.600000X0.750000X-0.600000X0.750000X0.600000X0*%
%ADD18RoundRect,0.250000X0.725000X-0.600000X0.725000X0.600000X-0.725000X0.600000X-0.725000X-0.600000X0*%
%ADD19O,1.950000X1.700000*%
%ADD20RoundRect,0.250000X-0.725000X0.600000X-0.725000X-0.600000X0.725000X-0.600000X0.725000X0.600000X0*%
%ADD21RoundRect,0.102000X-0.669000X-0.669000X0.669000X-0.669000X0.669000X0.669000X-0.669000X0.669000X0*%
%ADD22C,1.542000*%
G04 APERTURE END LIST*
D10*
%TO.C,A1*%
X38100000Y-30480000D03*
D11*
X38100000Y-33020000D03*
X38100000Y-35560000D03*
X38100000Y-38100000D03*
X38100000Y-40640000D03*
X38100000Y-43180000D03*
X38100000Y-45720000D03*
X38100000Y-48260000D03*
X38100000Y-50800000D03*
X38100000Y-53340000D03*
X38100000Y-55880000D03*
X38100000Y-58420000D03*
X38100000Y-60960000D03*
X38100000Y-63500000D03*
X38100000Y-66040000D03*
X38100000Y-68580000D03*
X38100000Y-71120000D03*
X38100000Y-73660000D03*
X38100000Y-76200000D03*
X38100000Y-78740000D03*
X53340000Y-78740000D03*
X53340000Y-76200000D03*
X53340000Y-73660000D03*
X53340000Y-71120000D03*
X53340000Y-68580000D03*
X53340000Y-66040000D03*
X53340000Y-63500000D03*
X53340000Y-60960000D03*
X53340000Y-58420000D03*
X53340000Y-55880000D03*
X53340000Y-53340000D03*
X53340000Y-50800000D03*
X53340000Y-48260000D03*
X53340000Y-45720000D03*
X53340000Y-43180000D03*
X53340000Y-40640000D03*
X53340000Y-38100000D03*
X53340000Y-35560000D03*
X53340000Y-33020000D03*
X53340000Y-30480000D03*
%TD*%
D12*
%TO.C,J6*%
X30480000Y-109220000D03*
D13*
X30480000Y-106720000D03*
%TD*%
D14*
%TO.C,H4*%
X71120000Y-121920000D03*
%TD*%
D12*
%TO.C,J5*%
X30480000Y-99060000D03*
D13*
X30480000Y-96560000D03*
%TD*%
D14*
%TO.C,H3*%
X30480000Y-121920000D03*
%TD*%
D15*
%TO.C,J10*%
X55880000Y-116840000D03*
D11*
X55880000Y-119380000D03*
X53340000Y-116840000D03*
X53340000Y-119380000D03*
X50800000Y-116840000D03*
X50800000Y-119380000D03*
X48260000Y-116840000D03*
X48260000Y-119380000D03*
X45720000Y-116840000D03*
X45720000Y-119380000D03*
%TD*%
D10*
%TO.C,A2*%
X38100000Y-30480000D03*
D16*
X38100000Y-33020000D03*
X38100000Y-35560000D03*
X38100000Y-38100000D03*
X38100000Y-40640000D03*
X38100000Y-43180000D03*
X38100000Y-45720000D03*
X38100000Y-48260000D03*
X38100000Y-50800000D03*
X38100000Y-53340000D03*
X38100000Y-55880000D03*
X38100000Y-58420000D03*
X38100000Y-60960000D03*
X38100000Y-63500000D03*
X38100000Y-66040000D03*
X38100000Y-68580000D03*
X38100000Y-71120000D03*
X38100000Y-73660000D03*
X38100000Y-76200000D03*
X38100000Y-78740000D03*
%TD*%
D17*
%TO.C,J4*%
X71120000Y-83860000D03*
D13*
X71120000Y-86360000D03*
%TD*%
D17*
%TO.C,J3*%
X71120000Y-40680000D03*
D13*
X71120000Y-43180000D03*
%TD*%
D14*
%TO.C,H1*%
X30480000Y-30480000D03*
%TD*%
D10*
%TO.C,A3*%
X53340000Y-30480000D03*
D16*
X53340000Y-33020000D03*
X53340000Y-35560000D03*
X53340000Y-38100000D03*
X53340000Y-40640000D03*
X53340000Y-43180000D03*
X53340000Y-45720000D03*
X53340000Y-48260000D03*
X53340000Y-50800000D03*
X53340000Y-53340000D03*
X53340000Y-55880000D03*
X53340000Y-58420000D03*
X53340000Y-60960000D03*
X53340000Y-63500000D03*
X53340000Y-66040000D03*
X53340000Y-68580000D03*
X53340000Y-71120000D03*
X53340000Y-73660000D03*
X53340000Y-76200000D03*
X53340000Y-78740000D03*
%TD*%
D18*
%TO.C,J9*%
X30480000Y-88900000D03*
D19*
X30480000Y-86400000D03*
X30480000Y-83900000D03*
%TD*%
D20*
%TO.C,J8*%
X71120000Y-94060000D03*
D19*
X71120000Y-96560000D03*
X71120000Y-99060000D03*
%TD*%
D14*
%TO.C,H2*%
X71120000Y-30480000D03*
%TD*%
D17*
%TO.C,J7*%
X71120000Y-50840000D03*
D13*
X71120000Y-53340000D03*
%TD*%
D21*
%TO.C,U1*%
X39243000Y-87630000D03*
D22*
X39243000Y-90170000D03*
X39243000Y-92710000D03*
X39243000Y-95250000D03*
X47117000Y-95250000D03*
X47117000Y-92710000D03*
X47117000Y-90170000D03*
X47117000Y-87630000D03*
%TD*%
M02*
