%TF.GenerationSoftware,KiCad,Pcbnew,8.0.0*%
%TF.CreationDate,2024-03-17T19:09:25-07:00*%
%TF.ProjectId,battery-holder,62617474-6572-4792-9d68-6f6c6465722e,rev?*%
%TF.SameCoordinates,Original*%
%TF.FileFunction,Drillmap*%
%TF.FilePolarity,Positive*%
%FSLAX45Y45*%
G04 Gerber Fmt 4.5, Leading zero omitted, Abs format (unit mm)*
G04 Created by KiCad (PCBNEW 8.0.0) date 2024-03-17 19:09:25*
%MOMM*%
%LPD*%
G01*
G04 APERTURE LIST*
%ADD10C,0.050000*%
%ADD11C,0.200000*%
%ADD12C,0.100000*%
G04 APERTURE END LIST*
D10*
X7937500Y-5080000D02*
X7937500Y-9144000D01*
X18034000Y-9652000D02*
X8445500Y-9652000D01*
X18542000Y-5080000D02*
X18542000Y-9144000D01*
X8445500Y-4572000D02*
X18034000Y-4572000D01*
X7937500Y-5080000D02*
G75*
G02*
X8445500Y-4572000I508000J0D01*
G01*
X8445500Y-9652000D02*
G75*
G02*
X7937500Y-9144000I0J508000D01*
G01*
X18542000Y-9144000D02*
G75*
G02*
X18034000Y-9652000I-508000J0D01*
G01*
X18034000Y-4572000D02*
G75*
G02*
X18542000Y-5080000I0J-508000D01*
G01*
D11*
D12*
X8218500Y-6814500D02*
X8313500Y-6909500D01*
X8313500Y-6814500D02*
X8218500Y-6909500D01*
X8218500Y-7064500D02*
X8313500Y-7159500D01*
X8313500Y-7064500D02*
X8218500Y-7159500D01*
X8218500Y-7314500D02*
X8313500Y-7409500D01*
X8313500Y-7314500D02*
X8218500Y-7409500D01*
D11*
X8195777Y-9965984D02*
X8195777Y-9765984D01*
X8195777Y-9765984D02*
X8243396Y-9765984D01*
X8243396Y-9765984D02*
X8271967Y-9775508D01*
X8271967Y-9775508D02*
X8291015Y-9794555D01*
X8291015Y-9794555D02*
X8300539Y-9813603D01*
X8300539Y-9813603D02*
X8310062Y-9851698D01*
X8310062Y-9851698D02*
X8310062Y-9880270D01*
X8310062Y-9880270D02*
X8300539Y-9918365D01*
X8300539Y-9918365D02*
X8291015Y-9937412D01*
X8291015Y-9937412D02*
X8271967Y-9956460D01*
X8271967Y-9956460D02*
X8243396Y-9965984D01*
X8243396Y-9965984D02*
X8195777Y-9965984D01*
X8395777Y-9965984D02*
X8395777Y-9832650D01*
X8395777Y-9870746D02*
X8405301Y-9851698D01*
X8405301Y-9851698D02*
X8414824Y-9842174D01*
X8414824Y-9842174D02*
X8433872Y-9832650D01*
X8433872Y-9832650D02*
X8452920Y-9832650D01*
X8519586Y-9965984D02*
X8519586Y-9832650D01*
X8519586Y-9765984D02*
X8510063Y-9775508D01*
X8510063Y-9775508D02*
X8519586Y-9785031D01*
X8519586Y-9785031D02*
X8529110Y-9775508D01*
X8529110Y-9775508D02*
X8519586Y-9765984D01*
X8519586Y-9765984D02*
X8519586Y-9785031D01*
X8643396Y-9965984D02*
X8624348Y-9956460D01*
X8624348Y-9956460D02*
X8614824Y-9937412D01*
X8614824Y-9937412D02*
X8614824Y-9765984D01*
X8748158Y-9965984D02*
X8729110Y-9956460D01*
X8729110Y-9956460D02*
X8719586Y-9937412D01*
X8719586Y-9937412D02*
X8719586Y-9765984D01*
X8976729Y-9965984D02*
X8976729Y-9765984D01*
X8976729Y-9765984D02*
X9043396Y-9908841D01*
X9043396Y-9908841D02*
X9110063Y-9765984D01*
X9110063Y-9765984D02*
X9110063Y-9965984D01*
X9291015Y-9965984D02*
X9291015Y-9861222D01*
X9291015Y-9861222D02*
X9281491Y-9842174D01*
X9281491Y-9842174D02*
X9262444Y-9832650D01*
X9262444Y-9832650D02*
X9224348Y-9832650D01*
X9224348Y-9832650D02*
X9205301Y-9842174D01*
X9291015Y-9956460D02*
X9271967Y-9965984D01*
X9271967Y-9965984D02*
X9224348Y-9965984D01*
X9224348Y-9965984D02*
X9205301Y-9956460D01*
X9205301Y-9956460D02*
X9195777Y-9937412D01*
X9195777Y-9937412D02*
X9195777Y-9918365D01*
X9195777Y-9918365D02*
X9205301Y-9899317D01*
X9205301Y-9899317D02*
X9224348Y-9889793D01*
X9224348Y-9889793D02*
X9271967Y-9889793D01*
X9271967Y-9889793D02*
X9291015Y-9880270D01*
X9386253Y-9832650D02*
X9386253Y-10032650D01*
X9386253Y-9842174D02*
X9405301Y-9832650D01*
X9405301Y-9832650D02*
X9443396Y-9832650D01*
X9443396Y-9832650D02*
X9462444Y-9842174D01*
X9462444Y-9842174D02*
X9471967Y-9851698D01*
X9471967Y-9851698D02*
X9481491Y-9870746D01*
X9481491Y-9870746D02*
X9481491Y-9927889D01*
X9481491Y-9927889D02*
X9471967Y-9946936D01*
X9471967Y-9946936D02*
X9462444Y-9956460D01*
X9462444Y-9956460D02*
X9443396Y-9965984D01*
X9443396Y-9965984D02*
X9405301Y-9965984D01*
X9405301Y-9965984D02*
X9386253Y-9956460D01*
X9567205Y-9946936D02*
X9576729Y-9956460D01*
X9576729Y-9956460D02*
X9567205Y-9965984D01*
X9567205Y-9965984D02*
X9557682Y-9956460D01*
X9557682Y-9956460D02*
X9567205Y-9946936D01*
X9567205Y-9946936D02*
X9567205Y-9965984D01*
X9567205Y-9842174D02*
X9576729Y-9851698D01*
X9576729Y-9851698D02*
X9567205Y-9861222D01*
X9567205Y-9861222D02*
X9557682Y-9851698D01*
X9557682Y-9851698D02*
X9567205Y-9842174D01*
X9567205Y-9842174D02*
X9567205Y-9861222D01*
D12*
X7840000Y-10247000D02*
X7935000Y-10342000D01*
X7935000Y-10247000D02*
X7840000Y-10342000D01*
D11*
X8233872Y-10185984D02*
X8252920Y-10185984D01*
X8252920Y-10185984D02*
X8271967Y-10195508D01*
X8271967Y-10195508D02*
X8281491Y-10205031D01*
X8281491Y-10205031D02*
X8291015Y-10224079D01*
X8291015Y-10224079D02*
X8300539Y-10262174D01*
X8300539Y-10262174D02*
X8300539Y-10309793D01*
X8300539Y-10309793D02*
X8291015Y-10347889D01*
X8291015Y-10347889D02*
X8281491Y-10366936D01*
X8281491Y-10366936D02*
X8271967Y-10376460D01*
X8271967Y-10376460D02*
X8252920Y-10385984D01*
X8252920Y-10385984D02*
X8233872Y-10385984D01*
X8233872Y-10385984D02*
X8214824Y-10376460D01*
X8214824Y-10376460D02*
X8205301Y-10366936D01*
X8205301Y-10366936D02*
X8195777Y-10347889D01*
X8195777Y-10347889D02*
X8186253Y-10309793D01*
X8186253Y-10309793D02*
X8186253Y-10262174D01*
X8186253Y-10262174D02*
X8195777Y-10224079D01*
X8195777Y-10224079D02*
X8205301Y-10205031D01*
X8205301Y-10205031D02*
X8214824Y-10195508D01*
X8214824Y-10195508D02*
X8233872Y-10185984D01*
X8386253Y-10366936D02*
X8395777Y-10376460D01*
X8395777Y-10376460D02*
X8386253Y-10385984D01*
X8386253Y-10385984D02*
X8376729Y-10376460D01*
X8376729Y-10376460D02*
X8386253Y-10366936D01*
X8386253Y-10366936D02*
X8386253Y-10385984D01*
X8491015Y-10385984D02*
X8529110Y-10385984D01*
X8529110Y-10385984D02*
X8548158Y-10376460D01*
X8548158Y-10376460D02*
X8557682Y-10366936D01*
X8557682Y-10366936D02*
X8576729Y-10338365D01*
X8576729Y-10338365D02*
X8586253Y-10300270D01*
X8586253Y-10300270D02*
X8586253Y-10224079D01*
X8586253Y-10224079D02*
X8576729Y-10205031D01*
X8576729Y-10205031D02*
X8567205Y-10195508D01*
X8567205Y-10195508D02*
X8548158Y-10185984D01*
X8548158Y-10185984D02*
X8510063Y-10185984D01*
X8510063Y-10185984D02*
X8491015Y-10195508D01*
X8491015Y-10195508D02*
X8481491Y-10205031D01*
X8481491Y-10205031D02*
X8471967Y-10224079D01*
X8471967Y-10224079D02*
X8471967Y-10271698D01*
X8471967Y-10271698D02*
X8481491Y-10290746D01*
X8481491Y-10290746D02*
X8491015Y-10300270D01*
X8491015Y-10300270D02*
X8510063Y-10309793D01*
X8510063Y-10309793D02*
X8548158Y-10309793D01*
X8548158Y-10309793D02*
X8567205Y-10300270D01*
X8567205Y-10300270D02*
X8576729Y-10290746D01*
X8576729Y-10290746D02*
X8586253Y-10271698D01*
X8767205Y-10185984D02*
X8671967Y-10185984D01*
X8671967Y-10185984D02*
X8662444Y-10281222D01*
X8662444Y-10281222D02*
X8671967Y-10271698D01*
X8671967Y-10271698D02*
X8691015Y-10262174D01*
X8691015Y-10262174D02*
X8738634Y-10262174D01*
X8738634Y-10262174D02*
X8757682Y-10271698D01*
X8757682Y-10271698D02*
X8767205Y-10281222D01*
X8767205Y-10281222D02*
X8776729Y-10300270D01*
X8776729Y-10300270D02*
X8776729Y-10347889D01*
X8776729Y-10347889D02*
X8767205Y-10366936D01*
X8767205Y-10366936D02*
X8757682Y-10376460D01*
X8757682Y-10376460D02*
X8738634Y-10385984D01*
X8738634Y-10385984D02*
X8691015Y-10385984D01*
X8691015Y-10385984D02*
X8671967Y-10376460D01*
X8671967Y-10376460D02*
X8662444Y-10366936D01*
X8900539Y-10185984D02*
X8919586Y-10185984D01*
X8919586Y-10185984D02*
X8938634Y-10195508D01*
X8938634Y-10195508D02*
X8948158Y-10205031D01*
X8948158Y-10205031D02*
X8957682Y-10224079D01*
X8957682Y-10224079D02*
X8967205Y-10262174D01*
X8967205Y-10262174D02*
X8967205Y-10309793D01*
X8967205Y-10309793D02*
X8957682Y-10347889D01*
X8957682Y-10347889D02*
X8948158Y-10366936D01*
X8948158Y-10366936D02*
X8938634Y-10376460D01*
X8938634Y-10376460D02*
X8919586Y-10385984D01*
X8919586Y-10385984D02*
X8900539Y-10385984D01*
X8900539Y-10385984D02*
X8881491Y-10376460D01*
X8881491Y-10376460D02*
X8871967Y-10366936D01*
X8871967Y-10366936D02*
X8862444Y-10347889D01*
X8862444Y-10347889D02*
X8852920Y-10309793D01*
X8852920Y-10309793D02*
X8852920Y-10262174D01*
X8852920Y-10262174D02*
X8862444Y-10224079D01*
X8862444Y-10224079D02*
X8871967Y-10205031D01*
X8871967Y-10205031D02*
X8881491Y-10195508D01*
X8881491Y-10195508D02*
X8900539Y-10185984D01*
X9052920Y-10385984D02*
X9052920Y-10252650D01*
X9052920Y-10271698D02*
X9062444Y-10262174D01*
X9062444Y-10262174D02*
X9081491Y-10252650D01*
X9081491Y-10252650D02*
X9110063Y-10252650D01*
X9110063Y-10252650D02*
X9129110Y-10262174D01*
X9129110Y-10262174D02*
X9138634Y-10281222D01*
X9138634Y-10281222D02*
X9138634Y-10385984D01*
X9138634Y-10281222D02*
X9148158Y-10262174D01*
X9148158Y-10262174D02*
X9167205Y-10252650D01*
X9167205Y-10252650D02*
X9195777Y-10252650D01*
X9195777Y-10252650D02*
X9214825Y-10262174D01*
X9214825Y-10262174D02*
X9224348Y-10281222D01*
X9224348Y-10281222D02*
X9224348Y-10385984D01*
X9319586Y-10385984D02*
X9319586Y-10252650D01*
X9319586Y-10271698D02*
X9329110Y-10262174D01*
X9329110Y-10262174D02*
X9348158Y-10252650D01*
X9348158Y-10252650D02*
X9376729Y-10252650D01*
X9376729Y-10252650D02*
X9395777Y-10262174D01*
X9395777Y-10262174D02*
X9405301Y-10281222D01*
X9405301Y-10281222D02*
X9405301Y-10385984D01*
X9405301Y-10281222D02*
X9414825Y-10262174D01*
X9414825Y-10262174D02*
X9433872Y-10252650D01*
X9433872Y-10252650D02*
X9462444Y-10252650D01*
X9462444Y-10252650D02*
X9481491Y-10262174D01*
X9481491Y-10262174D02*
X9491015Y-10281222D01*
X9491015Y-10281222D02*
X9491015Y-10385984D01*
X9881491Y-10176460D02*
X9710063Y-10433603D01*
X10138634Y-10185984D02*
X10157682Y-10185984D01*
X10157682Y-10185984D02*
X10176729Y-10195508D01*
X10176729Y-10195508D02*
X10186253Y-10205031D01*
X10186253Y-10205031D02*
X10195777Y-10224079D01*
X10195777Y-10224079D02*
X10205301Y-10262174D01*
X10205301Y-10262174D02*
X10205301Y-10309793D01*
X10205301Y-10309793D02*
X10195777Y-10347889D01*
X10195777Y-10347889D02*
X10186253Y-10366936D01*
X10186253Y-10366936D02*
X10176729Y-10376460D01*
X10176729Y-10376460D02*
X10157682Y-10385984D01*
X10157682Y-10385984D02*
X10138634Y-10385984D01*
X10138634Y-10385984D02*
X10119587Y-10376460D01*
X10119587Y-10376460D02*
X10110063Y-10366936D01*
X10110063Y-10366936D02*
X10100539Y-10347889D01*
X10100539Y-10347889D02*
X10091015Y-10309793D01*
X10091015Y-10309793D02*
X10091015Y-10262174D01*
X10091015Y-10262174D02*
X10100539Y-10224079D01*
X10100539Y-10224079D02*
X10110063Y-10205031D01*
X10110063Y-10205031D02*
X10119587Y-10195508D01*
X10119587Y-10195508D02*
X10138634Y-10185984D01*
X10291015Y-10366936D02*
X10300539Y-10376460D01*
X10300539Y-10376460D02*
X10291015Y-10385984D01*
X10291015Y-10385984D02*
X10281491Y-10376460D01*
X10281491Y-10376460D02*
X10291015Y-10366936D01*
X10291015Y-10366936D02*
X10291015Y-10385984D01*
X10424348Y-10185984D02*
X10443396Y-10185984D01*
X10443396Y-10185984D02*
X10462444Y-10195508D01*
X10462444Y-10195508D02*
X10471968Y-10205031D01*
X10471968Y-10205031D02*
X10481491Y-10224079D01*
X10481491Y-10224079D02*
X10491015Y-10262174D01*
X10491015Y-10262174D02*
X10491015Y-10309793D01*
X10491015Y-10309793D02*
X10481491Y-10347889D01*
X10481491Y-10347889D02*
X10471968Y-10366936D01*
X10471968Y-10366936D02*
X10462444Y-10376460D01*
X10462444Y-10376460D02*
X10443396Y-10385984D01*
X10443396Y-10385984D02*
X10424348Y-10385984D01*
X10424348Y-10385984D02*
X10405301Y-10376460D01*
X10405301Y-10376460D02*
X10395777Y-10366936D01*
X10395777Y-10366936D02*
X10386253Y-10347889D01*
X10386253Y-10347889D02*
X10376729Y-10309793D01*
X10376729Y-10309793D02*
X10376729Y-10262174D01*
X10376729Y-10262174D02*
X10386253Y-10224079D01*
X10386253Y-10224079D02*
X10395777Y-10205031D01*
X10395777Y-10205031D02*
X10405301Y-10195508D01*
X10405301Y-10195508D02*
X10424348Y-10185984D01*
X10557682Y-10185984D02*
X10681491Y-10185984D01*
X10681491Y-10185984D02*
X10614825Y-10262174D01*
X10614825Y-10262174D02*
X10643396Y-10262174D01*
X10643396Y-10262174D02*
X10662444Y-10271698D01*
X10662444Y-10271698D02*
X10671968Y-10281222D01*
X10671968Y-10281222D02*
X10681491Y-10300270D01*
X10681491Y-10300270D02*
X10681491Y-10347889D01*
X10681491Y-10347889D02*
X10671968Y-10366936D01*
X10671968Y-10366936D02*
X10662444Y-10376460D01*
X10662444Y-10376460D02*
X10643396Y-10385984D01*
X10643396Y-10385984D02*
X10586253Y-10385984D01*
X10586253Y-10385984D02*
X10567206Y-10376460D01*
X10567206Y-10376460D02*
X10557682Y-10366936D01*
X10748158Y-10185984D02*
X10881491Y-10185984D01*
X10881491Y-10185984D02*
X10795777Y-10385984D01*
X11043396Y-10252650D02*
X11043396Y-10385984D01*
X10995777Y-10176460D02*
X10948158Y-10319317D01*
X10948158Y-10319317D02*
X11071968Y-10319317D01*
X11138634Y-10185984D02*
X11138634Y-10224079D01*
X11214825Y-10185984D02*
X11214825Y-10224079D01*
X11510063Y-10462174D02*
X11500539Y-10452650D01*
X11500539Y-10452650D02*
X11481491Y-10424079D01*
X11481491Y-10424079D02*
X11471968Y-10405031D01*
X11471968Y-10405031D02*
X11462444Y-10376460D01*
X11462444Y-10376460D02*
X11452920Y-10328841D01*
X11452920Y-10328841D02*
X11452920Y-10290746D01*
X11452920Y-10290746D02*
X11462444Y-10243127D01*
X11462444Y-10243127D02*
X11471968Y-10214555D01*
X11471968Y-10214555D02*
X11481491Y-10195508D01*
X11481491Y-10195508D02*
X11500539Y-10166936D01*
X11500539Y-10166936D02*
X11510063Y-10157412D01*
X11567206Y-10185984D02*
X11691015Y-10185984D01*
X11691015Y-10185984D02*
X11624348Y-10262174D01*
X11624348Y-10262174D02*
X11652920Y-10262174D01*
X11652920Y-10262174D02*
X11671968Y-10271698D01*
X11671968Y-10271698D02*
X11681491Y-10281222D01*
X11681491Y-10281222D02*
X11691015Y-10300270D01*
X11691015Y-10300270D02*
X11691015Y-10347889D01*
X11691015Y-10347889D02*
X11681491Y-10366936D01*
X11681491Y-10366936D02*
X11671968Y-10376460D01*
X11671968Y-10376460D02*
X11652920Y-10385984D01*
X11652920Y-10385984D02*
X11595777Y-10385984D01*
X11595777Y-10385984D02*
X11576729Y-10376460D01*
X11576729Y-10376460D02*
X11567206Y-10366936D01*
X11929110Y-10385984D02*
X11929110Y-10185984D01*
X12014825Y-10385984D02*
X12014825Y-10281222D01*
X12014825Y-10281222D02*
X12005301Y-10262174D01*
X12005301Y-10262174D02*
X11986253Y-10252650D01*
X11986253Y-10252650D02*
X11957682Y-10252650D01*
X11957682Y-10252650D02*
X11938634Y-10262174D01*
X11938634Y-10262174D02*
X11929110Y-10271698D01*
X12138634Y-10385984D02*
X12119587Y-10376460D01*
X12119587Y-10376460D02*
X12110063Y-10366936D01*
X12110063Y-10366936D02*
X12100539Y-10347889D01*
X12100539Y-10347889D02*
X12100539Y-10290746D01*
X12100539Y-10290746D02*
X12110063Y-10271698D01*
X12110063Y-10271698D02*
X12119587Y-10262174D01*
X12119587Y-10262174D02*
X12138634Y-10252650D01*
X12138634Y-10252650D02*
X12167206Y-10252650D01*
X12167206Y-10252650D02*
X12186253Y-10262174D01*
X12186253Y-10262174D02*
X12195777Y-10271698D01*
X12195777Y-10271698D02*
X12205301Y-10290746D01*
X12205301Y-10290746D02*
X12205301Y-10347889D01*
X12205301Y-10347889D02*
X12195777Y-10366936D01*
X12195777Y-10366936D02*
X12186253Y-10376460D01*
X12186253Y-10376460D02*
X12167206Y-10385984D01*
X12167206Y-10385984D02*
X12138634Y-10385984D01*
X12319587Y-10385984D02*
X12300539Y-10376460D01*
X12300539Y-10376460D02*
X12291015Y-10357412D01*
X12291015Y-10357412D02*
X12291015Y-10185984D01*
X12471968Y-10376460D02*
X12452920Y-10385984D01*
X12452920Y-10385984D02*
X12414825Y-10385984D01*
X12414825Y-10385984D02*
X12395777Y-10376460D01*
X12395777Y-10376460D02*
X12386253Y-10357412D01*
X12386253Y-10357412D02*
X12386253Y-10281222D01*
X12386253Y-10281222D02*
X12395777Y-10262174D01*
X12395777Y-10262174D02*
X12414825Y-10252650D01*
X12414825Y-10252650D02*
X12452920Y-10252650D01*
X12452920Y-10252650D02*
X12471968Y-10262174D01*
X12471968Y-10262174D02*
X12481491Y-10281222D01*
X12481491Y-10281222D02*
X12481491Y-10300270D01*
X12481491Y-10300270D02*
X12386253Y-10319317D01*
X12557682Y-10376460D02*
X12576730Y-10385984D01*
X12576730Y-10385984D02*
X12614825Y-10385984D01*
X12614825Y-10385984D02*
X12633872Y-10376460D01*
X12633872Y-10376460D02*
X12643396Y-10357412D01*
X12643396Y-10357412D02*
X12643396Y-10347889D01*
X12643396Y-10347889D02*
X12633872Y-10328841D01*
X12633872Y-10328841D02*
X12614825Y-10319317D01*
X12614825Y-10319317D02*
X12586253Y-10319317D01*
X12586253Y-10319317D02*
X12567206Y-10309793D01*
X12567206Y-10309793D02*
X12557682Y-10290746D01*
X12557682Y-10290746D02*
X12557682Y-10281222D01*
X12557682Y-10281222D02*
X12567206Y-10262174D01*
X12567206Y-10262174D02*
X12586253Y-10252650D01*
X12586253Y-10252650D02*
X12614825Y-10252650D01*
X12614825Y-10252650D02*
X12633872Y-10262174D01*
X12710063Y-10462174D02*
X12719587Y-10452650D01*
X12719587Y-10452650D02*
X12738634Y-10424079D01*
X12738634Y-10424079D02*
X12748158Y-10405031D01*
X12748158Y-10405031D02*
X12757682Y-10376460D01*
X12757682Y-10376460D02*
X12767206Y-10328841D01*
X12767206Y-10328841D02*
X12767206Y-10290746D01*
X12767206Y-10290746D02*
X12757682Y-10243127D01*
X12757682Y-10243127D02*
X12748158Y-10214555D01*
X12748158Y-10214555D02*
X12738634Y-10195508D01*
X12738634Y-10195508D02*
X12719587Y-10166936D01*
X12719587Y-10166936D02*
X12710063Y-10157412D01*
M02*
