%TF.GenerationSoftware,KiCad,Pcbnew,8.0.0*%
%TF.CreationDate,2024-03-17T19:09:25-07:00*%
%TF.ProjectId,battery-holder,62617474-6572-4792-9d68-6f6c6465722e,rev?*%
%TF.SameCoordinates,Original*%
%TF.FileFunction,Drillmap*%
%TF.FilePolarity,Positive*%
%FSLAX45Y45*%
G04 Gerber Fmt 4.5, Leading zero omitted, Abs format (unit mm)*
G04 Created by KiCad (PCBNEW 8.0.0) date 2024-03-17 19:09:25*
%MOMM*%
%LPD*%
G01*
G04 APERTURE LIST*
%ADD10C,0.050000*%
%ADD11C,0.200000*%
%ADD12C,0.120000*%
%ADD13C,0.239000*%
%ADD14C,0.317000*%
%ADD15C,0.320000*%
%ADD16C,0.345000*%
G04 APERTURE END LIST*
D10*
X7937500Y-5080000D02*
X7937500Y-9144000D01*
X18034000Y-9652000D02*
X8445500Y-9652000D01*
X18542000Y-5080000D02*
X18542000Y-9144000D01*
X8445500Y-4572000D02*
X18034000Y-4572000D01*
X7937500Y-5080000D02*
G75*
G02*
X8445500Y-4572000I508000J0D01*
G01*
X8445500Y-9652000D02*
G75*
G02*
X7937500Y-9144000I0J508000D01*
G01*
X18542000Y-9144000D02*
G75*
G02*
X18034000Y-9652000I-508000J0D01*
G01*
X18034000Y-4572000D02*
G75*
G02*
X18542000Y-5080000I0J-508000D01*
G01*
D11*
D12*
X8406000Y-7462000D02*
X8526000Y-7582000D01*
X8526000Y-7462000D02*
X8406000Y-7582000D01*
D13*
X17100000Y-8862500D02*
G75*
G02*
X16861000Y-8862500I-119500J0D01*
G01*
X16861000Y-8862500D02*
G75*
G02*
X17100000Y-8862500I119500J0D01*
G01*
D14*
X10638500Y-6953500D02*
X10638500Y-7270500D01*
X10480000Y-7112000D02*
X10797000Y-7112000D01*
X16158500Y-6953500D02*
X16158500Y-7270500D01*
X16000000Y-7112000D02*
X16317000Y-7112000D01*
D15*
X8558638Y-5193138D02*
X8558638Y-4966862D01*
X8332362Y-4966862D01*
X8332362Y-5193138D01*
X8558638Y-5193138D01*
X8558638Y-9257138D02*
X8558638Y-9030862D01*
X8332362Y-9030862D01*
X8332362Y-9257138D01*
X8558638Y-9257138D01*
X18147138Y-5193138D02*
X18147138Y-4966862D01*
X17920862Y-4966862D01*
X17920862Y-5193138D01*
X18147138Y-5193138D01*
X18147138Y-9257138D02*
X18147138Y-9030862D01*
X17920862Y-9030862D01*
X17920862Y-9257138D01*
X18147138Y-9257138D01*
D16*
X10638500Y-9035000D02*
X10811000Y-8862500D01*
X10638500Y-8690000D01*
X10466000Y-8862500D01*
X10638500Y-9035000D01*
X16158500Y-5534000D02*
X16331000Y-5361500D01*
X16158500Y-5189000D01*
X15986000Y-5361500D01*
X16158500Y-5534000D01*
D11*
X8195777Y-9965984D02*
X8195777Y-9765984D01*
X8195777Y-9765984D02*
X8243396Y-9765984D01*
X8243396Y-9765984D02*
X8271967Y-9775508D01*
X8271967Y-9775508D02*
X8291015Y-9794555D01*
X8291015Y-9794555D02*
X8300539Y-9813603D01*
X8300539Y-9813603D02*
X8310062Y-9851698D01*
X8310062Y-9851698D02*
X8310062Y-9880270D01*
X8310062Y-9880270D02*
X8300539Y-9918365D01*
X8300539Y-9918365D02*
X8291015Y-9937412D01*
X8291015Y-9937412D02*
X8271967Y-9956460D01*
X8271967Y-9956460D02*
X8243396Y-9965984D01*
X8243396Y-9965984D02*
X8195777Y-9965984D01*
X8395777Y-9965984D02*
X8395777Y-9832650D01*
X8395777Y-9870746D02*
X8405301Y-9851698D01*
X8405301Y-9851698D02*
X8414824Y-9842174D01*
X8414824Y-9842174D02*
X8433872Y-9832650D01*
X8433872Y-9832650D02*
X8452920Y-9832650D01*
X8519586Y-9965984D02*
X8519586Y-9832650D01*
X8519586Y-9765984D02*
X8510063Y-9775508D01*
X8510063Y-9775508D02*
X8519586Y-9785031D01*
X8519586Y-9785031D02*
X8529110Y-9775508D01*
X8529110Y-9775508D02*
X8519586Y-9765984D01*
X8519586Y-9765984D02*
X8519586Y-9785031D01*
X8643396Y-9965984D02*
X8624348Y-9956460D01*
X8624348Y-9956460D02*
X8614824Y-9937412D01*
X8614824Y-9937412D02*
X8614824Y-9765984D01*
X8748158Y-9965984D02*
X8729110Y-9956460D01*
X8729110Y-9956460D02*
X8719586Y-9937412D01*
X8719586Y-9937412D02*
X8719586Y-9765984D01*
X8976729Y-9965984D02*
X8976729Y-9765984D01*
X8976729Y-9765984D02*
X9043396Y-9908841D01*
X9043396Y-9908841D02*
X9110063Y-9765984D01*
X9110063Y-9765984D02*
X9110063Y-9965984D01*
X9291015Y-9965984D02*
X9291015Y-9861222D01*
X9291015Y-9861222D02*
X9281491Y-9842174D01*
X9281491Y-9842174D02*
X9262444Y-9832650D01*
X9262444Y-9832650D02*
X9224348Y-9832650D01*
X9224348Y-9832650D02*
X9205301Y-9842174D01*
X9291015Y-9956460D02*
X9271967Y-9965984D01*
X9271967Y-9965984D02*
X9224348Y-9965984D01*
X9224348Y-9965984D02*
X9205301Y-9956460D01*
X9205301Y-9956460D02*
X9195777Y-9937412D01*
X9195777Y-9937412D02*
X9195777Y-9918365D01*
X9195777Y-9918365D02*
X9205301Y-9899317D01*
X9205301Y-9899317D02*
X9224348Y-9889793D01*
X9224348Y-9889793D02*
X9271967Y-9889793D01*
X9271967Y-9889793D02*
X9291015Y-9880270D01*
X9386253Y-9832650D02*
X9386253Y-10032650D01*
X9386253Y-9842174D02*
X9405301Y-9832650D01*
X9405301Y-9832650D02*
X9443396Y-9832650D01*
X9443396Y-9832650D02*
X9462444Y-9842174D01*
X9462444Y-9842174D02*
X9471967Y-9851698D01*
X9471967Y-9851698D02*
X9481491Y-9870746D01*
X9481491Y-9870746D02*
X9481491Y-9927889D01*
X9481491Y-9927889D02*
X9471967Y-9946936D01*
X9471967Y-9946936D02*
X9462444Y-9956460D01*
X9462444Y-9956460D02*
X9443396Y-9965984D01*
X9443396Y-9965984D02*
X9405301Y-9965984D01*
X9405301Y-9965984D02*
X9386253Y-9956460D01*
X9567205Y-9946936D02*
X9576729Y-9956460D01*
X9576729Y-9956460D02*
X9567205Y-9965984D01*
X9567205Y-9965984D02*
X9557682Y-9956460D01*
X9557682Y-9956460D02*
X9567205Y-9946936D01*
X9567205Y-9946936D02*
X9567205Y-9965984D01*
X9567205Y-9842174D02*
X9576729Y-9851698D01*
X9576729Y-9851698D02*
X9567205Y-9861222D01*
X9567205Y-9861222D02*
X9557682Y-9851698D01*
X9557682Y-9851698D02*
X9567205Y-9842174D01*
X9567205Y-9842174D02*
X9567205Y-9861222D01*
D12*
X7815000Y-10234500D02*
X7935000Y-10354500D01*
X7935000Y-10234500D02*
X7815000Y-10354500D01*
D11*
X8300539Y-10385984D02*
X8186253Y-10385984D01*
X8243396Y-10385984D02*
X8243396Y-10185984D01*
X8243396Y-10185984D02*
X8224348Y-10214555D01*
X8224348Y-10214555D02*
X8205301Y-10233603D01*
X8205301Y-10233603D02*
X8186253Y-10243127D01*
X8386253Y-10366936D02*
X8395777Y-10376460D01*
X8395777Y-10376460D02*
X8386253Y-10385984D01*
X8386253Y-10385984D02*
X8376729Y-10376460D01*
X8376729Y-10376460D02*
X8386253Y-10366936D01*
X8386253Y-10366936D02*
X8386253Y-10385984D01*
X8471967Y-10205031D02*
X8481491Y-10195508D01*
X8481491Y-10195508D02*
X8500539Y-10185984D01*
X8500539Y-10185984D02*
X8548158Y-10185984D01*
X8548158Y-10185984D02*
X8567205Y-10195508D01*
X8567205Y-10195508D02*
X8576729Y-10205031D01*
X8576729Y-10205031D02*
X8586253Y-10224079D01*
X8586253Y-10224079D02*
X8586253Y-10243127D01*
X8586253Y-10243127D02*
X8576729Y-10271698D01*
X8576729Y-10271698D02*
X8462444Y-10385984D01*
X8462444Y-10385984D02*
X8586253Y-10385984D01*
X8710063Y-10185984D02*
X8729110Y-10185984D01*
X8729110Y-10185984D02*
X8748158Y-10195508D01*
X8748158Y-10195508D02*
X8757682Y-10205031D01*
X8757682Y-10205031D02*
X8767205Y-10224079D01*
X8767205Y-10224079D02*
X8776729Y-10262174D01*
X8776729Y-10262174D02*
X8776729Y-10309793D01*
X8776729Y-10309793D02*
X8767205Y-10347889D01*
X8767205Y-10347889D02*
X8757682Y-10366936D01*
X8757682Y-10366936D02*
X8748158Y-10376460D01*
X8748158Y-10376460D02*
X8729110Y-10385984D01*
X8729110Y-10385984D02*
X8710063Y-10385984D01*
X8710063Y-10385984D02*
X8691015Y-10376460D01*
X8691015Y-10376460D02*
X8681491Y-10366936D01*
X8681491Y-10366936D02*
X8671967Y-10347889D01*
X8671967Y-10347889D02*
X8662444Y-10309793D01*
X8662444Y-10309793D02*
X8662444Y-10262174D01*
X8662444Y-10262174D02*
X8671967Y-10224079D01*
X8671967Y-10224079D02*
X8681491Y-10205031D01*
X8681491Y-10205031D02*
X8691015Y-10195508D01*
X8691015Y-10195508D02*
X8710063Y-10185984D01*
X8900539Y-10185984D02*
X8919586Y-10185984D01*
X8919586Y-10185984D02*
X8938634Y-10195508D01*
X8938634Y-10195508D02*
X8948158Y-10205031D01*
X8948158Y-10205031D02*
X8957682Y-10224079D01*
X8957682Y-10224079D02*
X8967205Y-10262174D01*
X8967205Y-10262174D02*
X8967205Y-10309793D01*
X8967205Y-10309793D02*
X8957682Y-10347889D01*
X8957682Y-10347889D02*
X8948158Y-10366936D01*
X8948158Y-10366936D02*
X8938634Y-10376460D01*
X8938634Y-10376460D02*
X8919586Y-10385984D01*
X8919586Y-10385984D02*
X8900539Y-10385984D01*
X8900539Y-10385984D02*
X8881491Y-10376460D01*
X8881491Y-10376460D02*
X8871967Y-10366936D01*
X8871967Y-10366936D02*
X8862444Y-10347889D01*
X8862444Y-10347889D02*
X8852920Y-10309793D01*
X8852920Y-10309793D02*
X8852920Y-10262174D01*
X8852920Y-10262174D02*
X8862444Y-10224079D01*
X8862444Y-10224079D02*
X8871967Y-10205031D01*
X8871967Y-10205031D02*
X8881491Y-10195508D01*
X8881491Y-10195508D02*
X8900539Y-10185984D01*
X9052920Y-10385984D02*
X9052920Y-10252650D01*
X9052920Y-10271698D02*
X9062444Y-10262174D01*
X9062444Y-10262174D02*
X9081491Y-10252650D01*
X9081491Y-10252650D02*
X9110063Y-10252650D01*
X9110063Y-10252650D02*
X9129110Y-10262174D01*
X9129110Y-10262174D02*
X9138634Y-10281222D01*
X9138634Y-10281222D02*
X9138634Y-10385984D01*
X9138634Y-10281222D02*
X9148158Y-10262174D01*
X9148158Y-10262174D02*
X9167205Y-10252650D01*
X9167205Y-10252650D02*
X9195777Y-10252650D01*
X9195777Y-10252650D02*
X9214825Y-10262174D01*
X9214825Y-10262174D02*
X9224348Y-10281222D01*
X9224348Y-10281222D02*
X9224348Y-10385984D01*
X9319586Y-10385984D02*
X9319586Y-10252650D01*
X9319586Y-10271698D02*
X9329110Y-10262174D01*
X9329110Y-10262174D02*
X9348158Y-10252650D01*
X9348158Y-10252650D02*
X9376729Y-10252650D01*
X9376729Y-10252650D02*
X9395777Y-10262174D01*
X9395777Y-10262174D02*
X9405301Y-10281222D01*
X9405301Y-10281222D02*
X9405301Y-10385984D01*
X9405301Y-10281222D02*
X9414825Y-10262174D01*
X9414825Y-10262174D02*
X9433872Y-10252650D01*
X9433872Y-10252650D02*
X9462444Y-10252650D01*
X9462444Y-10252650D02*
X9481491Y-10262174D01*
X9481491Y-10262174D02*
X9491015Y-10281222D01*
X9491015Y-10281222D02*
X9491015Y-10385984D01*
X9881491Y-10176460D02*
X9710063Y-10433603D01*
X10138634Y-10185984D02*
X10157682Y-10185984D01*
X10157682Y-10185984D02*
X10176729Y-10195508D01*
X10176729Y-10195508D02*
X10186253Y-10205031D01*
X10186253Y-10205031D02*
X10195777Y-10224079D01*
X10195777Y-10224079D02*
X10205301Y-10262174D01*
X10205301Y-10262174D02*
X10205301Y-10309793D01*
X10205301Y-10309793D02*
X10195777Y-10347889D01*
X10195777Y-10347889D02*
X10186253Y-10366936D01*
X10186253Y-10366936D02*
X10176729Y-10376460D01*
X10176729Y-10376460D02*
X10157682Y-10385984D01*
X10157682Y-10385984D02*
X10138634Y-10385984D01*
X10138634Y-10385984D02*
X10119587Y-10376460D01*
X10119587Y-10376460D02*
X10110063Y-10366936D01*
X10110063Y-10366936D02*
X10100539Y-10347889D01*
X10100539Y-10347889D02*
X10091015Y-10309793D01*
X10091015Y-10309793D02*
X10091015Y-10262174D01*
X10091015Y-10262174D02*
X10100539Y-10224079D01*
X10100539Y-10224079D02*
X10110063Y-10205031D01*
X10110063Y-10205031D02*
X10119587Y-10195508D01*
X10119587Y-10195508D02*
X10138634Y-10185984D01*
X10291015Y-10366936D02*
X10300539Y-10376460D01*
X10300539Y-10376460D02*
X10291015Y-10385984D01*
X10291015Y-10385984D02*
X10281491Y-10376460D01*
X10281491Y-10376460D02*
X10291015Y-10366936D01*
X10291015Y-10366936D02*
X10291015Y-10385984D01*
X10424348Y-10185984D02*
X10443396Y-10185984D01*
X10443396Y-10185984D02*
X10462444Y-10195508D01*
X10462444Y-10195508D02*
X10471968Y-10205031D01*
X10471968Y-10205031D02*
X10481491Y-10224079D01*
X10481491Y-10224079D02*
X10491015Y-10262174D01*
X10491015Y-10262174D02*
X10491015Y-10309793D01*
X10491015Y-10309793D02*
X10481491Y-10347889D01*
X10481491Y-10347889D02*
X10471968Y-10366936D01*
X10471968Y-10366936D02*
X10462444Y-10376460D01*
X10462444Y-10376460D02*
X10443396Y-10385984D01*
X10443396Y-10385984D02*
X10424348Y-10385984D01*
X10424348Y-10385984D02*
X10405301Y-10376460D01*
X10405301Y-10376460D02*
X10395777Y-10366936D01*
X10395777Y-10366936D02*
X10386253Y-10347889D01*
X10386253Y-10347889D02*
X10376729Y-10309793D01*
X10376729Y-10309793D02*
X10376729Y-10262174D01*
X10376729Y-10262174D02*
X10386253Y-10224079D01*
X10386253Y-10224079D02*
X10395777Y-10205031D01*
X10395777Y-10205031D02*
X10405301Y-10195508D01*
X10405301Y-10195508D02*
X10424348Y-10185984D01*
X10662444Y-10252650D02*
X10662444Y-10385984D01*
X10614825Y-10176460D02*
X10567206Y-10319317D01*
X10567206Y-10319317D02*
X10691015Y-10319317D01*
X10748158Y-10185984D02*
X10881491Y-10185984D01*
X10881491Y-10185984D02*
X10795777Y-10385984D01*
X10948158Y-10205031D02*
X10957682Y-10195508D01*
X10957682Y-10195508D02*
X10976729Y-10185984D01*
X10976729Y-10185984D02*
X11024349Y-10185984D01*
X11024349Y-10185984D02*
X11043396Y-10195508D01*
X11043396Y-10195508D02*
X11052920Y-10205031D01*
X11052920Y-10205031D02*
X11062444Y-10224079D01*
X11062444Y-10224079D02*
X11062444Y-10243127D01*
X11062444Y-10243127D02*
X11052920Y-10271698D01*
X11052920Y-10271698D02*
X10938634Y-10385984D01*
X10938634Y-10385984D02*
X11062444Y-10385984D01*
X11138634Y-10185984D02*
X11138634Y-10224079D01*
X11214825Y-10185984D02*
X11214825Y-10224079D01*
X11510063Y-10462174D02*
X11500539Y-10452650D01*
X11500539Y-10452650D02*
X11481491Y-10424079D01*
X11481491Y-10424079D02*
X11471968Y-10405031D01*
X11471968Y-10405031D02*
X11462444Y-10376460D01*
X11462444Y-10376460D02*
X11452920Y-10328841D01*
X11452920Y-10328841D02*
X11452920Y-10290746D01*
X11452920Y-10290746D02*
X11462444Y-10243127D01*
X11462444Y-10243127D02*
X11471968Y-10214555D01*
X11471968Y-10214555D02*
X11481491Y-10195508D01*
X11481491Y-10195508D02*
X11500539Y-10166936D01*
X11500539Y-10166936D02*
X11510063Y-10157412D01*
X11691015Y-10385984D02*
X11576729Y-10385984D01*
X11633872Y-10385984D02*
X11633872Y-10185984D01*
X11633872Y-10185984D02*
X11614825Y-10214555D01*
X11614825Y-10214555D02*
X11595777Y-10233603D01*
X11595777Y-10233603D02*
X11576729Y-10243127D01*
X11929110Y-10385984D02*
X11929110Y-10185984D01*
X12014825Y-10385984D02*
X12014825Y-10281222D01*
X12014825Y-10281222D02*
X12005301Y-10262174D01*
X12005301Y-10262174D02*
X11986253Y-10252650D01*
X11986253Y-10252650D02*
X11957682Y-10252650D01*
X11957682Y-10252650D02*
X11938634Y-10262174D01*
X11938634Y-10262174D02*
X11929110Y-10271698D01*
X12138634Y-10385984D02*
X12119587Y-10376460D01*
X12119587Y-10376460D02*
X12110063Y-10366936D01*
X12110063Y-10366936D02*
X12100539Y-10347889D01*
X12100539Y-10347889D02*
X12100539Y-10290746D01*
X12100539Y-10290746D02*
X12110063Y-10271698D01*
X12110063Y-10271698D02*
X12119587Y-10262174D01*
X12119587Y-10262174D02*
X12138634Y-10252650D01*
X12138634Y-10252650D02*
X12167206Y-10252650D01*
X12167206Y-10252650D02*
X12186253Y-10262174D01*
X12186253Y-10262174D02*
X12195777Y-10271698D01*
X12195777Y-10271698D02*
X12205301Y-10290746D01*
X12205301Y-10290746D02*
X12205301Y-10347889D01*
X12205301Y-10347889D02*
X12195777Y-10366936D01*
X12195777Y-10366936D02*
X12186253Y-10376460D01*
X12186253Y-10376460D02*
X12167206Y-10385984D01*
X12167206Y-10385984D02*
X12138634Y-10385984D01*
X12319587Y-10385984D02*
X12300539Y-10376460D01*
X12300539Y-10376460D02*
X12291015Y-10357412D01*
X12291015Y-10357412D02*
X12291015Y-10185984D01*
X12471968Y-10376460D02*
X12452920Y-10385984D01*
X12452920Y-10385984D02*
X12414825Y-10385984D01*
X12414825Y-10385984D02*
X12395777Y-10376460D01*
X12395777Y-10376460D02*
X12386253Y-10357412D01*
X12386253Y-10357412D02*
X12386253Y-10281222D01*
X12386253Y-10281222D02*
X12395777Y-10262174D01*
X12395777Y-10262174D02*
X12414825Y-10252650D01*
X12414825Y-10252650D02*
X12452920Y-10252650D01*
X12452920Y-10252650D02*
X12471968Y-10262174D01*
X12471968Y-10262174D02*
X12481491Y-10281222D01*
X12481491Y-10281222D02*
X12481491Y-10300270D01*
X12481491Y-10300270D02*
X12386253Y-10319317D01*
X12548158Y-10462174D02*
X12557682Y-10452650D01*
X12557682Y-10452650D02*
X12576730Y-10424079D01*
X12576730Y-10424079D02*
X12586253Y-10405031D01*
X12586253Y-10405031D02*
X12595777Y-10376460D01*
X12595777Y-10376460D02*
X12605301Y-10328841D01*
X12605301Y-10328841D02*
X12605301Y-10290746D01*
X12605301Y-10290746D02*
X12595777Y-10243127D01*
X12595777Y-10243127D02*
X12586253Y-10214555D01*
X12586253Y-10214555D02*
X12576730Y-10195508D01*
X12576730Y-10195508D02*
X12557682Y-10166936D01*
X12557682Y-10166936D02*
X12548158Y-10157412D01*
X12910063Y-10462174D02*
X12900539Y-10452650D01*
X12900539Y-10452650D02*
X12881491Y-10424079D01*
X12881491Y-10424079D02*
X12871968Y-10405031D01*
X12871968Y-10405031D02*
X12862444Y-10376460D01*
X12862444Y-10376460D02*
X12852920Y-10328841D01*
X12852920Y-10328841D02*
X12852920Y-10290746D01*
X12852920Y-10290746D02*
X12862444Y-10243127D01*
X12862444Y-10243127D02*
X12871968Y-10214555D01*
X12871968Y-10214555D02*
X12881491Y-10195508D01*
X12881491Y-10195508D02*
X12900539Y-10166936D01*
X12900539Y-10166936D02*
X12910063Y-10157412D01*
X12986253Y-10252650D02*
X12986253Y-10385984D01*
X12986253Y-10271698D02*
X12995777Y-10262174D01*
X12995777Y-10262174D02*
X13014825Y-10252650D01*
X13014825Y-10252650D02*
X13043396Y-10252650D01*
X13043396Y-10252650D02*
X13062444Y-10262174D01*
X13062444Y-10262174D02*
X13071968Y-10281222D01*
X13071968Y-10281222D02*
X13071968Y-10385984D01*
X13195777Y-10385984D02*
X13176730Y-10376460D01*
X13176730Y-10376460D02*
X13167206Y-10366936D01*
X13167206Y-10366936D02*
X13157682Y-10347889D01*
X13157682Y-10347889D02*
X13157682Y-10290746D01*
X13157682Y-10290746D02*
X13167206Y-10271698D01*
X13167206Y-10271698D02*
X13176730Y-10262174D01*
X13176730Y-10262174D02*
X13195777Y-10252650D01*
X13195777Y-10252650D02*
X13224349Y-10252650D01*
X13224349Y-10252650D02*
X13243396Y-10262174D01*
X13243396Y-10262174D02*
X13252920Y-10271698D01*
X13252920Y-10271698D02*
X13262444Y-10290746D01*
X13262444Y-10290746D02*
X13262444Y-10347889D01*
X13262444Y-10347889D02*
X13252920Y-10366936D01*
X13252920Y-10366936D02*
X13243396Y-10376460D01*
X13243396Y-10376460D02*
X13224349Y-10385984D01*
X13224349Y-10385984D02*
X13195777Y-10385984D01*
X13319587Y-10252650D02*
X13395777Y-10252650D01*
X13348158Y-10185984D02*
X13348158Y-10357412D01*
X13348158Y-10357412D02*
X13357682Y-10376460D01*
X13357682Y-10376460D02*
X13376730Y-10385984D01*
X13376730Y-10385984D02*
X13395777Y-10385984D01*
X13614825Y-10252650D02*
X13614825Y-10452650D01*
X13614825Y-10262174D02*
X13633872Y-10252650D01*
X13633872Y-10252650D02*
X13671968Y-10252650D01*
X13671968Y-10252650D02*
X13691015Y-10262174D01*
X13691015Y-10262174D02*
X13700539Y-10271698D01*
X13700539Y-10271698D02*
X13710063Y-10290746D01*
X13710063Y-10290746D02*
X13710063Y-10347889D01*
X13710063Y-10347889D02*
X13700539Y-10366936D01*
X13700539Y-10366936D02*
X13691015Y-10376460D01*
X13691015Y-10376460D02*
X13671968Y-10385984D01*
X13671968Y-10385984D02*
X13633872Y-10385984D01*
X13633872Y-10385984D02*
X13614825Y-10376460D01*
X13824349Y-10385984D02*
X13805301Y-10376460D01*
X13805301Y-10376460D02*
X13795777Y-10357412D01*
X13795777Y-10357412D02*
X13795777Y-10185984D01*
X13986253Y-10385984D02*
X13986253Y-10281222D01*
X13986253Y-10281222D02*
X13976730Y-10262174D01*
X13976730Y-10262174D02*
X13957682Y-10252650D01*
X13957682Y-10252650D02*
X13919587Y-10252650D01*
X13919587Y-10252650D02*
X13900539Y-10262174D01*
X13986253Y-10376460D02*
X13967206Y-10385984D01*
X13967206Y-10385984D02*
X13919587Y-10385984D01*
X13919587Y-10385984D02*
X13900539Y-10376460D01*
X13900539Y-10376460D02*
X13891015Y-10357412D01*
X13891015Y-10357412D02*
X13891015Y-10338365D01*
X13891015Y-10338365D02*
X13900539Y-10319317D01*
X13900539Y-10319317D02*
X13919587Y-10309793D01*
X13919587Y-10309793D02*
X13967206Y-10309793D01*
X13967206Y-10309793D02*
X13986253Y-10300270D01*
X14052920Y-10252650D02*
X14129111Y-10252650D01*
X14081492Y-10185984D02*
X14081492Y-10357412D01*
X14081492Y-10357412D02*
X14091015Y-10376460D01*
X14091015Y-10376460D02*
X14110063Y-10385984D01*
X14110063Y-10385984D02*
X14129111Y-10385984D01*
X14271968Y-10376460D02*
X14252920Y-10385984D01*
X14252920Y-10385984D02*
X14214825Y-10385984D01*
X14214825Y-10385984D02*
X14195777Y-10376460D01*
X14195777Y-10376460D02*
X14186253Y-10357412D01*
X14186253Y-10357412D02*
X14186253Y-10281222D01*
X14186253Y-10281222D02*
X14195777Y-10262174D01*
X14195777Y-10262174D02*
X14214825Y-10252650D01*
X14214825Y-10252650D02*
X14252920Y-10252650D01*
X14252920Y-10252650D02*
X14271968Y-10262174D01*
X14271968Y-10262174D02*
X14281492Y-10281222D01*
X14281492Y-10281222D02*
X14281492Y-10300270D01*
X14281492Y-10300270D02*
X14186253Y-10319317D01*
X14452920Y-10385984D02*
X14452920Y-10185984D01*
X14452920Y-10376460D02*
X14433873Y-10385984D01*
X14433873Y-10385984D02*
X14395777Y-10385984D01*
X14395777Y-10385984D02*
X14376730Y-10376460D01*
X14376730Y-10376460D02*
X14367206Y-10366936D01*
X14367206Y-10366936D02*
X14357682Y-10347889D01*
X14357682Y-10347889D02*
X14357682Y-10290746D01*
X14357682Y-10290746D02*
X14367206Y-10271698D01*
X14367206Y-10271698D02*
X14376730Y-10262174D01*
X14376730Y-10262174D02*
X14395777Y-10252650D01*
X14395777Y-10252650D02*
X14433873Y-10252650D01*
X14433873Y-10252650D02*
X14452920Y-10262174D01*
X14529111Y-10462174D02*
X14538634Y-10452650D01*
X14538634Y-10452650D02*
X14557682Y-10424079D01*
X14557682Y-10424079D02*
X14567206Y-10405031D01*
X14567206Y-10405031D02*
X14576730Y-10376460D01*
X14576730Y-10376460D02*
X14586253Y-10328841D01*
X14586253Y-10328841D02*
X14586253Y-10290746D01*
X14586253Y-10290746D02*
X14576730Y-10243127D01*
X14576730Y-10243127D02*
X14567206Y-10214555D01*
X14567206Y-10214555D02*
X14557682Y-10195508D01*
X14557682Y-10195508D02*
X14538634Y-10166936D01*
X14538634Y-10166936D02*
X14529111Y-10157412D01*
X7935000Y-10558500D02*
G75*
G02*
X7735000Y-10558500I-100000J0D01*
G01*
X7735000Y-10558500D02*
G75*
G02*
X7935000Y-10558500I100000J0D01*
G01*
X8186253Y-10469031D02*
X8195777Y-10459508D01*
X8195777Y-10459508D02*
X8214824Y-10449984D01*
X8214824Y-10449984D02*
X8262443Y-10449984D01*
X8262443Y-10449984D02*
X8281491Y-10459508D01*
X8281491Y-10459508D02*
X8291015Y-10469031D01*
X8291015Y-10469031D02*
X8300539Y-10488079D01*
X8300539Y-10488079D02*
X8300539Y-10507127D01*
X8300539Y-10507127D02*
X8291015Y-10535698D01*
X8291015Y-10535698D02*
X8176729Y-10649984D01*
X8176729Y-10649984D02*
X8300539Y-10649984D01*
X8386253Y-10630936D02*
X8395777Y-10640460D01*
X8395777Y-10640460D02*
X8386253Y-10649984D01*
X8386253Y-10649984D02*
X8376729Y-10640460D01*
X8376729Y-10640460D02*
X8386253Y-10630936D01*
X8386253Y-10630936D02*
X8386253Y-10649984D01*
X8462444Y-10449984D02*
X8586253Y-10449984D01*
X8586253Y-10449984D02*
X8519586Y-10526174D01*
X8519586Y-10526174D02*
X8548158Y-10526174D01*
X8548158Y-10526174D02*
X8567205Y-10535698D01*
X8567205Y-10535698D02*
X8576729Y-10545222D01*
X8576729Y-10545222D02*
X8586253Y-10564270D01*
X8586253Y-10564270D02*
X8586253Y-10611889D01*
X8586253Y-10611889D02*
X8576729Y-10630936D01*
X8576729Y-10630936D02*
X8567205Y-10640460D01*
X8567205Y-10640460D02*
X8548158Y-10649984D01*
X8548158Y-10649984D02*
X8491015Y-10649984D01*
X8491015Y-10649984D02*
X8471967Y-10640460D01*
X8471967Y-10640460D02*
X8462444Y-10630936D01*
X8681491Y-10649984D02*
X8719586Y-10649984D01*
X8719586Y-10649984D02*
X8738634Y-10640460D01*
X8738634Y-10640460D02*
X8748158Y-10630936D01*
X8748158Y-10630936D02*
X8767205Y-10602365D01*
X8767205Y-10602365D02*
X8776729Y-10564270D01*
X8776729Y-10564270D02*
X8776729Y-10488079D01*
X8776729Y-10488079D02*
X8767205Y-10469031D01*
X8767205Y-10469031D02*
X8757682Y-10459508D01*
X8757682Y-10459508D02*
X8738634Y-10449984D01*
X8738634Y-10449984D02*
X8700539Y-10449984D01*
X8700539Y-10449984D02*
X8681491Y-10459508D01*
X8681491Y-10459508D02*
X8671967Y-10469031D01*
X8671967Y-10469031D02*
X8662444Y-10488079D01*
X8662444Y-10488079D02*
X8662444Y-10535698D01*
X8662444Y-10535698D02*
X8671967Y-10554746D01*
X8671967Y-10554746D02*
X8681491Y-10564270D01*
X8681491Y-10564270D02*
X8700539Y-10573793D01*
X8700539Y-10573793D02*
X8738634Y-10573793D01*
X8738634Y-10573793D02*
X8757682Y-10564270D01*
X8757682Y-10564270D02*
X8767205Y-10554746D01*
X8767205Y-10554746D02*
X8776729Y-10535698D01*
X8900539Y-10449984D02*
X8919586Y-10449984D01*
X8919586Y-10449984D02*
X8938634Y-10459508D01*
X8938634Y-10459508D02*
X8948158Y-10469031D01*
X8948158Y-10469031D02*
X8957682Y-10488079D01*
X8957682Y-10488079D02*
X8967205Y-10526174D01*
X8967205Y-10526174D02*
X8967205Y-10573793D01*
X8967205Y-10573793D02*
X8957682Y-10611889D01*
X8957682Y-10611889D02*
X8948158Y-10630936D01*
X8948158Y-10630936D02*
X8938634Y-10640460D01*
X8938634Y-10640460D02*
X8919586Y-10649984D01*
X8919586Y-10649984D02*
X8900539Y-10649984D01*
X8900539Y-10649984D02*
X8881491Y-10640460D01*
X8881491Y-10640460D02*
X8871967Y-10630936D01*
X8871967Y-10630936D02*
X8862444Y-10611889D01*
X8862444Y-10611889D02*
X8852920Y-10573793D01*
X8852920Y-10573793D02*
X8852920Y-10526174D01*
X8852920Y-10526174D02*
X8862444Y-10488079D01*
X8862444Y-10488079D02*
X8871967Y-10469031D01*
X8871967Y-10469031D02*
X8881491Y-10459508D01*
X8881491Y-10459508D02*
X8900539Y-10449984D01*
X9052920Y-10649984D02*
X9052920Y-10516650D01*
X9052920Y-10535698D02*
X9062444Y-10526174D01*
X9062444Y-10526174D02*
X9081491Y-10516650D01*
X9081491Y-10516650D02*
X9110063Y-10516650D01*
X9110063Y-10516650D02*
X9129110Y-10526174D01*
X9129110Y-10526174D02*
X9138634Y-10545222D01*
X9138634Y-10545222D02*
X9138634Y-10649984D01*
X9138634Y-10545222D02*
X9148158Y-10526174D01*
X9148158Y-10526174D02*
X9167205Y-10516650D01*
X9167205Y-10516650D02*
X9195777Y-10516650D01*
X9195777Y-10516650D02*
X9214825Y-10526174D01*
X9214825Y-10526174D02*
X9224348Y-10545222D01*
X9224348Y-10545222D02*
X9224348Y-10649984D01*
X9319586Y-10649984D02*
X9319586Y-10516650D01*
X9319586Y-10535698D02*
X9329110Y-10526174D01*
X9329110Y-10526174D02*
X9348158Y-10516650D01*
X9348158Y-10516650D02*
X9376729Y-10516650D01*
X9376729Y-10516650D02*
X9395777Y-10526174D01*
X9395777Y-10526174D02*
X9405301Y-10545222D01*
X9405301Y-10545222D02*
X9405301Y-10649984D01*
X9405301Y-10545222D02*
X9414825Y-10526174D01*
X9414825Y-10526174D02*
X9433872Y-10516650D01*
X9433872Y-10516650D02*
X9462444Y-10516650D01*
X9462444Y-10516650D02*
X9481491Y-10526174D01*
X9481491Y-10526174D02*
X9491015Y-10545222D01*
X9491015Y-10545222D02*
X9491015Y-10649984D01*
X9881491Y-10440460D02*
X9710063Y-10697603D01*
X10138634Y-10449984D02*
X10157682Y-10449984D01*
X10157682Y-10449984D02*
X10176729Y-10459508D01*
X10176729Y-10459508D02*
X10186253Y-10469031D01*
X10186253Y-10469031D02*
X10195777Y-10488079D01*
X10195777Y-10488079D02*
X10205301Y-10526174D01*
X10205301Y-10526174D02*
X10205301Y-10573793D01*
X10205301Y-10573793D02*
X10195777Y-10611889D01*
X10195777Y-10611889D02*
X10186253Y-10630936D01*
X10186253Y-10630936D02*
X10176729Y-10640460D01*
X10176729Y-10640460D02*
X10157682Y-10649984D01*
X10157682Y-10649984D02*
X10138634Y-10649984D01*
X10138634Y-10649984D02*
X10119587Y-10640460D01*
X10119587Y-10640460D02*
X10110063Y-10630936D01*
X10110063Y-10630936D02*
X10100539Y-10611889D01*
X10100539Y-10611889D02*
X10091015Y-10573793D01*
X10091015Y-10573793D02*
X10091015Y-10526174D01*
X10091015Y-10526174D02*
X10100539Y-10488079D01*
X10100539Y-10488079D02*
X10110063Y-10469031D01*
X10110063Y-10469031D02*
X10119587Y-10459508D01*
X10119587Y-10459508D02*
X10138634Y-10449984D01*
X10291015Y-10630936D02*
X10300539Y-10640460D01*
X10300539Y-10640460D02*
X10291015Y-10649984D01*
X10291015Y-10649984D02*
X10281491Y-10640460D01*
X10281491Y-10640460D02*
X10291015Y-10630936D01*
X10291015Y-10630936D02*
X10291015Y-10649984D01*
X10424348Y-10449984D02*
X10443396Y-10449984D01*
X10443396Y-10449984D02*
X10462444Y-10459508D01*
X10462444Y-10459508D02*
X10471968Y-10469031D01*
X10471968Y-10469031D02*
X10481491Y-10488079D01*
X10481491Y-10488079D02*
X10491015Y-10526174D01*
X10491015Y-10526174D02*
X10491015Y-10573793D01*
X10491015Y-10573793D02*
X10481491Y-10611889D01*
X10481491Y-10611889D02*
X10471968Y-10630936D01*
X10471968Y-10630936D02*
X10462444Y-10640460D01*
X10462444Y-10640460D02*
X10443396Y-10649984D01*
X10443396Y-10649984D02*
X10424348Y-10649984D01*
X10424348Y-10649984D02*
X10405301Y-10640460D01*
X10405301Y-10640460D02*
X10395777Y-10630936D01*
X10395777Y-10630936D02*
X10386253Y-10611889D01*
X10386253Y-10611889D02*
X10376729Y-10573793D01*
X10376729Y-10573793D02*
X10376729Y-10526174D01*
X10376729Y-10526174D02*
X10386253Y-10488079D01*
X10386253Y-10488079D02*
X10395777Y-10469031D01*
X10395777Y-10469031D02*
X10405301Y-10459508D01*
X10405301Y-10459508D02*
X10424348Y-10449984D01*
X10586253Y-10649984D02*
X10624348Y-10649984D01*
X10624348Y-10649984D02*
X10643396Y-10640460D01*
X10643396Y-10640460D02*
X10652920Y-10630936D01*
X10652920Y-10630936D02*
X10671968Y-10602365D01*
X10671968Y-10602365D02*
X10681491Y-10564270D01*
X10681491Y-10564270D02*
X10681491Y-10488079D01*
X10681491Y-10488079D02*
X10671968Y-10469031D01*
X10671968Y-10469031D02*
X10662444Y-10459508D01*
X10662444Y-10459508D02*
X10643396Y-10449984D01*
X10643396Y-10449984D02*
X10605301Y-10449984D01*
X10605301Y-10449984D02*
X10586253Y-10459508D01*
X10586253Y-10459508D02*
X10576729Y-10469031D01*
X10576729Y-10469031D02*
X10567206Y-10488079D01*
X10567206Y-10488079D02*
X10567206Y-10535698D01*
X10567206Y-10535698D02*
X10576729Y-10554746D01*
X10576729Y-10554746D02*
X10586253Y-10564270D01*
X10586253Y-10564270D02*
X10605301Y-10573793D01*
X10605301Y-10573793D02*
X10643396Y-10573793D01*
X10643396Y-10573793D02*
X10662444Y-10564270D01*
X10662444Y-10564270D02*
X10671968Y-10554746D01*
X10671968Y-10554746D02*
X10681491Y-10535698D01*
X10852920Y-10516650D02*
X10852920Y-10649984D01*
X10805301Y-10440460D02*
X10757682Y-10583317D01*
X10757682Y-10583317D02*
X10881491Y-10583317D01*
X11062444Y-10649984D02*
X10948158Y-10649984D01*
X11005301Y-10649984D02*
X11005301Y-10449984D01*
X11005301Y-10449984D02*
X10986253Y-10478555D01*
X10986253Y-10478555D02*
X10967206Y-10497603D01*
X10967206Y-10497603D02*
X10948158Y-10507127D01*
X11138634Y-10449984D02*
X11138634Y-10488079D01*
X11214825Y-10449984D02*
X11214825Y-10488079D01*
X11510063Y-10726174D02*
X11500539Y-10716650D01*
X11500539Y-10716650D02*
X11481491Y-10688079D01*
X11481491Y-10688079D02*
X11471968Y-10669031D01*
X11471968Y-10669031D02*
X11462444Y-10640460D01*
X11462444Y-10640460D02*
X11452920Y-10592841D01*
X11452920Y-10592841D02*
X11452920Y-10554746D01*
X11452920Y-10554746D02*
X11462444Y-10507127D01*
X11462444Y-10507127D02*
X11471968Y-10478555D01*
X11471968Y-10478555D02*
X11481491Y-10459508D01*
X11481491Y-10459508D02*
X11500539Y-10430936D01*
X11500539Y-10430936D02*
X11510063Y-10421412D01*
X11691015Y-10649984D02*
X11576729Y-10649984D01*
X11633872Y-10649984D02*
X11633872Y-10449984D01*
X11633872Y-10449984D02*
X11614825Y-10478555D01*
X11614825Y-10478555D02*
X11595777Y-10497603D01*
X11595777Y-10497603D02*
X11576729Y-10507127D01*
X11929110Y-10649984D02*
X11929110Y-10449984D01*
X12014825Y-10649984D02*
X12014825Y-10545222D01*
X12014825Y-10545222D02*
X12005301Y-10526174D01*
X12005301Y-10526174D02*
X11986253Y-10516650D01*
X11986253Y-10516650D02*
X11957682Y-10516650D01*
X11957682Y-10516650D02*
X11938634Y-10526174D01*
X11938634Y-10526174D02*
X11929110Y-10535698D01*
X12138634Y-10649984D02*
X12119587Y-10640460D01*
X12119587Y-10640460D02*
X12110063Y-10630936D01*
X12110063Y-10630936D02*
X12100539Y-10611889D01*
X12100539Y-10611889D02*
X12100539Y-10554746D01*
X12100539Y-10554746D02*
X12110063Y-10535698D01*
X12110063Y-10535698D02*
X12119587Y-10526174D01*
X12119587Y-10526174D02*
X12138634Y-10516650D01*
X12138634Y-10516650D02*
X12167206Y-10516650D01*
X12167206Y-10516650D02*
X12186253Y-10526174D01*
X12186253Y-10526174D02*
X12195777Y-10535698D01*
X12195777Y-10535698D02*
X12205301Y-10554746D01*
X12205301Y-10554746D02*
X12205301Y-10611889D01*
X12205301Y-10611889D02*
X12195777Y-10630936D01*
X12195777Y-10630936D02*
X12186253Y-10640460D01*
X12186253Y-10640460D02*
X12167206Y-10649984D01*
X12167206Y-10649984D02*
X12138634Y-10649984D01*
X12319587Y-10649984D02*
X12300539Y-10640460D01*
X12300539Y-10640460D02*
X12291015Y-10621412D01*
X12291015Y-10621412D02*
X12291015Y-10449984D01*
X12471968Y-10640460D02*
X12452920Y-10649984D01*
X12452920Y-10649984D02*
X12414825Y-10649984D01*
X12414825Y-10649984D02*
X12395777Y-10640460D01*
X12395777Y-10640460D02*
X12386253Y-10621412D01*
X12386253Y-10621412D02*
X12386253Y-10545222D01*
X12386253Y-10545222D02*
X12395777Y-10526174D01*
X12395777Y-10526174D02*
X12414825Y-10516650D01*
X12414825Y-10516650D02*
X12452920Y-10516650D01*
X12452920Y-10516650D02*
X12471968Y-10526174D01*
X12471968Y-10526174D02*
X12481491Y-10545222D01*
X12481491Y-10545222D02*
X12481491Y-10564270D01*
X12481491Y-10564270D02*
X12386253Y-10583317D01*
X12548158Y-10726174D02*
X12557682Y-10716650D01*
X12557682Y-10716650D02*
X12576730Y-10688079D01*
X12576730Y-10688079D02*
X12586253Y-10669031D01*
X12586253Y-10669031D02*
X12595777Y-10640460D01*
X12595777Y-10640460D02*
X12605301Y-10592841D01*
X12605301Y-10592841D02*
X12605301Y-10554746D01*
X12605301Y-10554746D02*
X12595777Y-10507127D01*
X12595777Y-10507127D02*
X12586253Y-10478555D01*
X12586253Y-10478555D02*
X12576730Y-10459508D01*
X12576730Y-10459508D02*
X12557682Y-10430936D01*
X12557682Y-10430936D02*
X12548158Y-10421412D01*
X12910063Y-10726174D02*
X12900539Y-10716650D01*
X12900539Y-10716650D02*
X12881491Y-10688079D01*
X12881491Y-10688079D02*
X12871968Y-10669031D01*
X12871968Y-10669031D02*
X12862444Y-10640460D01*
X12862444Y-10640460D02*
X12852920Y-10592841D01*
X12852920Y-10592841D02*
X12852920Y-10554746D01*
X12852920Y-10554746D02*
X12862444Y-10507127D01*
X12862444Y-10507127D02*
X12871968Y-10478555D01*
X12871968Y-10478555D02*
X12881491Y-10459508D01*
X12881491Y-10459508D02*
X12900539Y-10430936D01*
X12900539Y-10430936D02*
X12910063Y-10421412D01*
X12986253Y-10516650D02*
X12986253Y-10649984D01*
X12986253Y-10535698D02*
X12995777Y-10526174D01*
X12995777Y-10526174D02*
X13014825Y-10516650D01*
X13014825Y-10516650D02*
X13043396Y-10516650D01*
X13043396Y-10516650D02*
X13062444Y-10526174D01*
X13062444Y-10526174D02*
X13071968Y-10545222D01*
X13071968Y-10545222D02*
X13071968Y-10649984D01*
X13195777Y-10649984D02*
X13176730Y-10640460D01*
X13176730Y-10640460D02*
X13167206Y-10630936D01*
X13167206Y-10630936D02*
X13157682Y-10611889D01*
X13157682Y-10611889D02*
X13157682Y-10554746D01*
X13157682Y-10554746D02*
X13167206Y-10535698D01*
X13167206Y-10535698D02*
X13176730Y-10526174D01*
X13176730Y-10526174D02*
X13195777Y-10516650D01*
X13195777Y-10516650D02*
X13224349Y-10516650D01*
X13224349Y-10516650D02*
X13243396Y-10526174D01*
X13243396Y-10526174D02*
X13252920Y-10535698D01*
X13252920Y-10535698D02*
X13262444Y-10554746D01*
X13262444Y-10554746D02*
X13262444Y-10611889D01*
X13262444Y-10611889D02*
X13252920Y-10630936D01*
X13252920Y-10630936D02*
X13243396Y-10640460D01*
X13243396Y-10640460D02*
X13224349Y-10649984D01*
X13224349Y-10649984D02*
X13195777Y-10649984D01*
X13319587Y-10516650D02*
X13395777Y-10516650D01*
X13348158Y-10449984D02*
X13348158Y-10621412D01*
X13348158Y-10621412D02*
X13357682Y-10640460D01*
X13357682Y-10640460D02*
X13376730Y-10649984D01*
X13376730Y-10649984D02*
X13395777Y-10649984D01*
X13614825Y-10516650D02*
X13614825Y-10716650D01*
X13614825Y-10526174D02*
X13633872Y-10516650D01*
X13633872Y-10516650D02*
X13671968Y-10516650D01*
X13671968Y-10516650D02*
X13691015Y-10526174D01*
X13691015Y-10526174D02*
X13700539Y-10535698D01*
X13700539Y-10535698D02*
X13710063Y-10554746D01*
X13710063Y-10554746D02*
X13710063Y-10611889D01*
X13710063Y-10611889D02*
X13700539Y-10630936D01*
X13700539Y-10630936D02*
X13691015Y-10640460D01*
X13691015Y-10640460D02*
X13671968Y-10649984D01*
X13671968Y-10649984D02*
X13633872Y-10649984D01*
X13633872Y-10649984D02*
X13614825Y-10640460D01*
X13824349Y-10649984D02*
X13805301Y-10640460D01*
X13805301Y-10640460D02*
X13795777Y-10621412D01*
X13795777Y-10621412D02*
X13795777Y-10449984D01*
X13986253Y-10649984D02*
X13986253Y-10545222D01*
X13986253Y-10545222D02*
X13976730Y-10526174D01*
X13976730Y-10526174D02*
X13957682Y-10516650D01*
X13957682Y-10516650D02*
X13919587Y-10516650D01*
X13919587Y-10516650D02*
X13900539Y-10526174D01*
X13986253Y-10640460D02*
X13967206Y-10649984D01*
X13967206Y-10649984D02*
X13919587Y-10649984D01*
X13919587Y-10649984D02*
X13900539Y-10640460D01*
X13900539Y-10640460D02*
X13891015Y-10621412D01*
X13891015Y-10621412D02*
X13891015Y-10602365D01*
X13891015Y-10602365D02*
X13900539Y-10583317D01*
X13900539Y-10583317D02*
X13919587Y-10573793D01*
X13919587Y-10573793D02*
X13967206Y-10573793D01*
X13967206Y-10573793D02*
X13986253Y-10564270D01*
X14052920Y-10516650D02*
X14129111Y-10516650D01*
X14081492Y-10449984D02*
X14081492Y-10621412D01*
X14081492Y-10621412D02*
X14091015Y-10640460D01*
X14091015Y-10640460D02*
X14110063Y-10649984D01*
X14110063Y-10649984D02*
X14129111Y-10649984D01*
X14271968Y-10640460D02*
X14252920Y-10649984D01*
X14252920Y-10649984D02*
X14214825Y-10649984D01*
X14214825Y-10649984D02*
X14195777Y-10640460D01*
X14195777Y-10640460D02*
X14186253Y-10621412D01*
X14186253Y-10621412D02*
X14186253Y-10545222D01*
X14186253Y-10545222D02*
X14195777Y-10526174D01*
X14195777Y-10526174D02*
X14214825Y-10516650D01*
X14214825Y-10516650D02*
X14252920Y-10516650D01*
X14252920Y-10516650D02*
X14271968Y-10526174D01*
X14271968Y-10526174D02*
X14281492Y-10545222D01*
X14281492Y-10545222D02*
X14281492Y-10564270D01*
X14281492Y-10564270D02*
X14186253Y-10583317D01*
X14452920Y-10649984D02*
X14452920Y-10449984D01*
X14452920Y-10640460D02*
X14433873Y-10649984D01*
X14433873Y-10649984D02*
X14395777Y-10649984D01*
X14395777Y-10649984D02*
X14376730Y-10640460D01*
X14376730Y-10640460D02*
X14367206Y-10630936D01*
X14367206Y-10630936D02*
X14357682Y-10611889D01*
X14357682Y-10611889D02*
X14357682Y-10554746D01*
X14357682Y-10554746D02*
X14367206Y-10535698D01*
X14367206Y-10535698D02*
X14376730Y-10526174D01*
X14376730Y-10526174D02*
X14395777Y-10516650D01*
X14395777Y-10516650D02*
X14433873Y-10516650D01*
X14433873Y-10516650D02*
X14452920Y-10526174D01*
X14529111Y-10726174D02*
X14538634Y-10716650D01*
X14538634Y-10716650D02*
X14557682Y-10688079D01*
X14557682Y-10688079D02*
X14567206Y-10669031D01*
X14567206Y-10669031D02*
X14576730Y-10640460D01*
X14576730Y-10640460D02*
X14586253Y-10592841D01*
X14586253Y-10592841D02*
X14586253Y-10554746D01*
X14586253Y-10554746D02*
X14576730Y-10507127D01*
X14576730Y-10507127D02*
X14567206Y-10478555D01*
X14567206Y-10478555D02*
X14557682Y-10459508D01*
X14557682Y-10459508D02*
X14538634Y-10430936D01*
X14538634Y-10430936D02*
X14529111Y-10421412D01*
X7835000Y-10778500D02*
X7835000Y-10978500D01*
X7735000Y-10878500D02*
X7935000Y-10878500D01*
X8176729Y-10769984D02*
X8300539Y-10769984D01*
X8300539Y-10769984D02*
X8233872Y-10846174D01*
X8233872Y-10846174D02*
X8262443Y-10846174D01*
X8262443Y-10846174D02*
X8281491Y-10855698D01*
X8281491Y-10855698D02*
X8291015Y-10865222D01*
X8291015Y-10865222D02*
X8300539Y-10884270D01*
X8300539Y-10884270D02*
X8300539Y-10931889D01*
X8300539Y-10931889D02*
X8291015Y-10950936D01*
X8291015Y-10950936D02*
X8281491Y-10960460D01*
X8281491Y-10960460D02*
X8262443Y-10969984D01*
X8262443Y-10969984D02*
X8205301Y-10969984D01*
X8205301Y-10969984D02*
X8186253Y-10960460D01*
X8186253Y-10960460D02*
X8176729Y-10950936D01*
X8386253Y-10950936D02*
X8395777Y-10960460D01*
X8395777Y-10960460D02*
X8386253Y-10969984D01*
X8386253Y-10969984D02*
X8376729Y-10960460D01*
X8376729Y-10960460D02*
X8386253Y-10950936D01*
X8386253Y-10950936D02*
X8386253Y-10969984D01*
X8586253Y-10969984D02*
X8471967Y-10969984D01*
X8529110Y-10969984D02*
X8529110Y-10769984D01*
X8529110Y-10769984D02*
X8510063Y-10798555D01*
X8510063Y-10798555D02*
X8491015Y-10817603D01*
X8491015Y-10817603D02*
X8471967Y-10827127D01*
X8652920Y-10769984D02*
X8786253Y-10769984D01*
X8786253Y-10769984D02*
X8700539Y-10969984D01*
X8900539Y-10769984D02*
X8919586Y-10769984D01*
X8919586Y-10769984D02*
X8938634Y-10779508D01*
X8938634Y-10779508D02*
X8948158Y-10789031D01*
X8948158Y-10789031D02*
X8957682Y-10808079D01*
X8957682Y-10808079D02*
X8967205Y-10846174D01*
X8967205Y-10846174D02*
X8967205Y-10893793D01*
X8967205Y-10893793D02*
X8957682Y-10931889D01*
X8957682Y-10931889D02*
X8948158Y-10950936D01*
X8948158Y-10950936D02*
X8938634Y-10960460D01*
X8938634Y-10960460D02*
X8919586Y-10969984D01*
X8919586Y-10969984D02*
X8900539Y-10969984D01*
X8900539Y-10969984D02*
X8881491Y-10960460D01*
X8881491Y-10960460D02*
X8871967Y-10950936D01*
X8871967Y-10950936D02*
X8862444Y-10931889D01*
X8862444Y-10931889D02*
X8852920Y-10893793D01*
X8852920Y-10893793D02*
X8852920Y-10846174D01*
X8852920Y-10846174D02*
X8862444Y-10808079D01*
X8862444Y-10808079D02*
X8871967Y-10789031D01*
X8871967Y-10789031D02*
X8881491Y-10779508D01*
X8881491Y-10779508D02*
X8900539Y-10769984D01*
X9052920Y-10969984D02*
X9052920Y-10836650D01*
X9052920Y-10855698D02*
X9062444Y-10846174D01*
X9062444Y-10846174D02*
X9081491Y-10836650D01*
X9081491Y-10836650D02*
X9110063Y-10836650D01*
X9110063Y-10836650D02*
X9129110Y-10846174D01*
X9129110Y-10846174D02*
X9138634Y-10865222D01*
X9138634Y-10865222D02*
X9138634Y-10969984D01*
X9138634Y-10865222D02*
X9148158Y-10846174D01*
X9148158Y-10846174D02*
X9167205Y-10836650D01*
X9167205Y-10836650D02*
X9195777Y-10836650D01*
X9195777Y-10836650D02*
X9214825Y-10846174D01*
X9214825Y-10846174D02*
X9224348Y-10865222D01*
X9224348Y-10865222D02*
X9224348Y-10969984D01*
X9319586Y-10969984D02*
X9319586Y-10836650D01*
X9319586Y-10855698D02*
X9329110Y-10846174D01*
X9329110Y-10846174D02*
X9348158Y-10836650D01*
X9348158Y-10836650D02*
X9376729Y-10836650D01*
X9376729Y-10836650D02*
X9395777Y-10846174D01*
X9395777Y-10846174D02*
X9405301Y-10865222D01*
X9405301Y-10865222D02*
X9405301Y-10969984D01*
X9405301Y-10865222D02*
X9414825Y-10846174D01*
X9414825Y-10846174D02*
X9433872Y-10836650D01*
X9433872Y-10836650D02*
X9462444Y-10836650D01*
X9462444Y-10836650D02*
X9481491Y-10846174D01*
X9481491Y-10846174D02*
X9491015Y-10865222D01*
X9491015Y-10865222D02*
X9491015Y-10969984D01*
X9881491Y-10760460D02*
X9710063Y-11017603D01*
X10138634Y-10769984D02*
X10157682Y-10769984D01*
X10157682Y-10769984D02*
X10176729Y-10779508D01*
X10176729Y-10779508D02*
X10186253Y-10789031D01*
X10186253Y-10789031D02*
X10195777Y-10808079D01*
X10195777Y-10808079D02*
X10205301Y-10846174D01*
X10205301Y-10846174D02*
X10205301Y-10893793D01*
X10205301Y-10893793D02*
X10195777Y-10931889D01*
X10195777Y-10931889D02*
X10186253Y-10950936D01*
X10186253Y-10950936D02*
X10176729Y-10960460D01*
X10176729Y-10960460D02*
X10157682Y-10969984D01*
X10157682Y-10969984D02*
X10138634Y-10969984D01*
X10138634Y-10969984D02*
X10119587Y-10960460D01*
X10119587Y-10960460D02*
X10110063Y-10950936D01*
X10110063Y-10950936D02*
X10100539Y-10931889D01*
X10100539Y-10931889D02*
X10091015Y-10893793D01*
X10091015Y-10893793D02*
X10091015Y-10846174D01*
X10091015Y-10846174D02*
X10100539Y-10808079D01*
X10100539Y-10808079D02*
X10110063Y-10789031D01*
X10110063Y-10789031D02*
X10119587Y-10779508D01*
X10119587Y-10779508D02*
X10138634Y-10769984D01*
X10291015Y-10950936D02*
X10300539Y-10960460D01*
X10300539Y-10960460D02*
X10291015Y-10969984D01*
X10291015Y-10969984D02*
X10281491Y-10960460D01*
X10281491Y-10960460D02*
X10291015Y-10950936D01*
X10291015Y-10950936D02*
X10291015Y-10969984D01*
X10491015Y-10969984D02*
X10376729Y-10969984D01*
X10433872Y-10969984D02*
X10433872Y-10769984D01*
X10433872Y-10769984D02*
X10414825Y-10798555D01*
X10414825Y-10798555D02*
X10395777Y-10817603D01*
X10395777Y-10817603D02*
X10376729Y-10827127D01*
X10567206Y-10789031D02*
X10576729Y-10779508D01*
X10576729Y-10779508D02*
X10595777Y-10769984D01*
X10595777Y-10769984D02*
X10643396Y-10769984D01*
X10643396Y-10769984D02*
X10662444Y-10779508D01*
X10662444Y-10779508D02*
X10671968Y-10789031D01*
X10671968Y-10789031D02*
X10681491Y-10808079D01*
X10681491Y-10808079D02*
X10681491Y-10827127D01*
X10681491Y-10827127D02*
X10671968Y-10855698D01*
X10671968Y-10855698D02*
X10557682Y-10969984D01*
X10557682Y-10969984D02*
X10681491Y-10969984D01*
X10852920Y-10836650D02*
X10852920Y-10969984D01*
X10805301Y-10760460D02*
X10757682Y-10903317D01*
X10757682Y-10903317D02*
X10881491Y-10903317D01*
X10986253Y-10855698D02*
X10967206Y-10846174D01*
X10967206Y-10846174D02*
X10957682Y-10836650D01*
X10957682Y-10836650D02*
X10948158Y-10817603D01*
X10948158Y-10817603D02*
X10948158Y-10808079D01*
X10948158Y-10808079D02*
X10957682Y-10789031D01*
X10957682Y-10789031D02*
X10967206Y-10779508D01*
X10967206Y-10779508D02*
X10986253Y-10769984D01*
X10986253Y-10769984D02*
X11024349Y-10769984D01*
X11024349Y-10769984D02*
X11043396Y-10779508D01*
X11043396Y-10779508D02*
X11052920Y-10789031D01*
X11052920Y-10789031D02*
X11062444Y-10808079D01*
X11062444Y-10808079D02*
X11062444Y-10817603D01*
X11062444Y-10817603D02*
X11052920Y-10836650D01*
X11052920Y-10836650D02*
X11043396Y-10846174D01*
X11043396Y-10846174D02*
X11024349Y-10855698D01*
X11024349Y-10855698D02*
X10986253Y-10855698D01*
X10986253Y-10855698D02*
X10967206Y-10865222D01*
X10967206Y-10865222D02*
X10957682Y-10874746D01*
X10957682Y-10874746D02*
X10948158Y-10893793D01*
X10948158Y-10893793D02*
X10948158Y-10931889D01*
X10948158Y-10931889D02*
X10957682Y-10950936D01*
X10957682Y-10950936D02*
X10967206Y-10960460D01*
X10967206Y-10960460D02*
X10986253Y-10969984D01*
X10986253Y-10969984D02*
X11024349Y-10969984D01*
X11024349Y-10969984D02*
X11043396Y-10960460D01*
X11043396Y-10960460D02*
X11052920Y-10950936D01*
X11052920Y-10950936D02*
X11062444Y-10931889D01*
X11062444Y-10931889D02*
X11062444Y-10893793D01*
X11062444Y-10893793D02*
X11052920Y-10874746D01*
X11052920Y-10874746D02*
X11043396Y-10865222D01*
X11043396Y-10865222D02*
X11024349Y-10855698D01*
X11138634Y-10769984D02*
X11138634Y-10808079D01*
X11214825Y-10769984D02*
X11214825Y-10808079D01*
X11510063Y-11046174D02*
X11500539Y-11036650D01*
X11500539Y-11036650D02*
X11481491Y-11008079D01*
X11481491Y-11008079D02*
X11471968Y-10989031D01*
X11471968Y-10989031D02*
X11462444Y-10960460D01*
X11462444Y-10960460D02*
X11452920Y-10912841D01*
X11452920Y-10912841D02*
X11452920Y-10874746D01*
X11452920Y-10874746D02*
X11462444Y-10827127D01*
X11462444Y-10827127D02*
X11471968Y-10798555D01*
X11471968Y-10798555D02*
X11481491Y-10779508D01*
X11481491Y-10779508D02*
X11500539Y-10750936D01*
X11500539Y-10750936D02*
X11510063Y-10741412D01*
X11576729Y-10789031D02*
X11586253Y-10779508D01*
X11586253Y-10779508D02*
X11605301Y-10769984D01*
X11605301Y-10769984D02*
X11652920Y-10769984D01*
X11652920Y-10769984D02*
X11671968Y-10779508D01*
X11671968Y-10779508D02*
X11681491Y-10789031D01*
X11681491Y-10789031D02*
X11691015Y-10808079D01*
X11691015Y-10808079D02*
X11691015Y-10827127D01*
X11691015Y-10827127D02*
X11681491Y-10855698D01*
X11681491Y-10855698D02*
X11567206Y-10969984D01*
X11567206Y-10969984D02*
X11691015Y-10969984D01*
X11929110Y-10969984D02*
X11929110Y-10769984D01*
X12014825Y-10969984D02*
X12014825Y-10865222D01*
X12014825Y-10865222D02*
X12005301Y-10846174D01*
X12005301Y-10846174D02*
X11986253Y-10836650D01*
X11986253Y-10836650D02*
X11957682Y-10836650D01*
X11957682Y-10836650D02*
X11938634Y-10846174D01*
X11938634Y-10846174D02*
X11929110Y-10855698D01*
X12138634Y-10969984D02*
X12119587Y-10960460D01*
X12119587Y-10960460D02*
X12110063Y-10950936D01*
X12110063Y-10950936D02*
X12100539Y-10931889D01*
X12100539Y-10931889D02*
X12100539Y-10874746D01*
X12100539Y-10874746D02*
X12110063Y-10855698D01*
X12110063Y-10855698D02*
X12119587Y-10846174D01*
X12119587Y-10846174D02*
X12138634Y-10836650D01*
X12138634Y-10836650D02*
X12167206Y-10836650D01*
X12167206Y-10836650D02*
X12186253Y-10846174D01*
X12186253Y-10846174D02*
X12195777Y-10855698D01*
X12195777Y-10855698D02*
X12205301Y-10874746D01*
X12205301Y-10874746D02*
X12205301Y-10931889D01*
X12205301Y-10931889D02*
X12195777Y-10950936D01*
X12195777Y-10950936D02*
X12186253Y-10960460D01*
X12186253Y-10960460D02*
X12167206Y-10969984D01*
X12167206Y-10969984D02*
X12138634Y-10969984D01*
X12319587Y-10969984D02*
X12300539Y-10960460D01*
X12300539Y-10960460D02*
X12291015Y-10941412D01*
X12291015Y-10941412D02*
X12291015Y-10769984D01*
X12471968Y-10960460D02*
X12452920Y-10969984D01*
X12452920Y-10969984D02*
X12414825Y-10969984D01*
X12414825Y-10969984D02*
X12395777Y-10960460D01*
X12395777Y-10960460D02*
X12386253Y-10941412D01*
X12386253Y-10941412D02*
X12386253Y-10865222D01*
X12386253Y-10865222D02*
X12395777Y-10846174D01*
X12395777Y-10846174D02*
X12414825Y-10836650D01*
X12414825Y-10836650D02*
X12452920Y-10836650D01*
X12452920Y-10836650D02*
X12471968Y-10846174D01*
X12471968Y-10846174D02*
X12481491Y-10865222D01*
X12481491Y-10865222D02*
X12481491Y-10884270D01*
X12481491Y-10884270D02*
X12386253Y-10903317D01*
X12557682Y-10960460D02*
X12576730Y-10969984D01*
X12576730Y-10969984D02*
X12614825Y-10969984D01*
X12614825Y-10969984D02*
X12633872Y-10960460D01*
X12633872Y-10960460D02*
X12643396Y-10941412D01*
X12643396Y-10941412D02*
X12643396Y-10931889D01*
X12643396Y-10931889D02*
X12633872Y-10912841D01*
X12633872Y-10912841D02*
X12614825Y-10903317D01*
X12614825Y-10903317D02*
X12586253Y-10903317D01*
X12586253Y-10903317D02*
X12567206Y-10893793D01*
X12567206Y-10893793D02*
X12557682Y-10874746D01*
X12557682Y-10874746D02*
X12557682Y-10865222D01*
X12557682Y-10865222D02*
X12567206Y-10846174D01*
X12567206Y-10846174D02*
X12586253Y-10836650D01*
X12586253Y-10836650D02*
X12614825Y-10836650D01*
X12614825Y-10836650D02*
X12633872Y-10846174D01*
X12710063Y-11046174D02*
X12719587Y-11036650D01*
X12719587Y-11036650D02*
X12738634Y-11008079D01*
X12738634Y-11008079D02*
X12748158Y-10989031D01*
X12748158Y-10989031D02*
X12757682Y-10960460D01*
X12757682Y-10960460D02*
X12767206Y-10912841D01*
X12767206Y-10912841D02*
X12767206Y-10874746D01*
X12767206Y-10874746D02*
X12757682Y-10827127D01*
X12757682Y-10827127D02*
X12748158Y-10798555D01*
X12748158Y-10798555D02*
X12738634Y-10779508D01*
X12738634Y-10779508D02*
X12719587Y-10750936D01*
X12719587Y-10750936D02*
X12710063Y-10741412D01*
X13071968Y-11046174D02*
X13062444Y-11036650D01*
X13062444Y-11036650D02*
X13043396Y-11008079D01*
X13043396Y-11008079D02*
X13033872Y-10989031D01*
X13033872Y-10989031D02*
X13024349Y-10960460D01*
X13024349Y-10960460D02*
X13014825Y-10912841D01*
X13014825Y-10912841D02*
X13014825Y-10874746D01*
X13014825Y-10874746D02*
X13024349Y-10827127D01*
X13024349Y-10827127D02*
X13033872Y-10798555D01*
X13033872Y-10798555D02*
X13043396Y-10779508D01*
X13043396Y-10779508D02*
X13062444Y-10750936D01*
X13062444Y-10750936D02*
X13071968Y-10741412D01*
X13148158Y-10836650D02*
X13148158Y-10969984D01*
X13148158Y-10855698D02*
X13157682Y-10846174D01*
X13157682Y-10846174D02*
X13176730Y-10836650D01*
X13176730Y-10836650D02*
X13205301Y-10836650D01*
X13205301Y-10836650D02*
X13224349Y-10846174D01*
X13224349Y-10846174D02*
X13233872Y-10865222D01*
X13233872Y-10865222D02*
X13233872Y-10969984D01*
X13357682Y-10969984D02*
X13338634Y-10960460D01*
X13338634Y-10960460D02*
X13329111Y-10950936D01*
X13329111Y-10950936D02*
X13319587Y-10931889D01*
X13319587Y-10931889D02*
X13319587Y-10874746D01*
X13319587Y-10874746D02*
X13329111Y-10855698D01*
X13329111Y-10855698D02*
X13338634Y-10846174D01*
X13338634Y-10846174D02*
X13357682Y-10836650D01*
X13357682Y-10836650D02*
X13386253Y-10836650D01*
X13386253Y-10836650D02*
X13405301Y-10846174D01*
X13405301Y-10846174D02*
X13414825Y-10855698D01*
X13414825Y-10855698D02*
X13424349Y-10874746D01*
X13424349Y-10874746D02*
X13424349Y-10931889D01*
X13424349Y-10931889D02*
X13414825Y-10950936D01*
X13414825Y-10950936D02*
X13405301Y-10960460D01*
X13405301Y-10960460D02*
X13386253Y-10969984D01*
X13386253Y-10969984D02*
X13357682Y-10969984D01*
X13481492Y-10836650D02*
X13557682Y-10836650D01*
X13510063Y-10769984D02*
X13510063Y-10941412D01*
X13510063Y-10941412D02*
X13519587Y-10960460D01*
X13519587Y-10960460D02*
X13538634Y-10969984D01*
X13538634Y-10969984D02*
X13557682Y-10969984D01*
X13776730Y-10836650D02*
X13776730Y-11036650D01*
X13776730Y-10846174D02*
X13795777Y-10836650D01*
X13795777Y-10836650D02*
X13833873Y-10836650D01*
X13833873Y-10836650D02*
X13852920Y-10846174D01*
X13852920Y-10846174D02*
X13862444Y-10855698D01*
X13862444Y-10855698D02*
X13871968Y-10874746D01*
X13871968Y-10874746D02*
X13871968Y-10931889D01*
X13871968Y-10931889D02*
X13862444Y-10950936D01*
X13862444Y-10950936D02*
X13852920Y-10960460D01*
X13852920Y-10960460D02*
X13833873Y-10969984D01*
X13833873Y-10969984D02*
X13795777Y-10969984D01*
X13795777Y-10969984D02*
X13776730Y-10960460D01*
X13986253Y-10969984D02*
X13967206Y-10960460D01*
X13967206Y-10960460D02*
X13957682Y-10941412D01*
X13957682Y-10941412D02*
X13957682Y-10769984D01*
X14148158Y-10969984D02*
X14148158Y-10865222D01*
X14148158Y-10865222D02*
X14138634Y-10846174D01*
X14138634Y-10846174D02*
X14119587Y-10836650D01*
X14119587Y-10836650D02*
X14081492Y-10836650D01*
X14081492Y-10836650D02*
X14062444Y-10846174D01*
X14148158Y-10960460D02*
X14129111Y-10969984D01*
X14129111Y-10969984D02*
X14081492Y-10969984D01*
X14081492Y-10969984D02*
X14062444Y-10960460D01*
X14062444Y-10960460D02*
X14052920Y-10941412D01*
X14052920Y-10941412D02*
X14052920Y-10922365D01*
X14052920Y-10922365D02*
X14062444Y-10903317D01*
X14062444Y-10903317D02*
X14081492Y-10893793D01*
X14081492Y-10893793D02*
X14129111Y-10893793D01*
X14129111Y-10893793D02*
X14148158Y-10884270D01*
X14214825Y-10836650D02*
X14291015Y-10836650D01*
X14243396Y-10769984D02*
X14243396Y-10941412D01*
X14243396Y-10941412D02*
X14252920Y-10960460D01*
X14252920Y-10960460D02*
X14271968Y-10969984D01*
X14271968Y-10969984D02*
X14291015Y-10969984D01*
X14433873Y-10960460D02*
X14414825Y-10969984D01*
X14414825Y-10969984D02*
X14376730Y-10969984D01*
X14376730Y-10969984D02*
X14357682Y-10960460D01*
X14357682Y-10960460D02*
X14348158Y-10941412D01*
X14348158Y-10941412D02*
X14348158Y-10865222D01*
X14348158Y-10865222D02*
X14357682Y-10846174D01*
X14357682Y-10846174D02*
X14376730Y-10836650D01*
X14376730Y-10836650D02*
X14414825Y-10836650D01*
X14414825Y-10836650D02*
X14433873Y-10846174D01*
X14433873Y-10846174D02*
X14443396Y-10865222D01*
X14443396Y-10865222D02*
X14443396Y-10884270D01*
X14443396Y-10884270D02*
X14348158Y-10903317D01*
X14614825Y-10969984D02*
X14614825Y-10769984D01*
X14614825Y-10960460D02*
X14595777Y-10969984D01*
X14595777Y-10969984D02*
X14557682Y-10969984D01*
X14557682Y-10969984D02*
X14538634Y-10960460D01*
X14538634Y-10960460D02*
X14529111Y-10950936D01*
X14529111Y-10950936D02*
X14519587Y-10931889D01*
X14519587Y-10931889D02*
X14519587Y-10874746D01*
X14519587Y-10874746D02*
X14529111Y-10855698D01*
X14529111Y-10855698D02*
X14538634Y-10846174D01*
X14538634Y-10846174D02*
X14557682Y-10836650D01*
X14557682Y-10836650D02*
X14595777Y-10836650D01*
X14595777Y-10836650D02*
X14614825Y-10846174D01*
X14691015Y-11046174D02*
X14700539Y-11036650D01*
X14700539Y-11036650D02*
X14719587Y-11008079D01*
X14719587Y-11008079D02*
X14729111Y-10989031D01*
X14729111Y-10989031D02*
X14738634Y-10960460D01*
X14738634Y-10960460D02*
X14748158Y-10912841D01*
X14748158Y-10912841D02*
X14748158Y-10874746D01*
X14748158Y-10874746D02*
X14738634Y-10827127D01*
X14738634Y-10827127D02*
X14729111Y-10798555D01*
X14729111Y-10798555D02*
X14719587Y-10779508D01*
X14719587Y-10779508D02*
X14700539Y-10750936D01*
X14700539Y-10750936D02*
X14691015Y-10741412D01*
X7905711Y-11269211D02*
X7905711Y-11127789D01*
X7764289Y-11127789D01*
X7764289Y-11269211D01*
X7905711Y-11269211D01*
X8176729Y-11089984D02*
X8300539Y-11089984D01*
X8300539Y-11089984D02*
X8233872Y-11166174D01*
X8233872Y-11166174D02*
X8262443Y-11166174D01*
X8262443Y-11166174D02*
X8281491Y-11175698D01*
X8281491Y-11175698D02*
X8291015Y-11185222D01*
X8291015Y-11185222D02*
X8300539Y-11204269D01*
X8300539Y-11204269D02*
X8300539Y-11251888D01*
X8300539Y-11251888D02*
X8291015Y-11270936D01*
X8291015Y-11270936D02*
X8281491Y-11280460D01*
X8281491Y-11280460D02*
X8262443Y-11289984D01*
X8262443Y-11289984D02*
X8205301Y-11289984D01*
X8205301Y-11289984D02*
X8186253Y-11280460D01*
X8186253Y-11280460D02*
X8176729Y-11270936D01*
X8386253Y-11270936D02*
X8395777Y-11280460D01*
X8395777Y-11280460D02*
X8386253Y-11289984D01*
X8386253Y-11289984D02*
X8376729Y-11280460D01*
X8376729Y-11280460D02*
X8386253Y-11270936D01*
X8386253Y-11270936D02*
X8386253Y-11289984D01*
X8471967Y-11109031D02*
X8481491Y-11099508D01*
X8481491Y-11099508D02*
X8500539Y-11089984D01*
X8500539Y-11089984D02*
X8548158Y-11089984D01*
X8548158Y-11089984D02*
X8567205Y-11099508D01*
X8567205Y-11099508D02*
X8576729Y-11109031D01*
X8576729Y-11109031D02*
X8586253Y-11128079D01*
X8586253Y-11128079D02*
X8586253Y-11147127D01*
X8586253Y-11147127D02*
X8576729Y-11175698D01*
X8576729Y-11175698D02*
X8462444Y-11289984D01*
X8462444Y-11289984D02*
X8586253Y-11289984D01*
X8710063Y-11089984D02*
X8729110Y-11089984D01*
X8729110Y-11089984D02*
X8748158Y-11099508D01*
X8748158Y-11099508D02*
X8757682Y-11109031D01*
X8757682Y-11109031D02*
X8767205Y-11128079D01*
X8767205Y-11128079D02*
X8776729Y-11166174D01*
X8776729Y-11166174D02*
X8776729Y-11213793D01*
X8776729Y-11213793D02*
X8767205Y-11251888D01*
X8767205Y-11251888D02*
X8757682Y-11270936D01*
X8757682Y-11270936D02*
X8748158Y-11280460D01*
X8748158Y-11280460D02*
X8729110Y-11289984D01*
X8729110Y-11289984D02*
X8710063Y-11289984D01*
X8710063Y-11289984D02*
X8691015Y-11280460D01*
X8691015Y-11280460D02*
X8681491Y-11270936D01*
X8681491Y-11270936D02*
X8671967Y-11251888D01*
X8671967Y-11251888D02*
X8662444Y-11213793D01*
X8662444Y-11213793D02*
X8662444Y-11166174D01*
X8662444Y-11166174D02*
X8671967Y-11128079D01*
X8671967Y-11128079D02*
X8681491Y-11109031D01*
X8681491Y-11109031D02*
X8691015Y-11099508D01*
X8691015Y-11099508D02*
X8710063Y-11089984D01*
X8900539Y-11089984D02*
X8919586Y-11089984D01*
X8919586Y-11089984D02*
X8938634Y-11099508D01*
X8938634Y-11099508D02*
X8948158Y-11109031D01*
X8948158Y-11109031D02*
X8957682Y-11128079D01*
X8957682Y-11128079D02*
X8967205Y-11166174D01*
X8967205Y-11166174D02*
X8967205Y-11213793D01*
X8967205Y-11213793D02*
X8957682Y-11251888D01*
X8957682Y-11251888D02*
X8948158Y-11270936D01*
X8948158Y-11270936D02*
X8938634Y-11280460D01*
X8938634Y-11280460D02*
X8919586Y-11289984D01*
X8919586Y-11289984D02*
X8900539Y-11289984D01*
X8900539Y-11289984D02*
X8881491Y-11280460D01*
X8881491Y-11280460D02*
X8871967Y-11270936D01*
X8871967Y-11270936D02*
X8862444Y-11251888D01*
X8862444Y-11251888D02*
X8852920Y-11213793D01*
X8852920Y-11213793D02*
X8852920Y-11166174D01*
X8852920Y-11166174D02*
X8862444Y-11128079D01*
X8862444Y-11128079D02*
X8871967Y-11109031D01*
X8871967Y-11109031D02*
X8881491Y-11099508D01*
X8881491Y-11099508D02*
X8900539Y-11089984D01*
X9052920Y-11289984D02*
X9052920Y-11156650D01*
X9052920Y-11175698D02*
X9062444Y-11166174D01*
X9062444Y-11166174D02*
X9081491Y-11156650D01*
X9081491Y-11156650D02*
X9110063Y-11156650D01*
X9110063Y-11156650D02*
X9129110Y-11166174D01*
X9129110Y-11166174D02*
X9138634Y-11185222D01*
X9138634Y-11185222D02*
X9138634Y-11289984D01*
X9138634Y-11185222D02*
X9148158Y-11166174D01*
X9148158Y-11166174D02*
X9167205Y-11156650D01*
X9167205Y-11156650D02*
X9195777Y-11156650D01*
X9195777Y-11156650D02*
X9214825Y-11166174D01*
X9214825Y-11166174D02*
X9224348Y-11185222D01*
X9224348Y-11185222D02*
X9224348Y-11289984D01*
X9319586Y-11289984D02*
X9319586Y-11156650D01*
X9319586Y-11175698D02*
X9329110Y-11166174D01*
X9329110Y-11166174D02*
X9348158Y-11156650D01*
X9348158Y-11156650D02*
X9376729Y-11156650D01*
X9376729Y-11156650D02*
X9395777Y-11166174D01*
X9395777Y-11166174D02*
X9405301Y-11185222D01*
X9405301Y-11185222D02*
X9405301Y-11289984D01*
X9405301Y-11185222D02*
X9414825Y-11166174D01*
X9414825Y-11166174D02*
X9433872Y-11156650D01*
X9433872Y-11156650D02*
X9462444Y-11156650D01*
X9462444Y-11156650D02*
X9481491Y-11166174D01*
X9481491Y-11166174D02*
X9491015Y-11185222D01*
X9491015Y-11185222D02*
X9491015Y-11289984D01*
X9881491Y-11080460D02*
X9710063Y-11337603D01*
X10138634Y-11089984D02*
X10157682Y-11089984D01*
X10157682Y-11089984D02*
X10176729Y-11099508D01*
X10176729Y-11099508D02*
X10186253Y-11109031D01*
X10186253Y-11109031D02*
X10195777Y-11128079D01*
X10195777Y-11128079D02*
X10205301Y-11166174D01*
X10205301Y-11166174D02*
X10205301Y-11213793D01*
X10205301Y-11213793D02*
X10195777Y-11251888D01*
X10195777Y-11251888D02*
X10186253Y-11270936D01*
X10186253Y-11270936D02*
X10176729Y-11280460D01*
X10176729Y-11280460D02*
X10157682Y-11289984D01*
X10157682Y-11289984D02*
X10138634Y-11289984D01*
X10138634Y-11289984D02*
X10119587Y-11280460D01*
X10119587Y-11280460D02*
X10110063Y-11270936D01*
X10110063Y-11270936D02*
X10100539Y-11251888D01*
X10100539Y-11251888D02*
X10091015Y-11213793D01*
X10091015Y-11213793D02*
X10091015Y-11166174D01*
X10091015Y-11166174D02*
X10100539Y-11128079D01*
X10100539Y-11128079D02*
X10110063Y-11109031D01*
X10110063Y-11109031D02*
X10119587Y-11099508D01*
X10119587Y-11099508D02*
X10138634Y-11089984D01*
X10291015Y-11270936D02*
X10300539Y-11280460D01*
X10300539Y-11280460D02*
X10291015Y-11289984D01*
X10291015Y-11289984D02*
X10281491Y-11280460D01*
X10281491Y-11280460D02*
X10291015Y-11270936D01*
X10291015Y-11270936D02*
X10291015Y-11289984D01*
X10491015Y-11289984D02*
X10376729Y-11289984D01*
X10433872Y-11289984D02*
X10433872Y-11089984D01*
X10433872Y-11089984D02*
X10414825Y-11118555D01*
X10414825Y-11118555D02*
X10395777Y-11137603D01*
X10395777Y-11137603D02*
X10376729Y-11147127D01*
X10567206Y-11109031D02*
X10576729Y-11099508D01*
X10576729Y-11099508D02*
X10595777Y-11089984D01*
X10595777Y-11089984D02*
X10643396Y-11089984D01*
X10643396Y-11089984D02*
X10662444Y-11099508D01*
X10662444Y-11099508D02*
X10671968Y-11109031D01*
X10671968Y-11109031D02*
X10681491Y-11128079D01*
X10681491Y-11128079D02*
X10681491Y-11147127D01*
X10681491Y-11147127D02*
X10671968Y-11175698D01*
X10671968Y-11175698D02*
X10557682Y-11289984D01*
X10557682Y-11289984D02*
X10681491Y-11289984D01*
X10852920Y-11089984D02*
X10814825Y-11089984D01*
X10814825Y-11089984D02*
X10795777Y-11099508D01*
X10795777Y-11099508D02*
X10786253Y-11109031D01*
X10786253Y-11109031D02*
X10767206Y-11137603D01*
X10767206Y-11137603D02*
X10757682Y-11175698D01*
X10757682Y-11175698D02*
X10757682Y-11251888D01*
X10757682Y-11251888D02*
X10767206Y-11270936D01*
X10767206Y-11270936D02*
X10776729Y-11280460D01*
X10776729Y-11280460D02*
X10795777Y-11289984D01*
X10795777Y-11289984D02*
X10833872Y-11289984D01*
X10833872Y-11289984D02*
X10852920Y-11280460D01*
X10852920Y-11280460D02*
X10862444Y-11270936D01*
X10862444Y-11270936D02*
X10871968Y-11251888D01*
X10871968Y-11251888D02*
X10871968Y-11204269D01*
X10871968Y-11204269D02*
X10862444Y-11185222D01*
X10862444Y-11185222D02*
X10852920Y-11175698D01*
X10852920Y-11175698D02*
X10833872Y-11166174D01*
X10833872Y-11166174D02*
X10795777Y-11166174D01*
X10795777Y-11166174D02*
X10776729Y-11175698D01*
X10776729Y-11175698D02*
X10767206Y-11185222D01*
X10767206Y-11185222D02*
X10757682Y-11204269D01*
X10995777Y-11089984D02*
X11014825Y-11089984D01*
X11014825Y-11089984D02*
X11033872Y-11099508D01*
X11033872Y-11099508D02*
X11043396Y-11109031D01*
X11043396Y-11109031D02*
X11052920Y-11128079D01*
X11052920Y-11128079D02*
X11062444Y-11166174D01*
X11062444Y-11166174D02*
X11062444Y-11213793D01*
X11062444Y-11213793D02*
X11052920Y-11251888D01*
X11052920Y-11251888D02*
X11043396Y-11270936D01*
X11043396Y-11270936D02*
X11033872Y-11280460D01*
X11033872Y-11280460D02*
X11014825Y-11289984D01*
X11014825Y-11289984D02*
X10995777Y-11289984D01*
X10995777Y-11289984D02*
X10976729Y-11280460D01*
X10976729Y-11280460D02*
X10967206Y-11270936D01*
X10967206Y-11270936D02*
X10957682Y-11251888D01*
X10957682Y-11251888D02*
X10948158Y-11213793D01*
X10948158Y-11213793D02*
X10948158Y-11166174D01*
X10948158Y-11166174D02*
X10957682Y-11128079D01*
X10957682Y-11128079D02*
X10967206Y-11109031D01*
X10967206Y-11109031D02*
X10976729Y-11099508D01*
X10976729Y-11099508D02*
X10995777Y-11089984D01*
X11138634Y-11089984D02*
X11138634Y-11128079D01*
X11214825Y-11089984D02*
X11214825Y-11128079D01*
X11510063Y-11366174D02*
X11500539Y-11356650D01*
X11500539Y-11356650D02*
X11481491Y-11328079D01*
X11481491Y-11328079D02*
X11471968Y-11309031D01*
X11471968Y-11309031D02*
X11462444Y-11280460D01*
X11462444Y-11280460D02*
X11452920Y-11232841D01*
X11452920Y-11232841D02*
X11452920Y-11194746D01*
X11452920Y-11194746D02*
X11462444Y-11147127D01*
X11462444Y-11147127D02*
X11471968Y-11118555D01*
X11471968Y-11118555D02*
X11481491Y-11099508D01*
X11481491Y-11099508D02*
X11500539Y-11070936D01*
X11500539Y-11070936D02*
X11510063Y-11061412D01*
X11671968Y-11156650D02*
X11671968Y-11289984D01*
X11624348Y-11080460D02*
X11576729Y-11223317D01*
X11576729Y-11223317D02*
X11700539Y-11223317D01*
X11929110Y-11289984D02*
X11929110Y-11089984D01*
X12014825Y-11289984D02*
X12014825Y-11185222D01*
X12014825Y-11185222D02*
X12005301Y-11166174D01*
X12005301Y-11166174D02*
X11986253Y-11156650D01*
X11986253Y-11156650D02*
X11957682Y-11156650D01*
X11957682Y-11156650D02*
X11938634Y-11166174D01*
X11938634Y-11166174D02*
X11929110Y-11175698D01*
X12138634Y-11289984D02*
X12119587Y-11280460D01*
X12119587Y-11280460D02*
X12110063Y-11270936D01*
X12110063Y-11270936D02*
X12100539Y-11251888D01*
X12100539Y-11251888D02*
X12100539Y-11194746D01*
X12100539Y-11194746D02*
X12110063Y-11175698D01*
X12110063Y-11175698D02*
X12119587Y-11166174D01*
X12119587Y-11166174D02*
X12138634Y-11156650D01*
X12138634Y-11156650D02*
X12167206Y-11156650D01*
X12167206Y-11156650D02*
X12186253Y-11166174D01*
X12186253Y-11166174D02*
X12195777Y-11175698D01*
X12195777Y-11175698D02*
X12205301Y-11194746D01*
X12205301Y-11194746D02*
X12205301Y-11251888D01*
X12205301Y-11251888D02*
X12195777Y-11270936D01*
X12195777Y-11270936D02*
X12186253Y-11280460D01*
X12186253Y-11280460D02*
X12167206Y-11289984D01*
X12167206Y-11289984D02*
X12138634Y-11289984D01*
X12319587Y-11289984D02*
X12300539Y-11280460D01*
X12300539Y-11280460D02*
X12291015Y-11261412D01*
X12291015Y-11261412D02*
X12291015Y-11089984D01*
X12471968Y-11280460D02*
X12452920Y-11289984D01*
X12452920Y-11289984D02*
X12414825Y-11289984D01*
X12414825Y-11289984D02*
X12395777Y-11280460D01*
X12395777Y-11280460D02*
X12386253Y-11261412D01*
X12386253Y-11261412D02*
X12386253Y-11185222D01*
X12386253Y-11185222D02*
X12395777Y-11166174D01*
X12395777Y-11166174D02*
X12414825Y-11156650D01*
X12414825Y-11156650D02*
X12452920Y-11156650D01*
X12452920Y-11156650D02*
X12471968Y-11166174D01*
X12471968Y-11166174D02*
X12481491Y-11185222D01*
X12481491Y-11185222D02*
X12481491Y-11204269D01*
X12481491Y-11204269D02*
X12386253Y-11223317D01*
X12557682Y-11280460D02*
X12576730Y-11289984D01*
X12576730Y-11289984D02*
X12614825Y-11289984D01*
X12614825Y-11289984D02*
X12633872Y-11280460D01*
X12633872Y-11280460D02*
X12643396Y-11261412D01*
X12643396Y-11261412D02*
X12643396Y-11251888D01*
X12643396Y-11251888D02*
X12633872Y-11232841D01*
X12633872Y-11232841D02*
X12614825Y-11223317D01*
X12614825Y-11223317D02*
X12586253Y-11223317D01*
X12586253Y-11223317D02*
X12567206Y-11213793D01*
X12567206Y-11213793D02*
X12557682Y-11194746D01*
X12557682Y-11194746D02*
X12557682Y-11185222D01*
X12557682Y-11185222D02*
X12567206Y-11166174D01*
X12567206Y-11166174D02*
X12586253Y-11156650D01*
X12586253Y-11156650D02*
X12614825Y-11156650D01*
X12614825Y-11156650D02*
X12633872Y-11166174D01*
X12710063Y-11366174D02*
X12719587Y-11356650D01*
X12719587Y-11356650D02*
X12738634Y-11328079D01*
X12738634Y-11328079D02*
X12748158Y-11309031D01*
X12748158Y-11309031D02*
X12757682Y-11280460D01*
X12757682Y-11280460D02*
X12767206Y-11232841D01*
X12767206Y-11232841D02*
X12767206Y-11194746D01*
X12767206Y-11194746D02*
X12757682Y-11147127D01*
X12757682Y-11147127D02*
X12748158Y-11118555D01*
X12748158Y-11118555D02*
X12738634Y-11099508D01*
X12738634Y-11099508D02*
X12719587Y-11070936D01*
X12719587Y-11070936D02*
X12710063Y-11061412D01*
X13071968Y-11366174D02*
X13062444Y-11356650D01*
X13062444Y-11356650D02*
X13043396Y-11328079D01*
X13043396Y-11328079D02*
X13033872Y-11309031D01*
X13033872Y-11309031D02*
X13024349Y-11280460D01*
X13024349Y-11280460D02*
X13014825Y-11232841D01*
X13014825Y-11232841D02*
X13014825Y-11194746D01*
X13014825Y-11194746D02*
X13024349Y-11147127D01*
X13024349Y-11147127D02*
X13033872Y-11118555D01*
X13033872Y-11118555D02*
X13043396Y-11099508D01*
X13043396Y-11099508D02*
X13062444Y-11070936D01*
X13062444Y-11070936D02*
X13071968Y-11061412D01*
X13148158Y-11156650D02*
X13148158Y-11289984D01*
X13148158Y-11175698D02*
X13157682Y-11166174D01*
X13157682Y-11166174D02*
X13176730Y-11156650D01*
X13176730Y-11156650D02*
X13205301Y-11156650D01*
X13205301Y-11156650D02*
X13224349Y-11166174D01*
X13224349Y-11166174D02*
X13233872Y-11185222D01*
X13233872Y-11185222D02*
X13233872Y-11289984D01*
X13357682Y-11289984D02*
X13338634Y-11280460D01*
X13338634Y-11280460D02*
X13329111Y-11270936D01*
X13329111Y-11270936D02*
X13319587Y-11251888D01*
X13319587Y-11251888D02*
X13319587Y-11194746D01*
X13319587Y-11194746D02*
X13329111Y-11175698D01*
X13329111Y-11175698D02*
X13338634Y-11166174D01*
X13338634Y-11166174D02*
X13357682Y-11156650D01*
X13357682Y-11156650D02*
X13386253Y-11156650D01*
X13386253Y-11156650D02*
X13405301Y-11166174D01*
X13405301Y-11166174D02*
X13414825Y-11175698D01*
X13414825Y-11175698D02*
X13424349Y-11194746D01*
X13424349Y-11194746D02*
X13424349Y-11251888D01*
X13424349Y-11251888D02*
X13414825Y-11270936D01*
X13414825Y-11270936D02*
X13405301Y-11280460D01*
X13405301Y-11280460D02*
X13386253Y-11289984D01*
X13386253Y-11289984D02*
X13357682Y-11289984D01*
X13481492Y-11156650D02*
X13557682Y-11156650D01*
X13510063Y-11089984D02*
X13510063Y-11261412D01*
X13510063Y-11261412D02*
X13519587Y-11280460D01*
X13519587Y-11280460D02*
X13538634Y-11289984D01*
X13538634Y-11289984D02*
X13557682Y-11289984D01*
X13776730Y-11156650D02*
X13776730Y-11356650D01*
X13776730Y-11166174D02*
X13795777Y-11156650D01*
X13795777Y-11156650D02*
X13833873Y-11156650D01*
X13833873Y-11156650D02*
X13852920Y-11166174D01*
X13852920Y-11166174D02*
X13862444Y-11175698D01*
X13862444Y-11175698D02*
X13871968Y-11194746D01*
X13871968Y-11194746D02*
X13871968Y-11251888D01*
X13871968Y-11251888D02*
X13862444Y-11270936D01*
X13862444Y-11270936D02*
X13852920Y-11280460D01*
X13852920Y-11280460D02*
X13833873Y-11289984D01*
X13833873Y-11289984D02*
X13795777Y-11289984D01*
X13795777Y-11289984D02*
X13776730Y-11280460D01*
X13986253Y-11289984D02*
X13967206Y-11280460D01*
X13967206Y-11280460D02*
X13957682Y-11261412D01*
X13957682Y-11261412D02*
X13957682Y-11089984D01*
X14148158Y-11289984D02*
X14148158Y-11185222D01*
X14148158Y-11185222D02*
X14138634Y-11166174D01*
X14138634Y-11166174D02*
X14119587Y-11156650D01*
X14119587Y-11156650D02*
X14081492Y-11156650D01*
X14081492Y-11156650D02*
X14062444Y-11166174D01*
X14148158Y-11280460D02*
X14129111Y-11289984D01*
X14129111Y-11289984D02*
X14081492Y-11289984D01*
X14081492Y-11289984D02*
X14062444Y-11280460D01*
X14062444Y-11280460D02*
X14052920Y-11261412D01*
X14052920Y-11261412D02*
X14052920Y-11242365D01*
X14052920Y-11242365D02*
X14062444Y-11223317D01*
X14062444Y-11223317D02*
X14081492Y-11213793D01*
X14081492Y-11213793D02*
X14129111Y-11213793D01*
X14129111Y-11213793D02*
X14148158Y-11204269D01*
X14214825Y-11156650D02*
X14291015Y-11156650D01*
X14243396Y-11089984D02*
X14243396Y-11261412D01*
X14243396Y-11261412D02*
X14252920Y-11280460D01*
X14252920Y-11280460D02*
X14271968Y-11289984D01*
X14271968Y-11289984D02*
X14291015Y-11289984D01*
X14433873Y-11280460D02*
X14414825Y-11289984D01*
X14414825Y-11289984D02*
X14376730Y-11289984D01*
X14376730Y-11289984D02*
X14357682Y-11280460D01*
X14357682Y-11280460D02*
X14348158Y-11261412D01*
X14348158Y-11261412D02*
X14348158Y-11185222D01*
X14348158Y-11185222D02*
X14357682Y-11166174D01*
X14357682Y-11166174D02*
X14376730Y-11156650D01*
X14376730Y-11156650D02*
X14414825Y-11156650D01*
X14414825Y-11156650D02*
X14433873Y-11166174D01*
X14433873Y-11166174D02*
X14443396Y-11185222D01*
X14443396Y-11185222D02*
X14443396Y-11204269D01*
X14443396Y-11204269D02*
X14348158Y-11223317D01*
X14614825Y-11289984D02*
X14614825Y-11089984D01*
X14614825Y-11280460D02*
X14595777Y-11289984D01*
X14595777Y-11289984D02*
X14557682Y-11289984D01*
X14557682Y-11289984D02*
X14538634Y-11280460D01*
X14538634Y-11280460D02*
X14529111Y-11270936D01*
X14529111Y-11270936D02*
X14519587Y-11251888D01*
X14519587Y-11251888D02*
X14519587Y-11194746D01*
X14519587Y-11194746D02*
X14529111Y-11175698D01*
X14529111Y-11175698D02*
X14538634Y-11166174D01*
X14538634Y-11166174D02*
X14557682Y-11156650D01*
X14557682Y-11156650D02*
X14595777Y-11156650D01*
X14595777Y-11156650D02*
X14614825Y-11166174D01*
X14691015Y-11366174D02*
X14700539Y-11356650D01*
X14700539Y-11356650D02*
X14719587Y-11328079D01*
X14719587Y-11328079D02*
X14729111Y-11309031D01*
X14729111Y-11309031D02*
X14738634Y-11280460D01*
X14738634Y-11280460D02*
X14748158Y-11232841D01*
X14748158Y-11232841D02*
X14748158Y-11194746D01*
X14748158Y-11194746D02*
X14738634Y-11147127D01*
X14738634Y-11147127D02*
X14729111Y-11118555D01*
X14729111Y-11118555D02*
X14719587Y-11099508D01*
X14719587Y-11099508D02*
X14700539Y-11070936D01*
X14700539Y-11070936D02*
X14691015Y-11061412D01*
X7835000Y-11618500D02*
X7935000Y-11518500D01*
X7835000Y-11418500D01*
X7735000Y-11518500D01*
X7835000Y-11618500D01*
X8176729Y-11409984D02*
X8300539Y-11409984D01*
X8300539Y-11409984D02*
X8233872Y-11486174D01*
X8233872Y-11486174D02*
X8262443Y-11486174D01*
X8262443Y-11486174D02*
X8281491Y-11495698D01*
X8281491Y-11495698D02*
X8291015Y-11505222D01*
X8291015Y-11505222D02*
X8300539Y-11524269D01*
X8300539Y-11524269D02*
X8300539Y-11571888D01*
X8300539Y-11571888D02*
X8291015Y-11590936D01*
X8291015Y-11590936D02*
X8281491Y-11600460D01*
X8281491Y-11600460D02*
X8262443Y-11609984D01*
X8262443Y-11609984D02*
X8205301Y-11609984D01*
X8205301Y-11609984D02*
X8186253Y-11600460D01*
X8186253Y-11600460D02*
X8176729Y-11590936D01*
X8386253Y-11590936D02*
X8395777Y-11600460D01*
X8395777Y-11600460D02*
X8386253Y-11609984D01*
X8386253Y-11609984D02*
X8376729Y-11600460D01*
X8376729Y-11600460D02*
X8386253Y-11590936D01*
X8386253Y-11590936D02*
X8386253Y-11609984D01*
X8567205Y-11476650D02*
X8567205Y-11609984D01*
X8519586Y-11400460D02*
X8471967Y-11543317D01*
X8471967Y-11543317D02*
X8595777Y-11543317D01*
X8767205Y-11409984D02*
X8671967Y-11409984D01*
X8671967Y-11409984D02*
X8662444Y-11505222D01*
X8662444Y-11505222D02*
X8671967Y-11495698D01*
X8671967Y-11495698D02*
X8691015Y-11486174D01*
X8691015Y-11486174D02*
X8738634Y-11486174D01*
X8738634Y-11486174D02*
X8757682Y-11495698D01*
X8757682Y-11495698D02*
X8767205Y-11505222D01*
X8767205Y-11505222D02*
X8776729Y-11524269D01*
X8776729Y-11524269D02*
X8776729Y-11571888D01*
X8776729Y-11571888D02*
X8767205Y-11590936D01*
X8767205Y-11590936D02*
X8757682Y-11600460D01*
X8757682Y-11600460D02*
X8738634Y-11609984D01*
X8738634Y-11609984D02*
X8691015Y-11609984D01*
X8691015Y-11609984D02*
X8671967Y-11600460D01*
X8671967Y-11600460D02*
X8662444Y-11590936D01*
X8900539Y-11409984D02*
X8919586Y-11409984D01*
X8919586Y-11409984D02*
X8938634Y-11419508D01*
X8938634Y-11419508D02*
X8948158Y-11429031D01*
X8948158Y-11429031D02*
X8957682Y-11448079D01*
X8957682Y-11448079D02*
X8967205Y-11486174D01*
X8967205Y-11486174D02*
X8967205Y-11533793D01*
X8967205Y-11533793D02*
X8957682Y-11571888D01*
X8957682Y-11571888D02*
X8948158Y-11590936D01*
X8948158Y-11590936D02*
X8938634Y-11600460D01*
X8938634Y-11600460D02*
X8919586Y-11609984D01*
X8919586Y-11609984D02*
X8900539Y-11609984D01*
X8900539Y-11609984D02*
X8881491Y-11600460D01*
X8881491Y-11600460D02*
X8871967Y-11590936D01*
X8871967Y-11590936D02*
X8862444Y-11571888D01*
X8862444Y-11571888D02*
X8852920Y-11533793D01*
X8852920Y-11533793D02*
X8852920Y-11486174D01*
X8852920Y-11486174D02*
X8862444Y-11448079D01*
X8862444Y-11448079D02*
X8871967Y-11429031D01*
X8871967Y-11429031D02*
X8881491Y-11419508D01*
X8881491Y-11419508D02*
X8900539Y-11409984D01*
X9052920Y-11609984D02*
X9052920Y-11476650D01*
X9052920Y-11495698D02*
X9062444Y-11486174D01*
X9062444Y-11486174D02*
X9081491Y-11476650D01*
X9081491Y-11476650D02*
X9110063Y-11476650D01*
X9110063Y-11476650D02*
X9129110Y-11486174D01*
X9129110Y-11486174D02*
X9138634Y-11505222D01*
X9138634Y-11505222D02*
X9138634Y-11609984D01*
X9138634Y-11505222D02*
X9148158Y-11486174D01*
X9148158Y-11486174D02*
X9167205Y-11476650D01*
X9167205Y-11476650D02*
X9195777Y-11476650D01*
X9195777Y-11476650D02*
X9214825Y-11486174D01*
X9214825Y-11486174D02*
X9224348Y-11505222D01*
X9224348Y-11505222D02*
X9224348Y-11609984D01*
X9319586Y-11609984D02*
X9319586Y-11476650D01*
X9319586Y-11495698D02*
X9329110Y-11486174D01*
X9329110Y-11486174D02*
X9348158Y-11476650D01*
X9348158Y-11476650D02*
X9376729Y-11476650D01*
X9376729Y-11476650D02*
X9395777Y-11486174D01*
X9395777Y-11486174D02*
X9405301Y-11505222D01*
X9405301Y-11505222D02*
X9405301Y-11609984D01*
X9405301Y-11505222D02*
X9414825Y-11486174D01*
X9414825Y-11486174D02*
X9433872Y-11476650D01*
X9433872Y-11476650D02*
X9462444Y-11476650D01*
X9462444Y-11476650D02*
X9481491Y-11486174D01*
X9481491Y-11486174D02*
X9491015Y-11505222D01*
X9491015Y-11505222D02*
X9491015Y-11609984D01*
X9881491Y-11400460D02*
X9710063Y-11657603D01*
X10138634Y-11409984D02*
X10157682Y-11409984D01*
X10157682Y-11409984D02*
X10176729Y-11419508D01*
X10176729Y-11419508D02*
X10186253Y-11429031D01*
X10186253Y-11429031D02*
X10195777Y-11448079D01*
X10195777Y-11448079D02*
X10205301Y-11486174D01*
X10205301Y-11486174D02*
X10205301Y-11533793D01*
X10205301Y-11533793D02*
X10195777Y-11571888D01*
X10195777Y-11571888D02*
X10186253Y-11590936D01*
X10186253Y-11590936D02*
X10176729Y-11600460D01*
X10176729Y-11600460D02*
X10157682Y-11609984D01*
X10157682Y-11609984D02*
X10138634Y-11609984D01*
X10138634Y-11609984D02*
X10119587Y-11600460D01*
X10119587Y-11600460D02*
X10110063Y-11590936D01*
X10110063Y-11590936D02*
X10100539Y-11571888D01*
X10100539Y-11571888D02*
X10091015Y-11533793D01*
X10091015Y-11533793D02*
X10091015Y-11486174D01*
X10091015Y-11486174D02*
X10100539Y-11448079D01*
X10100539Y-11448079D02*
X10110063Y-11429031D01*
X10110063Y-11429031D02*
X10119587Y-11419508D01*
X10119587Y-11419508D02*
X10138634Y-11409984D01*
X10291015Y-11590936D02*
X10300539Y-11600460D01*
X10300539Y-11600460D02*
X10291015Y-11609984D01*
X10291015Y-11609984D02*
X10281491Y-11600460D01*
X10281491Y-11600460D02*
X10291015Y-11590936D01*
X10291015Y-11590936D02*
X10291015Y-11609984D01*
X10491015Y-11609984D02*
X10376729Y-11609984D01*
X10433872Y-11609984D02*
X10433872Y-11409984D01*
X10433872Y-11409984D02*
X10414825Y-11438555D01*
X10414825Y-11438555D02*
X10395777Y-11457603D01*
X10395777Y-11457603D02*
X10376729Y-11467127D01*
X10557682Y-11409984D02*
X10681491Y-11409984D01*
X10681491Y-11409984D02*
X10614825Y-11486174D01*
X10614825Y-11486174D02*
X10643396Y-11486174D01*
X10643396Y-11486174D02*
X10662444Y-11495698D01*
X10662444Y-11495698D02*
X10671968Y-11505222D01*
X10671968Y-11505222D02*
X10681491Y-11524269D01*
X10681491Y-11524269D02*
X10681491Y-11571888D01*
X10681491Y-11571888D02*
X10671968Y-11590936D01*
X10671968Y-11590936D02*
X10662444Y-11600460D01*
X10662444Y-11600460D02*
X10643396Y-11609984D01*
X10643396Y-11609984D02*
X10586253Y-11609984D01*
X10586253Y-11609984D02*
X10567206Y-11600460D01*
X10567206Y-11600460D02*
X10557682Y-11590936D01*
X10862444Y-11409984D02*
X10767206Y-11409984D01*
X10767206Y-11409984D02*
X10757682Y-11505222D01*
X10757682Y-11505222D02*
X10767206Y-11495698D01*
X10767206Y-11495698D02*
X10786253Y-11486174D01*
X10786253Y-11486174D02*
X10833872Y-11486174D01*
X10833872Y-11486174D02*
X10852920Y-11495698D01*
X10852920Y-11495698D02*
X10862444Y-11505222D01*
X10862444Y-11505222D02*
X10871968Y-11524269D01*
X10871968Y-11524269D02*
X10871968Y-11571888D01*
X10871968Y-11571888D02*
X10862444Y-11590936D01*
X10862444Y-11590936D02*
X10852920Y-11600460D01*
X10852920Y-11600460D02*
X10833872Y-11609984D01*
X10833872Y-11609984D02*
X10786253Y-11609984D01*
X10786253Y-11609984D02*
X10767206Y-11600460D01*
X10767206Y-11600460D02*
X10757682Y-11590936D01*
X10986253Y-11495698D02*
X10967206Y-11486174D01*
X10967206Y-11486174D02*
X10957682Y-11476650D01*
X10957682Y-11476650D02*
X10948158Y-11457603D01*
X10948158Y-11457603D02*
X10948158Y-11448079D01*
X10948158Y-11448079D02*
X10957682Y-11429031D01*
X10957682Y-11429031D02*
X10967206Y-11419508D01*
X10967206Y-11419508D02*
X10986253Y-11409984D01*
X10986253Y-11409984D02*
X11024349Y-11409984D01*
X11024349Y-11409984D02*
X11043396Y-11419508D01*
X11043396Y-11419508D02*
X11052920Y-11429031D01*
X11052920Y-11429031D02*
X11062444Y-11448079D01*
X11062444Y-11448079D02*
X11062444Y-11457603D01*
X11062444Y-11457603D02*
X11052920Y-11476650D01*
X11052920Y-11476650D02*
X11043396Y-11486174D01*
X11043396Y-11486174D02*
X11024349Y-11495698D01*
X11024349Y-11495698D02*
X10986253Y-11495698D01*
X10986253Y-11495698D02*
X10967206Y-11505222D01*
X10967206Y-11505222D02*
X10957682Y-11514746D01*
X10957682Y-11514746D02*
X10948158Y-11533793D01*
X10948158Y-11533793D02*
X10948158Y-11571888D01*
X10948158Y-11571888D02*
X10957682Y-11590936D01*
X10957682Y-11590936D02*
X10967206Y-11600460D01*
X10967206Y-11600460D02*
X10986253Y-11609984D01*
X10986253Y-11609984D02*
X11024349Y-11609984D01*
X11024349Y-11609984D02*
X11043396Y-11600460D01*
X11043396Y-11600460D02*
X11052920Y-11590936D01*
X11052920Y-11590936D02*
X11062444Y-11571888D01*
X11062444Y-11571888D02*
X11062444Y-11533793D01*
X11062444Y-11533793D02*
X11052920Y-11514746D01*
X11052920Y-11514746D02*
X11043396Y-11505222D01*
X11043396Y-11505222D02*
X11024349Y-11495698D01*
X11138634Y-11409984D02*
X11138634Y-11448079D01*
X11214825Y-11409984D02*
X11214825Y-11448079D01*
X11510063Y-11686174D02*
X11500539Y-11676650D01*
X11500539Y-11676650D02*
X11481491Y-11648079D01*
X11481491Y-11648079D02*
X11471968Y-11629031D01*
X11471968Y-11629031D02*
X11462444Y-11600460D01*
X11462444Y-11600460D02*
X11452920Y-11552841D01*
X11452920Y-11552841D02*
X11452920Y-11514746D01*
X11452920Y-11514746D02*
X11462444Y-11467127D01*
X11462444Y-11467127D02*
X11471968Y-11438555D01*
X11471968Y-11438555D02*
X11481491Y-11419508D01*
X11481491Y-11419508D02*
X11500539Y-11390936D01*
X11500539Y-11390936D02*
X11510063Y-11381412D01*
X11576729Y-11429031D02*
X11586253Y-11419508D01*
X11586253Y-11419508D02*
X11605301Y-11409984D01*
X11605301Y-11409984D02*
X11652920Y-11409984D01*
X11652920Y-11409984D02*
X11671968Y-11419508D01*
X11671968Y-11419508D02*
X11681491Y-11429031D01*
X11681491Y-11429031D02*
X11691015Y-11448079D01*
X11691015Y-11448079D02*
X11691015Y-11467127D01*
X11691015Y-11467127D02*
X11681491Y-11495698D01*
X11681491Y-11495698D02*
X11567206Y-11609984D01*
X11567206Y-11609984D02*
X11691015Y-11609984D01*
X11929110Y-11609984D02*
X11929110Y-11409984D01*
X12014825Y-11609984D02*
X12014825Y-11505222D01*
X12014825Y-11505222D02*
X12005301Y-11486174D01*
X12005301Y-11486174D02*
X11986253Y-11476650D01*
X11986253Y-11476650D02*
X11957682Y-11476650D01*
X11957682Y-11476650D02*
X11938634Y-11486174D01*
X11938634Y-11486174D02*
X11929110Y-11495698D01*
X12138634Y-11609984D02*
X12119587Y-11600460D01*
X12119587Y-11600460D02*
X12110063Y-11590936D01*
X12110063Y-11590936D02*
X12100539Y-11571888D01*
X12100539Y-11571888D02*
X12100539Y-11514746D01*
X12100539Y-11514746D02*
X12110063Y-11495698D01*
X12110063Y-11495698D02*
X12119587Y-11486174D01*
X12119587Y-11486174D02*
X12138634Y-11476650D01*
X12138634Y-11476650D02*
X12167206Y-11476650D01*
X12167206Y-11476650D02*
X12186253Y-11486174D01*
X12186253Y-11486174D02*
X12195777Y-11495698D01*
X12195777Y-11495698D02*
X12205301Y-11514746D01*
X12205301Y-11514746D02*
X12205301Y-11571888D01*
X12205301Y-11571888D02*
X12195777Y-11590936D01*
X12195777Y-11590936D02*
X12186253Y-11600460D01*
X12186253Y-11600460D02*
X12167206Y-11609984D01*
X12167206Y-11609984D02*
X12138634Y-11609984D01*
X12319587Y-11609984D02*
X12300539Y-11600460D01*
X12300539Y-11600460D02*
X12291015Y-11581412D01*
X12291015Y-11581412D02*
X12291015Y-11409984D01*
X12471968Y-11600460D02*
X12452920Y-11609984D01*
X12452920Y-11609984D02*
X12414825Y-11609984D01*
X12414825Y-11609984D02*
X12395777Y-11600460D01*
X12395777Y-11600460D02*
X12386253Y-11581412D01*
X12386253Y-11581412D02*
X12386253Y-11505222D01*
X12386253Y-11505222D02*
X12395777Y-11486174D01*
X12395777Y-11486174D02*
X12414825Y-11476650D01*
X12414825Y-11476650D02*
X12452920Y-11476650D01*
X12452920Y-11476650D02*
X12471968Y-11486174D01*
X12471968Y-11486174D02*
X12481491Y-11505222D01*
X12481491Y-11505222D02*
X12481491Y-11524269D01*
X12481491Y-11524269D02*
X12386253Y-11543317D01*
X12557682Y-11600460D02*
X12576730Y-11609984D01*
X12576730Y-11609984D02*
X12614825Y-11609984D01*
X12614825Y-11609984D02*
X12633872Y-11600460D01*
X12633872Y-11600460D02*
X12643396Y-11581412D01*
X12643396Y-11581412D02*
X12643396Y-11571888D01*
X12643396Y-11571888D02*
X12633872Y-11552841D01*
X12633872Y-11552841D02*
X12614825Y-11543317D01*
X12614825Y-11543317D02*
X12586253Y-11543317D01*
X12586253Y-11543317D02*
X12567206Y-11533793D01*
X12567206Y-11533793D02*
X12557682Y-11514746D01*
X12557682Y-11514746D02*
X12557682Y-11505222D01*
X12557682Y-11505222D02*
X12567206Y-11486174D01*
X12567206Y-11486174D02*
X12586253Y-11476650D01*
X12586253Y-11476650D02*
X12614825Y-11476650D01*
X12614825Y-11476650D02*
X12633872Y-11486174D01*
X12710063Y-11686174D02*
X12719587Y-11676650D01*
X12719587Y-11676650D02*
X12738634Y-11648079D01*
X12738634Y-11648079D02*
X12748158Y-11629031D01*
X12748158Y-11629031D02*
X12757682Y-11600460D01*
X12757682Y-11600460D02*
X12767206Y-11552841D01*
X12767206Y-11552841D02*
X12767206Y-11514746D01*
X12767206Y-11514746D02*
X12757682Y-11467127D01*
X12757682Y-11467127D02*
X12748158Y-11438555D01*
X12748158Y-11438555D02*
X12738634Y-11419508D01*
X12738634Y-11419508D02*
X12719587Y-11390936D01*
X12719587Y-11390936D02*
X12710063Y-11381412D01*
X13071968Y-11686174D02*
X13062444Y-11676650D01*
X13062444Y-11676650D02*
X13043396Y-11648079D01*
X13043396Y-11648079D02*
X13033872Y-11629031D01*
X13033872Y-11629031D02*
X13024349Y-11600460D01*
X13024349Y-11600460D02*
X13014825Y-11552841D01*
X13014825Y-11552841D02*
X13014825Y-11514746D01*
X13014825Y-11514746D02*
X13024349Y-11467127D01*
X13024349Y-11467127D02*
X13033872Y-11438555D01*
X13033872Y-11438555D02*
X13043396Y-11419508D01*
X13043396Y-11419508D02*
X13062444Y-11390936D01*
X13062444Y-11390936D02*
X13071968Y-11381412D01*
X13148158Y-11476650D02*
X13148158Y-11609984D01*
X13148158Y-11495698D02*
X13157682Y-11486174D01*
X13157682Y-11486174D02*
X13176730Y-11476650D01*
X13176730Y-11476650D02*
X13205301Y-11476650D01*
X13205301Y-11476650D02*
X13224349Y-11486174D01*
X13224349Y-11486174D02*
X13233872Y-11505222D01*
X13233872Y-11505222D02*
X13233872Y-11609984D01*
X13357682Y-11609984D02*
X13338634Y-11600460D01*
X13338634Y-11600460D02*
X13329111Y-11590936D01*
X13329111Y-11590936D02*
X13319587Y-11571888D01*
X13319587Y-11571888D02*
X13319587Y-11514746D01*
X13319587Y-11514746D02*
X13329111Y-11495698D01*
X13329111Y-11495698D02*
X13338634Y-11486174D01*
X13338634Y-11486174D02*
X13357682Y-11476650D01*
X13357682Y-11476650D02*
X13386253Y-11476650D01*
X13386253Y-11476650D02*
X13405301Y-11486174D01*
X13405301Y-11486174D02*
X13414825Y-11495698D01*
X13414825Y-11495698D02*
X13424349Y-11514746D01*
X13424349Y-11514746D02*
X13424349Y-11571888D01*
X13424349Y-11571888D02*
X13414825Y-11590936D01*
X13414825Y-11590936D02*
X13405301Y-11600460D01*
X13405301Y-11600460D02*
X13386253Y-11609984D01*
X13386253Y-11609984D02*
X13357682Y-11609984D01*
X13481492Y-11476650D02*
X13557682Y-11476650D01*
X13510063Y-11409984D02*
X13510063Y-11581412D01*
X13510063Y-11581412D02*
X13519587Y-11600460D01*
X13519587Y-11600460D02*
X13538634Y-11609984D01*
X13538634Y-11609984D02*
X13557682Y-11609984D01*
X13776730Y-11476650D02*
X13776730Y-11676650D01*
X13776730Y-11486174D02*
X13795777Y-11476650D01*
X13795777Y-11476650D02*
X13833873Y-11476650D01*
X13833873Y-11476650D02*
X13852920Y-11486174D01*
X13852920Y-11486174D02*
X13862444Y-11495698D01*
X13862444Y-11495698D02*
X13871968Y-11514746D01*
X13871968Y-11514746D02*
X13871968Y-11571888D01*
X13871968Y-11571888D02*
X13862444Y-11590936D01*
X13862444Y-11590936D02*
X13852920Y-11600460D01*
X13852920Y-11600460D02*
X13833873Y-11609984D01*
X13833873Y-11609984D02*
X13795777Y-11609984D01*
X13795777Y-11609984D02*
X13776730Y-11600460D01*
X13986253Y-11609984D02*
X13967206Y-11600460D01*
X13967206Y-11600460D02*
X13957682Y-11581412D01*
X13957682Y-11581412D02*
X13957682Y-11409984D01*
X14148158Y-11609984D02*
X14148158Y-11505222D01*
X14148158Y-11505222D02*
X14138634Y-11486174D01*
X14138634Y-11486174D02*
X14119587Y-11476650D01*
X14119587Y-11476650D02*
X14081492Y-11476650D01*
X14081492Y-11476650D02*
X14062444Y-11486174D01*
X14148158Y-11600460D02*
X14129111Y-11609984D01*
X14129111Y-11609984D02*
X14081492Y-11609984D01*
X14081492Y-11609984D02*
X14062444Y-11600460D01*
X14062444Y-11600460D02*
X14052920Y-11581412D01*
X14052920Y-11581412D02*
X14052920Y-11562365D01*
X14052920Y-11562365D02*
X14062444Y-11543317D01*
X14062444Y-11543317D02*
X14081492Y-11533793D01*
X14081492Y-11533793D02*
X14129111Y-11533793D01*
X14129111Y-11533793D02*
X14148158Y-11524269D01*
X14214825Y-11476650D02*
X14291015Y-11476650D01*
X14243396Y-11409984D02*
X14243396Y-11581412D01*
X14243396Y-11581412D02*
X14252920Y-11600460D01*
X14252920Y-11600460D02*
X14271968Y-11609984D01*
X14271968Y-11609984D02*
X14291015Y-11609984D01*
X14433873Y-11600460D02*
X14414825Y-11609984D01*
X14414825Y-11609984D02*
X14376730Y-11609984D01*
X14376730Y-11609984D02*
X14357682Y-11600460D01*
X14357682Y-11600460D02*
X14348158Y-11581412D01*
X14348158Y-11581412D02*
X14348158Y-11505222D01*
X14348158Y-11505222D02*
X14357682Y-11486174D01*
X14357682Y-11486174D02*
X14376730Y-11476650D01*
X14376730Y-11476650D02*
X14414825Y-11476650D01*
X14414825Y-11476650D02*
X14433873Y-11486174D01*
X14433873Y-11486174D02*
X14443396Y-11505222D01*
X14443396Y-11505222D02*
X14443396Y-11524269D01*
X14443396Y-11524269D02*
X14348158Y-11543317D01*
X14614825Y-11609984D02*
X14614825Y-11409984D01*
X14614825Y-11600460D02*
X14595777Y-11609984D01*
X14595777Y-11609984D02*
X14557682Y-11609984D01*
X14557682Y-11609984D02*
X14538634Y-11600460D01*
X14538634Y-11600460D02*
X14529111Y-11590936D01*
X14529111Y-11590936D02*
X14519587Y-11571888D01*
X14519587Y-11571888D02*
X14519587Y-11514746D01*
X14519587Y-11514746D02*
X14529111Y-11495698D01*
X14529111Y-11495698D02*
X14538634Y-11486174D01*
X14538634Y-11486174D02*
X14557682Y-11476650D01*
X14557682Y-11476650D02*
X14595777Y-11476650D01*
X14595777Y-11476650D02*
X14614825Y-11486174D01*
X14691015Y-11686174D02*
X14700539Y-11676650D01*
X14700539Y-11676650D02*
X14719587Y-11648079D01*
X14719587Y-11648079D02*
X14729111Y-11629031D01*
X14729111Y-11629031D02*
X14738634Y-11600460D01*
X14738634Y-11600460D02*
X14748158Y-11552841D01*
X14748158Y-11552841D02*
X14748158Y-11514746D01*
X14748158Y-11514746D02*
X14738634Y-11467127D01*
X14738634Y-11467127D02*
X14729111Y-11438555D01*
X14729111Y-11438555D02*
X14719587Y-11419508D01*
X14719587Y-11419508D02*
X14700539Y-11390936D01*
X14700539Y-11390936D02*
X14691015Y-11381412D01*
M02*
